%
M48
M72
T01C0.01400
T02C0.02362
T03C0.03150
T04C0.03200
T05C0.03500
T06C0.03937
T07C0.04000
T08C0.11811
T09C0.12800
%
T01
X275100Y105100
X271350Y105100
X267600Y105100
X267600Y108850
X267600Y112600
X267600Y116350
X271350Y116350
X271350Y112600
X271350Y108850
X275100Y108850
X275100Y112600
X275100Y116350
X275100Y120100
X271350Y120100
X267600Y120100
X121350Y120100
X117600Y120100
X113850Y120100
X113850Y116350
X113850Y112600
X113850Y108850
X117600Y108850
X117600Y112600
X117600Y116350
X121350Y116350
X121350Y112600
X121350Y108850
X121350Y105100
X117600Y105100
X113850Y105100
T02
X282600Y90100
X287600Y95100
X260100Y95100
X250100Y90100
X287600Y127600
X337600Y132600
X337600Y185100
X135100Y90100
X130100Y95100
X106350Y97600
X100100Y90100
T03
X117256Y192600
X117256Y202600
X117256Y212600
T04
X46850Y130100
X80850Y130100
X214350Y138850
X248350Y138850
T05
X70100Y45100
X78100Y45100
X86100Y45100
X94100Y45100
X90100Y52100
X82100Y52100
X74100Y52100
X66100Y52100
X147600Y45100
X155600Y45100
X163600Y45100
X171600Y45100
X167600Y52100
X159600Y52100
X151600Y52100
X143600Y52100
X222600Y45100
X230600Y45100
X238600Y45100
X234600Y52100
X226600Y52100
X218600Y52100
X242600Y52100
X246600Y45100
X297600Y45100
X305600Y45100
X313600Y45100
X321600Y45100
X317600Y52100
X309600Y52100
X301600Y52100
X293600Y52100
T06
X373725Y90100
X373725Y100100
X373212Y129487
X373212Y139488
X298850Y173850
X288850Y173850
X278850Y173850
X268850Y173850
X198850Y173850
X188850Y173850
X178850Y173850
X168850Y173850
X168850Y193850
X168850Y203850
X168850Y233850
X178850Y233850
X188850Y233850
X198850Y233850
X143850Y253850
X133850Y253850
X111350Y253850
X101350Y253850
X75100Y253850
X65100Y253850
X268850Y233850
X278850Y233850
X288850Y233850
X298850Y233850
T07
X55100Y215100
X75100Y215100
T08
X21325Y21325
X363112Y21400
X363800Y243800
X21325Y243875
T09
X55100Y35100
X105100Y35100
X132600Y35100
X182600Y35100
X207600Y35100
X257600Y35100
X282600Y35100
X332600Y35100
M30
