G75*
%MOIN*%
%OFA0B0*%
%FSLAX25Y25*%
%IPPOS*%
%LPD*%
%AMOC8*
5,1,8,0,0,1.08239X$1,22.5*
%
%ADD10C,0.00000*%
%ADD11C,0.00300*%
%ADD12C,0.00200*%
%ADD13C,0.00800*%
%ADD14C,0.00500*%
%ADD15C,0.00600*%
%ADD16R,0.02500X0.09000*%
%ADD17C,0.00400*%
%ADD18R,0.00591X0.01181*%
%ADD19R,0.01181X0.01181*%
%ADD20R,0.03400X0.02400*%
%ADD21R,0.02559X0.05512*%
%ADD22C,0.00100*%
%ADD23C,0.00799*%
D10*
X0002600Y0002600D02*
X0002600Y0262561D01*
X0382551Y0262561D01*
X0382551Y0002600D01*
X0002600Y0002600D01*
X0048700Y0035100D02*
X0048702Y0035260D01*
X0048708Y0035419D01*
X0048718Y0035578D01*
X0048732Y0035737D01*
X0048750Y0035896D01*
X0048771Y0036054D01*
X0048797Y0036211D01*
X0048827Y0036368D01*
X0048860Y0036524D01*
X0048898Y0036679D01*
X0048939Y0036833D01*
X0048984Y0036986D01*
X0049033Y0037138D01*
X0049086Y0037289D01*
X0049142Y0037438D01*
X0049203Y0037586D01*
X0049266Y0037732D01*
X0049334Y0037877D01*
X0049405Y0038020D01*
X0049479Y0038161D01*
X0049557Y0038300D01*
X0049639Y0038437D01*
X0049724Y0038572D01*
X0049812Y0038705D01*
X0049904Y0038836D01*
X0049998Y0038964D01*
X0050096Y0039090D01*
X0050197Y0039214D01*
X0050301Y0039335D01*
X0050408Y0039453D01*
X0050518Y0039569D01*
X0050631Y0039682D01*
X0050747Y0039792D01*
X0050865Y0039899D01*
X0050986Y0040003D01*
X0051110Y0040104D01*
X0051236Y0040202D01*
X0051364Y0040296D01*
X0051495Y0040388D01*
X0051628Y0040476D01*
X0051763Y0040561D01*
X0051900Y0040643D01*
X0052039Y0040721D01*
X0052180Y0040795D01*
X0052323Y0040866D01*
X0052468Y0040934D01*
X0052614Y0040997D01*
X0052762Y0041058D01*
X0052911Y0041114D01*
X0053062Y0041167D01*
X0053214Y0041216D01*
X0053367Y0041261D01*
X0053521Y0041302D01*
X0053676Y0041340D01*
X0053832Y0041373D01*
X0053989Y0041403D01*
X0054146Y0041429D01*
X0054304Y0041450D01*
X0054463Y0041468D01*
X0054622Y0041482D01*
X0054781Y0041492D01*
X0054940Y0041498D01*
X0055100Y0041500D01*
X0055260Y0041498D01*
X0055419Y0041492D01*
X0055578Y0041482D01*
X0055737Y0041468D01*
X0055896Y0041450D01*
X0056054Y0041429D01*
X0056211Y0041403D01*
X0056368Y0041373D01*
X0056524Y0041340D01*
X0056679Y0041302D01*
X0056833Y0041261D01*
X0056986Y0041216D01*
X0057138Y0041167D01*
X0057289Y0041114D01*
X0057438Y0041058D01*
X0057586Y0040997D01*
X0057732Y0040934D01*
X0057877Y0040866D01*
X0058020Y0040795D01*
X0058161Y0040721D01*
X0058300Y0040643D01*
X0058437Y0040561D01*
X0058572Y0040476D01*
X0058705Y0040388D01*
X0058836Y0040296D01*
X0058964Y0040202D01*
X0059090Y0040104D01*
X0059214Y0040003D01*
X0059335Y0039899D01*
X0059453Y0039792D01*
X0059569Y0039682D01*
X0059682Y0039569D01*
X0059792Y0039453D01*
X0059899Y0039335D01*
X0060003Y0039214D01*
X0060104Y0039090D01*
X0060202Y0038964D01*
X0060296Y0038836D01*
X0060388Y0038705D01*
X0060476Y0038572D01*
X0060561Y0038437D01*
X0060643Y0038300D01*
X0060721Y0038161D01*
X0060795Y0038020D01*
X0060866Y0037877D01*
X0060934Y0037732D01*
X0060997Y0037586D01*
X0061058Y0037438D01*
X0061114Y0037289D01*
X0061167Y0037138D01*
X0061216Y0036986D01*
X0061261Y0036833D01*
X0061302Y0036679D01*
X0061340Y0036524D01*
X0061373Y0036368D01*
X0061403Y0036211D01*
X0061429Y0036054D01*
X0061450Y0035896D01*
X0061468Y0035737D01*
X0061482Y0035578D01*
X0061492Y0035419D01*
X0061498Y0035260D01*
X0061500Y0035100D01*
X0061498Y0034940D01*
X0061492Y0034781D01*
X0061482Y0034622D01*
X0061468Y0034463D01*
X0061450Y0034304D01*
X0061429Y0034146D01*
X0061403Y0033989D01*
X0061373Y0033832D01*
X0061340Y0033676D01*
X0061302Y0033521D01*
X0061261Y0033367D01*
X0061216Y0033214D01*
X0061167Y0033062D01*
X0061114Y0032911D01*
X0061058Y0032762D01*
X0060997Y0032614D01*
X0060934Y0032468D01*
X0060866Y0032323D01*
X0060795Y0032180D01*
X0060721Y0032039D01*
X0060643Y0031900D01*
X0060561Y0031763D01*
X0060476Y0031628D01*
X0060388Y0031495D01*
X0060296Y0031364D01*
X0060202Y0031236D01*
X0060104Y0031110D01*
X0060003Y0030986D01*
X0059899Y0030865D01*
X0059792Y0030747D01*
X0059682Y0030631D01*
X0059569Y0030518D01*
X0059453Y0030408D01*
X0059335Y0030301D01*
X0059214Y0030197D01*
X0059090Y0030096D01*
X0058964Y0029998D01*
X0058836Y0029904D01*
X0058705Y0029812D01*
X0058572Y0029724D01*
X0058437Y0029639D01*
X0058300Y0029557D01*
X0058161Y0029479D01*
X0058020Y0029405D01*
X0057877Y0029334D01*
X0057732Y0029266D01*
X0057586Y0029203D01*
X0057438Y0029142D01*
X0057289Y0029086D01*
X0057138Y0029033D01*
X0056986Y0028984D01*
X0056833Y0028939D01*
X0056679Y0028898D01*
X0056524Y0028860D01*
X0056368Y0028827D01*
X0056211Y0028797D01*
X0056054Y0028771D01*
X0055896Y0028750D01*
X0055737Y0028732D01*
X0055578Y0028718D01*
X0055419Y0028708D01*
X0055260Y0028702D01*
X0055100Y0028700D01*
X0054940Y0028702D01*
X0054781Y0028708D01*
X0054622Y0028718D01*
X0054463Y0028732D01*
X0054304Y0028750D01*
X0054146Y0028771D01*
X0053989Y0028797D01*
X0053832Y0028827D01*
X0053676Y0028860D01*
X0053521Y0028898D01*
X0053367Y0028939D01*
X0053214Y0028984D01*
X0053062Y0029033D01*
X0052911Y0029086D01*
X0052762Y0029142D01*
X0052614Y0029203D01*
X0052468Y0029266D01*
X0052323Y0029334D01*
X0052180Y0029405D01*
X0052039Y0029479D01*
X0051900Y0029557D01*
X0051763Y0029639D01*
X0051628Y0029724D01*
X0051495Y0029812D01*
X0051364Y0029904D01*
X0051236Y0029998D01*
X0051110Y0030096D01*
X0050986Y0030197D01*
X0050865Y0030301D01*
X0050747Y0030408D01*
X0050631Y0030518D01*
X0050518Y0030631D01*
X0050408Y0030747D01*
X0050301Y0030865D01*
X0050197Y0030986D01*
X0050096Y0031110D01*
X0049998Y0031236D01*
X0049904Y0031364D01*
X0049812Y0031495D01*
X0049724Y0031628D01*
X0049639Y0031763D01*
X0049557Y0031900D01*
X0049479Y0032039D01*
X0049405Y0032180D01*
X0049334Y0032323D01*
X0049266Y0032468D01*
X0049203Y0032614D01*
X0049142Y0032762D01*
X0049086Y0032911D01*
X0049033Y0033062D01*
X0048984Y0033214D01*
X0048939Y0033367D01*
X0048898Y0033521D01*
X0048860Y0033676D01*
X0048827Y0033832D01*
X0048797Y0033989D01*
X0048771Y0034146D01*
X0048750Y0034304D01*
X0048732Y0034463D01*
X0048718Y0034622D01*
X0048708Y0034781D01*
X0048702Y0034940D01*
X0048700Y0035100D01*
X0098700Y0035100D02*
X0098702Y0035260D01*
X0098708Y0035419D01*
X0098718Y0035578D01*
X0098732Y0035737D01*
X0098750Y0035896D01*
X0098771Y0036054D01*
X0098797Y0036211D01*
X0098827Y0036368D01*
X0098860Y0036524D01*
X0098898Y0036679D01*
X0098939Y0036833D01*
X0098984Y0036986D01*
X0099033Y0037138D01*
X0099086Y0037289D01*
X0099142Y0037438D01*
X0099203Y0037586D01*
X0099266Y0037732D01*
X0099334Y0037877D01*
X0099405Y0038020D01*
X0099479Y0038161D01*
X0099557Y0038300D01*
X0099639Y0038437D01*
X0099724Y0038572D01*
X0099812Y0038705D01*
X0099904Y0038836D01*
X0099998Y0038964D01*
X0100096Y0039090D01*
X0100197Y0039214D01*
X0100301Y0039335D01*
X0100408Y0039453D01*
X0100518Y0039569D01*
X0100631Y0039682D01*
X0100747Y0039792D01*
X0100865Y0039899D01*
X0100986Y0040003D01*
X0101110Y0040104D01*
X0101236Y0040202D01*
X0101364Y0040296D01*
X0101495Y0040388D01*
X0101628Y0040476D01*
X0101763Y0040561D01*
X0101900Y0040643D01*
X0102039Y0040721D01*
X0102180Y0040795D01*
X0102323Y0040866D01*
X0102468Y0040934D01*
X0102614Y0040997D01*
X0102762Y0041058D01*
X0102911Y0041114D01*
X0103062Y0041167D01*
X0103214Y0041216D01*
X0103367Y0041261D01*
X0103521Y0041302D01*
X0103676Y0041340D01*
X0103832Y0041373D01*
X0103989Y0041403D01*
X0104146Y0041429D01*
X0104304Y0041450D01*
X0104463Y0041468D01*
X0104622Y0041482D01*
X0104781Y0041492D01*
X0104940Y0041498D01*
X0105100Y0041500D01*
X0105260Y0041498D01*
X0105419Y0041492D01*
X0105578Y0041482D01*
X0105737Y0041468D01*
X0105896Y0041450D01*
X0106054Y0041429D01*
X0106211Y0041403D01*
X0106368Y0041373D01*
X0106524Y0041340D01*
X0106679Y0041302D01*
X0106833Y0041261D01*
X0106986Y0041216D01*
X0107138Y0041167D01*
X0107289Y0041114D01*
X0107438Y0041058D01*
X0107586Y0040997D01*
X0107732Y0040934D01*
X0107877Y0040866D01*
X0108020Y0040795D01*
X0108161Y0040721D01*
X0108300Y0040643D01*
X0108437Y0040561D01*
X0108572Y0040476D01*
X0108705Y0040388D01*
X0108836Y0040296D01*
X0108964Y0040202D01*
X0109090Y0040104D01*
X0109214Y0040003D01*
X0109335Y0039899D01*
X0109453Y0039792D01*
X0109569Y0039682D01*
X0109682Y0039569D01*
X0109792Y0039453D01*
X0109899Y0039335D01*
X0110003Y0039214D01*
X0110104Y0039090D01*
X0110202Y0038964D01*
X0110296Y0038836D01*
X0110388Y0038705D01*
X0110476Y0038572D01*
X0110561Y0038437D01*
X0110643Y0038300D01*
X0110721Y0038161D01*
X0110795Y0038020D01*
X0110866Y0037877D01*
X0110934Y0037732D01*
X0110997Y0037586D01*
X0111058Y0037438D01*
X0111114Y0037289D01*
X0111167Y0037138D01*
X0111216Y0036986D01*
X0111261Y0036833D01*
X0111302Y0036679D01*
X0111340Y0036524D01*
X0111373Y0036368D01*
X0111403Y0036211D01*
X0111429Y0036054D01*
X0111450Y0035896D01*
X0111468Y0035737D01*
X0111482Y0035578D01*
X0111492Y0035419D01*
X0111498Y0035260D01*
X0111500Y0035100D01*
X0111498Y0034940D01*
X0111492Y0034781D01*
X0111482Y0034622D01*
X0111468Y0034463D01*
X0111450Y0034304D01*
X0111429Y0034146D01*
X0111403Y0033989D01*
X0111373Y0033832D01*
X0111340Y0033676D01*
X0111302Y0033521D01*
X0111261Y0033367D01*
X0111216Y0033214D01*
X0111167Y0033062D01*
X0111114Y0032911D01*
X0111058Y0032762D01*
X0110997Y0032614D01*
X0110934Y0032468D01*
X0110866Y0032323D01*
X0110795Y0032180D01*
X0110721Y0032039D01*
X0110643Y0031900D01*
X0110561Y0031763D01*
X0110476Y0031628D01*
X0110388Y0031495D01*
X0110296Y0031364D01*
X0110202Y0031236D01*
X0110104Y0031110D01*
X0110003Y0030986D01*
X0109899Y0030865D01*
X0109792Y0030747D01*
X0109682Y0030631D01*
X0109569Y0030518D01*
X0109453Y0030408D01*
X0109335Y0030301D01*
X0109214Y0030197D01*
X0109090Y0030096D01*
X0108964Y0029998D01*
X0108836Y0029904D01*
X0108705Y0029812D01*
X0108572Y0029724D01*
X0108437Y0029639D01*
X0108300Y0029557D01*
X0108161Y0029479D01*
X0108020Y0029405D01*
X0107877Y0029334D01*
X0107732Y0029266D01*
X0107586Y0029203D01*
X0107438Y0029142D01*
X0107289Y0029086D01*
X0107138Y0029033D01*
X0106986Y0028984D01*
X0106833Y0028939D01*
X0106679Y0028898D01*
X0106524Y0028860D01*
X0106368Y0028827D01*
X0106211Y0028797D01*
X0106054Y0028771D01*
X0105896Y0028750D01*
X0105737Y0028732D01*
X0105578Y0028718D01*
X0105419Y0028708D01*
X0105260Y0028702D01*
X0105100Y0028700D01*
X0104940Y0028702D01*
X0104781Y0028708D01*
X0104622Y0028718D01*
X0104463Y0028732D01*
X0104304Y0028750D01*
X0104146Y0028771D01*
X0103989Y0028797D01*
X0103832Y0028827D01*
X0103676Y0028860D01*
X0103521Y0028898D01*
X0103367Y0028939D01*
X0103214Y0028984D01*
X0103062Y0029033D01*
X0102911Y0029086D01*
X0102762Y0029142D01*
X0102614Y0029203D01*
X0102468Y0029266D01*
X0102323Y0029334D01*
X0102180Y0029405D01*
X0102039Y0029479D01*
X0101900Y0029557D01*
X0101763Y0029639D01*
X0101628Y0029724D01*
X0101495Y0029812D01*
X0101364Y0029904D01*
X0101236Y0029998D01*
X0101110Y0030096D01*
X0100986Y0030197D01*
X0100865Y0030301D01*
X0100747Y0030408D01*
X0100631Y0030518D01*
X0100518Y0030631D01*
X0100408Y0030747D01*
X0100301Y0030865D01*
X0100197Y0030986D01*
X0100096Y0031110D01*
X0099998Y0031236D01*
X0099904Y0031364D01*
X0099812Y0031495D01*
X0099724Y0031628D01*
X0099639Y0031763D01*
X0099557Y0031900D01*
X0099479Y0032039D01*
X0099405Y0032180D01*
X0099334Y0032323D01*
X0099266Y0032468D01*
X0099203Y0032614D01*
X0099142Y0032762D01*
X0099086Y0032911D01*
X0099033Y0033062D01*
X0098984Y0033214D01*
X0098939Y0033367D01*
X0098898Y0033521D01*
X0098860Y0033676D01*
X0098827Y0033832D01*
X0098797Y0033989D01*
X0098771Y0034146D01*
X0098750Y0034304D01*
X0098732Y0034463D01*
X0098718Y0034622D01*
X0098708Y0034781D01*
X0098702Y0034940D01*
X0098700Y0035100D01*
X0126200Y0035100D02*
X0126202Y0035260D01*
X0126208Y0035419D01*
X0126218Y0035578D01*
X0126232Y0035737D01*
X0126250Y0035896D01*
X0126271Y0036054D01*
X0126297Y0036211D01*
X0126327Y0036368D01*
X0126360Y0036524D01*
X0126398Y0036679D01*
X0126439Y0036833D01*
X0126484Y0036986D01*
X0126533Y0037138D01*
X0126586Y0037289D01*
X0126642Y0037438D01*
X0126703Y0037586D01*
X0126766Y0037732D01*
X0126834Y0037877D01*
X0126905Y0038020D01*
X0126979Y0038161D01*
X0127057Y0038300D01*
X0127139Y0038437D01*
X0127224Y0038572D01*
X0127312Y0038705D01*
X0127404Y0038836D01*
X0127498Y0038964D01*
X0127596Y0039090D01*
X0127697Y0039214D01*
X0127801Y0039335D01*
X0127908Y0039453D01*
X0128018Y0039569D01*
X0128131Y0039682D01*
X0128247Y0039792D01*
X0128365Y0039899D01*
X0128486Y0040003D01*
X0128610Y0040104D01*
X0128736Y0040202D01*
X0128864Y0040296D01*
X0128995Y0040388D01*
X0129128Y0040476D01*
X0129263Y0040561D01*
X0129400Y0040643D01*
X0129539Y0040721D01*
X0129680Y0040795D01*
X0129823Y0040866D01*
X0129968Y0040934D01*
X0130114Y0040997D01*
X0130262Y0041058D01*
X0130411Y0041114D01*
X0130562Y0041167D01*
X0130714Y0041216D01*
X0130867Y0041261D01*
X0131021Y0041302D01*
X0131176Y0041340D01*
X0131332Y0041373D01*
X0131489Y0041403D01*
X0131646Y0041429D01*
X0131804Y0041450D01*
X0131963Y0041468D01*
X0132122Y0041482D01*
X0132281Y0041492D01*
X0132440Y0041498D01*
X0132600Y0041500D01*
X0132760Y0041498D01*
X0132919Y0041492D01*
X0133078Y0041482D01*
X0133237Y0041468D01*
X0133396Y0041450D01*
X0133554Y0041429D01*
X0133711Y0041403D01*
X0133868Y0041373D01*
X0134024Y0041340D01*
X0134179Y0041302D01*
X0134333Y0041261D01*
X0134486Y0041216D01*
X0134638Y0041167D01*
X0134789Y0041114D01*
X0134938Y0041058D01*
X0135086Y0040997D01*
X0135232Y0040934D01*
X0135377Y0040866D01*
X0135520Y0040795D01*
X0135661Y0040721D01*
X0135800Y0040643D01*
X0135937Y0040561D01*
X0136072Y0040476D01*
X0136205Y0040388D01*
X0136336Y0040296D01*
X0136464Y0040202D01*
X0136590Y0040104D01*
X0136714Y0040003D01*
X0136835Y0039899D01*
X0136953Y0039792D01*
X0137069Y0039682D01*
X0137182Y0039569D01*
X0137292Y0039453D01*
X0137399Y0039335D01*
X0137503Y0039214D01*
X0137604Y0039090D01*
X0137702Y0038964D01*
X0137796Y0038836D01*
X0137888Y0038705D01*
X0137976Y0038572D01*
X0138061Y0038437D01*
X0138143Y0038300D01*
X0138221Y0038161D01*
X0138295Y0038020D01*
X0138366Y0037877D01*
X0138434Y0037732D01*
X0138497Y0037586D01*
X0138558Y0037438D01*
X0138614Y0037289D01*
X0138667Y0037138D01*
X0138716Y0036986D01*
X0138761Y0036833D01*
X0138802Y0036679D01*
X0138840Y0036524D01*
X0138873Y0036368D01*
X0138903Y0036211D01*
X0138929Y0036054D01*
X0138950Y0035896D01*
X0138968Y0035737D01*
X0138982Y0035578D01*
X0138992Y0035419D01*
X0138998Y0035260D01*
X0139000Y0035100D01*
X0138998Y0034940D01*
X0138992Y0034781D01*
X0138982Y0034622D01*
X0138968Y0034463D01*
X0138950Y0034304D01*
X0138929Y0034146D01*
X0138903Y0033989D01*
X0138873Y0033832D01*
X0138840Y0033676D01*
X0138802Y0033521D01*
X0138761Y0033367D01*
X0138716Y0033214D01*
X0138667Y0033062D01*
X0138614Y0032911D01*
X0138558Y0032762D01*
X0138497Y0032614D01*
X0138434Y0032468D01*
X0138366Y0032323D01*
X0138295Y0032180D01*
X0138221Y0032039D01*
X0138143Y0031900D01*
X0138061Y0031763D01*
X0137976Y0031628D01*
X0137888Y0031495D01*
X0137796Y0031364D01*
X0137702Y0031236D01*
X0137604Y0031110D01*
X0137503Y0030986D01*
X0137399Y0030865D01*
X0137292Y0030747D01*
X0137182Y0030631D01*
X0137069Y0030518D01*
X0136953Y0030408D01*
X0136835Y0030301D01*
X0136714Y0030197D01*
X0136590Y0030096D01*
X0136464Y0029998D01*
X0136336Y0029904D01*
X0136205Y0029812D01*
X0136072Y0029724D01*
X0135937Y0029639D01*
X0135800Y0029557D01*
X0135661Y0029479D01*
X0135520Y0029405D01*
X0135377Y0029334D01*
X0135232Y0029266D01*
X0135086Y0029203D01*
X0134938Y0029142D01*
X0134789Y0029086D01*
X0134638Y0029033D01*
X0134486Y0028984D01*
X0134333Y0028939D01*
X0134179Y0028898D01*
X0134024Y0028860D01*
X0133868Y0028827D01*
X0133711Y0028797D01*
X0133554Y0028771D01*
X0133396Y0028750D01*
X0133237Y0028732D01*
X0133078Y0028718D01*
X0132919Y0028708D01*
X0132760Y0028702D01*
X0132600Y0028700D01*
X0132440Y0028702D01*
X0132281Y0028708D01*
X0132122Y0028718D01*
X0131963Y0028732D01*
X0131804Y0028750D01*
X0131646Y0028771D01*
X0131489Y0028797D01*
X0131332Y0028827D01*
X0131176Y0028860D01*
X0131021Y0028898D01*
X0130867Y0028939D01*
X0130714Y0028984D01*
X0130562Y0029033D01*
X0130411Y0029086D01*
X0130262Y0029142D01*
X0130114Y0029203D01*
X0129968Y0029266D01*
X0129823Y0029334D01*
X0129680Y0029405D01*
X0129539Y0029479D01*
X0129400Y0029557D01*
X0129263Y0029639D01*
X0129128Y0029724D01*
X0128995Y0029812D01*
X0128864Y0029904D01*
X0128736Y0029998D01*
X0128610Y0030096D01*
X0128486Y0030197D01*
X0128365Y0030301D01*
X0128247Y0030408D01*
X0128131Y0030518D01*
X0128018Y0030631D01*
X0127908Y0030747D01*
X0127801Y0030865D01*
X0127697Y0030986D01*
X0127596Y0031110D01*
X0127498Y0031236D01*
X0127404Y0031364D01*
X0127312Y0031495D01*
X0127224Y0031628D01*
X0127139Y0031763D01*
X0127057Y0031900D01*
X0126979Y0032039D01*
X0126905Y0032180D01*
X0126834Y0032323D01*
X0126766Y0032468D01*
X0126703Y0032614D01*
X0126642Y0032762D01*
X0126586Y0032911D01*
X0126533Y0033062D01*
X0126484Y0033214D01*
X0126439Y0033367D01*
X0126398Y0033521D01*
X0126360Y0033676D01*
X0126327Y0033832D01*
X0126297Y0033989D01*
X0126271Y0034146D01*
X0126250Y0034304D01*
X0126232Y0034463D01*
X0126218Y0034622D01*
X0126208Y0034781D01*
X0126202Y0034940D01*
X0126200Y0035100D01*
X0176200Y0035100D02*
X0176202Y0035260D01*
X0176208Y0035419D01*
X0176218Y0035578D01*
X0176232Y0035737D01*
X0176250Y0035896D01*
X0176271Y0036054D01*
X0176297Y0036211D01*
X0176327Y0036368D01*
X0176360Y0036524D01*
X0176398Y0036679D01*
X0176439Y0036833D01*
X0176484Y0036986D01*
X0176533Y0037138D01*
X0176586Y0037289D01*
X0176642Y0037438D01*
X0176703Y0037586D01*
X0176766Y0037732D01*
X0176834Y0037877D01*
X0176905Y0038020D01*
X0176979Y0038161D01*
X0177057Y0038300D01*
X0177139Y0038437D01*
X0177224Y0038572D01*
X0177312Y0038705D01*
X0177404Y0038836D01*
X0177498Y0038964D01*
X0177596Y0039090D01*
X0177697Y0039214D01*
X0177801Y0039335D01*
X0177908Y0039453D01*
X0178018Y0039569D01*
X0178131Y0039682D01*
X0178247Y0039792D01*
X0178365Y0039899D01*
X0178486Y0040003D01*
X0178610Y0040104D01*
X0178736Y0040202D01*
X0178864Y0040296D01*
X0178995Y0040388D01*
X0179128Y0040476D01*
X0179263Y0040561D01*
X0179400Y0040643D01*
X0179539Y0040721D01*
X0179680Y0040795D01*
X0179823Y0040866D01*
X0179968Y0040934D01*
X0180114Y0040997D01*
X0180262Y0041058D01*
X0180411Y0041114D01*
X0180562Y0041167D01*
X0180714Y0041216D01*
X0180867Y0041261D01*
X0181021Y0041302D01*
X0181176Y0041340D01*
X0181332Y0041373D01*
X0181489Y0041403D01*
X0181646Y0041429D01*
X0181804Y0041450D01*
X0181963Y0041468D01*
X0182122Y0041482D01*
X0182281Y0041492D01*
X0182440Y0041498D01*
X0182600Y0041500D01*
X0182760Y0041498D01*
X0182919Y0041492D01*
X0183078Y0041482D01*
X0183237Y0041468D01*
X0183396Y0041450D01*
X0183554Y0041429D01*
X0183711Y0041403D01*
X0183868Y0041373D01*
X0184024Y0041340D01*
X0184179Y0041302D01*
X0184333Y0041261D01*
X0184486Y0041216D01*
X0184638Y0041167D01*
X0184789Y0041114D01*
X0184938Y0041058D01*
X0185086Y0040997D01*
X0185232Y0040934D01*
X0185377Y0040866D01*
X0185520Y0040795D01*
X0185661Y0040721D01*
X0185800Y0040643D01*
X0185937Y0040561D01*
X0186072Y0040476D01*
X0186205Y0040388D01*
X0186336Y0040296D01*
X0186464Y0040202D01*
X0186590Y0040104D01*
X0186714Y0040003D01*
X0186835Y0039899D01*
X0186953Y0039792D01*
X0187069Y0039682D01*
X0187182Y0039569D01*
X0187292Y0039453D01*
X0187399Y0039335D01*
X0187503Y0039214D01*
X0187604Y0039090D01*
X0187702Y0038964D01*
X0187796Y0038836D01*
X0187888Y0038705D01*
X0187976Y0038572D01*
X0188061Y0038437D01*
X0188143Y0038300D01*
X0188221Y0038161D01*
X0188295Y0038020D01*
X0188366Y0037877D01*
X0188434Y0037732D01*
X0188497Y0037586D01*
X0188558Y0037438D01*
X0188614Y0037289D01*
X0188667Y0037138D01*
X0188716Y0036986D01*
X0188761Y0036833D01*
X0188802Y0036679D01*
X0188840Y0036524D01*
X0188873Y0036368D01*
X0188903Y0036211D01*
X0188929Y0036054D01*
X0188950Y0035896D01*
X0188968Y0035737D01*
X0188982Y0035578D01*
X0188992Y0035419D01*
X0188998Y0035260D01*
X0189000Y0035100D01*
X0188998Y0034940D01*
X0188992Y0034781D01*
X0188982Y0034622D01*
X0188968Y0034463D01*
X0188950Y0034304D01*
X0188929Y0034146D01*
X0188903Y0033989D01*
X0188873Y0033832D01*
X0188840Y0033676D01*
X0188802Y0033521D01*
X0188761Y0033367D01*
X0188716Y0033214D01*
X0188667Y0033062D01*
X0188614Y0032911D01*
X0188558Y0032762D01*
X0188497Y0032614D01*
X0188434Y0032468D01*
X0188366Y0032323D01*
X0188295Y0032180D01*
X0188221Y0032039D01*
X0188143Y0031900D01*
X0188061Y0031763D01*
X0187976Y0031628D01*
X0187888Y0031495D01*
X0187796Y0031364D01*
X0187702Y0031236D01*
X0187604Y0031110D01*
X0187503Y0030986D01*
X0187399Y0030865D01*
X0187292Y0030747D01*
X0187182Y0030631D01*
X0187069Y0030518D01*
X0186953Y0030408D01*
X0186835Y0030301D01*
X0186714Y0030197D01*
X0186590Y0030096D01*
X0186464Y0029998D01*
X0186336Y0029904D01*
X0186205Y0029812D01*
X0186072Y0029724D01*
X0185937Y0029639D01*
X0185800Y0029557D01*
X0185661Y0029479D01*
X0185520Y0029405D01*
X0185377Y0029334D01*
X0185232Y0029266D01*
X0185086Y0029203D01*
X0184938Y0029142D01*
X0184789Y0029086D01*
X0184638Y0029033D01*
X0184486Y0028984D01*
X0184333Y0028939D01*
X0184179Y0028898D01*
X0184024Y0028860D01*
X0183868Y0028827D01*
X0183711Y0028797D01*
X0183554Y0028771D01*
X0183396Y0028750D01*
X0183237Y0028732D01*
X0183078Y0028718D01*
X0182919Y0028708D01*
X0182760Y0028702D01*
X0182600Y0028700D01*
X0182440Y0028702D01*
X0182281Y0028708D01*
X0182122Y0028718D01*
X0181963Y0028732D01*
X0181804Y0028750D01*
X0181646Y0028771D01*
X0181489Y0028797D01*
X0181332Y0028827D01*
X0181176Y0028860D01*
X0181021Y0028898D01*
X0180867Y0028939D01*
X0180714Y0028984D01*
X0180562Y0029033D01*
X0180411Y0029086D01*
X0180262Y0029142D01*
X0180114Y0029203D01*
X0179968Y0029266D01*
X0179823Y0029334D01*
X0179680Y0029405D01*
X0179539Y0029479D01*
X0179400Y0029557D01*
X0179263Y0029639D01*
X0179128Y0029724D01*
X0178995Y0029812D01*
X0178864Y0029904D01*
X0178736Y0029998D01*
X0178610Y0030096D01*
X0178486Y0030197D01*
X0178365Y0030301D01*
X0178247Y0030408D01*
X0178131Y0030518D01*
X0178018Y0030631D01*
X0177908Y0030747D01*
X0177801Y0030865D01*
X0177697Y0030986D01*
X0177596Y0031110D01*
X0177498Y0031236D01*
X0177404Y0031364D01*
X0177312Y0031495D01*
X0177224Y0031628D01*
X0177139Y0031763D01*
X0177057Y0031900D01*
X0176979Y0032039D01*
X0176905Y0032180D01*
X0176834Y0032323D01*
X0176766Y0032468D01*
X0176703Y0032614D01*
X0176642Y0032762D01*
X0176586Y0032911D01*
X0176533Y0033062D01*
X0176484Y0033214D01*
X0176439Y0033367D01*
X0176398Y0033521D01*
X0176360Y0033676D01*
X0176327Y0033832D01*
X0176297Y0033989D01*
X0176271Y0034146D01*
X0176250Y0034304D01*
X0176232Y0034463D01*
X0176218Y0034622D01*
X0176208Y0034781D01*
X0176202Y0034940D01*
X0176200Y0035100D01*
X0201200Y0035100D02*
X0201202Y0035260D01*
X0201208Y0035419D01*
X0201218Y0035578D01*
X0201232Y0035737D01*
X0201250Y0035896D01*
X0201271Y0036054D01*
X0201297Y0036211D01*
X0201327Y0036368D01*
X0201360Y0036524D01*
X0201398Y0036679D01*
X0201439Y0036833D01*
X0201484Y0036986D01*
X0201533Y0037138D01*
X0201586Y0037289D01*
X0201642Y0037438D01*
X0201703Y0037586D01*
X0201766Y0037732D01*
X0201834Y0037877D01*
X0201905Y0038020D01*
X0201979Y0038161D01*
X0202057Y0038300D01*
X0202139Y0038437D01*
X0202224Y0038572D01*
X0202312Y0038705D01*
X0202404Y0038836D01*
X0202498Y0038964D01*
X0202596Y0039090D01*
X0202697Y0039214D01*
X0202801Y0039335D01*
X0202908Y0039453D01*
X0203018Y0039569D01*
X0203131Y0039682D01*
X0203247Y0039792D01*
X0203365Y0039899D01*
X0203486Y0040003D01*
X0203610Y0040104D01*
X0203736Y0040202D01*
X0203864Y0040296D01*
X0203995Y0040388D01*
X0204128Y0040476D01*
X0204263Y0040561D01*
X0204400Y0040643D01*
X0204539Y0040721D01*
X0204680Y0040795D01*
X0204823Y0040866D01*
X0204968Y0040934D01*
X0205114Y0040997D01*
X0205262Y0041058D01*
X0205411Y0041114D01*
X0205562Y0041167D01*
X0205714Y0041216D01*
X0205867Y0041261D01*
X0206021Y0041302D01*
X0206176Y0041340D01*
X0206332Y0041373D01*
X0206489Y0041403D01*
X0206646Y0041429D01*
X0206804Y0041450D01*
X0206963Y0041468D01*
X0207122Y0041482D01*
X0207281Y0041492D01*
X0207440Y0041498D01*
X0207600Y0041500D01*
X0207760Y0041498D01*
X0207919Y0041492D01*
X0208078Y0041482D01*
X0208237Y0041468D01*
X0208396Y0041450D01*
X0208554Y0041429D01*
X0208711Y0041403D01*
X0208868Y0041373D01*
X0209024Y0041340D01*
X0209179Y0041302D01*
X0209333Y0041261D01*
X0209486Y0041216D01*
X0209638Y0041167D01*
X0209789Y0041114D01*
X0209938Y0041058D01*
X0210086Y0040997D01*
X0210232Y0040934D01*
X0210377Y0040866D01*
X0210520Y0040795D01*
X0210661Y0040721D01*
X0210800Y0040643D01*
X0210937Y0040561D01*
X0211072Y0040476D01*
X0211205Y0040388D01*
X0211336Y0040296D01*
X0211464Y0040202D01*
X0211590Y0040104D01*
X0211714Y0040003D01*
X0211835Y0039899D01*
X0211953Y0039792D01*
X0212069Y0039682D01*
X0212182Y0039569D01*
X0212292Y0039453D01*
X0212399Y0039335D01*
X0212503Y0039214D01*
X0212604Y0039090D01*
X0212702Y0038964D01*
X0212796Y0038836D01*
X0212888Y0038705D01*
X0212976Y0038572D01*
X0213061Y0038437D01*
X0213143Y0038300D01*
X0213221Y0038161D01*
X0213295Y0038020D01*
X0213366Y0037877D01*
X0213434Y0037732D01*
X0213497Y0037586D01*
X0213558Y0037438D01*
X0213614Y0037289D01*
X0213667Y0037138D01*
X0213716Y0036986D01*
X0213761Y0036833D01*
X0213802Y0036679D01*
X0213840Y0036524D01*
X0213873Y0036368D01*
X0213903Y0036211D01*
X0213929Y0036054D01*
X0213950Y0035896D01*
X0213968Y0035737D01*
X0213982Y0035578D01*
X0213992Y0035419D01*
X0213998Y0035260D01*
X0214000Y0035100D01*
X0213998Y0034940D01*
X0213992Y0034781D01*
X0213982Y0034622D01*
X0213968Y0034463D01*
X0213950Y0034304D01*
X0213929Y0034146D01*
X0213903Y0033989D01*
X0213873Y0033832D01*
X0213840Y0033676D01*
X0213802Y0033521D01*
X0213761Y0033367D01*
X0213716Y0033214D01*
X0213667Y0033062D01*
X0213614Y0032911D01*
X0213558Y0032762D01*
X0213497Y0032614D01*
X0213434Y0032468D01*
X0213366Y0032323D01*
X0213295Y0032180D01*
X0213221Y0032039D01*
X0213143Y0031900D01*
X0213061Y0031763D01*
X0212976Y0031628D01*
X0212888Y0031495D01*
X0212796Y0031364D01*
X0212702Y0031236D01*
X0212604Y0031110D01*
X0212503Y0030986D01*
X0212399Y0030865D01*
X0212292Y0030747D01*
X0212182Y0030631D01*
X0212069Y0030518D01*
X0211953Y0030408D01*
X0211835Y0030301D01*
X0211714Y0030197D01*
X0211590Y0030096D01*
X0211464Y0029998D01*
X0211336Y0029904D01*
X0211205Y0029812D01*
X0211072Y0029724D01*
X0210937Y0029639D01*
X0210800Y0029557D01*
X0210661Y0029479D01*
X0210520Y0029405D01*
X0210377Y0029334D01*
X0210232Y0029266D01*
X0210086Y0029203D01*
X0209938Y0029142D01*
X0209789Y0029086D01*
X0209638Y0029033D01*
X0209486Y0028984D01*
X0209333Y0028939D01*
X0209179Y0028898D01*
X0209024Y0028860D01*
X0208868Y0028827D01*
X0208711Y0028797D01*
X0208554Y0028771D01*
X0208396Y0028750D01*
X0208237Y0028732D01*
X0208078Y0028718D01*
X0207919Y0028708D01*
X0207760Y0028702D01*
X0207600Y0028700D01*
X0207440Y0028702D01*
X0207281Y0028708D01*
X0207122Y0028718D01*
X0206963Y0028732D01*
X0206804Y0028750D01*
X0206646Y0028771D01*
X0206489Y0028797D01*
X0206332Y0028827D01*
X0206176Y0028860D01*
X0206021Y0028898D01*
X0205867Y0028939D01*
X0205714Y0028984D01*
X0205562Y0029033D01*
X0205411Y0029086D01*
X0205262Y0029142D01*
X0205114Y0029203D01*
X0204968Y0029266D01*
X0204823Y0029334D01*
X0204680Y0029405D01*
X0204539Y0029479D01*
X0204400Y0029557D01*
X0204263Y0029639D01*
X0204128Y0029724D01*
X0203995Y0029812D01*
X0203864Y0029904D01*
X0203736Y0029998D01*
X0203610Y0030096D01*
X0203486Y0030197D01*
X0203365Y0030301D01*
X0203247Y0030408D01*
X0203131Y0030518D01*
X0203018Y0030631D01*
X0202908Y0030747D01*
X0202801Y0030865D01*
X0202697Y0030986D01*
X0202596Y0031110D01*
X0202498Y0031236D01*
X0202404Y0031364D01*
X0202312Y0031495D01*
X0202224Y0031628D01*
X0202139Y0031763D01*
X0202057Y0031900D01*
X0201979Y0032039D01*
X0201905Y0032180D01*
X0201834Y0032323D01*
X0201766Y0032468D01*
X0201703Y0032614D01*
X0201642Y0032762D01*
X0201586Y0032911D01*
X0201533Y0033062D01*
X0201484Y0033214D01*
X0201439Y0033367D01*
X0201398Y0033521D01*
X0201360Y0033676D01*
X0201327Y0033832D01*
X0201297Y0033989D01*
X0201271Y0034146D01*
X0201250Y0034304D01*
X0201232Y0034463D01*
X0201218Y0034622D01*
X0201208Y0034781D01*
X0201202Y0034940D01*
X0201200Y0035100D01*
X0251200Y0035100D02*
X0251202Y0035260D01*
X0251208Y0035419D01*
X0251218Y0035578D01*
X0251232Y0035737D01*
X0251250Y0035896D01*
X0251271Y0036054D01*
X0251297Y0036211D01*
X0251327Y0036368D01*
X0251360Y0036524D01*
X0251398Y0036679D01*
X0251439Y0036833D01*
X0251484Y0036986D01*
X0251533Y0037138D01*
X0251586Y0037289D01*
X0251642Y0037438D01*
X0251703Y0037586D01*
X0251766Y0037732D01*
X0251834Y0037877D01*
X0251905Y0038020D01*
X0251979Y0038161D01*
X0252057Y0038300D01*
X0252139Y0038437D01*
X0252224Y0038572D01*
X0252312Y0038705D01*
X0252404Y0038836D01*
X0252498Y0038964D01*
X0252596Y0039090D01*
X0252697Y0039214D01*
X0252801Y0039335D01*
X0252908Y0039453D01*
X0253018Y0039569D01*
X0253131Y0039682D01*
X0253247Y0039792D01*
X0253365Y0039899D01*
X0253486Y0040003D01*
X0253610Y0040104D01*
X0253736Y0040202D01*
X0253864Y0040296D01*
X0253995Y0040388D01*
X0254128Y0040476D01*
X0254263Y0040561D01*
X0254400Y0040643D01*
X0254539Y0040721D01*
X0254680Y0040795D01*
X0254823Y0040866D01*
X0254968Y0040934D01*
X0255114Y0040997D01*
X0255262Y0041058D01*
X0255411Y0041114D01*
X0255562Y0041167D01*
X0255714Y0041216D01*
X0255867Y0041261D01*
X0256021Y0041302D01*
X0256176Y0041340D01*
X0256332Y0041373D01*
X0256489Y0041403D01*
X0256646Y0041429D01*
X0256804Y0041450D01*
X0256963Y0041468D01*
X0257122Y0041482D01*
X0257281Y0041492D01*
X0257440Y0041498D01*
X0257600Y0041500D01*
X0257760Y0041498D01*
X0257919Y0041492D01*
X0258078Y0041482D01*
X0258237Y0041468D01*
X0258396Y0041450D01*
X0258554Y0041429D01*
X0258711Y0041403D01*
X0258868Y0041373D01*
X0259024Y0041340D01*
X0259179Y0041302D01*
X0259333Y0041261D01*
X0259486Y0041216D01*
X0259638Y0041167D01*
X0259789Y0041114D01*
X0259938Y0041058D01*
X0260086Y0040997D01*
X0260232Y0040934D01*
X0260377Y0040866D01*
X0260520Y0040795D01*
X0260661Y0040721D01*
X0260800Y0040643D01*
X0260937Y0040561D01*
X0261072Y0040476D01*
X0261205Y0040388D01*
X0261336Y0040296D01*
X0261464Y0040202D01*
X0261590Y0040104D01*
X0261714Y0040003D01*
X0261835Y0039899D01*
X0261953Y0039792D01*
X0262069Y0039682D01*
X0262182Y0039569D01*
X0262292Y0039453D01*
X0262399Y0039335D01*
X0262503Y0039214D01*
X0262604Y0039090D01*
X0262702Y0038964D01*
X0262796Y0038836D01*
X0262888Y0038705D01*
X0262976Y0038572D01*
X0263061Y0038437D01*
X0263143Y0038300D01*
X0263221Y0038161D01*
X0263295Y0038020D01*
X0263366Y0037877D01*
X0263434Y0037732D01*
X0263497Y0037586D01*
X0263558Y0037438D01*
X0263614Y0037289D01*
X0263667Y0037138D01*
X0263716Y0036986D01*
X0263761Y0036833D01*
X0263802Y0036679D01*
X0263840Y0036524D01*
X0263873Y0036368D01*
X0263903Y0036211D01*
X0263929Y0036054D01*
X0263950Y0035896D01*
X0263968Y0035737D01*
X0263982Y0035578D01*
X0263992Y0035419D01*
X0263998Y0035260D01*
X0264000Y0035100D01*
X0263998Y0034940D01*
X0263992Y0034781D01*
X0263982Y0034622D01*
X0263968Y0034463D01*
X0263950Y0034304D01*
X0263929Y0034146D01*
X0263903Y0033989D01*
X0263873Y0033832D01*
X0263840Y0033676D01*
X0263802Y0033521D01*
X0263761Y0033367D01*
X0263716Y0033214D01*
X0263667Y0033062D01*
X0263614Y0032911D01*
X0263558Y0032762D01*
X0263497Y0032614D01*
X0263434Y0032468D01*
X0263366Y0032323D01*
X0263295Y0032180D01*
X0263221Y0032039D01*
X0263143Y0031900D01*
X0263061Y0031763D01*
X0262976Y0031628D01*
X0262888Y0031495D01*
X0262796Y0031364D01*
X0262702Y0031236D01*
X0262604Y0031110D01*
X0262503Y0030986D01*
X0262399Y0030865D01*
X0262292Y0030747D01*
X0262182Y0030631D01*
X0262069Y0030518D01*
X0261953Y0030408D01*
X0261835Y0030301D01*
X0261714Y0030197D01*
X0261590Y0030096D01*
X0261464Y0029998D01*
X0261336Y0029904D01*
X0261205Y0029812D01*
X0261072Y0029724D01*
X0260937Y0029639D01*
X0260800Y0029557D01*
X0260661Y0029479D01*
X0260520Y0029405D01*
X0260377Y0029334D01*
X0260232Y0029266D01*
X0260086Y0029203D01*
X0259938Y0029142D01*
X0259789Y0029086D01*
X0259638Y0029033D01*
X0259486Y0028984D01*
X0259333Y0028939D01*
X0259179Y0028898D01*
X0259024Y0028860D01*
X0258868Y0028827D01*
X0258711Y0028797D01*
X0258554Y0028771D01*
X0258396Y0028750D01*
X0258237Y0028732D01*
X0258078Y0028718D01*
X0257919Y0028708D01*
X0257760Y0028702D01*
X0257600Y0028700D01*
X0257440Y0028702D01*
X0257281Y0028708D01*
X0257122Y0028718D01*
X0256963Y0028732D01*
X0256804Y0028750D01*
X0256646Y0028771D01*
X0256489Y0028797D01*
X0256332Y0028827D01*
X0256176Y0028860D01*
X0256021Y0028898D01*
X0255867Y0028939D01*
X0255714Y0028984D01*
X0255562Y0029033D01*
X0255411Y0029086D01*
X0255262Y0029142D01*
X0255114Y0029203D01*
X0254968Y0029266D01*
X0254823Y0029334D01*
X0254680Y0029405D01*
X0254539Y0029479D01*
X0254400Y0029557D01*
X0254263Y0029639D01*
X0254128Y0029724D01*
X0253995Y0029812D01*
X0253864Y0029904D01*
X0253736Y0029998D01*
X0253610Y0030096D01*
X0253486Y0030197D01*
X0253365Y0030301D01*
X0253247Y0030408D01*
X0253131Y0030518D01*
X0253018Y0030631D01*
X0252908Y0030747D01*
X0252801Y0030865D01*
X0252697Y0030986D01*
X0252596Y0031110D01*
X0252498Y0031236D01*
X0252404Y0031364D01*
X0252312Y0031495D01*
X0252224Y0031628D01*
X0252139Y0031763D01*
X0252057Y0031900D01*
X0251979Y0032039D01*
X0251905Y0032180D01*
X0251834Y0032323D01*
X0251766Y0032468D01*
X0251703Y0032614D01*
X0251642Y0032762D01*
X0251586Y0032911D01*
X0251533Y0033062D01*
X0251484Y0033214D01*
X0251439Y0033367D01*
X0251398Y0033521D01*
X0251360Y0033676D01*
X0251327Y0033832D01*
X0251297Y0033989D01*
X0251271Y0034146D01*
X0251250Y0034304D01*
X0251232Y0034463D01*
X0251218Y0034622D01*
X0251208Y0034781D01*
X0251202Y0034940D01*
X0251200Y0035100D01*
X0276200Y0035100D02*
X0276202Y0035260D01*
X0276208Y0035419D01*
X0276218Y0035578D01*
X0276232Y0035737D01*
X0276250Y0035896D01*
X0276271Y0036054D01*
X0276297Y0036211D01*
X0276327Y0036368D01*
X0276360Y0036524D01*
X0276398Y0036679D01*
X0276439Y0036833D01*
X0276484Y0036986D01*
X0276533Y0037138D01*
X0276586Y0037289D01*
X0276642Y0037438D01*
X0276703Y0037586D01*
X0276766Y0037732D01*
X0276834Y0037877D01*
X0276905Y0038020D01*
X0276979Y0038161D01*
X0277057Y0038300D01*
X0277139Y0038437D01*
X0277224Y0038572D01*
X0277312Y0038705D01*
X0277404Y0038836D01*
X0277498Y0038964D01*
X0277596Y0039090D01*
X0277697Y0039214D01*
X0277801Y0039335D01*
X0277908Y0039453D01*
X0278018Y0039569D01*
X0278131Y0039682D01*
X0278247Y0039792D01*
X0278365Y0039899D01*
X0278486Y0040003D01*
X0278610Y0040104D01*
X0278736Y0040202D01*
X0278864Y0040296D01*
X0278995Y0040388D01*
X0279128Y0040476D01*
X0279263Y0040561D01*
X0279400Y0040643D01*
X0279539Y0040721D01*
X0279680Y0040795D01*
X0279823Y0040866D01*
X0279968Y0040934D01*
X0280114Y0040997D01*
X0280262Y0041058D01*
X0280411Y0041114D01*
X0280562Y0041167D01*
X0280714Y0041216D01*
X0280867Y0041261D01*
X0281021Y0041302D01*
X0281176Y0041340D01*
X0281332Y0041373D01*
X0281489Y0041403D01*
X0281646Y0041429D01*
X0281804Y0041450D01*
X0281963Y0041468D01*
X0282122Y0041482D01*
X0282281Y0041492D01*
X0282440Y0041498D01*
X0282600Y0041500D01*
X0282760Y0041498D01*
X0282919Y0041492D01*
X0283078Y0041482D01*
X0283237Y0041468D01*
X0283396Y0041450D01*
X0283554Y0041429D01*
X0283711Y0041403D01*
X0283868Y0041373D01*
X0284024Y0041340D01*
X0284179Y0041302D01*
X0284333Y0041261D01*
X0284486Y0041216D01*
X0284638Y0041167D01*
X0284789Y0041114D01*
X0284938Y0041058D01*
X0285086Y0040997D01*
X0285232Y0040934D01*
X0285377Y0040866D01*
X0285520Y0040795D01*
X0285661Y0040721D01*
X0285800Y0040643D01*
X0285937Y0040561D01*
X0286072Y0040476D01*
X0286205Y0040388D01*
X0286336Y0040296D01*
X0286464Y0040202D01*
X0286590Y0040104D01*
X0286714Y0040003D01*
X0286835Y0039899D01*
X0286953Y0039792D01*
X0287069Y0039682D01*
X0287182Y0039569D01*
X0287292Y0039453D01*
X0287399Y0039335D01*
X0287503Y0039214D01*
X0287604Y0039090D01*
X0287702Y0038964D01*
X0287796Y0038836D01*
X0287888Y0038705D01*
X0287976Y0038572D01*
X0288061Y0038437D01*
X0288143Y0038300D01*
X0288221Y0038161D01*
X0288295Y0038020D01*
X0288366Y0037877D01*
X0288434Y0037732D01*
X0288497Y0037586D01*
X0288558Y0037438D01*
X0288614Y0037289D01*
X0288667Y0037138D01*
X0288716Y0036986D01*
X0288761Y0036833D01*
X0288802Y0036679D01*
X0288840Y0036524D01*
X0288873Y0036368D01*
X0288903Y0036211D01*
X0288929Y0036054D01*
X0288950Y0035896D01*
X0288968Y0035737D01*
X0288982Y0035578D01*
X0288992Y0035419D01*
X0288998Y0035260D01*
X0289000Y0035100D01*
X0288998Y0034940D01*
X0288992Y0034781D01*
X0288982Y0034622D01*
X0288968Y0034463D01*
X0288950Y0034304D01*
X0288929Y0034146D01*
X0288903Y0033989D01*
X0288873Y0033832D01*
X0288840Y0033676D01*
X0288802Y0033521D01*
X0288761Y0033367D01*
X0288716Y0033214D01*
X0288667Y0033062D01*
X0288614Y0032911D01*
X0288558Y0032762D01*
X0288497Y0032614D01*
X0288434Y0032468D01*
X0288366Y0032323D01*
X0288295Y0032180D01*
X0288221Y0032039D01*
X0288143Y0031900D01*
X0288061Y0031763D01*
X0287976Y0031628D01*
X0287888Y0031495D01*
X0287796Y0031364D01*
X0287702Y0031236D01*
X0287604Y0031110D01*
X0287503Y0030986D01*
X0287399Y0030865D01*
X0287292Y0030747D01*
X0287182Y0030631D01*
X0287069Y0030518D01*
X0286953Y0030408D01*
X0286835Y0030301D01*
X0286714Y0030197D01*
X0286590Y0030096D01*
X0286464Y0029998D01*
X0286336Y0029904D01*
X0286205Y0029812D01*
X0286072Y0029724D01*
X0285937Y0029639D01*
X0285800Y0029557D01*
X0285661Y0029479D01*
X0285520Y0029405D01*
X0285377Y0029334D01*
X0285232Y0029266D01*
X0285086Y0029203D01*
X0284938Y0029142D01*
X0284789Y0029086D01*
X0284638Y0029033D01*
X0284486Y0028984D01*
X0284333Y0028939D01*
X0284179Y0028898D01*
X0284024Y0028860D01*
X0283868Y0028827D01*
X0283711Y0028797D01*
X0283554Y0028771D01*
X0283396Y0028750D01*
X0283237Y0028732D01*
X0283078Y0028718D01*
X0282919Y0028708D01*
X0282760Y0028702D01*
X0282600Y0028700D01*
X0282440Y0028702D01*
X0282281Y0028708D01*
X0282122Y0028718D01*
X0281963Y0028732D01*
X0281804Y0028750D01*
X0281646Y0028771D01*
X0281489Y0028797D01*
X0281332Y0028827D01*
X0281176Y0028860D01*
X0281021Y0028898D01*
X0280867Y0028939D01*
X0280714Y0028984D01*
X0280562Y0029033D01*
X0280411Y0029086D01*
X0280262Y0029142D01*
X0280114Y0029203D01*
X0279968Y0029266D01*
X0279823Y0029334D01*
X0279680Y0029405D01*
X0279539Y0029479D01*
X0279400Y0029557D01*
X0279263Y0029639D01*
X0279128Y0029724D01*
X0278995Y0029812D01*
X0278864Y0029904D01*
X0278736Y0029998D01*
X0278610Y0030096D01*
X0278486Y0030197D01*
X0278365Y0030301D01*
X0278247Y0030408D01*
X0278131Y0030518D01*
X0278018Y0030631D01*
X0277908Y0030747D01*
X0277801Y0030865D01*
X0277697Y0030986D01*
X0277596Y0031110D01*
X0277498Y0031236D01*
X0277404Y0031364D01*
X0277312Y0031495D01*
X0277224Y0031628D01*
X0277139Y0031763D01*
X0277057Y0031900D01*
X0276979Y0032039D01*
X0276905Y0032180D01*
X0276834Y0032323D01*
X0276766Y0032468D01*
X0276703Y0032614D01*
X0276642Y0032762D01*
X0276586Y0032911D01*
X0276533Y0033062D01*
X0276484Y0033214D01*
X0276439Y0033367D01*
X0276398Y0033521D01*
X0276360Y0033676D01*
X0276327Y0033832D01*
X0276297Y0033989D01*
X0276271Y0034146D01*
X0276250Y0034304D01*
X0276232Y0034463D01*
X0276218Y0034622D01*
X0276208Y0034781D01*
X0276202Y0034940D01*
X0276200Y0035100D01*
X0326200Y0035100D02*
X0326202Y0035260D01*
X0326208Y0035419D01*
X0326218Y0035578D01*
X0326232Y0035737D01*
X0326250Y0035896D01*
X0326271Y0036054D01*
X0326297Y0036211D01*
X0326327Y0036368D01*
X0326360Y0036524D01*
X0326398Y0036679D01*
X0326439Y0036833D01*
X0326484Y0036986D01*
X0326533Y0037138D01*
X0326586Y0037289D01*
X0326642Y0037438D01*
X0326703Y0037586D01*
X0326766Y0037732D01*
X0326834Y0037877D01*
X0326905Y0038020D01*
X0326979Y0038161D01*
X0327057Y0038300D01*
X0327139Y0038437D01*
X0327224Y0038572D01*
X0327312Y0038705D01*
X0327404Y0038836D01*
X0327498Y0038964D01*
X0327596Y0039090D01*
X0327697Y0039214D01*
X0327801Y0039335D01*
X0327908Y0039453D01*
X0328018Y0039569D01*
X0328131Y0039682D01*
X0328247Y0039792D01*
X0328365Y0039899D01*
X0328486Y0040003D01*
X0328610Y0040104D01*
X0328736Y0040202D01*
X0328864Y0040296D01*
X0328995Y0040388D01*
X0329128Y0040476D01*
X0329263Y0040561D01*
X0329400Y0040643D01*
X0329539Y0040721D01*
X0329680Y0040795D01*
X0329823Y0040866D01*
X0329968Y0040934D01*
X0330114Y0040997D01*
X0330262Y0041058D01*
X0330411Y0041114D01*
X0330562Y0041167D01*
X0330714Y0041216D01*
X0330867Y0041261D01*
X0331021Y0041302D01*
X0331176Y0041340D01*
X0331332Y0041373D01*
X0331489Y0041403D01*
X0331646Y0041429D01*
X0331804Y0041450D01*
X0331963Y0041468D01*
X0332122Y0041482D01*
X0332281Y0041492D01*
X0332440Y0041498D01*
X0332600Y0041500D01*
X0332760Y0041498D01*
X0332919Y0041492D01*
X0333078Y0041482D01*
X0333237Y0041468D01*
X0333396Y0041450D01*
X0333554Y0041429D01*
X0333711Y0041403D01*
X0333868Y0041373D01*
X0334024Y0041340D01*
X0334179Y0041302D01*
X0334333Y0041261D01*
X0334486Y0041216D01*
X0334638Y0041167D01*
X0334789Y0041114D01*
X0334938Y0041058D01*
X0335086Y0040997D01*
X0335232Y0040934D01*
X0335377Y0040866D01*
X0335520Y0040795D01*
X0335661Y0040721D01*
X0335800Y0040643D01*
X0335937Y0040561D01*
X0336072Y0040476D01*
X0336205Y0040388D01*
X0336336Y0040296D01*
X0336464Y0040202D01*
X0336590Y0040104D01*
X0336714Y0040003D01*
X0336835Y0039899D01*
X0336953Y0039792D01*
X0337069Y0039682D01*
X0337182Y0039569D01*
X0337292Y0039453D01*
X0337399Y0039335D01*
X0337503Y0039214D01*
X0337604Y0039090D01*
X0337702Y0038964D01*
X0337796Y0038836D01*
X0337888Y0038705D01*
X0337976Y0038572D01*
X0338061Y0038437D01*
X0338143Y0038300D01*
X0338221Y0038161D01*
X0338295Y0038020D01*
X0338366Y0037877D01*
X0338434Y0037732D01*
X0338497Y0037586D01*
X0338558Y0037438D01*
X0338614Y0037289D01*
X0338667Y0037138D01*
X0338716Y0036986D01*
X0338761Y0036833D01*
X0338802Y0036679D01*
X0338840Y0036524D01*
X0338873Y0036368D01*
X0338903Y0036211D01*
X0338929Y0036054D01*
X0338950Y0035896D01*
X0338968Y0035737D01*
X0338982Y0035578D01*
X0338992Y0035419D01*
X0338998Y0035260D01*
X0339000Y0035100D01*
X0338998Y0034940D01*
X0338992Y0034781D01*
X0338982Y0034622D01*
X0338968Y0034463D01*
X0338950Y0034304D01*
X0338929Y0034146D01*
X0338903Y0033989D01*
X0338873Y0033832D01*
X0338840Y0033676D01*
X0338802Y0033521D01*
X0338761Y0033367D01*
X0338716Y0033214D01*
X0338667Y0033062D01*
X0338614Y0032911D01*
X0338558Y0032762D01*
X0338497Y0032614D01*
X0338434Y0032468D01*
X0338366Y0032323D01*
X0338295Y0032180D01*
X0338221Y0032039D01*
X0338143Y0031900D01*
X0338061Y0031763D01*
X0337976Y0031628D01*
X0337888Y0031495D01*
X0337796Y0031364D01*
X0337702Y0031236D01*
X0337604Y0031110D01*
X0337503Y0030986D01*
X0337399Y0030865D01*
X0337292Y0030747D01*
X0337182Y0030631D01*
X0337069Y0030518D01*
X0336953Y0030408D01*
X0336835Y0030301D01*
X0336714Y0030197D01*
X0336590Y0030096D01*
X0336464Y0029998D01*
X0336336Y0029904D01*
X0336205Y0029812D01*
X0336072Y0029724D01*
X0335937Y0029639D01*
X0335800Y0029557D01*
X0335661Y0029479D01*
X0335520Y0029405D01*
X0335377Y0029334D01*
X0335232Y0029266D01*
X0335086Y0029203D01*
X0334938Y0029142D01*
X0334789Y0029086D01*
X0334638Y0029033D01*
X0334486Y0028984D01*
X0334333Y0028939D01*
X0334179Y0028898D01*
X0334024Y0028860D01*
X0333868Y0028827D01*
X0333711Y0028797D01*
X0333554Y0028771D01*
X0333396Y0028750D01*
X0333237Y0028732D01*
X0333078Y0028718D01*
X0332919Y0028708D01*
X0332760Y0028702D01*
X0332600Y0028700D01*
X0332440Y0028702D01*
X0332281Y0028708D01*
X0332122Y0028718D01*
X0331963Y0028732D01*
X0331804Y0028750D01*
X0331646Y0028771D01*
X0331489Y0028797D01*
X0331332Y0028827D01*
X0331176Y0028860D01*
X0331021Y0028898D01*
X0330867Y0028939D01*
X0330714Y0028984D01*
X0330562Y0029033D01*
X0330411Y0029086D01*
X0330262Y0029142D01*
X0330114Y0029203D01*
X0329968Y0029266D01*
X0329823Y0029334D01*
X0329680Y0029405D01*
X0329539Y0029479D01*
X0329400Y0029557D01*
X0329263Y0029639D01*
X0329128Y0029724D01*
X0328995Y0029812D01*
X0328864Y0029904D01*
X0328736Y0029998D01*
X0328610Y0030096D01*
X0328486Y0030197D01*
X0328365Y0030301D01*
X0328247Y0030408D01*
X0328131Y0030518D01*
X0328018Y0030631D01*
X0327908Y0030747D01*
X0327801Y0030865D01*
X0327697Y0030986D01*
X0327596Y0031110D01*
X0327498Y0031236D01*
X0327404Y0031364D01*
X0327312Y0031495D01*
X0327224Y0031628D01*
X0327139Y0031763D01*
X0327057Y0031900D01*
X0326979Y0032039D01*
X0326905Y0032180D01*
X0326834Y0032323D01*
X0326766Y0032468D01*
X0326703Y0032614D01*
X0326642Y0032762D01*
X0326586Y0032911D01*
X0326533Y0033062D01*
X0326484Y0033214D01*
X0326439Y0033367D01*
X0326398Y0033521D01*
X0326360Y0033676D01*
X0326327Y0033832D01*
X0326297Y0033989D01*
X0326271Y0034146D01*
X0326250Y0034304D01*
X0326232Y0034463D01*
X0326218Y0034622D01*
X0326208Y0034781D01*
X0326202Y0034940D01*
X0326200Y0035100D01*
D11*
X0358367Y0085250D02*
X0357750Y0085867D01*
X0357750Y0088336D01*
X0358367Y0088953D01*
X0359602Y0088953D01*
X0360219Y0088336D01*
X0361433Y0088336D02*
X0361433Y0085867D01*
X0362050Y0085250D01*
X0363285Y0085250D01*
X0363902Y0085867D01*
X0363902Y0088336D01*
X0363285Y0088953D01*
X0362050Y0088953D01*
X0361433Y0088336D01*
X0360219Y0085867D02*
X0359602Y0085250D01*
X0358367Y0085250D01*
X0357750Y0100250D02*
X0359602Y0100250D01*
X0360219Y0100867D01*
X0360219Y0103336D01*
X0359602Y0103953D01*
X0357750Y0103953D01*
X0357750Y0100250D01*
X0361433Y0100867D02*
X0362050Y0100250D01*
X0363285Y0100250D01*
X0363902Y0100867D01*
X0363902Y0103336D01*
X0363285Y0103953D01*
X0362050Y0103953D01*
X0361433Y0103336D01*
X0361433Y0100867D01*
X0360918Y0126250D02*
X0361536Y0126867D01*
X0361536Y0129336D01*
X0360918Y0129953D01*
X0359067Y0129953D01*
X0359067Y0126250D01*
X0360918Y0126250D01*
X0357852Y0126250D02*
X0357852Y0129953D01*
X0355384Y0129953D02*
X0357852Y0126250D01*
X0355384Y0126250D02*
X0355384Y0129953D01*
X0354169Y0129336D02*
X0353552Y0129953D01*
X0352318Y0129953D01*
X0351701Y0129336D01*
X0351701Y0126867D01*
X0352318Y0126250D01*
X0353552Y0126250D01*
X0354169Y0126867D01*
X0354169Y0128102D01*
X0352935Y0128102D01*
X0359897Y0136688D02*
X0361131Y0137922D01*
X0361131Y0140391D01*
X0362346Y0138539D02*
X0364814Y0138539D01*
X0363580Y0139773D02*
X0363580Y0137305D01*
X0359897Y0136688D02*
X0358662Y0137922D01*
X0358662Y0140391D01*
X0335219Y0139627D02*
X0332750Y0139627D01*
X0333984Y0140861D02*
X0333984Y0138392D01*
X0298083Y0181500D02*
X0296148Y0181500D01*
X0298083Y0181500D02*
X0299050Y0182467D01*
X0298083Y0183435D01*
X0296148Y0183435D01*
X0297115Y0184447D02*
X0297115Y0184930D01*
X0299050Y0184930D01*
X0299050Y0184447D02*
X0299050Y0185414D01*
X0299050Y0186411D02*
X0297115Y0186411D01*
X0297115Y0187862D01*
X0297599Y0188346D01*
X0299050Y0188346D01*
X0296148Y0184930D02*
X0295664Y0184930D01*
X0280300Y0184930D02*
X0280300Y0184447D01*
X0279816Y0184447D01*
X0279816Y0184930D01*
X0280300Y0184930D01*
X0279816Y0185920D02*
X0280300Y0186404D01*
X0280300Y0187371D01*
X0279816Y0187855D01*
X0279333Y0187855D01*
X0278849Y0187371D01*
X0278849Y0186887D01*
X0278849Y0187371D02*
X0278365Y0187855D01*
X0277881Y0187855D01*
X0277398Y0187371D01*
X0277398Y0186404D01*
X0277881Y0185920D01*
X0277881Y0183435D02*
X0278365Y0183435D01*
X0278849Y0182951D01*
X0279333Y0183435D01*
X0279816Y0183435D01*
X0280300Y0182951D01*
X0280300Y0181984D01*
X0279816Y0181500D01*
X0278849Y0182467D02*
X0278849Y0182951D01*
X0277881Y0183435D02*
X0277398Y0182951D01*
X0277398Y0181984D01*
X0277881Y0181500D01*
X0270935Y0181984D02*
X0270451Y0181500D01*
X0269484Y0181500D01*
X0269000Y0181984D01*
X0267988Y0181500D02*
X0266053Y0181500D01*
X0267988Y0183435D01*
X0267988Y0183919D01*
X0267505Y0184402D01*
X0266537Y0184402D01*
X0266053Y0183919D01*
X0269000Y0183919D02*
X0269484Y0184402D01*
X0270451Y0184402D01*
X0270935Y0183919D01*
X0270935Y0183435D01*
X0270451Y0182951D01*
X0270935Y0182467D01*
X0270935Y0181984D01*
X0270451Y0182951D02*
X0269967Y0182951D01*
X0260935Y0183435D02*
X0259000Y0181500D01*
X0260935Y0181500D01*
X0260935Y0183435D02*
X0260935Y0183919D01*
X0260451Y0184402D01*
X0259484Y0184402D01*
X0259000Y0183919D01*
X0257988Y0183919D02*
X0257505Y0184402D01*
X0256537Y0184402D01*
X0256053Y0183919D01*
X0257988Y0183919D02*
X0257988Y0183435D01*
X0256053Y0181500D01*
X0257988Y0181500D01*
X0250935Y0181500D02*
X0249000Y0181500D01*
X0249967Y0181500D02*
X0249967Y0184402D01*
X0249000Y0183435D01*
X0247988Y0183435D02*
X0247988Y0183919D01*
X0247505Y0184402D01*
X0246537Y0184402D01*
X0246053Y0183919D01*
X0247988Y0183435D02*
X0246053Y0181500D01*
X0247988Y0181500D01*
X0240935Y0181984D02*
X0240451Y0181500D01*
X0239484Y0181500D01*
X0239000Y0181984D01*
X0240935Y0183919D01*
X0240935Y0181984D01*
X0240935Y0183919D02*
X0240451Y0184402D01*
X0239484Y0184402D01*
X0239000Y0183919D01*
X0239000Y0181984D01*
X0237988Y0181500D02*
X0236053Y0181500D01*
X0237988Y0183435D01*
X0237988Y0183919D01*
X0237505Y0184402D01*
X0236537Y0184402D01*
X0236053Y0183919D01*
X0230935Y0183919D02*
X0230935Y0181984D01*
X0230451Y0181500D01*
X0229484Y0181500D01*
X0229000Y0181984D01*
X0229484Y0182951D02*
X0230935Y0182951D01*
X0230935Y0183919D02*
X0230451Y0184402D01*
X0229484Y0184402D01*
X0229000Y0183919D01*
X0229000Y0183435D01*
X0229484Y0182951D01*
X0227988Y0181500D02*
X0226053Y0181500D01*
X0227021Y0181500D02*
X0227021Y0184402D01*
X0226053Y0183435D01*
X0220935Y0183435D02*
X0220451Y0182951D01*
X0219484Y0182951D01*
X0219000Y0183435D01*
X0219000Y0183919D01*
X0219484Y0184402D01*
X0220451Y0184402D01*
X0220935Y0183919D01*
X0220935Y0183435D01*
X0220451Y0182951D02*
X0220935Y0182467D01*
X0220935Y0181984D01*
X0220451Y0181500D01*
X0219484Y0181500D01*
X0219000Y0181984D01*
X0219000Y0182467D01*
X0219484Y0182951D01*
X0217988Y0181500D02*
X0216053Y0181500D01*
X0217021Y0181500D02*
X0217021Y0184402D01*
X0216053Y0183435D01*
X0210935Y0183919D02*
X0209000Y0181984D01*
X0209000Y0181500D01*
X0207988Y0181500D02*
X0206053Y0181500D01*
X0207021Y0181500D02*
X0207021Y0184402D01*
X0206053Y0183435D01*
X0209000Y0184402D02*
X0210935Y0184402D01*
X0210935Y0183919D01*
X0200935Y0184402D02*
X0199967Y0183919D01*
X0199000Y0182951D01*
X0200451Y0182951D01*
X0200935Y0182467D01*
X0200935Y0181984D01*
X0200451Y0181500D01*
X0199484Y0181500D01*
X0199000Y0181984D01*
X0199000Y0182951D01*
X0197988Y0181500D02*
X0196053Y0181500D01*
X0197021Y0181500D02*
X0197021Y0184402D01*
X0196053Y0183435D01*
X0190935Y0182951D02*
X0190935Y0181984D01*
X0190451Y0181500D01*
X0189484Y0181500D01*
X0189000Y0181984D01*
X0189000Y0182951D02*
X0189967Y0183435D01*
X0190451Y0183435D01*
X0190935Y0182951D01*
X0190935Y0184402D02*
X0189000Y0184402D01*
X0189000Y0182951D01*
X0187988Y0181500D02*
X0186053Y0181500D01*
X0187021Y0181500D02*
X0187021Y0184402D01*
X0186053Y0183435D01*
X0180935Y0182951D02*
X0179000Y0182951D01*
X0180451Y0184402D01*
X0180451Y0181500D01*
X0177988Y0181500D02*
X0176053Y0181500D01*
X0177021Y0181500D02*
X0177021Y0184402D01*
X0176053Y0183435D01*
X0170935Y0183435D02*
X0170451Y0182951D01*
X0170935Y0182467D01*
X0170935Y0181984D01*
X0170451Y0181500D01*
X0169484Y0181500D01*
X0169000Y0181984D01*
X0167988Y0181500D02*
X0166053Y0181500D01*
X0167021Y0181500D02*
X0167021Y0184402D01*
X0166053Y0183435D01*
X0169000Y0183919D02*
X0169484Y0184402D01*
X0170451Y0184402D01*
X0170935Y0183919D01*
X0170935Y0183435D01*
X0170451Y0182951D02*
X0169967Y0182951D01*
X0169000Y0224000D02*
X0170935Y0225935D01*
X0170935Y0226419D01*
X0170451Y0226902D01*
X0169484Y0226902D01*
X0169000Y0226419D01*
X0167021Y0226902D02*
X0167021Y0224000D01*
X0167988Y0224000D02*
X0166053Y0224000D01*
X0166053Y0225935D02*
X0167021Y0226902D01*
X0169000Y0224000D02*
X0170935Y0224000D01*
X0176053Y0224000D02*
X0177988Y0224000D01*
X0177021Y0224000D02*
X0177021Y0226902D01*
X0176053Y0225935D01*
X0179000Y0225935D02*
X0179967Y0226902D01*
X0179967Y0224000D01*
X0179000Y0224000D02*
X0180935Y0224000D01*
X0186053Y0224000D02*
X0187988Y0224000D01*
X0187021Y0224000D02*
X0187021Y0226902D01*
X0186053Y0225935D01*
X0189000Y0226419D02*
X0189000Y0224484D01*
X0190935Y0226419D01*
X0190935Y0224484D01*
X0190451Y0224000D01*
X0189484Y0224000D01*
X0189000Y0224484D01*
X0189000Y0226419D02*
X0189484Y0226902D01*
X0190451Y0226902D01*
X0190935Y0226419D01*
X0197527Y0226419D02*
X0197527Y0225935D01*
X0198010Y0225451D01*
X0199462Y0225451D01*
X0199462Y0224484D02*
X0199462Y0226419D01*
X0198978Y0226902D01*
X0198010Y0226902D01*
X0197527Y0226419D01*
X0197527Y0224484D02*
X0198010Y0224000D01*
X0198978Y0224000D01*
X0199462Y0224484D01*
X0207527Y0224484D02*
X0207527Y0224967D01*
X0208010Y0225451D01*
X0208978Y0225451D01*
X0209462Y0224967D01*
X0209462Y0224484D01*
X0208978Y0224000D01*
X0208010Y0224000D01*
X0207527Y0224484D01*
X0208010Y0225451D02*
X0207527Y0225935D01*
X0207527Y0226419D01*
X0208010Y0226902D01*
X0208978Y0226902D01*
X0209462Y0226419D01*
X0209462Y0225935D01*
X0208978Y0225451D01*
X0217527Y0224484D02*
X0217527Y0224000D01*
X0217527Y0224484D02*
X0219462Y0226419D01*
X0219462Y0226902D01*
X0217527Y0226902D01*
X0227527Y0225451D02*
X0227527Y0224484D01*
X0228010Y0224000D01*
X0228978Y0224000D01*
X0229462Y0224484D01*
X0229462Y0224967D01*
X0228978Y0225451D01*
X0227527Y0225451D01*
X0228494Y0226419D01*
X0229462Y0226902D01*
X0237527Y0226902D02*
X0237527Y0225451D01*
X0238494Y0225935D01*
X0238978Y0225935D01*
X0239462Y0225451D01*
X0239462Y0224484D01*
X0238978Y0224000D01*
X0238010Y0224000D01*
X0237527Y0224484D01*
X0237527Y0226902D02*
X0239462Y0226902D01*
X0247527Y0225451D02*
X0249462Y0225451D01*
X0248978Y0224000D02*
X0248978Y0226902D01*
X0247527Y0225451D01*
X0257527Y0224484D02*
X0258010Y0224000D01*
X0258978Y0224000D01*
X0259462Y0224484D01*
X0259462Y0224967D01*
X0258978Y0225451D01*
X0258494Y0225451D01*
X0258978Y0225451D02*
X0259462Y0225935D01*
X0259462Y0226419D01*
X0258978Y0226902D01*
X0258010Y0226902D01*
X0257527Y0226419D01*
X0267527Y0226419D02*
X0268010Y0226902D01*
X0268978Y0226902D01*
X0269462Y0226419D01*
X0269462Y0225935D01*
X0267527Y0224000D01*
X0269462Y0224000D01*
X0277527Y0224000D02*
X0279462Y0224000D01*
X0278494Y0224000D02*
X0278494Y0226902D01*
X0277527Y0225935D01*
X0287527Y0226419D02*
X0287527Y0224484D01*
X0289462Y0226419D01*
X0289462Y0224484D01*
X0288978Y0224000D01*
X0288010Y0224000D01*
X0287527Y0224484D01*
X0287527Y0226419D02*
X0288010Y0226902D01*
X0288978Y0226902D01*
X0289462Y0226419D01*
X0297398Y0225094D02*
X0297398Y0223643D01*
X0300300Y0223643D01*
X0300300Y0225094D01*
X0299816Y0225578D01*
X0297881Y0225578D01*
X0297398Y0225094D01*
X0297398Y0222631D02*
X0300300Y0222631D01*
X0297398Y0220697D01*
X0300300Y0220697D01*
X0299816Y0219685D02*
X0298849Y0219685D01*
X0298849Y0218717D01*
X0299816Y0217750D02*
X0300300Y0218234D01*
X0300300Y0219201D01*
X0299816Y0219685D01*
X0297881Y0219685D02*
X0297398Y0219201D01*
X0297398Y0218234D01*
X0297881Y0217750D01*
X0299816Y0217750D01*
X0279333Y0190801D02*
X0277398Y0190801D01*
X0279333Y0190801D02*
X0280300Y0189834D01*
X0279333Y0188866D01*
X0277398Y0188866D01*
X0241638Y0132702D02*
X0241638Y0130000D01*
X0240738Y0130000D02*
X0242539Y0130000D01*
X0240738Y0131802D02*
X0241638Y0132702D01*
X0239777Y0132252D02*
X0239326Y0132702D01*
X0237975Y0132702D01*
X0237975Y0130000D01*
X0237975Y0130901D02*
X0239326Y0130901D01*
X0239777Y0131351D01*
X0239777Y0132252D01*
X0238876Y0130901D02*
X0239777Y0130000D01*
X0111268Y0191484D02*
X0110034Y0190250D01*
X0108799Y0191484D01*
X0108799Y0193953D01*
X0107585Y0193953D02*
X0105116Y0193953D01*
X0105116Y0192102D01*
X0106351Y0192719D01*
X0106968Y0192719D01*
X0107585Y0192102D01*
X0107585Y0190867D01*
X0106968Y0190250D01*
X0105733Y0190250D01*
X0105116Y0190867D01*
X0103902Y0190250D02*
X0101433Y0190250D01*
X0102668Y0190250D02*
X0102668Y0193953D01*
X0101433Y0192719D01*
X0100219Y0192102D02*
X0097750Y0192102D01*
X0098984Y0193336D02*
X0098984Y0190867D01*
X0111268Y0191484D02*
X0111268Y0193953D01*
X0108908Y0200470D02*
X0107056Y0200470D01*
X0107056Y0204173D01*
X0108908Y0204173D01*
X0109525Y0203556D01*
X0109525Y0201087D01*
X0108908Y0200470D01*
X0105842Y0200470D02*
X0105842Y0204173D01*
X0103373Y0204173D02*
X0103373Y0200470D01*
X0102159Y0201087D02*
X0102159Y0202322D01*
X0100924Y0202322D01*
X0099690Y0203556D02*
X0100307Y0204173D01*
X0101542Y0204173D01*
X0102159Y0203556D01*
X0103373Y0204173D02*
X0105842Y0200470D01*
X0102159Y0201087D02*
X0101542Y0200470D01*
X0100307Y0200470D01*
X0099690Y0201087D01*
X0099690Y0203556D01*
X0102734Y0210867D02*
X0102734Y0213336D01*
X0101500Y0212102D02*
X0103969Y0212102D01*
X0105183Y0212102D02*
X0106418Y0212719D01*
X0107035Y0212719D01*
X0107652Y0212102D01*
X0107652Y0210867D01*
X0107035Y0210250D01*
X0105800Y0210250D01*
X0105183Y0210867D01*
X0105183Y0212102D02*
X0105183Y0213953D01*
X0107652Y0213953D01*
X0108866Y0213953D02*
X0108866Y0211484D01*
X0110101Y0210250D01*
X0111335Y0211484D01*
X0111335Y0213953D01*
X0111423Y0233713D02*
X0111423Y0236182D01*
X0111423Y0237396D02*
X0110806Y0238631D01*
X0110806Y0239248D01*
X0111423Y0239865D01*
X0112658Y0239865D01*
X0113275Y0239248D01*
X0113275Y0238013D01*
X0112658Y0237396D01*
X0111423Y0237396D02*
X0109572Y0237396D01*
X0109572Y0239865D01*
X0109572Y0241079D02*
X0112041Y0241079D01*
X0113275Y0242314D01*
X0112041Y0243548D01*
X0109572Y0243548D01*
X0102700Y0243418D02*
X0102083Y0244036D01*
X0099614Y0244036D01*
X0098997Y0243418D01*
X0098997Y0241567D01*
X0102700Y0241567D01*
X0102700Y0243418D01*
X0102700Y0240352D02*
X0098997Y0240352D01*
X0098997Y0237884D02*
X0102700Y0240352D01*
X0102700Y0237884D02*
X0098997Y0237884D01*
X0099614Y0236669D02*
X0098997Y0236052D01*
X0098997Y0234818D01*
X0099614Y0234201D01*
X0102083Y0234201D01*
X0102700Y0234818D01*
X0102700Y0236052D01*
X0102083Y0236669D01*
X0100848Y0236669D01*
X0100848Y0235435D01*
X0110189Y0234947D02*
X0112658Y0234947D01*
X0081450Y0241618D02*
X0080216Y0242852D01*
X0077747Y0242852D01*
X0079598Y0244067D02*
X0079598Y0246536D01*
X0078364Y0245301D02*
X0080833Y0245301D01*
X0081450Y0241618D02*
X0080216Y0240384D01*
X0077747Y0240384D01*
X0061450Y0239818D02*
X0061450Y0241052D01*
X0060833Y0241669D01*
X0059598Y0241669D01*
X0059598Y0240435D01*
X0058364Y0241669D02*
X0057747Y0241052D01*
X0057747Y0239818D01*
X0058364Y0239201D01*
X0060833Y0239201D01*
X0061450Y0239818D01*
X0061450Y0242884D02*
X0057747Y0242884D01*
X0061450Y0245352D01*
X0057747Y0245352D01*
X0057747Y0246567D02*
X0057747Y0248418D01*
X0058364Y0249036D01*
X0060833Y0249036D01*
X0061450Y0248418D01*
X0061450Y0246567D01*
X0057747Y0246567D01*
X0070475Y0123952D02*
X0071826Y0123952D01*
X0072277Y0123502D01*
X0072277Y0122601D01*
X0071826Y0122151D01*
X0070475Y0122151D01*
X0070475Y0121250D02*
X0070475Y0123952D01*
X0071376Y0122151D02*
X0072277Y0121250D01*
X0073238Y0121700D02*
X0073688Y0121250D01*
X0074589Y0121250D01*
X0075039Y0121700D01*
X0075039Y0122151D01*
X0074589Y0122601D01*
X0074138Y0122601D01*
X0074589Y0122601D02*
X0075039Y0123052D01*
X0075039Y0123502D01*
X0074589Y0123952D01*
X0073688Y0123952D01*
X0073238Y0123502D01*
D12*
X0173950Y0192750D02*
X0173950Y0194952D01*
X0175051Y0194952D01*
X0175418Y0194585D01*
X0175418Y0193851D01*
X0175051Y0193484D01*
X0173950Y0193484D01*
X0176160Y0193484D02*
X0176894Y0194218D01*
X0177261Y0194218D01*
X0178001Y0193851D02*
X0178001Y0193117D01*
X0178368Y0192750D01*
X0179102Y0192750D01*
X0179469Y0193117D01*
X0179469Y0193851D01*
X0179102Y0194218D01*
X0178368Y0194218D01*
X0178001Y0193851D01*
X0176160Y0194218D02*
X0176160Y0192750D01*
X0180211Y0193117D02*
X0180211Y0193851D01*
X0180578Y0194218D01*
X0181679Y0194218D01*
X0181679Y0192383D01*
X0181312Y0192016D01*
X0180945Y0192016D01*
X0180578Y0192750D02*
X0181679Y0192750D01*
X0182421Y0192750D02*
X0182421Y0194218D01*
X0182421Y0193484D02*
X0183155Y0194218D01*
X0183522Y0194218D01*
X0184630Y0194218D02*
X0185364Y0194218D01*
X0185731Y0193851D01*
X0185731Y0192750D01*
X0184630Y0192750D01*
X0184263Y0193117D01*
X0184630Y0193484D01*
X0185731Y0193484D01*
X0186473Y0192750D02*
X0186473Y0194218D01*
X0186840Y0194218D01*
X0187207Y0193851D01*
X0187574Y0194218D01*
X0187941Y0193851D01*
X0187941Y0192750D01*
X0187207Y0192750D02*
X0187207Y0193851D01*
X0180578Y0192750D02*
X0180211Y0193117D01*
X0179471Y0202750D02*
X0179838Y0203117D01*
X0179838Y0204585D01*
X0179471Y0204952D01*
X0178370Y0204952D01*
X0178370Y0202750D01*
X0179471Y0202750D01*
X0177628Y0202750D02*
X0177628Y0204952D01*
X0176160Y0204952D02*
X0176160Y0202750D01*
X0175418Y0203117D02*
X0175418Y0203851D01*
X0174684Y0203851D01*
X0175418Y0204585D02*
X0175051Y0204952D01*
X0174317Y0204952D01*
X0173950Y0204585D01*
X0173950Y0203117D01*
X0174317Y0202750D01*
X0175051Y0202750D01*
X0175418Y0203117D01*
X0176160Y0204952D02*
X0177628Y0202750D01*
X0177632Y0212750D02*
X0177265Y0213117D01*
X0177632Y0212750D02*
X0178366Y0212750D01*
X0178733Y0213117D01*
X0178733Y0213484D01*
X0178366Y0213851D01*
X0177999Y0213851D01*
X0178366Y0213851D02*
X0178733Y0214218D01*
X0178733Y0214585D01*
X0178366Y0214952D01*
X0177632Y0214952D01*
X0177265Y0214585D01*
X0176527Y0213117D02*
X0176527Y0212750D01*
X0176160Y0212750D01*
X0176160Y0213117D01*
X0176527Y0213117D01*
X0175418Y0213117D02*
X0175051Y0212750D01*
X0174317Y0212750D01*
X0173950Y0213117D01*
X0174684Y0213851D02*
X0175051Y0213851D01*
X0175418Y0213484D01*
X0175418Y0213117D01*
X0175051Y0213851D02*
X0175418Y0214218D01*
X0175418Y0214585D01*
X0175051Y0214952D01*
X0174317Y0214952D01*
X0173950Y0214585D01*
X0179475Y0214952D02*
X0179475Y0213484D01*
X0180209Y0212750D01*
X0180943Y0213484D01*
X0180943Y0214952D01*
X0155033Y0249413D02*
X0153165Y0249413D01*
X0152698Y0249880D01*
X0152698Y0250814D01*
X0153165Y0251281D01*
X0154099Y0251281D02*
X0154099Y0250347D01*
X0154099Y0251281D02*
X0155033Y0251281D01*
X0155500Y0250814D01*
X0155500Y0249880D01*
X0155033Y0249413D01*
X0155500Y0252175D02*
X0152698Y0252175D01*
X0155500Y0254044D01*
X0152698Y0254044D01*
X0152698Y0254938D02*
X0152698Y0256339D01*
X0153165Y0256806D01*
X0155033Y0256806D01*
X0155500Y0256339D01*
X0155500Y0254938D01*
X0152698Y0254938D01*
X0128000Y0255405D02*
X0128000Y0256339D01*
X0127533Y0256806D01*
X0126599Y0256806D01*
X0126599Y0255872D01*
X0125665Y0256806D02*
X0125198Y0256339D01*
X0125198Y0255405D01*
X0125665Y0254938D01*
X0127533Y0254938D01*
X0128000Y0255405D01*
X0127533Y0254044D02*
X0125665Y0254044D01*
X0125198Y0253576D01*
X0125198Y0252642D01*
X0125665Y0252175D01*
X0127533Y0252175D01*
X0128000Y0252642D01*
X0128000Y0253576D01*
X0127533Y0254044D01*
X0128000Y0251281D02*
X0127066Y0250347D01*
X0127066Y0250814D02*
X0127066Y0249413D01*
X0128000Y0249413D02*
X0125198Y0249413D01*
X0125198Y0250814D01*
X0125665Y0251281D01*
X0126599Y0251281D01*
X0127066Y0250814D01*
X0126599Y0248519D02*
X0127066Y0248052D01*
X0127066Y0246651D01*
X0128000Y0246651D02*
X0125198Y0246651D01*
X0125198Y0248052D01*
X0125665Y0248519D01*
X0126599Y0248519D01*
X0287748Y0189181D02*
X0287748Y0188080D01*
X0289950Y0188080D01*
X0289950Y0189181D01*
X0289583Y0189548D01*
X0288115Y0189548D01*
X0287748Y0189181D01*
X0287748Y0187338D02*
X0289950Y0187338D01*
X0287748Y0185870D01*
X0289950Y0185870D01*
X0289583Y0185128D02*
X0288849Y0185128D01*
X0288849Y0184394D01*
X0288115Y0185128D02*
X0287748Y0184761D01*
X0287748Y0184027D01*
X0288115Y0183660D01*
X0289583Y0183660D01*
X0289950Y0184027D01*
X0289950Y0184761D01*
X0289583Y0185128D01*
X0289950Y0182918D02*
X0288482Y0182918D01*
X0287748Y0182184D01*
X0288482Y0181450D01*
X0289950Y0181450D01*
X0288849Y0181450D02*
X0288849Y0182918D01*
X0342798Y0151339D02*
X0345000Y0151339D01*
X0345000Y0150605D02*
X0345000Y0152073D01*
X0343532Y0150605D02*
X0342798Y0151339D01*
X0343165Y0149863D02*
X0342798Y0149496D01*
X0342798Y0148395D01*
X0345000Y0148395D01*
X0345000Y0149496D01*
X0344633Y0149863D01*
X0343165Y0149863D01*
X0342798Y0147653D02*
X0342798Y0146185D01*
X0345000Y0146185D01*
X0345000Y0147653D01*
X0343899Y0146919D02*
X0343899Y0146185D01*
X0345000Y0145443D02*
X0345000Y0143975D01*
X0342798Y0143975D01*
D13*
X0341537Y0162817D02*
X0333663Y0162817D01*
X0333663Y0177383D01*
X0341537Y0177383D01*
X0341537Y0162817D01*
X0282433Y0159575D02*
X0282433Y0151700D01*
X0267867Y0151700D01*
X0267867Y0159575D01*
X0282433Y0159575D01*
X0282433Y0147025D02*
X0267867Y0147025D01*
X0267867Y0139150D01*
X0282433Y0139150D01*
X0282433Y0147025D01*
X0276990Y0074513D02*
X0338210Y0074513D01*
X0338210Y0015513D01*
X0276990Y0015513D01*
X0276990Y0074513D01*
X0263210Y0074513D02*
X0201990Y0074513D01*
X0201990Y0015513D01*
X0263210Y0015513D01*
X0263210Y0074513D01*
X0188210Y0074513D02*
X0126990Y0074513D01*
X0126990Y0015513D01*
X0188210Y0015513D01*
X0188210Y0074513D01*
X0110710Y0074513D02*
X0049490Y0074513D01*
X0049490Y0015513D01*
X0110710Y0015513D01*
X0110710Y0074513D01*
X0007825Y0021325D02*
X0007829Y0021656D01*
X0007841Y0021987D01*
X0007862Y0022318D01*
X0007890Y0022648D01*
X0007927Y0022978D01*
X0007971Y0023306D01*
X0008024Y0023633D01*
X0008084Y0023959D01*
X0008153Y0024283D01*
X0008230Y0024605D01*
X0008314Y0024926D01*
X0008406Y0025244D01*
X0008506Y0025560D01*
X0008614Y0025873D01*
X0008730Y0026184D01*
X0008853Y0026491D01*
X0008983Y0026796D01*
X0009121Y0027097D01*
X0009266Y0027395D01*
X0009419Y0027689D01*
X0009579Y0027979D01*
X0009746Y0028265D01*
X0009919Y0028547D01*
X0010100Y0028825D01*
X0010288Y0029098D01*
X0010482Y0029367D01*
X0010682Y0029631D01*
X0010889Y0029889D01*
X0011103Y0030143D01*
X0011322Y0030391D01*
X0011548Y0030634D01*
X0011779Y0030871D01*
X0012016Y0031102D01*
X0012259Y0031328D01*
X0012507Y0031547D01*
X0012761Y0031761D01*
X0013019Y0031968D01*
X0013283Y0032168D01*
X0013552Y0032362D01*
X0013825Y0032550D01*
X0014103Y0032731D01*
X0014385Y0032904D01*
X0014671Y0033071D01*
X0014961Y0033231D01*
X0015255Y0033384D01*
X0015553Y0033529D01*
X0015854Y0033667D01*
X0016159Y0033797D01*
X0016466Y0033920D01*
X0016777Y0034036D01*
X0017090Y0034144D01*
X0017406Y0034244D01*
X0017724Y0034336D01*
X0018045Y0034420D01*
X0018367Y0034497D01*
X0018691Y0034566D01*
X0019017Y0034626D01*
X0019344Y0034679D01*
X0019672Y0034723D01*
X0020002Y0034760D01*
X0020332Y0034788D01*
X0020663Y0034809D01*
X0020994Y0034821D01*
X0021325Y0034825D01*
X0021656Y0034821D01*
X0021987Y0034809D01*
X0022318Y0034788D01*
X0022648Y0034760D01*
X0022978Y0034723D01*
X0023306Y0034679D01*
X0023633Y0034626D01*
X0023959Y0034566D01*
X0024283Y0034497D01*
X0024605Y0034420D01*
X0024926Y0034336D01*
X0025244Y0034244D01*
X0025560Y0034144D01*
X0025873Y0034036D01*
X0026184Y0033920D01*
X0026491Y0033797D01*
X0026796Y0033667D01*
X0027097Y0033529D01*
X0027395Y0033384D01*
X0027689Y0033231D01*
X0027979Y0033071D01*
X0028265Y0032904D01*
X0028547Y0032731D01*
X0028825Y0032550D01*
X0029098Y0032362D01*
X0029367Y0032168D01*
X0029631Y0031968D01*
X0029889Y0031761D01*
X0030143Y0031547D01*
X0030391Y0031328D01*
X0030634Y0031102D01*
X0030871Y0030871D01*
X0031102Y0030634D01*
X0031328Y0030391D01*
X0031547Y0030143D01*
X0031761Y0029889D01*
X0031968Y0029631D01*
X0032168Y0029367D01*
X0032362Y0029098D01*
X0032550Y0028825D01*
X0032731Y0028547D01*
X0032904Y0028265D01*
X0033071Y0027979D01*
X0033231Y0027689D01*
X0033384Y0027395D01*
X0033529Y0027097D01*
X0033667Y0026796D01*
X0033797Y0026491D01*
X0033920Y0026184D01*
X0034036Y0025873D01*
X0034144Y0025560D01*
X0034244Y0025244D01*
X0034336Y0024926D01*
X0034420Y0024605D01*
X0034497Y0024283D01*
X0034566Y0023959D01*
X0034626Y0023633D01*
X0034679Y0023306D01*
X0034723Y0022978D01*
X0034760Y0022648D01*
X0034788Y0022318D01*
X0034809Y0021987D01*
X0034821Y0021656D01*
X0034825Y0021325D01*
X0034821Y0020994D01*
X0034809Y0020663D01*
X0034788Y0020332D01*
X0034760Y0020002D01*
X0034723Y0019672D01*
X0034679Y0019344D01*
X0034626Y0019017D01*
X0034566Y0018691D01*
X0034497Y0018367D01*
X0034420Y0018045D01*
X0034336Y0017724D01*
X0034244Y0017406D01*
X0034144Y0017090D01*
X0034036Y0016777D01*
X0033920Y0016466D01*
X0033797Y0016159D01*
X0033667Y0015854D01*
X0033529Y0015553D01*
X0033384Y0015255D01*
X0033231Y0014961D01*
X0033071Y0014671D01*
X0032904Y0014385D01*
X0032731Y0014103D01*
X0032550Y0013825D01*
X0032362Y0013552D01*
X0032168Y0013283D01*
X0031968Y0013019D01*
X0031761Y0012761D01*
X0031547Y0012507D01*
X0031328Y0012259D01*
X0031102Y0012016D01*
X0030871Y0011779D01*
X0030634Y0011548D01*
X0030391Y0011322D01*
X0030143Y0011103D01*
X0029889Y0010889D01*
X0029631Y0010682D01*
X0029367Y0010482D01*
X0029098Y0010288D01*
X0028825Y0010100D01*
X0028547Y0009919D01*
X0028265Y0009746D01*
X0027979Y0009579D01*
X0027689Y0009419D01*
X0027395Y0009266D01*
X0027097Y0009121D01*
X0026796Y0008983D01*
X0026491Y0008853D01*
X0026184Y0008730D01*
X0025873Y0008614D01*
X0025560Y0008506D01*
X0025244Y0008406D01*
X0024926Y0008314D01*
X0024605Y0008230D01*
X0024283Y0008153D01*
X0023959Y0008084D01*
X0023633Y0008024D01*
X0023306Y0007971D01*
X0022978Y0007927D01*
X0022648Y0007890D01*
X0022318Y0007862D01*
X0021987Y0007841D01*
X0021656Y0007829D01*
X0021325Y0007825D01*
X0020994Y0007829D01*
X0020663Y0007841D01*
X0020332Y0007862D01*
X0020002Y0007890D01*
X0019672Y0007927D01*
X0019344Y0007971D01*
X0019017Y0008024D01*
X0018691Y0008084D01*
X0018367Y0008153D01*
X0018045Y0008230D01*
X0017724Y0008314D01*
X0017406Y0008406D01*
X0017090Y0008506D01*
X0016777Y0008614D01*
X0016466Y0008730D01*
X0016159Y0008853D01*
X0015854Y0008983D01*
X0015553Y0009121D01*
X0015255Y0009266D01*
X0014961Y0009419D01*
X0014671Y0009579D01*
X0014385Y0009746D01*
X0014103Y0009919D01*
X0013825Y0010100D01*
X0013552Y0010288D01*
X0013283Y0010482D01*
X0013019Y0010682D01*
X0012761Y0010889D01*
X0012507Y0011103D01*
X0012259Y0011322D01*
X0012016Y0011548D01*
X0011779Y0011779D01*
X0011548Y0012016D01*
X0011322Y0012259D01*
X0011103Y0012507D01*
X0010889Y0012761D01*
X0010682Y0013019D01*
X0010482Y0013283D01*
X0010288Y0013552D01*
X0010100Y0013825D01*
X0009919Y0014103D01*
X0009746Y0014385D01*
X0009579Y0014671D01*
X0009419Y0014961D01*
X0009266Y0015255D01*
X0009121Y0015553D01*
X0008983Y0015854D01*
X0008853Y0016159D01*
X0008730Y0016466D01*
X0008614Y0016777D01*
X0008506Y0017090D01*
X0008406Y0017406D01*
X0008314Y0017724D01*
X0008230Y0018045D01*
X0008153Y0018367D01*
X0008084Y0018691D01*
X0008024Y0019017D01*
X0007971Y0019344D01*
X0007927Y0019672D01*
X0007890Y0020002D01*
X0007862Y0020332D01*
X0007841Y0020663D01*
X0007829Y0020994D01*
X0007825Y0021325D01*
X0126567Y0139913D02*
X0141133Y0139913D01*
X0141133Y0147787D01*
X0126567Y0147787D01*
X0126567Y0139913D01*
X0126567Y0153663D02*
X0141133Y0153663D01*
X0141133Y0161537D01*
X0126567Y0161537D01*
X0126567Y0153663D01*
X0135575Y0190317D02*
X0135575Y0204883D01*
X0143450Y0204883D01*
X0143450Y0190317D01*
X0135575Y0190317D01*
X0007825Y0243875D02*
X0007829Y0244206D01*
X0007841Y0244537D01*
X0007862Y0244868D01*
X0007890Y0245198D01*
X0007927Y0245528D01*
X0007971Y0245856D01*
X0008024Y0246183D01*
X0008084Y0246509D01*
X0008153Y0246833D01*
X0008230Y0247155D01*
X0008314Y0247476D01*
X0008406Y0247794D01*
X0008506Y0248110D01*
X0008614Y0248423D01*
X0008730Y0248734D01*
X0008853Y0249041D01*
X0008983Y0249346D01*
X0009121Y0249647D01*
X0009266Y0249945D01*
X0009419Y0250239D01*
X0009579Y0250529D01*
X0009746Y0250815D01*
X0009919Y0251097D01*
X0010100Y0251375D01*
X0010288Y0251648D01*
X0010482Y0251917D01*
X0010682Y0252181D01*
X0010889Y0252439D01*
X0011103Y0252693D01*
X0011322Y0252941D01*
X0011548Y0253184D01*
X0011779Y0253421D01*
X0012016Y0253652D01*
X0012259Y0253878D01*
X0012507Y0254097D01*
X0012761Y0254311D01*
X0013019Y0254518D01*
X0013283Y0254718D01*
X0013552Y0254912D01*
X0013825Y0255100D01*
X0014103Y0255281D01*
X0014385Y0255454D01*
X0014671Y0255621D01*
X0014961Y0255781D01*
X0015255Y0255934D01*
X0015553Y0256079D01*
X0015854Y0256217D01*
X0016159Y0256347D01*
X0016466Y0256470D01*
X0016777Y0256586D01*
X0017090Y0256694D01*
X0017406Y0256794D01*
X0017724Y0256886D01*
X0018045Y0256970D01*
X0018367Y0257047D01*
X0018691Y0257116D01*
X0019017Y0257176D01*
X0019344Y0257229D01*
X0019672Y0257273D01*
X0020002Y0257310D01*
X0020332Y0257338D01*
X0020663Y0257359D01*
X0020994Y0257371D01*
X0021325Y0257375D01*
X0021656Y0257371D01*
X0021987Y0257359D01*
X0022318Y0257338D01*
X0022648Y0257310D01*
X0022978Y0257273D01*
X0023306Y0257229D01*
X0023633Y0257176D01*
X0023959Y0257116D01*
X0024283Y0257047D01*
X0024605Y0256970D01*
X0024926Y0256886D01*
X0025244Y0256794D01*
X0025560Y0256694D01*
X0025873Y0256586D01*
X0026184Y0256470D01*
X0026491Y0256347D01*
X0026796Y0256217D01*
X0027097Y0256079D01*
X0027395Y0255934D01*
X0027689Y0255781D01*
X0027979Y0255621D01*
X0028265Y0255454D01*
X0028547Y0255281D01*
X0028825Y0255100D01*
X0029098Y0254912D01*
X0029367Y0254718D01*
X0029631Y0254518D01*
X0029889Y0254311D01*
X0030143Y0254097D01*
X0030391Y0253878D01*
X0030634Y0253652D01*
X0030871Y0253421D01*
X0031102Y0253184D01*
X0031328Y0252941D01*
X0031547Y0252693D01*
X0031761Y0252439D01*
X0031968Y0252181D01*
X0032168Y0251917D01*
X0032362Y0251648D01*
X0032550Y0251375D01*
X0032731Y0251097D01*
X0032904Y0250815D01*
X0033071Y0250529D01*
X0033231Y0250239D01*
X0033384Y0249945D01*
X0033529Y0249647D01*
X0033667Y0249346D01*
X0033797Y0249041D01*
X0033920Y0248734D01*
X0034036Y0248423D01*
X0034144Y0248110D01*
X0034244Y0247794D01*
X0034336Y0247476D01*
X0034420Y0247155D01*
X0034497Y0246833D01*
X0034566Y0246509D01*
X0034626Y0246183D01*
X0034679Y0245856D01*
X0034723Y0245528D01*
X0034760Y0245198D01*
X0034788Y0244868D01*
X0034809Y0244537D01*
X0034821Y0244206D01*
X0034825Y0243875D01*
X0034821Y0243544D01*
X0034809Y0243213D01*
X0034788Y0242882D01*
X0034760Y0242552D01*
X0034723Y0242222D01*
X0034679Y0241894D01*
X0034626Y0241567D01*
X0034566Y0241241D01*
X0034497Y0240917D01*
X0034420Y0240595D01*
X0034336Y0240274D01*
X0034244Y0239956D01*
X0034144Y0239640D01*
X0034036Y0239327D01*
X0033920Y0239016D01*
X0033797Y0238709D01*
X0033667Y0238404D01*
X0033529Y0238103D01*
X0033384Y0237805D01*
X0033231Y0237511D01*
X0033071Y0237221D01*
X0032904Y0236935D01*
X0032731Y0236653D01*
X0032550Y0236375D01*
X0032362Y0236102D01*
X0032168Y0235833D01*
X0031968Y0235569D01*
X0031761Y0235311D01*
X0031547Y0235057D01*
X0031328Y0234809D01*
X0031102Y0234566D01*
X0030871Y0234329D01*
X0030634Y0234098D01*
X0030391Y0233872D01*
X0030143Y0233653D01*
X0029889Y0233439D01*
X0029631Y0233232D01*
X0029367Y0233032D01*
X0029098Y0232838D01*
X0028825Y0232650D01*
X0028547Y0232469D01*
X0028265Y0232296D01*
X0027979Y0232129D01*
X0027689Y0231969D01*
X0027395Y0231816D01*
X0027097Y0231671D01*
X0026796Y0231533D01*
X0026491Y0231403D01*
X0026184Y0231280D01*
X0025873Y0231164D01*
X0025560Y0231056D01*
X0025244Y0230956D01*
X0024926Y0230864D01*
X0024605Y0230780D01*
X0024283Y0230703D01*
X0023959Y0230634D01*
X0023633Y0230574D01*
X0023306Y0230521D01*
X0022978Y0230477D01*
X0022648Y0230440D01*
X0022318Y0230412D01*
X0021987Y0230391D01*
X0021656Y0230379D01*
X0021325Y0230375D01*
X0020994Y0230379D01*
X0020663Y0230391D01*
X0020332Y0230412D01*
X0020002Y0230440D01*
X0019672Y0230477D01*
X0019344Y0230521D01*
X0019017Y0230574D01*
X0018691Y0230634D01*
X0018367Y0230703D01*
X0018045Y0230780D01*
X0017724Y0230864D01*
X0017406Y0230956D01*
X0017090Y0231056D01*
X0016777Y0231164D01*
X0016466Y0231280D01*
X0016159Y0231403D01*
X0015854Y0231533D01*
X0015553Y0231671D01*
X0015255Y0231816D01*
X0014961Y0231969D01*
X0014671Y0232129D01*
X0014385Y0232296D01*
X0014103Y0232469D01*
X0013825Y0232650D01*
X0013552Y0232838D01*
X0013283Y0233032D01*
X0013019Y0233232D01*
X0012761Y0233439D01*
X0012507Y0233653D01*
X0012259Y0233872D01*
X0012016Y0234098D01*
X0011779Y0234329D01*
X0011548Y0234566D01*
X0011322Y0234809D01*
X0011103Y0235057D01*
X0010889Y0235311D01*
X0010682Y0235569D01*
X0010482Y0235833D01*
X0010288Y0236102D01*
X0010100Y0236375D01*
X0009919Y0236653D01*
X0009746Y0236935D01*
X0009579Y0237221D01*
X0009419Y0237511D01*
X0009266Y0237805D01*
X0009121Y0238103D01*
X0008983Y0238404D01*
X0008853Y0238709D01*
X0008730Y0239016D01*
X0008614Y0239327D01*
X0008506Y0239640D01*
X0008406Y0239956D01*
X0008314Y0240274D01*
X0008230Y0240595D01*
X0008153Y0240917D01*
X0008084Y0241241D01*
X0008024Y0241567D01*
X0007971Y0241894D01*
X0007927Y0242222D01*
X0007890Y0242552D01*
X0007862Y0242882D01*
X0007841Y0243213D01*
X0007829Y0243544D01*
X0007825Y0243875D01*
X0350300Y0243800D02*
X0350304Y0244131D01*
X0350316Y0244462D01*
X0350337Y0244793D01*
X0350365Y0245123D01*
X0350402Y0245453D01*
X0350446Y0245781D01*
X0350499Y0246108D01*
X0350559Y0246434D01*
X0350628Y0246758D01*
X0350705Y0247080D01*
X0350789Y0247401D01*
X0350881Y0247719D01*
X0350981Y0248035D01*
X0351089Y0248348D01*
X0351205Y0248659D01*
X0351328Y0248966D01*
X0351458Y0249271D01*
X0351596Y0249572D01*
X0351741Y0249870D01*
X0351894Y0250164D01*
X0352054Y0250454D01*
X0352221Y0250740D01*
X0352394Y0251022D01*
X0352575Y0251300D01*
X0352763Y0251573D01*
X0352957Y0251842D01*
X0353157Y0252106D01*
X0353364Y0252364D01*
X0353578Y0252618D01*
X0353797Y0252866D01*
X0354023Y0253109D01*
X0354254Y0253346D01*
X0354491Y0253577D01*
X0354734Y0253803D01*
X0354982Y0254022D01*
X0355236Y0254236D01*
X0355494Y0254443D01*
X0355758Y0254643D01*
X0356027Y0254837D01*
X0356300Y0255025D01*
X0356578Y0255206D01*
X0356860Y0255379D01*
X0357146Y0255546D01*
X0357436Y0255706D01*
X0357730Y0255859D01*
X0358028Y0256004D01*
X0358329Y0256142D01*
X0358634Y0256272D01*
X0358941Y0256395D01*
X0359252Y0256511D01*
X0359565Y0256619D01*
X0359881Y0256719D01*
X0360199Y0256811D01*
X0360520Y0256895D01*
X0360842Y0256972D01*
X0361166Y0257041D01*
X0361492Y0257101D01*
X0361819Y0257154D01*
X0362147Y0257198D01*
X0362477Y0257235D01*
X0362807Y0257263D01*
X0363138Y0257284D01*
X0363469Y0257296D01*
X0363800Y0257300D01*
X0364131Y0257296D01*
X0364462Y0257284D01*
X0364793Y0257263D01*
X0365123Y0257235D01*
X0365453Y0257198D01*
X0365781Y0257154D01*
X0366108Y0257101D01*
X0366434Y0257041D01*
X0366758Y0256972D01*
X0367080Y0256895D01*
X0367401Y0256811D01*
X0367719Y0256719D01*
X0368035Y0256619D01*
X0368348Y0256511D01*
X0368659Y0256395D01*
X0368966Y0256272D01*
X0369271Y0256142D01*
X0369572Y0256004D01*
X0369870Y0255859D01*
X0370164Y0255706D01*
X0370454Y0255546D01*
X0370740Y0255379D01*
X0371022Y0255206D01*
X0371300Y0255025D01*
X0371573Y0254837D01*
X0371842Y0254643D01*
X0372106Y0254443D01*
X0372364Y0254236D01*
X0372618Y0254022D01*
X0372866Y0253803D01*
X0373109Y0253577D01*
X0373346Y0253346D01*
X0373577Y0253109D01*
X0373803Y0252866D01*
X0374022Y0252618D01*
X0374236Y0252364D01*
X0374443Y0252106D01*
X0374643Y0251842D01*
X0374837Y0251573D01*
X0375025Y0251300D01*
X0375206Y0251022D01*
X0375379Y0250740D01*
X0375546Y0250454D01*
X0375706Y0250164D01*
X0375859Y0249870D01*
X0376004Y0249572D01*
X0376142Y0249271D01*
X0376272Y0248966D01*
X0376395Y0248659D01*
X0376511Y0248348D01*
X0376619Y0248035D01*
X0376719Y0247719D01*
X0376811Y0247401D01*
X0376895Y0247080D01*
X0376972Y0246758D01*
X0377041Y0246434D01*
X0377101Y0246108D01*
X0377154Y0245781D01*
X0377198Y0245453D01*
X0377235Y0245123D01*
X0377263Y0244793D01*
X0377284Y0244462D01*
X0377296Y0244131D01*
X0377300Y0243800D01*
X0377296Y0243469D01*
X0377284Y0243138D01*
X0377263Y0242807D01*
X0377235Y0242477D01*
X0377198Y0242147D01*
X0377154Y0241819D01*
X0377101Y0241492D01*
X0377041Y0241166D01*
X0376972Y0240842D01*
X0376895Y0240520D01*
X0376811Y0240199D01*
X0376719Y0239881D01*
X0376619Y0239565D01*
X0376511Y0239252D01*
X0376395Y0238941D01*
X0376272Y0238634D01*
X0376142Y0238329D01*
X0376004Y0238028D01*
X0375859Y0237730D01*
X0375706Y0237436D01*
X0375546Y0237146D01*
X0375379Y0236860D01*
X0375206Y0236578D01*
X0375025Y0236300D01*
X0374837Y0236027D01*
X0374643Y0235758D01*
X0374443Y0235494D01*
X0374236Y0235236D01*
X0374022Y0234982D01*
X0373803Y0234734D01*
X0373577Y0234491D01*
X0373346Y0234254D01*
X0373109Y0234023D01*
X0372866Y0233797D01*
X0372618Y0233578D01*
X0372364Y0233364D01*
X0372106Y0233157D01*
X0371842Y0232957D01*
X0371573Y0232763D01*
X0371300Y0232575D01*
X0371022Y0232394D01*
X0370740Y0232221D01*
X0370454Y0232054D01*
X0370164Y0231894D01*
X0369870Y0231741D01*
X0369572Y0231596D01*
X0369271Y0231458D01*
X0368966Y0231328D01*
X0368659Y0231205D01*
X0368348Y0231089D01*
X0368035Y0230981D01*
X0367719Y0230881D01*
X0367401Y0230789D01*
X0367080Y0230705D01*
X0366758Y0230628D01*
X0366434Y0230559D01*
X0366108Y0230499D01*
X0365781Y0230446D01*
X0365453Y0230402D01*
X0365123Y0230365D01*
X0364793Y0230337D01*
X0364462Y0230316D01*
X0364131Y0230304D01*
X0363800Y0230300D01*
X0363469Y0230304D01*
X0363138Y0230316D01*
X0362807Y0230337D01*
X0362477Y0230365D01*
X0362147Y0230402D01*
X0361819Y0230446D01*
X0361492Y0230499D01*
X0361166Y0230559D01*
X0360842Y0230628D01*
X0360520Y0230705D01*
X0360199Y0230789D01*
X0359881Y0230881D01*
X0359565Y0230981D01*
X0359252Y0231089D01*
X0358941Y0231205D01*
X0358634Y0231328D01*
X0358329Y0231458D01*
X0358028Y0231596D01*
X0357730Y0231741D01*
X0357436Y0231894D01*
X0357146Y0232054D01*
X0356860Y0232221D01*
X0356578Y0232394D01*
X0356300Y0232575D01*
X0356027Y0232763D01*
X0355758Y0232957D01*
X0355494Y0233157D01*
X0355236Y0233364D01*
X0354982Y0233578D01*
X0354734Y0233797D01*
X0354491Y0234023D01*
X0354254Y0234254D01*
X0354023Y0234491D01*
X0353797Y0234734D01*
X0353578Y0234982D01*
X0353364Y0235236D01*
X0353157Y0235494D01*
X0352957Y0235758D01*
X0352763Y0236027D01*
X0352575Y0236300D01*
X0352394Y0236578D01*
X0352221Y0236860D01*
X0352054Y0237146D01*
X0351894Y0237436D01*
X0351741Y0237730D01*
X0351596Y0238028D01*
X0351458Y0238329D01*
X0351328Y0238634D01*
X0351205Y0238941D01*
X0351089Y0239252D01*
X0350981Y0239565D01*
X0350881Y0239881D01*
X0350789Y0240199D01*
X0350705Y0240520D01*
X0350628Y0240842D01*
X0350559Y0241166D01*
X0350499Y0241492D01*
X0350446Y0241819D01*
X0350402Y0242147D01*
X0350365Y0242477D01*
X0350337Y0242807D01*
X0350316Y0243138D01*
X0350304Y0243469D01*
X0350300Y0243800D01*
X0349612Y0021400D02*
X0349616Y0021731D01*
X0349628Y0022062D01*
X0349649Y0022393D01*
X0349677Y0022723D01*
X0349714Y0023053D01*
X0349758Y0023381D01*
X0349811Y0023708D01*
X0349871Y0024034D01*
X0349940Y0024358D01*
X0350017Y0024680D01*
X0350101Y0025001D01*
X0350193Y0025319D01*
X0350293Y0025635D01*
X0350401Y0025948D01*
X0350517Y0026259D01*
X0350640Y0026566D01*
X0350770Y0026871D01*
X0350908Y0027172D01*
X0351053Y0027470D01*
X0351206Y0027764D01*
X0351366Y0028054D01*
X0351533Y0028340D01*
X0351706Y0028622D01*
X0351887Y0028900D01*
X0352075Y0029173D01*
X0352269Y0029442D01*
X0352469Y0029706D01*
X0352676Y0029964D01*
X0352890Y0030218D01*
X0353109Y0030466D01*
X0353335Y0030709D01*
X0353566Y0030946D01*
X0353803Y0031177D01*
X0354046Y0031403D01*
X0354294Y0031622D01*
X0354548Y0031836D01*
X0354806Y0032043D01*
X0355070Y0032243D01*
X0355339Y0032437D01*
X0355612Y0032625D01*
X0355890Y0032806D01*
X0356172Y0032979D01*
X0356458Y0033146D01*
X0356748Y0033306D01*
X0357042Y0033459D01*
X0357340Y0033604D01*
X0357641Y0033742D01*
X0357946Y0033872D01*
X0358253Y0033995D01*
X0358564Y0034111D01*
X0358877Y0034219D01*
X0359193Y0034319D01*
X0359511Y0034411D01*
X0359832Y0034495D01*
X0360154Y0034572D01*
X0360478Y0034641D01*
X0360804Y0034701D01*
X0361131Y0034754D01*
X0361459Y0034798D01*
X0361789Y0034835D01*
X0362119Y0034863D01*
X0362450Y0034884D01*
X0362781Y0034896D01*
X0363112Y0034900D01*
X0363443Y0034896D01*
X0363774Y0034884D01*
X0364105Y0034863D01*
X0364435Y0034835D01*
X0364765Y0034798D01*
X0365093Y0034754D01*
X0365420Y0034701D01*
X0365746Y0034641D01*
X0366070Y0034572D01*
X0366392Y0034495D01*
X0366713Y0034411D01*
X0367031Y0034319D01*
X0367347Y0034219D01*
X0367660Y0034111D01*
X0367971Y0033995D01*
X0368278Y0033872D01*
X0368583Y0033742D01*
X0368884Y0033604D01*
X0369182Y0033459D01*
X0369476Y0033306D01*
X0369766Y0033146D01*
X0370052Y0032979D01*
X0370334Y0032806D01*
X0370612Y0032625D01*
X0370885Y0032437D01*
X0371154Y0032243D01*
X0371418Y0032043D01*
X0371676Y0031836D01*
X0371930Y0031622D01*
X0372178Y0031403D01*
X0372421Y0031177D01*
X0372658Y0030946D01*
X0372889Y0030709D01*
X0373115Y0030466D01*
X0373334Y0030218D01*
X0373548Y0029964D01*
X0373755Y0029706D01*
X0373955Y0029442D01*
X0374149Y0029173D01*
X0374337Y0028900D01*
X0374518Y0028622D01*
X0374691Y0028340D01*
X0374858Y0028054D01*
X0375018Y0027764D01*
X0375171Y0027470D01*
X0375316Y0027172D01*
X0375454Y0026871D01*
X0375584Y0026566D01*
X0375707Y0026259D01*
X0375823Y0025948D01*
X0375931Y0025635D01*
X0376031Y0025319D01*
X0376123Y0025001D01*
X0376207Y0024680D01*
X0376284Y0024358D01*
X0376353Y0024034D01*
X0376413Y0023708D01*
X0376466Y0023381D01*
X0376510Y0023053D01*
X0376547Y0022723D01*
X0376575Y0022393D01*
X0376596Y0022062D01*
X0376608Y0021731D01*
X0376612Y0021400D01*
X0376608Y0021069D01*
X0376596Y0020738D01*
X0376575Y0020407D01*
X0376547Y0020077D01*
X0376510Y0019747D01*
X0376466Y0019419D01*
X0376413Y0019092D01*
X0376353Y0018766D01*
X0376284Y0018442D01*
X0376207Y0018120D01*
X0376123Y0017799D01*
X0376031Y0017481D01*
X0375931Y0017165D01*
X0375823Y0016852D01*
X0375707Y0016541D01*
X0375584Y0016234D01*
X0375454Y0015929D01*
X0375316Y0015628D01*
X0375171Y0015330D01*
X0375018Y0015036D01*
X0374858Y0014746D01*
X0374691Y0014460D01*
X0374518Y0014178D01*
X0374337Y0013900D01*
X0374149Y0013627D01*
X0373955Y0013358D01*
X0373755Y0013094D01*
X0373548Y0012836D01*
X0373334Y0012582D01*
X0373115Y0012334D01*
X0372889Y0012091D01*
X0372658Y0011854D01*
X0372421Y0011623D01*
X0372178Y0011397D01*
X0371930Y0011178D01*
X0371676Y0010964D01*
X0371418Y0010757D01*
X0371154Y0010557D01*
X0370885Y0010363D01*
X0370612Y0010175D01*
X0370334Y0009994D01*
X0370052Y0009821D01*
X0369766Y0009654D01*
X0369476Y0009494D01*
X0369182Y0009341D01*
X0368884Y0009196D01*
X0368583Y0009058D01*
X0368278Y0008928D01*
X0367971Y0008805D01*
X0367660Y0008689D01*
X0367347Y0008581D01*
X0367031Y0008481D01*
X0366713Y0008389D01*
X0366392Y0008305D01*
X0366070Y0008228D01*
X0365746Y0008159D01*
X0365420Y0008099D01*
X0365093Y0008046D01*
X0364765Y0008002D01*
X0364435Y0007965D01*
X0364105Y0007937D01*
X0363774Y0007916D01*
X0363443Y0007904D01*
X0363112Y0007900D01*
X0362781Y0007904D01*
X0362450Y0007916D01*
X0362119Y0007937D01*
X0361789Y0007965D01*
X0361459Y0008002D01*
X0361131Y0008046D01*
X0360804Y0008099D01*
X0360478Y0008159D01*
X0360154Y0008228D01*
X0359832Y0008305D01*
X0359511Y0008389D01*
X0359193Y0008481D01*
X0358877Y0008581D01*
X0358564Y0008689D01*
X0358253Y0008805D01*
X0357946Y0008928D01*
X0357641Y0009058D01*
X0357340Y0009196D01*
X0357042Y0009341D01*
X0356748Y0009494D01*
X0356458Y0009654D01*
X0356172Y0009821D01*
X0355890Y0009994D01*
X0355612Y0010175D01*
X0355339Y0010363D01*
X0355070Y0010557D01*
X0354806Y0010757D01*
X0354548Y0010964D01*
X0354294Y0011178D01*
X0354046Y0011397D01*
X0353803Y0011623D01*
X0353566Y0011854D01*
X0353335Y0012091D01*
X0353109Y0012334D01*
X0352890Y0012582D01*
X0352676Y0012836D01*
X0352469Y0013094D01*
X0352269Y0013358D01*
X0352075Y0013627D01*
X0351887Y0013900D01*
X0351706Y0014178D01*
X0351533Y0014460D01*
X0351366Y0014746D01*
X0351206Y0015036D01*
X0351053Y0015330D01*
X0350908Y0015628D01*
X0350770Y0015929D01*
X0350640Y0016234D01*
X0350517Y0016541D01*
X0350401Y0016852D01*
X0350293Y0017165D01*
X0350193Y0017481D01*
X0350101Y0017799D01*
X0350017Y0018120D01*
X0349940Y0018442D01*
X0349871Y0018766D01*
X0349811Y0019092D01*
X0349758Y0019419D01*
X0349714Y0019747D01*
X0349677Y0020077D01*
X0349649Y0020407D01*
X0349628Y0020738D01*
X0349616Y0021069D01*
X0349612Y0021400D01*
D14*
X0288806Y0140838D02*
X0287138Y0140838D01*
X0288806Y0142506D01*
X0288806Y0142923D01*
X0288389Y0143340D01*
X0287555Y0143340D01*
X0287138Y0142923D01*
X0286043Y0142923D02*
X0285626Y0143340D01*
X0284792Y0143340D01*
X0284375Y0142923D01*
X0284375Y0141255D01*
X0284792Y0140838D01*
X0285626Y0140838D01*
X0286043Y0141255D01*
X0285626Y0153388D02*
X0284792Y0153388D01*
X0284375Y0153805D01*
X0284375Y0155473D01*
X0284792Y0155890D01*
X0285626Y0155890D01*
X0286043Y0155473D01*
X0287138Y0154639D02*
X0288389Y0154639D01*
X0288806Y0154222D01*
X0288806Y0153805D01*
X0288389Y0153388D01*
X0287555Y0153388D01*
X0287138Y0153805D01*
X0287138Y0154639D01*
X0287972Y0155473D01*
X0288806Y0155890D01*
X0286043Y0153805D02*
X0285626Y0153388D01*
X0303850Y0163850D02*
X0163850Y0163850D01*
X0163850Y0243850D01*
X0303850Y0243850D01*
X0303850Y0213850D01*
X0278850Y0213850D01*
X0278850Y0193850D01*
X0303850Y0193850D01*
X0303850Y0163850D01*
X0303850Y0193850D02*
X0303850Y0213850D01*
X0147506Y0157852D02*
X0145838Y0157852D01*
X0145838Y0156601D01*
X0146672Y0157018D01*
X0147089Y0157018D01*
X0147506Y0156601D01*
X0147506Y0155767D01*
X0147089Y0155350D01*
X0146255Y0155350D01*
X0145838Y0155767D01*
X0144743Y0155767D02*
X0144326Y0155350D01*
X0143492Y0155350D01*
X0143075Y0155767D01*
X0143075Y0157435D01*
X0143492Y0157852D01*
X0144326Y0157852D01*
X0144743Y0157435D01*
X0144326Y0144102D02*
X0143492Y0144102D01*
X0143075Y0143685D01*
X0143075Y0142017D01*
X0143492Y0141600D01*
X0144326Y0141600D01*
X0144743Y0142017D01*
X0145838Y0141600D02*
X0147506Y0141600D01*
X0146672Y0141600D02*
X0146672Y0144102D01*
X0145838Y0143268D01*
X0144743Y0143685D02*
X0144326Y0144102D01*
X0050998Y0202350D02*
X0050998Y0206854D01*
X0048746Y0204602D01*
X0051749Y0204602D01*
X0047145Y0206103D02*
X0046394Y0206854D01*
X0044893Y0206854D01*
X0044142Y0206103D01*
X0044142Y0203101D01*
X0044893Y0202350D01*
X0046394Y0202350D01*
X0047145Y0203101D01*
D15*
X0060600Y0215100D02*
X0062600Y0215100D01*
X0047600Y0215100D02*
X0047605Y0215529D01*
X0047621Y0215959D01*
X0047647Y0216387D01*
X0047684Y0216815D01*
X0047732Y0217242D01*
X0047789Y0217668D01*
X0047858Y0218092D01*
X0047936Y0218514D01*
X0048025Y0218934D01*
X0048124Y0219352D01*
X0048234Y0219767D01*
X0048354Y0220180D01*
X0048483Y0220589D01*
X0048623Y0220996D01*
X0048773Y0221398D01*
X0048932Y0221797D01*
X0049101Y0222192D01*
X0049280Y0222582D01*
X0049469Y0222968D01*
X0049666Y0223349D01*
X0049873Y0223726D01*
X0050090Y0224097D01*
X0050315Y0224462D01*
X0050549Y0224822D01*
X0050792Y0225177D01*
X0051044Y0225525D01*
X0051304Y0225867D01*
X0051572Y0226202D01*
X0051849Y0226531D01*
X0052133Y0226852D01*
X0052426Y0227167D01*
X0052726Y0227474D01*
X0053033Y0227774D01*
X0053348Y0228067D01*
X0053669Y0228351D01*
X0053998Y0228628D01*
X0054333Y0228896D01*
X0054675Y0229156D01*
X0055023Y0229408D01*
X0055378Y0229651D01*
X0055738Y0229885D01*
X0056103Y0230110D01*
X0056474Y0230327D01*
X0056851Y0230534D01*
X0057232Y0230731D01*
X0057618Y0230920D01*
X0058008Y0231099D01*
X0058403Y0231268D01*
X0058802Y0231427D01*
X0059204Y0231577D01*
X0059611Y0231717D01*
X0060020Y0231846D01*
X0060433Y0231966D01*
X0060848Y0232076D01*
X0061266Y0232175D01*
X0061686Y0232264D01*
X0062108Y0232342D01*
X0062532Y0232411D01*
X0062958Y0232468D01*
X0063385Y0232516D01*
X0063813Y0232553D01*
X0064241Y0232579D01*
X0064671Y0232595D01*
X0065100Y0232600D01*
X0065529Y0232595D01*
X0065959Y0232579D01*
X0066387Y0232553D01*
X0066815Y0232516D01*
X0067242Y0232468D01*
X0067668Y0232411D01*
X0068092Y0232342D01*
X0068514Y0232264D01*
X0068934Y0232175D01*
X0069352Y0232076D01*
X0069767Y0231966D01*
X0070180Y0231846D01*
X0070589Y0231717D01*
X0070996Y0231577D01*
X0071398Y0231427D01*
X0071797Y0231268D01*
X0072192Y0231099D01*
X0072582Y0230920D01*
X0072968Y0230731D01*
X0073349Y0230534D01*
X0073726Y0230327D01*
X0074097Y0230110D01*
X0074462Y0229885D01*
X0074822Y0229651D01*
X0075177Y0229408D01*
X0075525Y0229156D01*
X0075867Y0228896D01*
X0076202Y0228628D01*
X0076531Y0228351D01*
X0076852Y0228067D01*
X0077167Y0227774D01*
X0077474Y0227474D01*
X0077774Y0227167D01*
X0078067Y0226852D01*
X0078351Y0226531D01*
X0078628Y0226202D01*
X0078896Y0225867D01*
X0079156Y0225525D01*
X0079408Y0225177D01*
X0079651Y0224822D01*
X0079885Y0224462D01*
X0080110Y0224097D01*
X0080327Y0223726D01*
X0080534Y0223349D01*
X0080731Y0222968D01*
X0080920Y0222582D01*
X0081099Y0222192D01*
X0081268Y0221797D01*
X0081427Y0221398D01*
X0081577Y0220996D01*
X0081717Y0220589D01*
X0081846Y0220180D01*
X0081966Y0219767D01*
X0082076Y0219352D01*
X0082175Y0218934D01*
X0082264Y0218514D01*
X0082342Y0218092D01*
X0082411Y0217668D01*
X0082468Y0217242D01*
X0082516Y0216815D01*
X0082553Y0216387D01*
X0082579Y0215959D01*
X0082595Y0215529D01*
X0082600Y0215100D01*
X0082595Y0214671D01*
X0082579Y0214241D01*
X0082553Y0213813D01*
X0082516Y0213385D01*
X0082468Y0212958D01*
X0082411Y0212532D01*
X0082342Y0212108D01*
X0082264Y0211686D01*
X0082175Y0211266D01*
X0082076Y0210848D01*
X0081966Y0210433D01*
X0081846Y0210020D01*
X0081717Y0209611D01*
X0081577Y0209204D01*
X0081427Y0208802D01*
X0081268Y0208403D01*
X0081099Y0208008D01*
X0080920Y0207618D01*
X0080731Y0207232D01*
X0080534Y0206851D01*
X0080327Y0206474D01*
X0080110Y0206103D01*
X0079885Y0205738D01*
X0079651Y0205378D01*
X0079408Y0205023D01*
X0079156Y0204675D01*
X0078896Y0204333D01*
X0078628Y0203998D01*
X0078351Y0203669D01*
X0078067Y0203348D01*
X0077774Y0203033D01*
X0077474Y0202726D01*
X0077167Y0202426D01*
X0076852Y0202133D01*
X0076531Y0201849D01*
X0076202Y0201572D01*
X0075867Y0201304D01*
X0075525Y0201044D01*
X0075177Y0200792D01*
X0074822Y0200549D01*
X0074462Y0200315D01*
X0074097Y0200090D01*
X0073726Y0199873D01*
X0073349Y0199666D01*
X0072968Y0199469D01*
X0072582Y0199280D01*
X0072192Y0199101D01*
X0071797Y0198932D01*
X0071398Y0198773D01*
X0070996Y0198623D01*
X0070589Y0198483D01*
X0070180Y0198354D01*
X0069767Y0198234D01*
X0069352Y0198124D01*
X0068934Y0198025D01*
X0068514Y0197936D01*
X0068092Y0197858D01*
X0067668Y0197789D01*
X0067242Y0197732D01*
X0066815Y0197684D01*
X0066387Y0197647D01*
X0065959Y0197621D01*
X0065529Y0197605D01*
X0065100Y0197600D01*
X0064671Y0197605D01*
X0064241Y0197621D01*
X0063813Y0197647D01*
X0063385Y0197684D01*
X0062958Y0197732D01*
X0062532Y0197789D01*
X0062108Y0197858D01*
X0061686Y0197936D01*
X0061266Y0198025D01*
X0060848Y0198124D01*
X0060433Y0198234D01*
X0060020Y0198354D01*
X0059611Y0198483D01*
X0059204Y0198623D01*
X0058802Y0198773D01*
X0058403Y0198932D01*
X0058008Y0199101D01*
X0057618Y0199280D01*
X0057232Y0199469D01*
X0056851Y0199666D01*
X0056474Y0199873D01*
X0056103Y0200090D01*
X0055738Y0200315D01*
X0055378Y0200549D01*
X0055023Y0200792D01*
X0054675Y0201044D01*
X0054333Y0201304D01*
X0053998Y0201572D01*
X0053669Y0201849D01*
X0053348Y0202133D01*
X0053033Y0202426D01*
X0052726Y0202726D01*
X0052426Y0203033D01*
X0052133Y0203348D01*
X0051849Y0203669D01*
X0051572Y0203998D01*
X0051304Y0204333D01*
X0051044Y0204675D01*
X0050792Y0205023D01*
X0050549Y0205378D01*
X0050315Y0205738D01*
X0050090Y0206103D01*
X0049873Y0206474D01*
X0049666Y0206851D01*
X0049469Y0207232D01*
X0049280Y0207618D01*
X0049101Y0208008D01*
X0048932Y0208403D01*
X0048773Y0208802D01*
X0048623Y0209204D01*
X0048483Y0209611D01*
X0048354Y0210020D01*
X0048234Y0210433D01*
X0048124Y0210848D01*
X0048025Y0211266D01*
X0047936Y0211686D01*
X0047858Y0212108D01*
X0047789Y0212532D01*
X0047732Y0212958D01*
X0047684Y0213385D01*
X0047647Y0213813D01*
X0047621Y0214241D01*
X0047605Y0214671D01*
X0047600Y0215100D01*
X0066100Y0210600D02*
X0068600Y0210600D01*
X0068600Y0215100D01*
X0068600Y0219600D01*
X0066100Y0219600D01*
X0066100Y0210600D01*
X0068600Y0215100D02*
X0069600Y0215100D01*
X0078100Y0210100D02*
X0078100Y0207100D01*
X0079600Y0208600D02*
X0076600Y0208600D01*
X0137110Y0209280D02*
X0137110Y0210148D01*
X0137544Y0210581D01*
X0137978Y0210581D01*
X0138411Y0210148D01*
X0138845Y0210581D01*
X0139279Y0210581D01*
X0139713Y0210148D01*
X0139713Y0209280D01*
X0139279Y0208847D01*
X0139279Y0207635D02*
X0139713Y0207201D01*
X0139713Y0206334D01*
X0139279Y0205900D01*
X0137544Y0205900D01*
X0137110Y0206334D01*
X0137110Y0207201D01*
X0137544Y0207635D01*
X0137544Y0208847D02*
X0137110Y0209280D01*
X0138411Y0209714D02*
X0138411Y0210148D01*
X0222850Y0143350D02*
X0224350Y0143350D01*
X0224850Y0142850D01*
X0237850Y0142850D01*
X0238350Y0143350D01*
X0239850Y0143350D01*
X0239910Y0143348D01*
X0239971Y0143343D01*
X0240030Y0143334D01*
X0240089Y0143321D01*
X0240148Y0143305D01*
X0240205Y0143285D01*
X0240260Y0143262D01*
X0240315Y0143235D01*
X0240367Y0143206D01*
X0240418Y0143173D01*
X0240467Y0143137D01*
X0240513Y0143099D01*
X0240557Y0143057D01*
X0240599Y0143013D01*
X0240637Y0142967D01*
X0240673Y0142918D01*
X0240706Y0142867D01*
X0240735Y0142815D01*
X0240762Y0142760D01*
X0240785Y0142705D01*
X0240805Y0142648D01*
X0240821Y0142589D01*
X0240834Y0142530D01*
X0240843Y0142471D01*
X0240848Y0142410D01*
X0240850Y0142350D01*
X0240850Y0135350D01*
X0240848Y0135290D01*
X0240843Y0135229D01*
X0240834Y0135170D01*
X0240821Y0135111D01*
X0240805Y0135052D01*
X0240785Y0134995D01*
X0240762Y0134940D01*
X0240735Y0134885D01*
X0240706Y0134833D01*
X0240673Y0134782D01*
X0240637Y0134733D01*
X0240599Y0134687D01*
X0240557Y0134643D01*
X0240513Y0134601D01*
X0240467Y0134563D01*
X0240418Y0134527D01*
X0240367Y0134494D01*
X0240315Y0134465D01*
X0240260Y0134438D01*
X0240205Y0134415D01*
X0240148Y0134395D01*
X0240089Y0134379D01*
X0240030Y0134366D01*
X0239971Y0134357D01*
X0239910Y0134352D01*
X0239850Y0134350D01*
X0238350Y0134350D01*
X0237850Y0134850D01*
X0224850Y0134850D01*
X0224350Y0134350D01*
X0222850Y0134350D01*
X0222790Y0134352D01*
X0222729Y0134357D01*
X0222670Y0134366D01*
X0222611Y0134379D01*
X0222552Y0134395D01*
X0222495Y0134415D01*
X0222440Y0134438D01*
X0222385Y0134465D01*
X0222333Y0134494D01*
X0222282Y0134527D01*
X0222233Y0134563D01*
X0222187Y0134601D01*
X0222143Y0134643D01*
X0222101Y0134687D01*
X0222063Y0134733D01*
X0222027Y0134782D01*
X0221994Y0134833D01*
X0221965Y0134885D01*
X0221938Y0134940D01*
X0221915Y0134995D01*
X0221895Y0135052D01*
X0221879Y0135111D01*
X0221866Y0135170D01*
X0221857Y0135229D01*
X0221852Y0135290D01*
X0221850Y0135350D01*
X0221850Y0142350D01*
X0221852Y0142410D01*
X0221857Y0142471D01*
X0221866Y0142530D01*
X0221879Y0142589D01*
X0221895Y0142648D01*
X0221915Y0142705D01*
X0221938Y0142760D01*
X0221965Y0142815D01*
X0221994Y0142867D01*
X0222027Y0142918D01*
X0222063Y0142967D01*
X0222101Y0143013D01*
X0222143Y0143057D01*
X0222187Y0143099D01*
X0222233Y0143137D01*
X0222282Y0143173D01*
X0222333Y0143206D01*
X0222385Y0143235D01*
X0222440Y0143262D01*
X0222495Y0143285D01*
X0222552Y0143305D01*
X0222611Y0143321D01*
X0222670Y0143334D01*
X0222729Y0143343D01*
X0222790Y0143348D01*
X0222850Y0143350D01*
X0344898Y0166507D02*
X0344898Y0167808D01*
X0345331Y0168242D01*
X0346199Y0168242D01*
X0346633Y0167808D01*
X0346633Y0166507D01*
X0347500Y0166507D02*
X0344898Y0166507D01*
X0346633Y0167374D02*
X0347500Y0168242D01*
X0347500Y0169453D02*
X0345765Y0171188D01*
X0345331Y0171188D01*
X0344898Y0170755D01*
X0344898Y0169887D01*
X0345331Y0169453D01*
X0347500Y0169453D02*
X0347500Y0171188D01*
X0365712Y0140955D02*
X0365712Y0139220D01*
X0365712Y0140087D02*
X0363110Y0140087D01*
X0363978Y0139220D01*
X0364845Y0138008D02*
X0363110Y0138008D01*
X0363110Y0136274D02*
X0364845Y0136274D01*
X0365712Y0137141D01*
X0364845Y0138008D01*
X0364411Y0135062D02*
X0365279Y0135062D01*
X0365712Y0134628D01*
X0365712Y0133761D01*
X0365279Y0133327D01*
X0364411Y0133327D02*
X0363978Y0134194D01*
X0363978Y0134628D01*
X0364411Y0135062D01*
X0363110Y0135062D02*
X0363110Y0133327D01*
X0364411Y0133327D01*
X0366146Y0132115D02*
X0366146Y0130381D01*
X0364845Y0128735D02*
X0364845Y0127434D01*
X0365712Y0127434D02*
X0363110Y0127434D01*
X0363110Y0128735D01*
X0363544Y0129169D01*
X0364411Y0129169D01*
X0364845Y0128735D01*
X0365279Y0125789D02*
X0363110Y0125789D01*
X0363110Y0126222D02*
X0363110Y0125355D01*
X0365279Y0125789D02*
X0365712Y0125355D01*
X0365712Y0124921D01*
X0365279Y0124487D01*
X0073350Y0126600D02*
X0073350Y0133600D01*
X0073348Y0133660D01*
X0073343Y0133721D01*
X0073334Y0133780D01*
X0073321Y0133839D01*
X0073305Y0133898D01*
X0073285Y0133955D01*
X0073262Y0134010D01*
X0073235Y0134065D01*
X0073206Y0134117D01*
X0073173Y0134168D01*
X0073137Y0134217D01*
X0073099Y0134263D01*
X0073057Y0134307D01*
X0073013Y0134349D01*
X0072967Y0134387D01*
X0072918Y0134423D01*
X0072867Y0134456D01*
X0072815Y0134485D01*
X0072760Y0134512D01*
X0072705Y0134535D01*
X0072648Y0134555D01*
X0072589Y0134571D01*
X0072530Y0134584D01*
X0072471Y0134593D01*
X0072410Y0134598D01*
X0072350Y0134600D01*
X0070850Y0134600D01*
X0070350Y0134100D01*
X0057350Y0134100D01*
X0056850Y0134600D01*
X0055350Y0134600D01*
X0055290Y0134598D01*
X0055229Y0134593D01*
X0055170Y0134584D01*
X0055111Y0134571D01*
X0055052Y0134555D01*
X0054995Y0134535D01*
X0054940Y0134512D01*
X0054885Y0134485D01*
X0054833Y0134456D01*
X0054782Y0134423D01*
X0054733Y0134387D01*
X0054687Y0134349D01*
X0054643Y0134307D01*
X0054601Y0134263D01*
X0054563Y0134217D01*
X0054527Y0134168D01*
X0054494Y0134117D01*
X0054465Y0134065D01*
X0054438Y0134010D01*
X0054415Y0133955D01*
X0054395Y0133898D01*
X0054379Y0133839D01*
X0054366Y0133780D01*
X0054357Y0133721D01*
X0054352Y0133660D01*
X0054350Y0133600D01*
X0054350Y0126600D01*
X0054352Y0126540D01*
X0054357Y0126479D01*
X0054366Y0126420D01*
X0054379Y0126361D01*
X0054395Y0126302D01*
X0054415Y0126245D01*
X0054438Y0126190D01*
X0054465Y0126135D01*
X0054494Y0126083D01*
X0054527Y0126032D01*
X0054563Y0125983D01*
X0054601Y0125937D01*
X0054643Y0125893D01*
X0054687Y0125851D01*
X0054733Y0125813D01*
X0054782Y0125777D01*
X0054833Y0125744D01*
X0054885Y0125715D01*
X0054940Y0125688D01*
X0054995Y0125665D01*
X0055052Y0125645D01*
X0055111Y0125629D01*
X0055170Y0125616D01*
X0055229Y0125607D01*
X0055290Y0125602D01*
X0055350Y0125600D01*
X0056850Y0125600D01*
X0057350Y0126100D01*
X0070350Y0126100D01*
X0070850Y0125600D01*
X0072350Y0125600D01*
X0072410Y0125602D01*
X0072471Y0125607D01*
X0072530Y0125616D01*
X0072589Y0125629D01*
X0072648Y0125645D01*
X0072705Y0125665D01*
X0072760Y0125688D01*
X0072815Y0125715D01*
X0072867Y0125744D01*
X0072918Y0125777D01*
X0072967Y0125813D01*
X0073013Y0125851D01*
X0073057Y0125893D01*
X0073099Y0125937D01*
X0073137Y0125983D01*
X0073173Y0126032D01*
X0073206Y0126083D01*
X0073235Y0126135D01*
X0073262Y0126190D01*
X0073285Y0126245D01*
X0073305Y0126302D01*
X0073321Y0126361D01*
X0073334Y0126420D01*
X0073343Y0126479D01*
X0073348Y0126540D01*
X0073350Y0126600D01*
D16*
X0062850Y0215100D03*
D17*
X0109037Y0127364D02*
X0109039Y0127435D01*
X0109045Y0127506D01*
X0109055Y0127577D01*
X0109069Y0127646D01*
X0109086Y0127715D01*
X0109108Y0127783D01*
X0109133Y0127850D01*
X0109162Y0127915D01*
X0109194Y0127978D01*
X0109230Y0128040D01*
X0109269Y0128099D01*
X0109312Y0128156D01*
X0109357Y0128211D01*
X0109406Y0128263D01*
X0109457Y0128312D01*
X0109511Y0128358D01*
X0109568Y0128402D01*
X0109626Y0128442D01*
X0109687Y0128478D01*
X0109750Y0128512D01*
X0109815Y0128541D01*
X0109881Y0128567D01*
X0109949Y0128590D01*
X0110017Y0128608D01*
X0110087Y0128623D01*
X0110157Y0128634D01*
X0110228Y0128641D01*
X0110299Y0128644D01*
X0110370Y0128643D01*
X0110441Y0128638D01*
X0110512Y0128629D01*
X0110582Y0128616D01*
X0110651Y0128600D01*
X0110719Y0128579D01*
X0110786Y0128555D01*
X0110852Y0128527D01*
X0110915Y0128495D01*
X0110977Y0128460D01*
X0111037Y0128422D01*
X0111095Y0128380D01*
X0111150Y0128336D01*
X0111203Y0128288D01*
X0111253Y0128237D01*
X0111300Y0128184D01*
X0111344Y0128128D01*
X0111385Y0128070D01*
X0111423Y0128009D01*
X0111457Y0127947D01*
X0111487Y0127882D01*
X0111514Y0127817D01*
X0111538Y0127749D01*
X0111557Y0127681D01*
X0111573Y0127612D01*
X0111585Y0127541D01*
X0111593Y0127471D01*
X0111597Y0127400D01*
X0111597Y0127328D01*
X0111593Y0127257D01*
X0111585Y0127187D01*
X0111573Y0127116D01*
X0111557Y0127047D01*
X0111538Y0126979D01*
X0111514Y0126911D01*
X0111487Y0126846D01*
X0111457Y0126781D01*
X0111423Y0126719D01*
X0111385Y0126658D01*
X0111344Y0126600D01*
X0111300Y0126544D01*
X0111253Y0126491D01*
X0111203Y0126440D01*
X0111150Y0126392D01*
X0111095Y0126348D01*
X0111037Y0126306D01*
X0110977Y0126268D01*
X0110915Y0126233D01*
X0110852Y0126201D01*
X0110786Y0126173D01*
X0110719Y0126149D01*
X0110651Y0126128D01*
X0110582Y0126112D01*
X0110512Y0126099D01*
X0110441Y0126090D01*
X0110370Y0126085D01*
X0110299Y0126084D01*
X0110228Y0126087D01*
X0110157Y0126094D01*
X0110087Y0126105D01*
X0110017Y0126120D01*
X0109949Y0126138D01*
X0109881Y0126161D01*
X0109815Y0126187D01*
X0109750Y0126216D01*
X0109687Y0126250D01*
X0109626Y0126286D01*
X0109568Y0126326D01*
X0109511Y0126370D01*
X0109457Y0126416D01*
X0109406Y0126465D01*
X0109357Y0126517D01*
X0109312Y0126572D01*
X0109269Y0126629D01*
X0109230Y0126688D01*
X0109194Y0126750D01*
X0109162Y0126813D01*
X0109133Y0126878D01*
X0109108Y0126945D01*
X0109086Y0127013D01*
X0109069Y0127082D01*
X0109055Y0127151D01*
X0109045Y0127222D01*
X0109039Y0127293D01*
X0109037Y0127364D01*
X0108939Y0125395D02*
X0126261Y0125395D01*
X0126261Y0099805D01*
X0108939Y0099805D01*
X0108939Y0125395D01*
X0127800Y0082404D02*
X0130869Y0077800D01*
X0132404Y0077800D02*
X0135473Y0080869D01*
X0135473Y0081637D01*
X0134706Y0082404D01*
X0133171Y0082404D01*
X0132404Y0081637D01*
X0130869Y0082404D02*
X0127800Y0077800D01*
X0132404Y0077800D02*
X0135473Y0077800D01*
X0202800Y0077800D02*
X0205869Y0082404D01*
X0207404Y0080869D02*
X0208939Y0082404D01*
X0208939Y0077800D01*
X0210473Y0077800D02*
X0207404Y0077800D01*
X0205869Y0077800D02*
X0202800Y0082404D01*
X0262689Y0099805D02*
X0262689Y0125395D01*
X0280011Y0125395D01*
X0280011Y0099805D01*
X0262689Y0099805D01*
X0277800Y0082404D02*
X0280869Y0077800D01*
X0282404Y0080102D02*
X0285473Y0080102D01*
X0284706Y0077800D02*
X0284706Y0082404D01*
X0282404Y0080102D01*
X0280869Y0082404D02*
X0277800Y0077800D01*
X0262787Y0127364D02*
X0262789Y0127435D01*
X0262795Y0127506D01*
X0262805Y0127577D01*
X0262819Y0127646D01*
X0262836Y0127715D01*
X0262858Y0127783D01*
X0262883Y0127850D01*
X0262912Y0127915D01*
X0262944Y0127978D01*
X0262980Y0128040D01*
X0263019Y0128099D01*
X0263062Y0128156D01*
X0263107Y0128211D01*
X0263156Y0128263D01*
X0263207Y0128312D01*
X0263261Y0128358D01*
X0263318Y0128402D01*
X0263376Y0128442D01*
X0263437Y0128478D01*
X0263500Y0128512D01*
X0263565Y0128541D01*
X0263631Y0128567D01*
X0263699Y0128590D01*
X0263767Y0128608D01*
X0263837Y0128623D01*
X0263907Y0128634D01*
X0263978Y0128641D01*
X0264049Y0128644D01*
X0264120Y0128643D01*
X0264191Y0128638D01*
X0264262Y0128629D01*
X0264332Y0128616D01*
X0264401Y0128600D01*
X0264469Y0128579D01*
X0264536Y0128555D01*
X0264602Y0128527D01*
X0264665Y0128495D01*
X0264727Y0128460D01*
X0264787Y0128422D01*
X0264845Y0128380D01*
X0264900Y0128336D01*
X0264953Y0128288D01*
X0265003Y0128237D01*
X0265050Y0128184D01*
X0265094Y0128128D01*
X0265135Y0128070D01*
X0265173Y0128009D01*
X0265207Y0127947D01*
X0265237Y0127882D01*
X0265264Y0127817D01*
X0265288Y0127749D01*
X0265307Y0127681D01*
X0265323Y0127612D01*
X0265335Y0127541D01*
X0265343Y0127471D01*
X0265347Y0127400D01*
X0265347Y0127328D01*
X0265343Y0127257D01*
X0265335Y0127187D01*
X0265323Y0127116D01*
X0265307Y0127047D01*
X0265288Y0126979D01*
X0265264Y0126911D01*
X0265237Y0126846D01*
X0265207Y0126781D01*
X0265173Y0126719D01*
X0265135Y0126658D01*
X0265094Y0126600D01*
X0265050Y0126544D01*
X0265003Y0126491D01*
X0264953Y0126440D01*
X0264900Y0126392D01*
X0264845Y0126348D01*
X0264787Y0126306D01*
X0264727Y0126268D01*
X0264665Y0126233D01*
X0264602Y0126201D01*
X0264536Y0126173D01*
X0264469Y0126149D01*
X0264401Y0126128D01*
X0264332Y0126112D01*
X0264262Y0126099D01*
X0264191Y0126090D01*
X0264120Y0126085D01*
X0264049Y0126084D01*
X0263978Y0126087D01*
X0263907Y0126094D01*
X0263837Y0126105D01*
X0263767Y0126120D01*
X0263699Y0126138D01*
X0263631Y0126161D01*
X0263565Y0126187D01*
X0263500Y0126216D01*
X0263437Y0126250D01*
X0263376Y0126286D01*
X0263318Y0126326D01*
X0263261Y0126370D01*
X0263207Y0126416D01*
X0263156Y0126465D01*
X0263107Y0126517D01*
X0263062Y0126572D01*
X0263019Y0126629D01*
X0262980Y0126688D01*
X0262944Y0126750D01*
X0262912Y0126813D01*
X0262883Y0126878D01*
X0262858Y0126945D01*
X0262836Y0127013D01*
X0262819Y0127082D01*
X0262805Y0127151D01*
X0262795Y0127222D01*
X0262789Y0127293D01*
X0262787Y0127364D01*
X0239248Y0200015D02*
X0238481Y0200015D01*
X0239248Y0200015D02*
X0240015Y0200783D01*
X0240015Y0204619D01*
X0236946Y0204619D02*
X0236946Y0202317D01*
X0237713Y0201550D01*
X0240015Y0201550D01*
X0235411Y0202317D02*
X0234644Y0203085D01*
X0233109Y0203085D01*
X0232342Y0203852D01*
X0233109Y0204619D01*
X0235411Y0204619D01*
X0235411Y0202317D02*
X0234644Y0201550D01*
X0232342Y0201550D01*
X0230807Y0201550D02*
X0230807Y0203852D01*
X0230040Y0204619D01*
X0227738Y0204619D01*
X0227738Y0201550D01*
X0226204Y0203085D02*
X0223134Y0203085D01*
X0223134Y0203852D02*
X0223902Y0204619D01*
X0225436Y0204619D01*
X0226204Y0203852D01*
X0226204Y0203085D01*
X0225436Y0201550D02*
X0223902Y0201550D01*
X0223134Y0202317D01*
X0223134Y0203852D01*
X0221600Y0203852D02*
X0221600Y0203085D01*
X0218530Y0203085D01*
X0218530Y0203852D02*
X0219298Y0204619D01*
X0220832Y0204619D01*
X0221600Y0203852D01*
X0220832Y0201550D02*
X0219298Y0201550D01*
X0218530Y0202317D01*
X0218530Y0203852D01*
X0216996Y0206154D02*
X0213926Y0206154D01*
X0215461Y0206154D02*
X0215461Y0201550D01*
X0285894Y0202317D02*
X0286661Y0201550D01*
X0288196Y0201550D01*
X0288963Y0202317D01*
X0288963Y0206154D01*
X0290498Y0205387D02*
X0290498Y0204619D01*
X0291265Y0203852D01*
X0292800Y0203852D01*
X0293567Y0203085D01*
X0293567Y0202317D01*
X0292800Y0201550D01*
X0291265Y0201550D01*
X0290498Y0202317D01*
X0290498Y0205387D02*
X0291265Y0206154D01*
X0292800Y0206154D01*
X0293567Y0205387D01*
X0295102Y0206154D02*
X0297404Y0206154D01*
X0298171Y0205387D01*
X0298171Y0204619D01*
X0297404Y0203852D01*
X0295102Y0203852D01*
X0297404Y0203852D02*
X0298171Y0203085D01*
X0298171Y0202317D01*
X0297404Y0201550D01*
X0295102Y0201550D01*
X0295102Y0206154D01*
X0285894Y0206154D02*
X0285894Y0202317D01*
X0057973Y0081637D02*
X0057973Y0080869D01*
X0057206Y0080102D01*
X0057973Y0079335D01*
X0057973Y0078567D01*
X0057206Y0077800D01*
X0055671Y0077800D01*
X0054904Y0078567D01*
X0053369Y0077800D02*
X0050300Y0082404D01*
X0053369Y0082404D02*
X0050300Y0077800D01*
X0054904Y0081637D02*
X0055671Y0082404D01*
X0057206Y0082404D01*
X0057973Y0081637D01*
X0057206Y0080102D02*
X0056439Y0080102D01*
D18*
X0335238Y0148216D03*
X0339962Y0148216D03*
D19*
X0337600Y0148216D03*
D20*
X0242550Y0138850D03*
X0220150Y0138850D03*
X0075050Y0130100D03*
X0052650Y0130100D03*
D21*
X0060970Y0130094D03*
X0066770Y0130094D03*
X0228470Y0138844D03*
X0234270Y0138844D03*
D22*
X0300599Y0181650D02*
X0300599Y0182151D01*
X0300849Y0182401D01*
X0301099Y0182401D01*
X0301349Y0182151D01*
X0301600Y0182401D01*
X0301850Y0182401D01*
X0302100Y0182151D01*
X0302100Y0181650D01*
X0301850Y0181400D01*
X0301349Y0181900D02*
X0301349Y0182151D01*
X0301850Y0182873D02*
X0301850Y0183123D01*
X0302100Y0183123D01*
X0302100Y0182873D01*
X0301850Y0182873D01*
X0301850Y0183610D02*
X0302100Y0183610D01*
X0301850Y0183610D02*
X0300849Y0184611D01*
X0300599Y0184611D01*
X0300599Y0183610D01*
X0301349Y0185083D02*
X0301349Y0186084D01*
X0301349Y0186556D02*
X0301099Y0187057D01*
X0301099Y0187307D01*
X0301349Y0187557D01*
X0301850Y0187557D01*
X0302100Y0187307D01*
X0302100Y0186807D01*
X0301850Y0186556D01*
X0301349Y0186556D02*
X0300599Y0186556D01*
X0300599Y0187557D01*
X0300599Y0188766D02*
X0301349Y0188766D01*
X0301099Y0189267D01*
X0301099Y0189517D01*
X0301349Y0189767D01*
X0301850Y0189767D01*
X0302100Y0189517D01*
X0302100Y0189016D01*
X0301850Y0188766D01*
X0301850Y0188280D02*
X0302100Y0188280D01*
X0302100Y0188030D01*
X0301850Y0188030D01*
X0301850Y0188280D01*
X0300599Y0188766D02*
X0300599Y0189767D01*
X0300599Y0190240D02*
X0301600Y0190240D01*
X0302100Y0190740D01*
X0301600Y0191240D01*
X0300599Y0191240D01*
X0300599Y0181650D02*
X0300849Y0181400D01*
D23*
X0126311Y0179569D02*
X0126311Y0225631D01*
X0096389Y0225631D01*
X0096389Y0179569D01*
X0126311Y0179569D01*
M02*
