G75*
%MOIN*%
%OFA0B0*%
%FSLAX25Y25*%
%IPPOS*%
%LPD*%
%AMOC8*
5,1,8,0,0,1.08239X$1,22.5*
%
%ADD10C,0.00000*%
%ADD11C,0.00300*%
%ADD12C,0.00200*%
%ADD13C,0.00400*%
%ADD14C,0.00500*%
%ADD15C,0.00800*%
%ADD16C,0.00600*%
%ADD17R,0.02500X0.09000*%
%ADD18R,0.00591X0.01181*%
%ADD19R,0.01181X0.01181*%
%ADD20R,0.02400X0.03400*%
%ADD21R,0.05512X0.02559*%
%ADD22C,0.00100*%
%ADD23C,0.00799*%
D10*
X0002600Y0002600D02*
X0002600Y0330061D01*
X0352551Y0330061D01*
X0352551Y0002600D01*
X0002600Y0002600D01*
D11*
X0058748Y0194500D02*
X0058748Y0195851D01*
X0059198Y0196302D01*
X0060099Y0196302D01*
X0060549Y0195851D01*
X0060549Y0194500D01*
X0060549Y0195401D02*
X0061450Y0196302D01*
X0061000Y0197262D02*
X0061450Y0197713D01*
X0061450Y0198613D01*
X0061000Y0199064D01*
X0060549Y0199064D01*
X0060099Y0198613D01*
X0060099Y0198163D01*
X0060099Y0198613D02*
X0059648Y0199064D01*
X0059198Y0199064D01*
X0058748Y0198613D01*
X0058748Y0197713D01*
X0059198Y0197262D01*
X0058748Y0194500D02*
X0061450Y0194500D01*
X0083750Y0201700D02*
X0084200Y0201250D01*
X0085101Y0201250D01*
X0085552Y0201700D01*
X0086512Y0201250D02*
X0088314Y0201250D01*
X0087413Y0201250D02*
X0087413Y0203952D01*
X0086512Y0203052D01*
X0085552Y0203502D02*
X0085101Y0203952D01*
X0084200Y0203952D01*
X0083750Y0203502D01*
X0083750Y0201700D01*
X0089275Y0201250D02*
X0091076Y0201250D01*
X0090175Y0201250D02*
X0090175Y0203952D01*
X0089275Y0203052D01*
X0127498Y0196913D02*
X0130200Y0196913D01*
X0130200Y0196012D02*
X0130200Y0197814D01*
X0128398Y0196012D02*
X0127498Y0196913D01*
X0127948Y0195052D02*
X0127498Y0194601D01*
X0127498Y0193250D01*
X0130200Y0193250D01*
X0129299Y0193250D02*
X0129299Y0194601D01*
X0128849Y0195052D01*
X0127948Y0195052D01*
X0129299Y0194151D02*
X0130200Y0195052D01*
X0155000Y0201700D02*
X0155450Y0201250D01*
X0156351Y0201250D01*
X0156802Y0201700D01*
X0157762Y0201250D02*
X0159564Y0201250D01*
X0158663Y0201250D02*
X0158663Y0203952D01*
X0157762Y0203052D01*
X0156802Y0203502D02*
X0156351Y0203952D01*
X0155450Y0203952D01*
X0155000Y0203502D01*
X0155000Y0201700D01*
X0160525Y0201250D02*
X0162326Y0203052D01*
X0162326Y0203502D01*
X0161876Y0203952D01*
X0160975Y0203952D01*
X0160525Y0203502D01*
X0160525Y0201250D02*
X0162326Y0201250D01*
X0194998Y0197363D02*
X0196349Y0196012D01*
X0196349Y0197814D01*
X0197700Y0197363D02*
X0194998Y0197363D01*
X0195448Y0195052D02*
X0194998Y0194601D01*
X0194998Y0193250D01*
X0197700Y0193250D01*
X0196799Y0193250D02*
X0196799Y0194601D01*
X0196349Y0195052D01*
X0195448Y0195052D01*
X0196799Y0194151D02*
X0197700Y0195052D01*
X0226250Y0201700D02*
X0226700Y0201250D01*
X0227601Y0201250D01*
X0228052Y0201700D01*
X0229012Y0201250D02*
X0230814Y0201250D01*
X0229913Y0201250D02*
X0229913Y0203952D01*
X0229012Y0203052D01*
X0228052Y0203502D02*
X0227601Y0203952D01*
X0226700Y0203952D01*
X0226250Y0203502D01*
X0226250Y0201700D01*
X0231775Y0201700D02*
X0232225Y0201250D01*
X0233126Y0201250D01*
X0233576Y0201700D01*
X0233576Y0202151D01*
X0233126Y0202601D01*
X0232675Y0202601D01*
X0233126Y0202601D02*
X0233576Y0203052D01*
X0233576Y0203502D01*
X0233126Y0203952D01*
X0232225Y0203952D01*
X0231775Y0203502D01*
X0264998Y0197814D02*
X0264998Y0196012D01*
X0266349Y0196012D01*
X0265898Y0196913D01*
X0265898Y0197363D01*
X0266349Y0197814D01*
X0267250Y0197814D01*
X0267700Y0197363D01*
X0267700Y0196463D01*
X0267250Y0196012D01*
X0267700Y0195052D02*
X0266799Y0194151D01*
X0266799Y0194601D02*
X0266799Y0193250D01*
X0267700Y0193250D02*
X0264998Y0193250D01*
X0264998Y0194601D01*
X0265448Y0195052D01*
X0266349Y0195052D01*
X0266799Y0194601D01*
X0295000Y0200450D02*
X0295450Y0200000D01*
X0296351Y0200000D01*
X0296802Y0200450D01*
X0297762Y0200000D02*
X0299564Y0200000D01*
X0298663Y0200000D02*
X0298663Y0202702D01*
X0297762Y0201802D01*
X0296802Y0202252D02*
X0296351Y0202702D01*
X0295450Y0202702D01*
X0295000Y0202252D01*
X0295000Y0200450D01*
X0300525Y0201351D02*
X0302326Y0201351D01*
X0301876Y0200000D02*
X0301876Y0202702D01*
X0300525Y0201351D01*
X0325250Y0198352D02*
X0327719Y0198352D01*
X0326484Y0199586D02*
X0326484Y0197117D01*
X0327117Y0161453D02*
X0326500Y0160836D01*
X0326500Y0158367D01*
X0327117Y0157750D01*
X0328352Y0157750D01*
X0328969Y0158367D01*
X0330183Y0158367D02*
X0330800Y0157750D01*
X0332035Y0157750D01*
X0332652Y0158367D01*
X0332652Y0160836D01*
X0332035Y0161453D01*
X0330800Y0161453D01*
X0330183Y0160836D01*
X0330183Y0158367D01*
X0328969Y0160836D02*
X0328352Y0161453D01*
X0327117Y0161453D01*
X0326500Y0151453D02*
X0328352Y0151453D01*
X0328969Y0150836D01*
X0328969Y0148367D01*
X0328352Y0147750D01*
X0326500Y0147750D01*
X0326500Y0151453D01*
X0330183Y0150836D02*
X0330183Y0148367D01*
X0330800Y0147750D01*
X0332035Y0147750D01*
X0332652Y0148367D01*
X0332652Y0150836D01*
X0332035Y0151453D01*
X0330800Y0151453D01*
X0330183Y0150836D01*
X0300583Y0246500D02*
X0301550Y0247467D01*
X0300583Y0248435D01*
X0298648Y0248435D01*
X0299615Y0249447D02*
X0299615Y0249930D01*
X0301550Y0249930D01*
X0301550Y0249447D02*
X0301550Y0250414D01*
X0301550Y0251411D02*
X0299615Y0251411D01*
X0299615Y0252862D01*
X0300099Y0253346D01*
X0301550Y0253346D01*
X0298648Y0249930D02*
X0298164Y0249930D01*
X0298648Y0246500D02*
X0300583Y0246500D01*
X0282800Y0246984D02*
X0282316Y0246500D01*
X0282800Y0246984D02*
X0282800Y0247951D01*
X0282316Y0248435D01*
X0281833Y0248435D01*
X0281349Y0247951D01*
X0281349Y0247467D01*
X0281349Y0247951D02*
X0280865Y0248435D01*
X0280381Y0248435D01*
X0279898Y0247951D01*
X0279898Y0246984D01*
X0280381Y0246500D01*
X0282316Y0249447D02*
X0282316Y0249930D01*
X0282800Y0249930D01*
X0282800Y0249447D01*
X0282316Y0249447D01*
X0282316Y0250920D02*
X0282800Y0251404D01*
X0282800Y0252371D01*
X0282316Y0252855D01*
X0281833Y0252855D01*
X0281349Y0252371D01*
X0281349Y0251887D01*
X0281349Y0252371D02*
X0280865Y0252855D01*
X0280381Y0252855D01*
X0279898Y0252371D01*
X0279898Y0251404D01*
X0280381Y0250920D01*
X0279898Y0253866D02*
X0281833Y0253866D01*
X0282800Y0254834D01*
X0281833Y0255801D01*
X0279898Y0255801D01*
X0273435Y0248919D02*
X0273435Y0248435D01*
X0272951Y0247951D01*
X0273435Y0247467D01*
X0273435Y0246984D01*
X0272951Y0246500D01*
X0271984Y0246500D01*
X0271500Y0246984D01*
X0270488Y0246500D02*
X0268553Y0246500D01*
X0270488Y0248435D01*
X0270488Y0248919D01*
X0270005Y0249402D01*
X0269037Y0249402D01*
X0268553Y0248919D01*
X0271500Y0248919D02*
X0271984Y0249402D01*
X0272951Y0249402D01*
X0273435Y0248919D01*
X0272951Y0247951D02*
X0272467Y0247951D01*
X0300381Y0282750D02*
X0302316Y0282750D01*
X0302800Y0283234D01*
X0302800Y0284201D01*
X0302316Y0284685D01*
X0301349Y0284685D01*
X0301349Y0283717D01*
X0300381Y0282750D02*
X0299898Y0283234D01*
X0299898Y0284201D01*
X0300381Y0284685D01*
X0299898Y0285697D02*
X0302800Y0287631D01*
X0299898Y0287631D01*
X0299898Y0288643D02*
X0299898Y0290094D01*
X0300381Y0290578D01*
X0302316Y0290578D01*
X0302800Y0290094D01*
X0302800Y0288643D01*
X0299898Y0288643D01*
X0299898Y0285697D02*
X0302800Y0285697D01*
X0291962Y0289484D02*
X0291478Y0289000D01*
X0290510Y0289000D01*
X0290027Y0289484D01*
X0291962Y0291419D01*
X0291962Y0289484D01*
X0291962Y0291419D02*
X0291478Y0291902D01*
X0290510Y0291902D01*
X0290027Y0291419D01*
X0290027Y0289484D01*
X0281962Y0289000D02*
X0280027Y0289000D01*
X0280994Y0289000D02*
X0280994Y0291902D01*
X0280027Y0290935D01*
X0271962Y0290935D02*
X0270027Y0289000D01*
X0271962Y0289000D01*
X0271962Y0290935D02*
X0271962Y0291419D01*
X0271478Y0291902D01*
X0270510Y0291902D01*
X0270027Y0291419D01*
X0203435Y0249402D02*
X0202467Y0248919D01*
X0201500Y0247951D01*
X0202951Y0247951D01*
X0203435Y0247467D01*
X0203435Y0246984D01*
X0202951Y0246500D01*
X0201984Y0246500D01*
X0201500Y0246984D01*
X0201500Y0247951D01*
X0200488Y0246500D02*
X0198553Y0246500D01*
X0199521Y0246500D02*
X0199521Y0249402D01*
X0198553Y0248435D01*
X0193435Y0247951D02*
X0193435Y0246984D01*
X0192951Y0246500D01*
X0191984Y0246500D01*
X0191500Y0246984D01*
X0191500Y0247951D02*
X0192467Y0248435D01*
X0192951Y0248435D01*
X0193435Y0247951D01*
X0193435Y0249402D02*
X0191500Y0249402D01*
X0191500Y0247951D01*
X0190488Y0246500D02*
X0188553Y0246500D01*
X0189521Y0246500D02*
X0189521Y0249402D01*
X0188553Y0248435D01*
X0183435Y0247951D02*
X0181500Y0247951D01*
X0182951Y0249402D01*
X0182951Y0246500D01*
X0180488Y0246500D02*
X0178553Y0246500D01*
X0179521Y0246500D02*
X0179521Y0249402D01*
X0178553Y0248435D01*
X0173435Y0248435D02*
X0172951Y0247951D01*
X0173435Y0247467D01*
X0173435Y0246984D01*
X0172951Y0246500D01*
X0171984Y0246500D01*
X0171500Y0246984D01*
X0170488Y0246500D02*
X0168553Y0246500D01*
X0169521Y0246500D02*
X0169521Y0249402D01*
X0168553Y0248435D01*
X0171500Y0248919D02*
X0171984Y0249402D01*
X0172951Y0249402D01*
X0173435Y0248919D01*
X0173435Y0248435D01*
X0172951Y0247951D02*
X0172467Y0247951D01*
X0171500Y0289000D02*
X0173435Y0290935D01*
X0173435Y0291419D01*
X0172951Y0291902D01*
X0171984Y0291902D01*
X0171500Y0291419D01*
X0169521Y0291902D02*
X0169521Y0289000D01*
X0170488Y0289000D02*
X0168553Y0289000D01*
X0168553Y0290935D02*
X0169521Y0291902D01*
X0171500Y0289000D02*
X0173435Y0289000D01*
X0178553Y0289000D02*
X0180488Y0289000D01*
X0179521Y0289000D02*
X0179521Y0291902D01*
X0178553Y0290935D01*
X0181500Y0290935D02*
X0182467Y0291902D01*
X0182467Y0289000D01*
X0181500Y0289000D02*
X0183435Y0289000D01*
X0188553Y0289000D02*
X0190488Y0289000D01*
X0189521Y0289000D02*
X0189521Y0291902D01*
X0188553Y0290935D01*
X0191500Y0291419D02*
X0191984Y0291902D01*
X0192951Y0291902D01*
X0193435Y0291419D01*
X0191500Y0289484D01*
X0191984Y0289000D01*
X0192951Y0289000D01*
X0193435Y0289484D01*
X0193435Y0291419D01*
X0191500Y0291419D02*
X0191500Y0289484D01*
X0200027Y0289484D02*
X0200510Y0289000D01*
X0201478Y0289000D01*
X0201962Y0289484D01*
X0201962Y0291419D01*
X0201478Y0291902D01*
X0200510Y0291902D01*
X0200027Y0291419D01*
X0200027Y0290935D01*
X0200510Y0290451D01*
X0201962Y0290451D01*
X0116450Y0303501D02*
X0115833Y0302884D01*
X0116450Y0303501D02*
X0116450Y0304735D01*
X0115833Y0305352D01*
X0114598Y0305352D01*
X0113981Y0304735D01*
X0113981Y0304118D01*
X0114598Y0302884D01*
X0112747Y0302884D01*
X0112747Y0305352D01*
X0112747Y0306567D02*
X0115216Y0306567D01*
X0116450Y0307801D01*
X0115216Y0309036D01*
X0112747Y0309036D01*
X0114598Y0301669D02*
X0114598Y0299201D01*
X0113364Y0300435D02*
X0115833Y0300435D01*
X0113835Y0278953D02*
X0113835Y0276484D01*
X0112601Y0275250D01*
X0111366Y0276484D01*
X0111366Y0278953D01*
X0110152Y0278953D02*
X0107683Y0278953D01*
X0107683Y0277102D01*
X0108918Y0277719D01*
X0109535Y0277719D01*
X0110152Y0277102D01*
X0110152Y0275867D01*
X0109535Y0275250D01*
X0108300Y0275250D01*
X0107683Y0275867D01*
X0106469Y0277102D02*
X0104000Y0277102D01*
X0105234Y0278336D02*
X0105234Y0275867D01*
X0105873Y0269173D02*
X0108342Y0265470D01*
X0108342Y0269173D01*
X0109556Y0269173D02*
X0111408Y0269173D01*
X0112025Y0268556D01*
X0112025Y0266087D01*
X0111408Y0265470D01*
X0109556Y0265470D01*
X0109556Y0269173D01*
X0105873Y0269173D02*
X0105873Y0265470D01*
X0104659Y0266087D02*
X0104659Y0267322D01*
X0103424Y0267322D01*
X0102190Y0268556D02*
X0102190Y0266087D01*
X0102807Y0265470D01*
X0104042Y0265470D01*
X0104659Y0266087D01*
X0104659Y0268556D02*
X0104042Y0269173D01*
X0102807Y0269173D01*
X0102190Y0268556D01*
X0105168Y0258953D02*
X0105168Y0255250D01*
X0106402Y0255250D02*
X0103933Y0255250D01*
X0102719Y0257102D02*
X0100250Y0257102D01*
X0101484Y0258336D02*
X0101484Y0255867D01*
X0103933Y0257719D02*
X0105168Y0258953D01*
X0107616Y0258953D02*
X0107616Y0257102D01*
X0108851Y0257719D01*
X0109468Y0257719D01*
X0110085Y0257102D01*
X0110085Y0255867D01*
X0109468Y0255250D01*
X0108233Y0255250D01*
X0107616Y0255867D01*
X0107616Y0258953D02*
X0110085Y0258953D01*
X0111299Y0258953D02*
X0111299Y0256484D01*
X0112534Y0255250D01*
X0113768Y0256484D01*
X0113768Y0258953D01*
X0080216Y0302884D02*
X0077747Y0302884D01*
X0077747Y0305352D02*
X0080216Y0305352D01*
X0081450Y0304118D01*
X0080216Y0302884D01*
X0079598Y0306567D02*
X0079598Y0309036D01*
X0078364Y0307801D02*
X0080833Y0307801D01*
D12*
X0135198Y0306339D02*
X0135198Y0305405D01*
X0135665Y0304938D01*
X0137533Y0304938D01*
X0138000Y0305405D01*
X0138000Y0306339D01*
X0137533Y0306806D01*
X0136599Y0306806D01*
X0136599Y0305872D01*
X0135665Y0306806D02*
X0135198Y0306339D01*
X0135665Y0304044D02*
X0135198Y0303576D01*
X0135198Y0302642D01*
X0135665Y0302175D01*
X0137533Y0302175D01*
X0138000Y0302642D01*
X0138000Y0303576D01*
X0137533Y0304044D01*
X0135665Y0304044D01*
X0135665Y0301281D02*
X0136599Y0301281D01*
X0137066Y0300814D01*
X0137066Y0299413D01*
X0138000Y0299413D02*
X0135198Y0299413D01*
X0135198Y0300814D01*
X0135665Y0301281D01*
X0137066Y0300347D02*
X0138000Y0301281D01*
X0136599Y0298519D02*
X0137066Y0298052D01*
X0137066Y0296651D01*
X0138000Y0296651D02*
X0135198Y0296651D01*
X0135198Y0298052D01*
X0135665Y0298519D01*
X0136599Y0298519D01*
X0145198Y0299880D02*
X0145665Y0299413D01*
X0147533Y0299413D01*
X0148000Y0299880D01*
X0148000Y0300814D01*
X0147533Y0301281D01*
X0146599Y0301281D01*
X0146599Y0300347D01*
X0145665Y0301281D02*
X0145198Y0300814D01*
X0145198Y0299880D01*
X0145198Y0302175D02*
X0148000Y0304044D01*
X0145198Y0304044D01*
X0145198Y0304938D02*
X0145198Y0306339D01*
X0145665Y0306806D01*
X0147533Y0306806D01*
X0148000Y0306339D01*
X0148000Y0304938D01*
X0145198Y0304938D01*
X0145198Y0302175D02*
X0148000Y0302175D01*
X0179698Y0310200D02*
X0179698Y0311601D01*
X0180165Y0312068D01*
X0182033Y0312068D01*
X0182500Y0311601D01*
X0182500Y0310200D01*
X0179698Y0310200D01*
X0180165Y0312962D02*
X0182033Y0312962D01*
X0182500Y0313429D01*
X0182500Y0314364D01*
X0182033Y0314831D01*
X0180165Y0314831D01*
X0179698Y0314364D01*
X0179698Y0313429D01*
X0180165Y0312962D01*
X0179698Y0315725D02*
X0182033Y0315725D01*
X0182500Y0316192D01*
X0182500Y0317126D01*
X0182033Y0317593D01*
X0179698Y0317593D01*
X0179698Y0318487D02*
X0179698Y0320355D01*
X0179698Y0319421D02*
X0182500Y0319421D01*
X0181971Y0269952D02*
X0180870Y0269952D01*
X0180870Y0267750D01*
X0181971Y0267750D01*
X0182338Y0268117D01*
X0182338Y0269585D01*
X0181971Y0269952D01*
X0180128Y0269952D02*
X0180128Y0267750D01*
X0178660Y0269952D01*
X0178660Y0267750D01*
X0177918Y0268117D02*
X0177918Y0268851D01*
X0177184Y0268851D01*
X0177918Y0269585D02*
X0177551Y0269952D01*
X0176817Y0269952D01*
X0176450Y0269585D01*
X0176450Y0268117D01*
X0176817Y0267750D01*
X0177551Y0267750D01*
X0177918Y0268117D01*
X0177551Y0259952D02*
X0177918Y0259585D01*
X0177918Y0258851D01*
X0177551Y0258484D01*
X0176450Y0258484D01*
X0176450Y0257750D02*
X0176450Y0259952D01*
X0177551Y0259952D01*
X0178660Y0259218D02*
X0178660Y0257750D01*
X0178660Y0258484D02*
X0179394Y0259218D01*
X0179761Y0259218D01*
X0180501Y0258851D02*
X0180501Y0258117D01*
X0180868Y0257750D01*
X0181602Y0257750D01*
X0181969Y0258117D01*
X0181969Y0258851D01*
X0181602Y0259218D01*
X0180868Y0259218D01*
X0180501Y0258851D01*
X0182711Y0258851D02*
X0182711Y0258117D01*
X0183078Y0257750D01*
X0184179Y0257750D01*
X0184179Y0257383D02*
X0184179Y0259218D01*
X0183078Y0259218D01*
X0182711Y0258851D01*
X0183445Y0257016D02*
X0183812Y0257016D01*
X0184179Y0257383D01*
X0184921Y0257750D02*
X0184921Y0259218D01*
X0184921Y0258484D02*
X0185655Y0259218D01*
X0186022Y0259218D01*
X0187130Y0259218D02*
X0187864Y0259218D01*
X0188231Y0258851D01*
X0188231Y0257750D01*
X0187130Y0257750D01*
X0186763Y0258117D01*
X0187130Y0258484D01*
X0188231Y0258484D01*
X0188973Y0259218D02*
X0189340Y0259218D01*
X0189707Y0258851D01*
X0190074Y0259218D01*
X0190441Y0258851D01*
X0190441Y0257750D01*
X0189707Y0257750D02*
X0189707Y0258851D01*
X0188973Y0259218D02*
X0188973Y0257750D01*
X0211450Y0259417D02*
X0211917Y0258950D01*
X0212851Y0258950D01*
X0213318Y0259417D01*
X0214212Y0258950D02*
X0215146Y0258950D01*
X0214679Y0258950D02*
X0214679Y0261752D01*
X0214212Y0261752D02*
X0215146Y0261752D01*
X0216054Y0261752D02*
X0217922Y0258950D01*
X0217922Y0261752D01*
X0216054Y0261752D02*
X0216054Y0258950D01*
X0213318Y0261285D02*
X0212851Y0261752D01*
X0211917Y0261752D01*
X0211450Y0261285D01*
X0211450Y0259417D01*
X0211450Y0268950D02*
X0212851Y0268950D01*
X0213318Y0269417D01*
X0213318Y0271285D01*
X0212851Y0271752D01*
X0211450Y0271752D01*
X0211450Y0268950D01*
X0214212Y0268950D02*
X0215146Y0268950D01*
X0214679Y0268950D02*
X0214679Y0271752D01*
X0214212Y0271752D02*
X0215146Y0271752D01*
X0216054Y0271752D02*
X0217922Y0268950D01*
X0217922Y0271752D01*
X0216054Y0271752D02*
X0216054Y0268950D01*
X0172500Y0227593D02*
X0171099Y0226192D01*
X0171566Y0225725D02*
X0169698Y0227593D01*
X0169698Y0225725D02*
X0172500Y0225725D01*
X0172500Y0224831D02*
X0172500Y0222962D01*
X0169698Y0222962D01*
X0170165Y0222068D02*
X0169698Y0221601D01*
X0169698Y0220667D01*
X0170165Y0220200D01*
X0172033Y0220200D01*
X0172500Y0220667D01*
X0172500Y0221601D01*
X0172033Y0222068D01*
X0165089Y0110002D02*
X0165556Y0109535D01*
X0165556Y0108601D01*
X0165089Y0108134D01*
X0163688Y0108134D01*
X0164622Y0108134D02*
X0165556Y0107200D01*
X0163688Y0107200D02*
X0163688Y0110002D01*
X0165089Y0110002D01*
X0165089Y0100002D02*
X0164155Y0100002D01*
X0163688Y0099535D01*
X0163688Y0097667D01*
X0164155Y0097200D01*
X0165089Y0097200D01*
X0165556Y0097667D01*
X0165556Y0098601D01*
X0164622Y0098601D01*
X0165556Y0099535D02*
X0165089Y0100002D01*
X0165089Y0090002D02*
X0165556Y0089535D01*
X0165556Y0089068D01*
X0165089Y0088601D01*
X0163688Y0088601D01*
X0165089Y0088601D02*
X0165556Y0088134D01*
X0165556Y0087667D01*
X0165089Y0087200D01*
X0163688Y0087200D01*
X0163688Y0090002D01*
X0165089Y0090002D01*
X0162794Y0080002D02*
X0162794Y0078134D01*
X0161859Y0077200D01*
X0160925Y0078134D01*
X0160925Y0080002D01*
X0163688Y0078601D02*
X0165556Y0078601D01*
X0164622Y0079535D02*
X0164622Y0077667D01*
X0165089Y0070002D02*
X0165556Y0069535D01*
X0165556Y0068601D01*
X0165089Y0068134D01*
X0163688Y0068134D01*
X0164622Y0068134D02*
X0165556Y0067200D01*
X0163688Y0067200D02*
X0163688Y0070002D01*
X0165089Y0070002D01*
X0165089Y0060002D02*
X0164155Y0060002D01*
X0163688Y0059535D01*
X0163688Y0057667D01*
X0164155Y0057200D01*
X0165089Y0057200D01*
X0165556Y0057667D01*
X0165556Y0058601D01*
X0164622Y0058601D01*
X0165556Y0059535D02*
X0165089Y0060002D01*
X0165089Y0050002D02*
X0165556Y0049535D01*
X0165556Y0049068D01*
X0165089Y0048601D01*
X0163688Y0048601D01*
X0165089Y0048601D02*
X0165556Y0048134D01*
X0165556Y0047667D01*
X0165089Y0047200D01*
X0163688Y0047200D01*
X0163688Y0050002D01*
X0165089Y0050002D01*
X0162794Y0040002D02*
X0162794Y0038134D01*
X0161859Y0037200D01*
X0160925Y0038134D01*
X0160925Y0040002D01*
X0163688Y0038601D02*
X0165556Y0038601D01*
X0164622Y0039535D02*
X0164622Y0037667D01*
X0187438Y0038134D02*
X0188839Y0038134D01*
X0189306Y0038601D01*
X0189306Y0039535D01*
X0188839Y0040002D01*
X0187438Y0040002D01*
X0187438Y0037200D01*
X0188372Y0038134D02*
X0189306Y0037200D01*
X0188839Y0047200D02*
X0187905Y0047200D01*
X0187438Y0047667D01*
X0187438Y0049535D01*
X0187905Y0050002D01*
X0188839Y0050002D01*
X0189306Y0049535D01*
X0189306Y0048601D02*
X0188372Y0048601D01*
X0189306Y0048601D02*
X0189306Y0047667D01*
X0188839Y0047200D01*
X0188839Y0057200D02*
X0187438Y0057200D01*
X0187438Y0060002D01*
X0188839Y0060002D01*
X0189306Y0059535D01*
X0189306Y0059068D01*
X0188839Y0058601D01*
X0187438Y0058601D01*
X0188839Y0058601D02*
X0189306Y0058134D01*
X0189306Y0057667D01*
X0188839Y0057200D01*
X0188372Y0067667D02*
X0188372Y0069535D01*
X0187438Y0068601D02*
X0189306Y0068601D01*
X0186544Y0068134D02*
X0186544Y0070002D01*
X0186544Y0068134D02*
X0185609Y0067200D01*
X0184675Y0068134D01*
X0184675Y0070002D01*
X0187438Y0077200D02*
X0187438Y0080002D01*
X0188839Y0080002D01*
X0189306Y0079535D01*
X0189306Y0078601D01*
X0188839Y0078134D01*
X0187438Y0078134D01*
X0188372Y0078134D02*
X0189306Y0077200D01*
X0188839Y0087200D02*
X0187905Y0087200D01*
X0187438Y0087667D01*
X0187438Y0089535D01*
X0187905Y0090002D01*
X0188839Y0090002D01*
X0189306Y0089535D01*
X0189306Y0088601D02*
X0188372Y0088601D01*
X0189306Y0088601D02*
X0189306Y0087667D01*
X0188839Y0087200D01*
X0188839Y0097200D02*
X0187438Y0097200D01*
X0187438Y0100002D01*
X0188839Y0100002D01*
X0189306Y0099535D01*
X0189306Y0099068D01*
X0188839Y0098601D01*
X0187438Y0098601D01*
X0188839Y0098601D02*
X0189306Y0098134D01*
X0189306Y0097667D01*
X0188839Y0097200D01*
X0188372Y0107667D02*
X0188372Y0109535D01*
X0187438Y0108601D02*
X0189306Y0108601D01*
X0186544Y0108134D02*
X0186544Y0110002D01*
X0186544Y0108134D02*
X0185609Y0107200D01*
X0184675Y0108134D01*
X0184675Y0110002D01*
X0228425Y0080002D02*
X0228425Y0078134D01*
X0229359Y0077200D01*
X0230294Y0078134D01*
X0230294Y0080002D01*
X0231188Y0078601D02*
X0233056Y0078601D01*
X0232122Y0079535D02*
X0232122Y0077667D01*
X0232589Y0070002D02*
X0233056Y0069535D01*
X0233056Y0068601D01*
X0232589Y0068134D01*
X0231188Y0068134D01*
X0232122Y0068134D02*
X0233056Y0067200D01*
X0231188Y0067200D02*
X0231188Y0070002D01*
X0232589Y0070002D01*
X0232589Y0060002D02*
X0231655Y0060002D01*
X0231188Y0059535D01*
X0231188Y0057667D01*
X0231655Y0057200D01*
X0232589Y0057200D01*
X0233056Y0057667D01*
X0233056Y0058601D01*
X0232122Y0058601D01*
X0233056Y0059535D02*
X0232589Y0060002D01*
X0232589Y0050002D02*
X0233056Y0049535D01*
X0233056Y0049068D01*
X0232589Y0048601D01*
X0231188Y0048601D01*
X0232589Y0048601D02*
X0233056Y0048134D01*
X0233056Y0047667D01*
X0232589Y0047200D01*
X0231188Y0047200D01*
X0231188Y0050002D01*
X0232589Y0050002D01*
X0230294Y0040002D02*
X0230294Y0038134D01*
X0229359Y0037200D01*
X0228425Y0038134D01*
X0228425Y0040002D01*
X0231188Y0038601D02*
X0233056Y0038601D01*
X0232122Y0039535D02*
X0232122Y0037667D01*
X0257438Y0038134D02*
X0258839Y0038134D01*
X0259306Y0038601D01*
X0259306Y0039535D01*
X0258839Y0040002D01*
X0257438Y0040002D01*
X0257438Y0037200D01*
X0258372Y0038134D02*
X0259306Y0037200D01*
X0258839Y0047200D02*
X0259306Y0047667D01*
X0259306Y0048601D01*
X0258372Y0048601D01*
X0259306Y0049535D02*
X0258839Y0050002D01*
X0257905Y0050002D01*
X0257438Y0049535D01*
X0257438Y0047667D01*
X0257905Y0047200D01*
X0258839Y0047200D01*
X0258839Y0057200D02*
X0257438Y0057200D01*
X0257438Y0060002D01*
X0258839Y0060002D01*
X0259306Y0059535D01*
X0259306Y0059068D01*
X0258839Y0058601D01*
X0257438Y0058601D01*
X0258839Y0058601D02*
X0259306Y0058134D01*
X0259306Y0057667D01*
X0258839Y0057200D01*
X0258372Y0067667D02*
X0258372Y0069535D01*
X0257438Y0068601D02*
X0259306Y0068601D01*
X0256544Y0068134D02*
X0256544Y0070002D01*
X0256544Y0068134D02*
X0255609Y0067200D01*
X0254675Y0068134D01*
X0254675Y0070002D01*
X0257438Y0077200D02*
X0257438Y0080002D01*
X0258839Y0080002D01*
X0259306Y0079535D01*
X0259306Y0078601D01*
X0258839Y0078134D01*
X0257438Y0078134D01*
X0258372Y0078134D02*
X0259306Y0077200D01*
X0258839Y0087200D02*
X0259306Y0087667D01*
X0259306Y0088601D01*
X0258372Y0088601D01*
X0259306Y0089535D02*
X0258839Y0090002D01*
X0257905Y0090002D01*
X0257438Y0089535D01*
X0257438Y0087667D01*
X0257905Y0087200D01*
X0258839Y0087200D01*
X0258839Y0097200D02*
X0257438Y0097200D01*
X0257438Y0100002D01*
X0258839Y0100002D01*
X0259306Y0099535D01*
X0259306Y0099068D01*
X0258839Y0098601D01*
X0257438Y0098601D01*
X0258839Y0098601D02*
X0259306Y0098134D01*
X0259306Y0097667D01*
X0258839Y0097200D01*
X0258372Y0107667D02*
X0258372Y0109535D01*
X0257438Y0108601D02*
X0259306Y0108601D01*
X0256544Y0108134D02*
X0256544Y0110002D01*
X0256544Y0108134D02*
X0255609Y0107200D01*
X0254675Y0108134D01*
X0254675Y0110002D01*
X0233056Y0109535D02*
X0233056Y0108601D01*
X0232589Y0108134D01*
X0231188Y0108134D01*
X0232122Y0108134D02*
X0233056Y0107200D01*
X0231188Y0107200D02*
X0231188Y0110002D01*
X0232589Y0110002D01*
X0233056Y0109535D01*
X0232589Y0100002D02*
X0231655Y0100002D01*
X0231188Y0099535D01*
X0231188Y0097667D01*
X0231655Y0097200D01*
X0232589Y0097200D01*
X0233056Y0097667D01*
X0233056Y0098601D01*
X0232122Y0098601D01*
X0233056Y0099535D02*
X0232589Y0100002D01*
X0232589Y0090002D02*
X0233056Y0089535D01*
X0233056Y0089068D01*
X0232589Y0088601D01*
X0231188Y0088601D01*
X0232589Y0088601D02*
X0233056Y0088134D01*
X0233056Y0087667D01*
X0232589Y0087200D01*
X0231188Y0087200D01*
X0231188Y0090002D01*
X0232589Y0090002D01*
X0298425Y0080002D02*
X0298425Y0078134D01*
X0299359Y0077200D01*
X0300294Y0078134D01*
X0300294Y0080002D01*
X0301188Y0078601D02*
X0303056Y0078601D01*
X0302122Y0079535D02*
X0302122Y0077667D01*
X0302589Y0070002D02*
X0301188Y0070002D01*
X0301188Y0067200D01*
X0301188Y0068134D02*
X0302589Y0068134D01*
X0303056Y0068601D01*
X0303056Y0069535D01*
X0302589Y0070002D01*
X0302122Y0068134D02*
X0303056Y0067200D01*
X0302589Y0060002D02*
X0301655Y0060002D01*
X0301188Y0059535D01*
X0301188Y0057667D01*
X0301655Y0057200D01*
X0302589Y0057200D01*
X0303056Y0057667D01*
X0303056Y0058601D01*
X0302122Y0058601D01*
X0303056Y0059535D02*
X0302589Y0060002D01*
X0302589Y0050002D02*
X0301188Y0050002D01*
X0301188Y0047200D01*
X0302589Y0047200D01*
X0303056Y0047667D01*
X0303056Y0048134D01*
X0302589Y0048601D01*
X0301188Y0048601D01*
X0302589Y0048601D02*
X0303056Y0049068D01*
X0303056Y0049535D01*
X0302589Y0050002D01*
X0300294Y0040002D02*
X0300294Y0038134D01*
X0299359Y0037200D01*
X0298425Y0038134D01*
X0298425Y0040002D01*
X0301188Y0038601D02*
X0303056Y0038601D01*
X0302122Y0039535D02*
X0302122Y0037667D01*
X0302589Y0087200D02*
X0301188Y0087200D01*
X0301188Y0090002D01*
X0302589Y0090002D01*
X0303056Y0089535D01*
X0303056Y0089068D01*
X0302589Y0088601D01*
X0301188Y0088601D01*
X0302589Y0088601D02*
X0303056Y0088134D01*
X0303056Y0087667D01*
X0302589Y0087200D01*
X0302589Y0097200D02*
X0301655Y0097200D01*
X0301188Y0097667D01*
X0301188Y0099535D01*
X0301655Y0100002D01*
X0302589Y0100002D01*
X0303056Y0099535D01*
X0303056Y0098601D02*
X0302122Y0098601D01*
X0303056Y0098601D02*
X0303056Y0097667D01*
X0302589Y0097200D01*
X0303056Y0107200D02*
X0302122Y0108134D01*
X0302589Y0108134D02*
X0301188Y0108134D01*
X0301188Y0107200D02*
X0301188Y0110002D01*
X0302589Y0110002D01*
X0303056Y0109535D01*
X0303056Y0108601D01*
X0302589Y0108134D01*
X0335298Y0202700D02*
X0337500Y0202700D01*
X0337500Y0204168D01*
X0337500Y0204910D02*
X0337500Y0206378D01*
X0337500Y0207120D02*
X0337500Y0208221D01*
X0337133Y0208588D01*
X0335665Y0208588D01*
X0335298Y0208221D01*
X0335298Y0207120D01*
X0337500Y0207120D01*
X0336399Y0205644D02*
X0336399Y0204910D01*
X0335298Y0204910D02*
X0337500Y0204910D01*
X0335298Y0204910D02*
X0335298Y0206378D01*
X0336032Y0209330D02*
X0335298Y0210064D01*
X0337500Y0210064D01*
X0337500Y0209330D02*
X0337500Y0210798D01*
X0292450Y0246450D02*
X0290982Y0246450D01*
X0290248Y0247184D01*
X0290982Y0247918D01*
X0292450Y0247918D01*
X0292083Y0248660D02*
X0292450Y0249027D01*
X0292450Y0249761D01*
X0292083Y0250128D01*
X0291349Y0250128D01*
X0291349Y0249394D01*
X0290615Y0250128D02*
X0290248Y0249761D01*
X0290248Y0249027D01*
X0290615Y0248660D01*
X0292083Y0248660D01*
X0291349Y0247918D02*
X0291349Y0246450D01*
X0290248Y0250870D02*
X0292450Y0252338D01*
X0290248Y0252338D01*
X0290248Y0253080D02*
X0290248Y0254181D01*
X0290615Y0254548D01*
X0292083Y0254548D01*
X0292450Y0254181D01*
X0292450Y0253080D01*
X0290248Y0253080D01*
X0290248Y0250870D02*
X0292450Y0250870D01*
X0121806Y0108601D02*
X0119938Y0108601D01*
X0119044Y0108134D02*
X0119044Y0110002D01*
X0119044Y0108134D02*
X0118109Y0107200D01*
X0117175Y0108134D01*
X0117175Y0110002D01*
X0120872Y0109535D02*
X0120872Y0107667D01*
X0121339Y0100002D02*
X0119938Y0100002D01*
X0119938Y0097200D01*
X0121339Y0097200D01*
X0121806Y0097667D01*
X0121806Y0098134D01*
X0121339Y0098601D01*
X0119938Y0098601D01*
X0121339Y0098601D02*
X0121806Y0099068D01*
X0121806Y0099535D01*
X0121339Y0100002D01*
X0121339Y0090002D02*
X0120405Y0090002D01*
X0119938Y0089535D01*
X0119938Y0087667D01*
X0120405Y0087200D01*
X0121339Y0087200D01*
X0121806Y0087667D01*
X0121806Y0088601D01*
X0120872Y0088601D01*
X0121806Y0089535D02*
X0121339Y0090002D01*
X0121339Y0080002D02*
X0119938Y0080002D01*
X0119938Y0077200D01*
X0119938Y0078134D02*
X0121339Y0078134D01*
X0121806Y0078601D01*
X0121806Y0079535D01*
X0121339Y0080002D01*
X0120872Y0078134D02*
X0121806Y0077200D01*
X0119044Y0070002D02*
X0119044Y0068134D01*
X0118109Y0067200D01*
X0117175Y0068134D01*
X0117175Y0070002D01*
X0119938Y0068601D02*
X0121806Y0068601D01*
X0120872Y0069535D02*
X0120872Y0067667D01*
X0121339Y0060002D02*
X0119938Y0060002D01*
X0119938Y0057200D01*
X0121339Y0057200D01*
X0121806Y0057667D01*
X0121806Y0058134D01*
X0121339Y0058601D01*
X0119938Y0058601D01*
X0121339Y0058601D02*
X0121806Y0059068D01*
X0121806Y0059535D01*
X0121339Y0060002D01*
X0121339Y0050002D02*
X0120405Y0050002D01*
X0119938Y0049535D01*
X0119938Y0047667D01*
X0120405Y0047200D01*
X0121339Y0047200D01*
X0121806Y0047667D01*
X0121806Y0048601D01*
X0120872Y0048601D01*
X0121806Y0049535D02*
X0121339Y0050002D01*
X0121339Y0040002D02*
X0119938Y0040002D01*
X0119938Y0037200D01*
X0119938Y0038134D02*
X0121339Y0038134D01*
X0121806Y0038601D01*
X0121806Y0039535D01*
X0121339Y0040002D01*
X0120872Y0038134D02*
X0121806Y0037200D01*
X0093056Y0041101D02*
X0091188Y0041101D01*
X0090294Y0040634D02*
X0090294Y0042502D01*
X0090294Y0040634D02*
X0089359Y0039700D01*
X0088425Y0040634D01*
X0088425Y0042502D01*
X0092122Y0042035D02*
X0092122Y0040167D01*
X0092589Y0049700D02*
X0091188Y0049700D01*
X0091188Y0052502D01*
X0092589Y0052502D01*
X0093056Y0052035D01*
X0093056Y0051568D01*
X0092589Y0051101D01*
X0091188Y0051101D01*
X0092589Y0051101D02*
X0093056Y0050634D01*
X0093056Y0050167D01*
X0092589Y0049700D01*
X0092589Y0059700D02*
X0091655Y0059700D01*
X0091188Y0060167D01*
X0091188Y0062035D01*
X0091655Y0062502D01*
X0092589Y0062502D01*
X0093056Y0062035D01*
X0093056Y0061101D02*
X0092122Y0061101D01*
X0093056Y0061101D02*
X0093056Y0060167D01*
X0092589Y0059700D01*
X0093056Y0069700D02*
X0092122Y0070634D01*
X0092589Y0070634D02*
X0091188Y0070634D01*
X0091188Y0069700D02*
X0091188Y0072502D01*
X0092589Y0072502D01*
X0093056Y0072035D01*
X0093056Y0071101D01*
X0092589Y0070634D01*
X0089359Y0079700D02*
X0090294Y0080634D01*
X0090294Y0082502D01*
X0091188Y0081101D02*
X0093056Y0081101D01*
X0092122Y0082035D02*
X0092122Y0080167D01*
X0089359Y0079700D02*
X0088425Y0080634D01*
X0088425Y0082502D01*
X0091188Y0089700D02*
X0092589Y0089700D01*
X0093056Y0090167D01*
X0093056Y0090634D01*
X0092589Y0091101D01*
X0091188Y0091101D01*
X0092589Y0091101D02*
X0093056Y0091568D01*
X0093056Y0092035D01*
X0092589Y0092502D01*
X0091188Y0092502D01*
X0091188Y0089700D01*
X0091655Y0099700D02*
X0092589Y0099700D01*
X0093056Y0100167D01*
X0093056Y0101101D01*
X0092122Y0101101D01*
X0093056Y0102035D02*
X0092589Y0102502D01*
X0091655Y0102502D01*
X0091188Y0102035D01*
X0091188Y0100167D01*
X0091655Y0099700D01*
X0091188Y0109700D02*
X0091188Y0112502D01*
X0092589Y0112502D01*
X0093056Y0112035D01*
X0093056Y0111101D01*
X0092589Y0110634D01*
X0091188Y0110634D01*
X0092122Y0110634D02*
X0093056Y0109700D01*
X0049306Y0111101D02*
X0047438Y0111101D01*
X0046544Y0110634D02*
X0046544Y0112502D01*
X0046544Y0110634D02*
X0045609Y0109700D01*
X0044675Y0110634D01*
X0044675Y0112502D01*
X0048372Y0112035D02*
X0048372Y0110167D01*
X0048839Y0102502D02*
X0049306Y0102035D01*
X0049306Y0101568D01*
X0048839Y0101101D01*
X0047438Y0101101D01*
X0048839Y0101101D02*
X0049306Y0100634D01*
X0049306Y0100167D01*
X0048839Y0099700D01*
X0047438Y0099700D01*
X0047438Y0102502D01*
X0048839Y0102502D01*
X0048839Y0092502D02*
X0047905Y0092502D01*
X0047438Y0092035D01*
X0047438Y0090167D01*
X0047905Y0089700D01*
X0048839Y0089700D01*
X0049306Y0090167D01*
X0049306Y0091101D01*
X0048372Y0091101D01*
X0049306Y0092035D02*
X0048839Y0092502D01*
X0048839Y0082502D02*
X0049306Y0082035D01*
X0049306Y0081101D01*
X0048839Y0080634D01*
X0047438Y0080634D01*
X0048372Y0080634D02*
X0049306Y0079700D01*
X0047438Y0079700D02*
X0047438Y0082502D01*
X0048839Y0082502D01*
X0046544Y0072502D02*
X0046544Y0070634D01*
X0045609Y0069700D01*
X0044675Y0070634D01*
X0044675Y0072502D01*
X0047438Y0071101D02*
X0049306Y0071101D01*
X0048372Y0072035D02*
X0048372Y0070167D01*
X0048839Y0062502D02*
X0049306Y0062035D01*
X0049306Y0061568D01*
X0048839Y0061101D01*
X0047438Y0061101D01*
X0048839Y0061101D02*
X0049306Y0060634D01*
X0049306Y0060167D01*
X0048839Y0059700D01*
X0047438Y0059700D01*
X0047438Y0062502D01*
X0048839Y0062502D01*
X0048839Y0052502D02*
X0047905Y0052502D01*
X0047438Y0052035D01*
X0047438Y0050167D01*
X0047905Y0049700D01*
X0048839Y0049700D01*
X0049306Y0050167D01*
X0049306Y0051101D01*
X0048372Y0051101D01*
X0049306Y0052035D02*
X0048839Y0052502D01*
X0048839Y0042502D02*
X0049306Y0042035D01*
X0049306Y0041101D01*
X0048839Y0040634D01*
X0047438Y0040634D01*
X0048372Y0040634D02*
X0049306Y0039700D01*
X0047438Y0039700D02*
X0047438Y0042502D01*
X0048839Y0042502D01*
D13*
X0039248Y0055300D02*
X0039248Y0059904D01*
X0036946Y0057602D01*
X0040015Y0057602D01*
X0039248Y0095300D02*
X0037713Y0095300D01*
X0036946Y0096067D01*
X0038481Y0097602D02*
X0039248Y0097602D01*
X0040015Y0096835D01*
X0040015Y0096067D01*
X0039248Y0095300D01*
X0039248Y0097602D02*
X0040015Y0098369D01*
X0040015Y0099137D01*
X0039248Y0099904D01*
X0037713Y0099904D01*
X0036946Y0099137D01*
X0080298Y0121929D02*
X0080298Y0122584D01*
X0080298Y0122257D02*
X0081935Y0122257D01*
X0082262Y0121929D01*
X0082262Y0121602D01*
X0081935Y0121275D01*
X0082262Y0123450D02*
X0080298Y0123450D01*
X0080298Y0124432D01*
X0080626Y0124759D01*
X0081280Y0124759D01*
X0081608Y0124432D01*
X0081608Y0123450D01*
X0081280Y0125625D02*
X0081935Y0125625D01*
X0082262Y0125952D01*
X0082262Y0126607D01*
X0081935Y0126934D01*
X0081608Y0126934D01*
X0081280Y0126607D01*
X0081280Y0125625D01*
X0080626Y0126280D01*
X0080298Y0126934D01*
X0078761Y0144805D02*
X0061439Y0144805D01*
X0061439Y0170395D01*
X0078761Y0170395D01*
X0078761Y0144805D01*
X0061537Y0172364D02*
X0061539Y0172435D01*
X0061545Y0172506D01*
X0061555Y0172577D01*
X0061569Y0172646D01*
X0061586Y0172715D01*
X0061608Y0172783D01*
X0061633Y0172850D01*
X0061662Y0172915D01*
X0061694Y0172978D01*
X0061730Y0173040D01*
X0061769Y0173099D01*
X0061812Y0173156D01*
X0061857Y0173211D01*
X0061906Y0173263D01*
X0061957Y0173312D01*
X0062011Y0173358D01*
X0062068Y0173402D01*
X0062126Y0173442D01*
X0062187Y0173478D01*
X0062250Y0173512D01*
X0062315Y0173541D01*
X0062381Y0173567D01*
X0062449Y0173590D01*
X0062517Y0173608D01*
X0062587Y0173623D01*
X0062657Y0173634D01*
X0062728Y0173641D01*
X0062799Y0173644D01*
X0062870Y0173643D01*
X0062941Y0173638D01*
X0063012Y0173629D01*
X0063082Y0173616D01*
X0063151Y0173600D01*
X0063219Y0173579D01*
X0063286Y0173555D01*
X0063352Y0173527D01*
X0063415Y0173495D01*
X0063477Y0173460D01*
X0063537Y0173422D01*
X0063595Y0173380D01*
X0063650Y0173336D01*
X0063703Y0173288D01*
X0063753Y0173237D01*
X0063800Y0173184D01*
X0063844Y0173128D01*
X0063885Y0173070D01*
X0063923Y0173009D01*
X0063957Y0172947D01*
X0063987Y0172882D01*
X0064014Y0172817D01*
X0064038Y0172749D01*
X0064057Y0172681D01*
X0064073Y0172612D01*
X0064085Y0172541D01*
X0064093Y0172471D01*
X0064097Y0172400D01*
X0064097Y0172328D01*
X0064093Y0172257D01*
X0064085Y0172187D01*
X0064073Y0172116D01*
X0064057Y0172047D01*
X0064038Y0171979D01*
X0064014Y0171911D01*
X0063987Y0171846D01*
X0063957Y0171781D01*
X0063923Y0171719D01*
X0063885Y0171658D01*
X0063844Y0171600D01*
X0063800Y0171544D01*
X0063753Y0171491D01*
X0063703Y0171440D01*
X0063650Y0171392D01*
X0063595Y0171348D01*
X0063537Y0171306D01*
X0063477Y0171268D01*
X0063415Y0171233D01*
X0063352Y0171201D01*
X0063286Y0171173D01*
X0063219Y0171149D01*
X0063151Y0171128D01*
X0063082Y0171112D01*
X0063012Y0171099D01*
X0062941Y0171090D01*
X0062870Y0171085D01*
X0062799Y0171084D01*
X0062728Y0171087D01*
X0062657Y0171094D01*
X0062587Y0171105D01*
X0062517Y0171120D01*
X0062449Y0171138D01*
X0062381Y0171161D01*
X0062315Y0171187D01*
X0062250Y0171216D01*
X0062187Y0171250D01*
X0062126Y0171286D01*
X0062068Y0171326D01*
X0062011Y0171370D01*
X0061957Y0171416D01*
X0061906Y0171465D01*
X0061857Y0171517D01*
X0061812Y0171572D01*
X0061769Y0171629D01*
X0061730Y0171688D01*
X0061694Y0171750D01*
X0061662Y0171813D01*
X0061633Y0171878D01*
X0061608Y0171945D01*
X0061586Y0172013D01*
X0061569Y0172082D01*
X0061555Y0172151D01*
X0061545Y0172222D01*
X0061539Y0172293D01*
X0061537Y0172364D01*
X0132689Y0170395D02*
X0132689Y0144805D01*
X0150011Y0144805D01*
X0150011Y0170395D01*
X0132689Y0170395D01*
X0132787Y0172364D02*
X0132789Y0172435D01*
X0132795Y0172506D01*
X0132805Y0172577D01*
X0132819Y0172646D01*
X0132836Y0172715D01*
X0132858Y0172783D01*
X0132883Y0172850D01*
X0132912Y0172915D01*
X0132944Y0172978D01*
X0132980Y0173040D01*
X0133019Y0173099D01*
X0133062Y0173156D01*
X0133107Y0173211D01*
X0133156Y0173263D01*
X0133207Y0173312D01*
X0133261Y0173358D01*
X0133318Y0173402D01*
X0133376Y0173442D01*
X0133437Y0173478D01*
X0133500Y0173512D01*
X0133565Y0173541D01*
X0133631Y0173567D01*
X0133699Y0173590D01*
X0133767Y0173608D01*
X0133837Y0173623D01*
X0133907Y0173634D01*
X0133978Y0173641D01*
X0134049Y0173644D01*
X0134120Y0173643D01*
X0134191Y0173638D01*
X0134262Y0173629D01*
X0134332Y0173616D01*
X0134401Y0173600D01*
X0134469Y0173579D01*
X0134536Y0173555D01*
X0134602Y0173527D01*
X0134665Y0173495D01*
X0134727Y0173460D01*
X0134787Y0173422D01*
X0134845Y0173380D01*
X0134900Y0173336D01*
X0134953Y0173288D01*
X0135003Y0173237D01*
X0135050Y0173184D01*
X0135094Y0173128D01*
X0135135Y0173070D01*
X0135173Y0173009D01*
X0135207Y0172947D01*
X0135237Y0172882D01*
X0135264Y0172817D01*
X0135288Y0172749D01*
X0135307Y0172681D01*
X0135323Y0172612D01*
X0135335Y0172541D01*
X0135343Y0172471D01*
X0135347Y0172400D01*
X0135347Y0172328D01*
X0135343Y0172257D01*
X0135335Y0172187D01*
X0135323Y0172116D01*
X0135307Y0172047D01*
X0135288Y0171979D01*
X0135264Y0171911D01*
X0135237Y0171846D01*
X0135207Y0171781D01*
X0135173Y0171719D01*
X0135135Y0171658D01*
X0135094Y0171600D01*
X0135050Y0171544D01*
X0135003Y0171491D01*
X0134953Y0171440D01*
X0134900Y0171392D01*
X0134845Y0171348D01*
X0134787Y0171306D01*
X0134727Y0171268D01*
X0134665Y0171233D01*
X0134602Y0171201D01*
X0134536Y0171173D01*
X0134469Y0171149D01*
X0134401Y0171128D01*
X0134332Y0171112D01*
X0134262Y0171099D01*
X0134191Y0171090D01*
X0134120Y0171085D01*
X0134049Y0171084D01*
X0133978Y0171087D01*
X0133907Y0171094D01*
X0133837Y0171105D01*
X0133767Y0171120D01*
X0133699Y0171138D01*
X0133631Y0171161D01*
X0133565Y0171187D01*
X0133500Y0171216D01*
X0133437Y0171250D01*
X0133376Y0171286D01*
X0133318Y0171326D01*
X0133261Y0171370D01*
X0133207Y0171416D01*
X0133156Y0171465D01*
X0133107Y0171517D01*
X0133062Y0171572D01*
X0133019Y0171629D01*
X0132980Y0171688D01*
X0132944Y0171750D01*
X0132912Y0171813D01*
X0132883Y0171878D01*
X0132858Y0171945D01*
X0132836Y0172013D01*
X0132819Y0172082D01*
X0132805Y0172151D01*
X0132795Y0172222D01*
X0132789Y0172293D01*
X0132787Y0172364D01*
X0152798Y0126934D02*
X0152798Y0125625D01*
X0153780Y0125625D01*
X0153453Y0126280D01*
X0153453Y0126607D01*
X0153780Y0126934D01*
X0154435Y0126934D01*
X0154762Y0126607D01*
X0154762Y0125952D01*
X0154435Y0125625D01*
X0153780Y0124759D02*
X0154108Y0124432D01*
X0154108Y0123450D01*
X0154762Y0123450D02*
X0152798Y0123450D01*
X0152798Y0124432D01*
X0153126Y0124759D01*
X0153780Y0124759D01*
X0152798Y0122584D02*
X0152798Y0121929D01*
X0152798Y0122257D02*
X0154435Y0122257D01*
X0154762Y0121929D01*
X0154762Y0121602D01*
X0154435Y0121275D01*
X0170213Y0097404D02*
X0169446Y0096637D01*
X0170213Y0097404D02*
X0171748Y0097404D01*
X0172515Y0096637D01*
X0172515Y0095869D01*
X0169446Y0092800D01*
X0172515Y0092800D01*
X0176946Y0093567D02*
X0177713Y0092800D01*
X0179248Y0092800D01*
X0180015Y0093567D01*
X0180015Y0094335D01*
X0179248Y0095102D01*
X0178481Y0095102D01*
X0179248Y0095102D02*
X0180015Y0095869D01*
X0180015Y0096637D01*
X0179248Y0097404D01*
X0177713Y0097404D01*
X0176946Y0096637D01*
X0179248Y0057404D02*
X0176946Y0055102D01*
X0180015Y0055102D01*
X0179248Y0052800D02*
X0179248Y0057404D01*
X0172515Y0052800D02*
X0169446Y0052800D01*
X0170981Y0052800D02*
X0170981Y0057404D01*
X0169446Y0055869D01*
X0142998Y0014904D02*
X0141463Y0014904D01*
X0140696Y0014137D01*
X0142998Y0014904D02*
X0143765Y0014137D01*
X0143765Y0013369D01*
X0140696Y0010300D01*
X0143765Y0010300D01*
X0111748Y0052800D02*
X0111748Y0057404D01*
X0109446Y0055102D01*
X0112515Y0055102D01*
X0100015Y0055300D02*
X0096946Y0055300D01*
X0098481Y0055300D02*
X0098481Y0059904D01*
X0096946Y0058369D01*
X0110213Y0092800D02*
X0109446Y0093567D01*
X0110213Y0092800D02*
X0111748Y0092800D01*
X0112515Y0093567D01*
X0112515Y0094335D01*
X0111748Y0095102D01*
X0110981Y0095102D01*
X0111748Y0095102D02*
X0112515Y0095869D01*
X0112515Y0096637D01*
X0111748Y0097404D01*
X0110213Y0097404D01*
X0109446Y0096637D01*
X0100015Y0095300D02*
X0096946Y0095300D01*
X0100015Y0098369D01*
X0100015Y0099137D01*
X0099248Y0099904D01*
X0097713Y0099904D01*
X0096946Y0099137D01*
X0068481Y0014904D02*
X0066946Y0013369D01*
X0068481Y0014904D02*
X0068481Y0010300D01*
X0070015Y0010300D02*
X0066946Y0010300D01*
X0208196Y0011067D02*
X0208963Y0010300D01*
X0210498Y0010300D01*
X0211265Y0011067D01*
X0211265Y0011835D01*
X0210498Y0012602D01*
X0209731Y0012602D01*
X0210498Y0012602D02*
X0211265Y0013369D01*
X0211265Y0014137D01*
X0210498Y0014904D01*
X0208963Y0014904D01*
X0208196Y0014137D01*
X0236946Y0052800D02*
X0240015Y0052800D01*
X0238481Y0052800D02*
X0238481Y0057404D01*
X0236946Y0055869D01*
X0246946Y0055102D02*
X0250015Y0055102D01*
X0249248Y0052800D02*
X0249248Y0057404D01*
X0246946Y0055102D01*
X0247713Y0092800D02*
X0246946Y0093567D01*
X0247713Y0092800D02*
X0249248Y0092800D01*
X0250015Y0093567D01*
X0250015Y0094335D01*
X0249248Y0095102D01*
X0248481Y0095102D01*
X0249248Y0095102D02*
X0250015Y0095869D01*
X0250015Y0096637D01*
X0249248Y0097404D01*
X0247713Y0097404D01*
X0246946Y0096637D01*
X0240015Y0096637D02*
X0240015Y0095869D01*
X0236946Y0092800D01*
X0240015Y0092800D01*
X0240015Y0096637D02*
X0239248Y0097404D01*
X0237713Y0097404D01*
X0236946Y0096637D01*
X0221935Y0121275D02*
X0222262Y0121602D01*
X0222262Y0121929D01*
X0221935Y0122257D01*
X0220298Y0122257D01*
X0220298Y0122584D02*
X0220298Y0121929D01*
X0220298Y0123450D02*
X0220298Y0124432D01*
X0220626Y0124759D01*
X0221280Y0124759D01*
X0221608Y0124432D01*
X0221608Y0123450D01*
X0222262Y0123450D02*
X0220298Y0123450D01*
X0220626Y0125625D02*
X0220953Y0125625D01*
X0221280Y0125952D01*
X0221280Y0126934D01*
X0220626Y0126934D02*
X0220298Y0126607D01*
X0220298Y0125952D01*
X0220626Y0125625D01*
X0221935Y0125625D02*
X0222262Y0125952D01*
X0222262Y0126607D01*
X0221935Y0126934D01*
X0220626Y0126934D01*
X0220011Y0144805D02*
X0202689Y0144805D01*
X0202689Y0170395D01*
X0220011Y0170395D01*
X0220011Y0144805D01*
X0202787Y0172364D02*
X0202789Y0172435D01*
X0202795Y0172506D01*
X0202805Y0172577D01*
X0202819Y0172646D01*
X0202836Y0172715D01*
X0202858Y0172783D01*
X0202883Y0172850D01*
X0202912Y0172915D01*
X0202944Y0172978D01*
X0202980Y0173040D01*
X0203019Y0173099D01*
X0203062Y0173156D01*
X0203107Y0173211D01*
X0203156Y0173263D01*
X0203207Y0173312D01*
X0203261Y0173358D01*
X0203318Y0173402D01*
X0203376Y0173442D01*
X0203437Y0173478D01*
X0203500Y0173512D01*
X0203565Y0173541D01*
X0203631Y0173567D01*
X0203699Y0173590D01*
X0203767Y0173608D01*
X0203837Y0173623D01*
X0203907Y0173634D01*
X0203978Y0173641D01*
X0204049Y0173644D01*
X0204120Y0173643D01*
X0204191Y0173638D01*
X0204262Y0173629D01*
X0204332Y0173616D01*
X0204401Y0173600D01*
X0204469Y0173579D01*
X0204536Y0173555D01*
X0204602Y0173527D01*
X0204665Y0173495D01*
X0204727Y0173460D01*
X0204787Y0173422D01*
X0204845Y0173380D01*
X0204900Y0173336D01*
X0204953Y0173288D01*
X0205003Y0173237D01*
X0205050Y0173184D01*
X0205094Y0173128D01*
X0205135Y0173070D01*
X0205173Y0173009D01*
X0205207Y0172947D01*
X0205237Y0172882D01*
X0205264Y0172817D01*
X0205288Y0172749D01*
X0205307Y0172681D01*
X0205323Y0172612D01*
X0205335Y0172541D01*
X0205343Y0172471D01*
X0205347Y0172400D01*
X0205347Y0172328D01*
X0205343Y0172257D01*
X0205335Y0172187D01*
X0205323Y0172116D01*
X0205307Y0172047D01*
X0205288Y0171979D01*
X0205264Y0171911D01*
X0205237Y0171846D01*
X0205207Y0171781D01*
X0205173Y0171719D01*
X0205135Y0171658D01*
X0205094Y0171600D01*
X0205050Y0171544D01*
X0205003Y0171491D01*
X0204953Y0171440D01*
X0204900Y0171392D01*
X0204845Y0171348D01*
X0204787Y0171306D01*
X0204727Y0171268D01*
X0204665Y0171233D01*
X0204602Y0171201D01*
X0204536Y0171173D01*
X0204469Y0171149D01*
X0204401Y0171128D01*
X0204332Y0171112D01*
X0204262Y0171099D01*
X0204191Y0171090D01*
X0204120Y0171085D01*
X0204049Y0171084D01*
X0203978Y0171087D01*
X0203907Y0171094D01*
X0203837Y0171105D01*
X0203767Y0171120D01*
X0203699Y0171138D01*
X0203631Y0171161D01*
X0203565Y0171187D01*
X0203500Y0171216D01*
X0203437Y0171250D01*
X0203376Y0171286D01*
X0203318Y0171326D01*
X0203261Y0171370D01*
X0203207Y0171416D01*
X0203156Y0171465D01*
X0203107Y0171517D01*
X0203062Y0171572D01*
X0203019Y0171629D01*
X0202980Y0171688D01*
X0202944Y0171750D01*
X0202912Y0171813D01*
X0202883Y0171878D01*
X0202858Y0171945D01*
X0202836Y0172013D01*
X0202819Y0172082D01*
X0202805Y0172151D01*
X0202795Y0172222D01*
X0202789Y0172293D01*
X0202787Y0172364D01*
X0271439Y0170395D02*
X0271439Y0144805D01*
X0288761Y0144805D01*
X0288761Y0170395D01*
X0271439Y0170395D01*
X0271537Y0172364D02*
X0271539Y0172435D01*
X0271545Y0172506D01*
X0271555Y0172577D01*
X0271569Y0172646D01*
X0271586Y0172715D01*
X0271608Y0172783D01*
X0271633Y0172850D01*
X0271662Y0172915D01*
X0271694Y0172978D01*
X0271730Y0173040D01*
X0271769Y0173099D01*
X0271812Y0173156D01*
X0271857Y0173211D01*
X0271906Y0173263D01*
X0271957Y0173312D01*
X0272011Y0173358D01*
X0272068Y0173402D01*
X0272126Y0173442D01*
X0272187Y0173478D01*
X0272250Y0173512D01*
X0272315Y0173541D01*
X0272381Y0173567D01*
X0272449Y0173590D01*
X0272517Y0173608D01*
X0272587Y0173623D01*
X0272657Y0173634D01*
X0272728Y0173641D01*
X0272799Y0173644D01*
X0272870Y0173643D01*
X0272941Y0173638D01*
X0273012Y0173629D01*
X0273082Y0173616D01*
X0273151Y0173600D01*
X0273219Y0173579D01*
X0273286Y0173555D01*
X0273352Y0173527D01*
X0273415Y0173495D01*
X0273477Y0173460D01*
X0273537Y0173422D01*
X0273595Y0173380D01*
X0273650Y0173336D01*
X0273703Y0173288D01*
X0273753Y0173237D01*
X0273800Y0173184D01*
X0273844Y0173128D01*
X0273885Y0173070D01*
X0273923Y0173009D01*
X0273957Y0172947D01*
X0273987Y0172882D01*
X0274014Y0172817D01*
X0274038Y0172749D01*
X0274057Y0172681D01*
X0274073Y0172612D01*
X0274085Y0172541D01*
X0274093Y0172471D01*
X0274097Y0172400D01*
X0274097Y0172328D01*
X0274093Y0172257D01*
X0274085Y0172187D01*
X0274073Y0172116D01*
X0274057Y0172047D01*
X0274038Y0171979D01*
X0274014Y0171911D01*
X0273987Y0171846D01*
X0273957Y0171781D01*
X0273923Y0171719D01*
X0273885Y0171658D01*
X0273844Y0171600D01*
X0273800Y0171544D01*
X0273753Y0171491D01*
X0273703Y0171440D01*
X0273650Y0171392D01*
X0273595Y0171348D01*
X0273537Y0171306D01*
X0273477Y0171268D01*
X0273415Y0171233D01*
X0273352Y0171201D01*
X0273286Y0171173D01*
X0273219Y0171149D01*
X0273151Y0171128D01*
X0273082Y0171112D01*
X0273012Y0171099D01*
X0272941Y0171090D01*
X0272870Y0171085D01*
X0272799Y0171084D01*
X0272728Y0171087D01*
X0272657Y0171094D01*
X0272587Y0171105D01*
X0272517Y0171120D01*
X0272449Y0171138D01*
X0272381Y0171161D01*
X0272315Y0171187D01*
X0272250Y0171216D01*
X0272187Y0171250D01*
X0272126Y0171286D01*
X0272068Y0171326D01*
X0272011Y0171370D01*
X0271957Y0171416D01*
X0271906Y0171465D01*
X0271857Y0171517D01*
X0271812Y0171572D01*
X0271769Y0171629D01*
X0271730Y0171688D01*
X0271694Y0171750D01*
X0271662Y0171813D01*
X0271633Y0171878D01*
X0271608Y0171945D01*
X0271586Y0172013D01*
X0271569Y0172082D01*
X0271555Y0172151D01*
X0271545Y0172222D01*
X0271539Y0172293D01*
X0271537Y0172364D01*
X0290626Y0126934D02*
X0290298Y0126607D01*
X0290298Y0125952D01*
X0290626Y0125625D01*
X0290626Y0126934D02*
X0290953Y0126934D01*
X0292262Y0125625D01*
X0292262Y0126934D01*
X0292262Y0124759D02*
X0292262Y0123450D01*
X0292262Y0124104D02*
X0290298Y0124104D01*
X0290953Y0123450D01*
X0290626Y0122584D02*
X0291280Y0122584D01*
X0291608Y0122257D01*
X0291608Y0121275D01*
X0292262Y0121275D02*
X0290298Y0121275D01*
X0290298Y0122257D01*
X0290626Y0122584D01*
X0290298Y0120409D02*
X0290298Y0119754D01*
X0290298Y0120082D02*
X0291935Y0120082D01*
X0292262Y0119754D01*
X0292262Y0119427D01*
X0291935Y0119100D01*
X0307713Y0097404D02*
X0306946Y0096637D01*
X0307713Y0097404D02*
X0309248Y0097404D01*
X0310015Y0096637D01*
X0310015Y0095869D01*
X0306946Y0092800D01*
X0310015Y0092800D01*
X0308481Y0057404D02*
X0308481Y0052800D01*
X0310015Y0052800D02*
X0306946Y0052800D01*
X0306946Y0055869D02*
X0308481Y0057404D01*
X0281748Y0014904D02*
X0279446Y0012602D01*
X0282515Y0012602D01*
X0281748Y0010300D02*
X0281748Y0014904D01*
X0266748Y0265015D02*
X0265981Y0265015D01*
X0266748Y0265015D02*
X0267515Y0265783D01*
X0267515Y0269619D01*
X0264446Y0269619D02*
X0264446Y0267317D01*
X0265213Y0266550D01*
X0267515Y0266550D01*
X0262911Y0267317D02*
X0262144Y0268085D01*
X0260609Y0268085D01*
X0259842Y0268852D01*
X0260609Y0269619D01*
X0262911Y0269619D01*
X0262911Y0267317D02*
X0262144Y0266550D01*
X0259842Y0266550D01*
X0258307Y0266550D02*
X0258307Y0268852D01*
X0257540Y0269619D01*
X0255238Y0269619D01*
X0255238Y0266550D01*
X0253704Y0268085D02*
X0250634Y0268085D01*
X0250634Y0268852D02*
X0251402Y0269619D01*
X0252936Y0269619D01*
X0253704Y0268852D01*
X0253704Y0268085D01*
X0252936Y0266550D02*
X0251402Y0266550D01*
X0250634Y0267317D01*
X0250634Y0268852D01*
X0249100Y0268852D02*
X0249100Y0268085D01*
X0246030Y0268085D01*
X0246030Y0268852D02*
X0246798Y0269619D01*
X0248332Y0269619D01*
X0249100Y0268852D01*
X0248332Y0266550D02*
X0246798Y0266550D01*
X0246030Y0267317D01*
X0246030Y0268852D01*
X0244496Y0271154D02*
X0241426Y0271154D01*
X0242961Y0271154D02*
X0242961Y0266550D01*
X0288394Y0267317D02*
X0289161Y0266550D01*
X0290696Y0266550D01*
X0291463Y0267317D01*
X0291463Y0271154D01*
X0292998Y0270387D02*
X0292998Y0269619D01*
X0293765Y0268852D01*
X0295300Y0268852D01*
X0296067Y0268085D01*
X0296067Y0267317D01*
X0295300Y0266550D01*
X0293765Y0266550D01*
X0292998Y0267317D01*
X0292998Y0270387D02*
X0293765Y0271154D01*
X0295300Y0271154D01*
X0296067Y0270387D01*
X0297602Y0271154D02*
X0299904Y0271154D01*
X0300671Y0270387D01*
X0300671Y0269619D01*
X0299904Y0268852D01*
X0297602Y0268852D01*
X0299904Y0268852D02*
X0300671Y0268085D01*
X0300671Y0267317D01*
X0299904Y0266550D01*
X0297602Y0266550D01*
X0297602Y0271154D01*
X0288394Y0271154D02*
X0288394Y0267317D01*
D14*
X0281350Y0258850D02*
X0306350Y0258850D01*
X0306350Y0228850D01*
X0166350Y0228850D01*
X0166350Y0308850D01*
X0306350Y0308850D01*
X0306350Y0278850D01*
X0281350Y0278850D01*
X0281350Y0258850D01*
X0306350Y0258850D02*
X0306350Y0278850D01*
X0273339Y0215352D02*
X0272505Y0215352D01*
X0272088Y0214935D01*
X0272088Y0214518D01*
X0272505Y0214101D01*
X0273756Y0214101D01*
X0273756Y0213267D02*
X0273756Y0214935D01*
X0273339Y0215352D01*
X0273756Y0213267D02*
X0273339Y0212850D01*
X0272505Y0212850D01*
X0272088Y0213267D01*
X0270993Y0213267D02*
X0270576Y0212850D01*
X0269742Y0212850D01*
X0269325Y0213267D01*
X0269325Y0214935D01*
X0269742Y0215352D01*
X0270576Y0215352D01*
X0270993Y0214935D01*
X0295017Y0189852D02*
X0294600Y0189435D01*
X0294600Y0187767D01*
X0295017Y0187350D01*
X0295851Y0187350D01*
X0296268Y0187767D01*
X0297362Y0187350D02*
X0299030Y0187350D01*
X0298196Y0187350D02*
X0298196Y0189852D01*
X0297362Y0189018D01*
X0296268Y0189435D02*
X0295851Y0189852D01*
X0295017Y0189852D01*
X0300125Y0189435D02*
X0300542Y0189852D01*
X0301376Y0189852D01*
X0301793Y0189435D01*
X0300125Y0187767D01*
X0300542Y0187350D01*
X0301376Y0187350D01*
X0301793Y0187767D01*
X0301793Y0189435D01*
X0300125Y0189435D02*
X0300125Y0187767D01*
X0295848Y0130218D02*
X0264352Y0130218D01*
X0264352Y0019982D01*
X0295848Y0019982D01*
X0295848Y0130218D01*
X0301350Y0112600D02*
X0306350Y0112600D01*
X0306350Y0075100D01*
X0301350Y0075100D01*
X0301350Y0072600D02*
X0306350Y0072600D01*
X0306350Y0035100D01*
X0301350Y0035100D01*
X0258850Y0035100D02*
X0253850Y0035100D01*
X0253850Y0072600D01*
X0258850Y0072600D01*
X0258850Y0075100D02*
X0253850Y0075100D01*
X0253850Y0112600D01*
X0258850Y0112600D01*
X0236350Y0112600D02*
X0231350Y0112600D01*
X0236350Y0112600D02*
X0236350Y0075100D01*
X0231350Y0075100D01*
X0231350Y0072600D02*
X0236350Y0072600D01*
X0236350Y0035100D01*
X0231350Y0035100D01*
X0225848Y0019982D02*
X0225848Y0130218D01*
X0194352Y0130218D01*
X0194352Y0019982D01*
X0225848Y0019982D01*
X0188850Y0035100D02*
X0183850Y0035100D01*
X0183850Y0072600D01*
X0188850Y0072600D01*
X0188850Y0075100D02*
X0183850Y0075100D01*
X0183850Y0112600D01*
X0188850Y0112600D01*
X0168850Y0112600D02*
X0163850Y0112600D01*
X0168850Y0112600D02*
X0168850Y0075100D01*
X0163850Y0075100D01*
X0163850Y0072600D02*
X0168850Y0072600D01*
X0168850Y0035100D01*
X0163850Y0035100D01*
X0158348Y0019982D02*
X0158348Y0130218D01*
X0126852Y0130218D01*
X0126852Y0019982D01*
X0158348Y0019982D01*
X0121350Y0035100D02*
X0116350Y0035100D01*
X0116350Y0072600D01*
X0121350Y0072600D01*
X0121350Y0075100D02*
X0116350Y0075100D01*
X0116350Y0112600D01*
X0121350Y0112600D01*
X0096350Y0115100D02*
X0091350Y0115100D01*
X0096350Y0115100D02*
X0096350Y0077600D01*
X0091350Y0077600D01*
X0091350Y0075100D02*
X0096350Y0075100D01*
X0096350Y0037600D01*
X0091350Y0037600D01*
X0085848Y0019982D02*
X0085848Y0130218D01*
X0054352Y0130218D01*
X0054352Y0019982D01*
X0085848Y0019982D01*
X0048850Y0037600D02*
X0043850Y0037600D01*
X0043850Y0075100D01*
X0048850Y0075100D01*
X0048850Y0077600D02*
X0043850Y0077600D01*
X0043850Y0115100D01*
X0048850Y0115100D01*
X0085017Y0186100D02*
X0085851Y0186100D01*
X0086268Y0186517D01*
X0087362Y0186517D02*
X0087779Y0186100D01*
X0088613Y0186100D01*
X0089030Y0186517D01*
X0089030Y0187351D01*
X0088613Y0187768D01*
X0088196Y0187768D01*
X0087362Y0187351D01*
X0087362Y0188602D01*
X0089030Y0188602D01*
X0086268Y0188185D02*
X0085851Y0188602D01*
X0085017Y0188602D01*
X0084600Y0188185D01*
X0084600Y0186517D01*
X0085017Y0186100D01*
X0063756Y0212850D02*
X0062088Y0212850D01*
X0062922Y0212850D02*
X0062922Y0215352D01*
X0062088Y0214518D01*
X0060993Y0214935D02*
X0060576Y0215352D01*
X0059742Y0215352D01*
X0059325Y0214935D01*
X0059325Y0213267D01*
X0059742Y0212850D01*
X0060576Y0212850D01*
X0060993Y0213267D01*
X0043498Y0274850D02*
X0043498Y0279354D01*
X0041246Y0277102D01*
X0044249Y0277102D01*
X0039645Y0278603D02*
X0038894Y0279354D01*
X0037393Y0279354D01*
X0036642Y0278603D01*
X0036642Y0275601D01*
X0037393Y0274850D01*
X0038894Y0274850D01*
X0039645Y0275601D01*
X0130575Y0214935D02*
X0130575Y0213267D01*
X0130992Y0212850D01*
X0131826Y0212850D01*
X0132243Y0213267D01*
X0133338Y0212850D02*
X0135006Y0214518D01*
X0135006Y0214935D01*
X0134589Y0215352D01*
X0133755Y0215352D01*
X0133338Y0214935D01*
X0132243Y0214935D02*
X0131826Y0215352D01*
X0130992Y0215352D01*
X0130575Y0214935D01*
X0133338Y0212850D02*
X0135006Y0212850D01*
X0156267Y0189852D02*
X0155850Y0189435D01*
X0155850Y0187767D01*
X0156267Y0187350D01*
X0157101Y0187350D01*
X0157518Y0187767D01*
X0158612Y0187767D02*
X0159029Y0187350D01*
X0159863Y0187350D01*
X0160280Y0187767D01*
X0160280Y0188184D01*
X0159863Y0188601D01*
X0158612Y0188601D01*
X0158612Y0187767D01*
X0158612Y0188601D02*
X0159446Y0189435D01*
X0160280Y0189852D01*
X0157518Y0189435D02*
X0157101Y0189852D01*
X0156267Y0189852D01*
X0200575Y0212017D02*
X0200992Y0211600D01*
X0201826Y0211600D01*
X0202243Y0212017D01*
X0203338Y0212017D02*
X0205006Y0213685D01*
X0205006Y0214102D01*
X0203338Y0214102D01*
X0202243Y0213685D02*
X0201826Y0214102D01*
X0200992Y0214102D01*
X0200575Y0213685D01*
X0200575Y0212017D01*
X0203338Y0212017D02*
X0203338Y0211600D01*
X0225850Y0189435D02*
X0226267Y0189852D01*
X0227101Y0189852D01*
X0227518Y0189435D01*
X0228612Y0189435D02*
X0228612Y0189018D01*
X0229029Y0188601D01*
X0229863Y0188601D01*
X0230280Y0188184D01*
X0230280Y0187767D01*
X0229863Y0187350D01*
X0229029Y0187350D01*
X0228612Y0187767D01*
X0228612Y0188184D01*
X0229029Y0188601D01*
X0229863Y0188601D02*
X0230280Y0189018D01*
X0230280Y0189435D01*
X0229863Y0189852D01*
X0229029Y0189852D01*
X0228612Y0189435D01*
X0227518Y0187767D02*
X0227101Y0187350D01*
X0226267Y0187350D01*
X0225850Y0187767D01*
X0225850Y0189435D01*
X0143683Y0273350D02*
X0142015Y0273350D01*
X0141598Y0273767D01*
X0141598Y0274601D01*
X0142015Y0275018D01*
X0142015Y0276112D02*
X0141598Y0276529D01*
X0141598Y0277363D01*
X0142015Y0277780D01*
X0142432Y0277780D01*
X0142849Y0277363D01*
X0143266Y0277780D01*
X0143683Y0277780D01*
X0144100Y0277363D01*
X0144100Y0276529D01*
X0143683Y0276112D01*
X0143683Y0275018D02*
X0144100Y0274601D01*
X0144100Y0273767D01*
X0143683Y0273350D01*
X0142849Y0276946D02*
X0142849Y0277363D01*
D15*
X0140307Y0269687D02*
X0140307Y0255513D01*
X0147393Y0255513D01*
X0147393Y0269687D01*
X0140307Y0269687D01*
X0138013Y0216143D02*
X0152187Y0216143D01*
X0152187Y0209057D01*
X0138013Y0209057D01*
X0138013Y0216143D01*
X0138013Y0188643D02*
X0152187Y0188643D01*
X0152187Y0181557D01*
X0138013Y0181557D01*
X0138013Y0188643D01*
X0080937Y0188643D02*
X0080937Y0181557D01*
X0066763Y0181557D01*
X0066763Y0188643D01*
X0080937Y0188643D01*
X0080937Y0210307D02*
X0066763Y0210307D01*
X0066763Y0217393D01*
X0080937Y0217393D01*
X0080937Y0210307D01*
X0077600Y0115100D02*
X0062600Y0115100D01*
X0060100Y0112600D01*
X0060100Y0107600D01*
X0062600Y0105100D01*
X0077600Y0105100D01*
X0080100Y0102600D01*
X0080100Y0097600D01*
X0077600Y0095100D01*
X0062600Y0095100D01*
X0060100Y0092600D01*
X0060100Y0087600D01*
X0062600Y0085100D01*
X0077600Y0085100D01*
X0080100Y0082600D01*
X0080100Y0077600D01*
X0077600Y0075100D01*
X0062600Y0075100D01*
X0060100Y0072600D01*
X0060100Y0067600D01*
X0062600Y0065100D01*
X0077600Y0065100D01*
X0080100Y0062600D01*
X0080100Y0057600D01*
X0077600Y0055100D01*
X0080100Y0052600D01*
X0080100Y0047600D01*
X0077600Y0045100D01*
X0080100Y0042600D01*
X0080100Y0037600D01*
X0077600Y0035100D01*
X0062600Y0035100D01*
X0060100Y0037600D01*
X0060100Y0042600D01*
X0062600Y0045100D01*
X0077600Y0045100D01*
X0077600Y0055100D02*
X0062600Y0055100D01*
X0060100Y0052600D01*
X0060100Y0047600D01*
X0062600Y0045100D01*
X0062600Y0055100D02*
X0060100Y0057600D01*
X0060100Y0062600D01*
X0062600Y0065100D01*
X0062600Y0075100D02*
X0060100Y0077600D01*
X0060100Y0082600D01*
X0062600Y0085100D01*
X0062600Y0095100D02*
X0060100Y0097600D01*
X0060100Y0102600D01*
X0062600Y0105100D01*
X0077600Y0105100D02*
X0080100Y0107600D01*
X0080100Y0112600D01*
X0077600Y0115100D01*
X0077600Y0095100D02*
X0080100Y0092600D01*
X0080100Y0087600D01*
X0077600Y0085100D01*
X0077600Y0075100D02*
X0080100Y0072600D01*
X0080100Y0067600D01*
X0077600Y0065100D01*
X0009100Y0022600D02*
X0009104Y0022931D01*
X0009116Y0023262D01*
X0009137Y0023593D01*
X0009165Y0023923D01*
X0009202Y0024253D01*
X0009246Y0024581D01*
X0009299Y0024908D01*
X0009359Y0025234D01*
X0009428Y0025558D01*
X0009505Y0025880D01*
X0009589Y0026201D01*
X0009681Y0026519D01*
X0009781Y0026835D01*
X0009889Y0027148D01*
X0010005Y0027459D01*
X0010128Y0027766D01*
X0010258Y0028071D01*
X0010396Y0028372D01*
X0010541Y0028670D01*
X0010694Y0028964D01*
X0010854Y0029254D01*
X0011021Y0029540D01*
X0011194Y0029822D01*
X0011375Y0030100D01*
X0011563Y0030373D01*
X0011757Y0030642D01*
X0011957Y0030906D01*
X0012164Y0031164D01*
X0012378Y0031418D01*
X0012597Y0031666D01*
X0012823Y0031909D01*
X0013054Y0032146D01*
X0013291Y0032377D01*
X0013534Y0032603D01*
X0013782Y0032822D01*
X0014036Y0033036D01*
X0014294Y0033243D01*
X0014558Y0033443D01*
X0014827Y0033637D01*
X0015100Y0033825D01*
X0015378Y0034006D01*
X0015660Y0034179D01*
X0015946Y0034346D01*
X0016236Y0034506D01*
X0016530Y0034659D01*
X0016828Y0034804D01*
X0017129Y0034942D01*
X0017434Y0035072D01*
X0017741Y0035195D01*
X0018052Y0035311D01*
X0018365Y0035419D01*
X0018681Y0035519D01*
X0018999Y0035611D01*
X0019320Y0035695D01*
X0019642Y0035772D01*
X0019966Y0035841D01*
X0020292Y0035901D01*
X0020619Y0035954D01*
X0020947Y0035998D01*
X0021277Y0036035D01*
X0021607Y0036063D01*
X0021938Y0036084D01*
X0022269Y0036096D01*
X0022600Y0036100D01*
X0022931Y0036096D01*
X0023262Y0036084D01*
X0023593Y0036063D01*
X0023923Y0036035D01*
X0024253Y0035998D01*
X0024581Y0035954D01*
X0024908Y0035901D01*
X0025234Y0035841D01*
X0025558Y0035772D01*
X0025880Y0035695D01*
X0026201Y0035611D01*
X0026519Y0035519D01*
X0026835Y0035419D01*
X0027148Y0035311D01*
X0027459Y0035195D01*
X0027766Y0035072D01*
X0028071Y0034942D01*
X0028372Y0034804D01*
X0028670Y0034659D01*
X0028964Y0034506D01*
X0029254Y0034346D01*
X0029540Y0034179D01*
X0029822Y0034006D01*
X0030100Y0033825D01*
X0030373Y0033637D01*
X0030642Y0033443D01*
X0030906Y0033243D01*
X0031164Y0033036D01*
X0031418Y0032822D01*
X0031666Y0032603D01*
X0031909Y0032377D01*
X0032146Y0032146D01*
X0032377Y0031909D01*
X0032603Y0031666D01*
X0032822Y0031418D01*
X0033036Y0031164D01*
X0033243Y0030906D01*
X0033443Y0030642D01*
X0033637Y0030373D01*
X0033825Y0030100D01*
X0034006Y0029822D01*
X0034179Y0029540D01*
X0034346Y0029254D01*
X0034506Y0028964D01*
X0034659Y0028670D01*
X0034804Y0028372D01*
X0034942Y0028071D01*
X0035072Y0027766D01*
X0035195Y0027459D01*
X0035311Y0027148D01*
X0035419Y0026835D01*
X0035519Y0026519D01*
X0035611Y0026201D01*
X0035695Y0025880D01*
X0035772Y0025558D01*
X0035841Y0025234D01*
X0035901Y0024908D01*
X0035954Y0024581D01*
X0035998Y0024253D01*
X0036035Y0023923D01*
X0036063Y0023593D01*
X0036084Y0023262D01*
X0036096Y0022931D01*
X0036100Y0022600D01*
X0036096Y0022269D01*
X0036084Y0021938D01*
X0036063Y0021607D01*
X0036035Y0021277D01*
X0035998Y0020947D01*
X0035954Y0020619D01*
X0035901Y0020292D01*
X0035841Y0019966D01*
X0035772Y0019642D01*
X0035695Y0019320D01*
X0035611Y0018999D01*
X0035519Y0018681D01*
X0035419Y0018365D01*
X0035311Y0018052D01*
X0035195Y0017741D01*
X0035072Y0017434D01*
X0034942Y0017129D01*
X0034804Y0016828D01*
X0034659Y0016530D01*
X0034506Y0016236D01*
X0034346Y0015946D01*
X0034179Y0015660D01*
X0034006Y0015378D01*
X0033825Y0015100D01*
X0033637Y0014827D01*
X0033443Y0014558D01*
X0033243Y0014294D01*
X0033036Y0014036D01*
X0032822Y0013782D01*
X0032603Y0013534D01*
X0032377Y0013291D01*
X0032146Y0013054D01*
X0031909Y0012823D01*
X0031666Y0012597D01*
X0031418Y0012378D01*
X0031164Y0012164D01*
X0030906Y0011957D01*
X0030642Y0011757D01*
X0030373Y0011563D01*
X0030100Y0011375D01*
X0029822Y0011194D01*
X0029540Y0011021D01*
X0029254Y0010854D01*
X0028964Y0010694D01*
X0028670Y0010541D01*
X0028372Y0010396D01*
X0028071Y0010258D01*
X0027766Y0010128D01*
X0027459Y0010005D01*
X0027148Y0009889D01*
X0026835Y0009781D01*
X0026519Y0009681D01*
X0026201Y0009589D01*
X0025880Y0009505D01*
X0025558Y0009428D01*
X0025234Y0009359D01*
X0024908Y0009299D01*
X0024581Y0009246D01*
X0024253Y0009202D01*
X0023923Y0009165D01*
X0023593Y0009137D01*
X0023262Y0009116D01*
X0022931Y0009104D01*
X0022600Y0009100D01*
X0022269Y0009104D01*
X0021938Y0009116D01*
X0021607Y0009137D01*
X0021277Y0009165D01*
X0020947Y0009202D01*
X0020619Y0009246D01*
X0020292Y0009299D01*
X0019966Y0009359D01*
X0019642Y0009428D01*
X0019320Y0009505D01*
X0018999Y0009589D01*
X0018681Y0009681D01*
X0018365Y0009781D01*
X0018052Y0009889D01*
X0017741Y0010005D01*
X0017434Y0010128D01*
X0017129Y0010258D01*
X0016828Y0010396D01*
X0016530Y0010541D01*
X0016236Y0010694D01*
X0015946Y0010854D01*
X0015660Y0011021D01*
X0015378Y0011194D01*
X0015100Y0011375D01*
X0014827Y0011563D01*
X0014558Y0011757D01*
X0014294Y0011957D01*
X0014036Y0012164D01*
X0013782Y0012378D01*
X0013534Y0012597D01*
X0013291Y0012823D01*
X0013054Y0013054D01*
X0012823Y0013291D01*
X0012597Y0013534D01*
X0012378Y0013782D01*
X0012164Y0014036D01*
X0011957Y0014294D01*
X0011757Y0014558D01*
X0011563Y0014827D01*
X0011375Y0015100D01*
X0011194Y0015378D01*
X0011021Y0015660D01*
X0010854Y0015946D01*
X0010694Y0016236D01*
X0010541Y0016530D01*
X0010396Y0016828D01*
X0010258Y0017129D01*
X0010128Y0017434D01*
X0010005Y0017741D01*
X0009889Y0018052D01*
X0009781Y0018365D01*
X0009681Y0018681D01*
X0009589Y0018999D01*
X0009505Y0019320D01*
X0009428Y0019642D01*
X0009359Y0019966D01*
X0009299Y0020292D01*
X0009246Y0020619D01*
X0009202Y0020947D01*
X0009165Y0021277D01*
X0009137Y0021607D01*
X0009116Y0021938D01*
X0009104Y0022269D01*
X0009100Y0022600D01*
X0132600Y0037600D02*
X0132600Y0042600D01*
X0135100Y0045100D01*
X0150100Y0045100D01*
X0152600Y0042600D01*
X0152600Y0037600D01*
X0150100Y0035100D01*
X0135100Y0035100D01*
X0132600Y0037600D01*
X0135100Y0045100D02*
X0132600Y0047600D01*
X0132600Y0052600D01*
X0135100Y0055100D01*
X0150100Y0055100D01*
X0152600Y0052600D01*
X0152600Y0047600D01*
X0150100Y0045100D01*
X0150100Y0055100D02*
X0152600Y0057600D01*
X0152600Y0062600D01*
X0150100Y0065100D01*
X0135100Y0065100D01*
X0132600Y0062600D01*
X0132600Y0057600D01*
X0135100Y0055100D01*
X0135100Y0065100D02*
X0132600Y0067600D01*
X0132600Y0072600D01*
X0135100Y0075100D01*
X0150100Y0075100D01*
X0152600Y0072600D01*
X0152600Y0067600D01*
X0150100Y0065100D01*
X0150100Y0075100D02*
X0152600Y0077600D01*
X0152600Y0082600D01*
X0150100Y0085100D01*
X0135100Y0085100D01*
X0132600Y0082600D01*
X0132600Y0077600D01*
X0135100Y0075100D01*
X0135100Y0085100D02*
X0132600Y0087600D01*
X0132600Y0092600D01*
X0135100Y0095100D01*
X0150100Y0095100D01*
X0152600Y0092600D01*
X0152600Y0087600D01*
X0150100Y0085100D01*
X0150100Y0095100D02*
X0152600Y0097600D01*
X0152600Y0102600D01*
X0150100Y0105100D01*
X0135100Y0105100D01*
X0132600Y0102600D01*
X0132600Y0097600D01*
X0135100Y0095100D01*
X0135100Y0105100D02*
X0132600Y0107600D01*
X0132600Y0112600D01*
X0135100Y0115100D01*
X0150100Y0115100D01*
X0152600Y0112600D01*
X0152600Y0107600D01*
X0150100Y0105100D01*
X0200100Y0102600D02*
X0200100Y0097600D01*
X0202600Y0095100D01*
X0217600Y0095100D01*
X0220100Y0092600D01*
X0220100Y0087600D01*
X0217600Y0085100D01*
X0202600Y0085100D01*
X0200100Y0082600D01*
X0200100Y0077600D01*
X0202600Y0075100D01*
X0217600Y0075100D01*
X0220100Y0072600D01*
X0220100Y0067600D01*
X0217600Y0065100D01*
X0202600Y0065100D01*
X0200100Y0062600D01*
X0200100Y0057600D01*
X0202600Y0055100D01*
X0200100Y0052600D01*
X0200100Y0047600D01*
X0202600Y0045100D01*
X0200100Y0042600D01*
X0200100Y0037600D01*
X0202600Y0035100D01*
X0217600Y0035100D01*
X0220100Y0037600D01*
X0220100Y0042600D01*
X0217600Y0045100D01*
X0202600Y0045100D01*
X0202600Y0055100D02*
X0217600Y0055100D01*
X0220100Y0052600D01*
X0220100Y0047600D01*
X0217600Y0045100D01*
X0217600Y0055100D02*
X0220100Y0057600D01*
X0220100Y0062600D01*
X0217600Y0065100D01*
X0217600Y0075100D02*
X0220100Y0077600D01*
X0220100Y0082600D01*
X0217600Y0085100D01*
X0217600Y0095100D02*
X0220100Y0097600D01*
X0220100Y0102600D01*
X0217600Y0105100D01*
X0202600Y0105100D01*
X0200100Y0102600D01*
X0202600Y0105100D02*
X0200100Y0107600D01*
X0200100Y0112600D01*
X0202600Y0115100D01*
X0217600Y0115100D01*
X0220100Y0112600D01*
X0220100Y0107600D01*
X0217600Y0105100D01*
X0202600Y0095100D02*
X0200100Y0092600D01*
X0200100Y0087600D01*
X0202600Y0085100D01*
X0202600Y0075100D02*
X0200100Y0072600D01*
X0200100Y0067600D01*
X0202600Y0065100D01*
X0270100Y0062600D02*
X0270100Y0057600D01*
X0272600Y0055100D01*
X0270100Y0052600D01*
X0270100Y0047600D01*
X0272600Y0045100D01*
X0270100Y0042600D01*
X0270100Y0037600D01*
X0272600Y0035100D01*
X0287600Y0035100D01*
X0290100Y0037600D01*
X0290100Y0042600D01*
X0287600Y0045100D01*
X0272600Y0045100D01*
X0272600Y0055100D02*
X0287600Y0055100D01*
X0290100Y0052600D01*
X0290100Y0047600D01*
X0287600Y0045100D01*
X0287600Y0055100D02*
X0290100Y0057600D01*
X0290100Y0062600D01*
X0287600Y0065100D01*
X0272600Y0065100D01*
X0270100Y0062600D01*
X0272600Y0065100D02*
X0270100Y0067600D01*
X0270100Y0072600D01*
X0272600Y0075100D01*
X0287600Y0075100D01*
X0290100Y0072600D01*
X0290100Y0067600D01*
X0287600Y0065100D01*
X0287600Y0075100D02*
X0290100Y0077600D01*
X0290100Y0082600D01*
X0287600Y0085100D01*
X0272600Y0085100D01*
X0270100Y0082600D01*
X0270100Y0077600D01*
X0272600Y0075100D01*
X0272600Y0085100D02*
X0270100Y0087600D01*
X0270100Y0092600D01*
X0272600Y0095100D01*
X0287600Y0095100D01*
X0290100Y0092600D01*
X0290100Y0087600D01*
X0287600Y0085100D01*
X0287600Y0095100D02*
X0290100Y0097600D01*
X0290100Y0102600D01*
X0287600Y0105100D01*
X0272600Y0105100D01*
X0270100Y0102600D01*
X0270100Y0097600D01*
X0272600Y0095100D01*
X0272600Y0105100D02*
X0270100Y0107600D01*
X0270100Y0112600D01*
X0272600Y0115100D01*
X0287600Y0115100D01*
X0290100Y0112600D01*
X0290100Y0107600D01*
X0287600Y0105100D01*
X0290937Y0181557D02*
X0276763Y0181557D01*
X0276763Y0188643D01*
X0290937Y0188643D01*
X0290937Y0181557D01*
X0290937Y0209057D02*
X0276763Y0209057D01*
X0276763Y0216143D01*
X0290937Y0216143D01*
X0290937Y0209057D01*
X0326557Y0223013D02*
X0326557Y0237187D01*
X0333643Y0237187D01*
X0333643Y0223013D01*
X0326557Y0223013D01*
X0319100Y0308850D02*
X0319104Y0309181D01*
X0319116Y0309512D01*
X0319137Y0309843D01*
X0319165Y0310173D01*
X0319202Y0310503D01*
X0319246Y0310831D01*
X0319299Y0311158D01*
X0319359Y0311484D01*
X0319428Y0311808D01*
X0319505Y0312130D01*
X0319589Y0312451D01*
X0319681Y0312769D01*
X0319781Y0313085D01*
X0319889Y0313398D01*
X0320005Y0313709D01*
X0320128Y0314016D01*
X0320258Y0314321D01*
X0320396Y0314622D01*
X0320541Y0314920D01*
X0320694Y0315214D01*
X0320854Y0315504D01*
X0321021Y0315790D01*
X0321194Y0316072D01*
X0321375Y0316350D01*
X0321563Y0316623D01*
X0321757Y0316892D01*
X0321957Y0317156D01*
X0322164Y0317414D01*
X0322378Y0317668D01*
X0322597Y0317916D01*
X0322823Y0318159D01*
X0323054Y0318396D01*
X0323291Y0318627D01*
X0323534Y0318853D01*
X0323782Y0319072D01*
X0324036Y0319286D01*
X0324294Y0319493D01*
X0324558Y0319693D01*
X0324827Y0319887D01*
X0325100Y0320075D01*
X0325378Y0320256D01*
X0325660Y0320429D01*
X0325946Y0320596D01*
X0326236Y0320756D01*
X0326530Y0320909D01*
X0326828Y0321054D01*
X0327129Y0321192D01*
X0327434Y0321322D01*
X0327741Y0321445D01*
X0328052Y0321561D01*
X0328365Y0321669D01*
X0328681Y0321769D01*
X0328999Y0321861D01*
X0329320Y0321945D01*
X0329642Y0322022D01*
X0329966Y0322091D01*
X0330292Y0322151D01*
X0330619Y0322204D01*
X0330947Y0322248D01*
X0331277Y0322285D01*
X0331607Y0322313D01*
X0331938Y0322334D01*
X0332269Y0322346D01*
X0332600Y0322350D01*
X0332931Y0322346D01*
X0333262Y0322334D01*
X0333593Y0322313D01*
X0333923Y0322285D01*
X0334253Y0322248D01*
X0334581Y0322204D01*
X0334908Y0322151D01*
X0335234Y0322091D01*
X0335558Y0322022D01*
X0335880Y0321945D01*
X0336201Y0321861D01*
X0336519Y0321769D01*
X0336835Y0321669D01*
X0337148Y0321561D01*
X0337459Y0321445D01*
X0337766Y0321322D01*
X0338071Y0321192D01*
X0338372Y0321054D01*
X0338670Y0320909D01*
X0338964Y0320756D01*
X0339254Y0320596D01*
X0339540Y0320429D01*
X0339822Y0320256D01*
X0340100Y0320075D01*
X0340373Y0319887D01*
X0340642Y0319693D01*
X0340906Y0319493D01*
X0341164Y0319286D01*
X0341418Y0319072D01*
X0341666Y0318853D01*
X0341909Y0318627D01*
X0342146Y0318396D01*
X0342377Y0318159D01*
X0342603Y0317916D01*
X0342822Y0317668D01*
X0343036Y0317414D01*
X0343243Y0317156D01*
X0343443Y0316892D01*
X0343637Y0316623D01*
X0343825Y0316350D01*
X0344006Y0316072D01*
X0344179Y0315790D01*
X0344346Y0315504D01*
X0344506Y0315214D01*
X0344659Y0314920D01*
X0344804Y0314622D01*
X0344942Y0314321D01*
X0345072Y0314016D01*
X0345195Y0313709D01*
X0345311Y0313398D01*
X0345419Y0313085D01*
X0345519Y0312769D01*
X0345611Y0312451D01*
X0345695Y0312130D01*
X0345772Y0311808D01*
X0345841Y0311484D01*
X0345901Y0311158D01*
X0345954Y0310831D01*
X0345998Y0310503D01*
X0346035Y0310173D01*
X0346063Y0309843D01*
X0346084Y0309512D01*
X0346096Y0309181D01*
X0346100Y0308850D01*
X0346096Y0308519D01*
X0346084Y0308188D01*
X0346063Y0307857D01*
X0346035Y0307527D01*
X0345998Y0307197D01*
X0345954Y0306869D01*
X0345901Y0306542D01*
X0345841Y0306216D01*
X0345772Y0305892D01*
X0345695Y0305570D01*
X0345611Y0305249D01*
X0345519Y0304931D01*
X0345419Y0304615D01*
X0345311Y0304302D01*
X0345195Y0303991D01*
X0345072Y0303684D01*
X0344942Y0303379D01*
X0344804Y0303078D01*
X0344659Y0302780D01*
X0344506Y0302486D01*
X0344346Y0302196D01*
X0344179Y0301910D01*
X0344006Y0301628D01*
X0343825Y0301350D01*
X0343637Y0301077D01*
X0343443Y0300808D01*
X0343243Y0300544D01*
X0343036Y0300286D01*
X0342822Y0300032D01*
X0342603Y0299784D01*
X0342377Y0299541D01*
X0342146Y0299304D01*
X0341909Y0299073D01*
X0341666Y0298847D01*
X0341418Y0298628D01*
X0341164Y0298414D01*
X0340906Y0298207D01*
X0340642Y0298007D01*
X0340373Y0297813D01*
X0340100Y0297625D01*
X0339822Y0297444D01*
X0339540Y0297271D01*
X0339254Y0297104D01*
X0338964Y0296944D01*
X0338670Y0296791D01*
X0338372Y0296646D01*
X0338071Y0296508D01*
X0337766Y0296378D01*
X0337459Y0296255D01*
X0337148Y0296139D01*
X0336835Y0296031D01*
X0336519Y0295931D01*
X0336201Y0295839D01*
X0335880Y0295755D01*
X0335558Y0295678D01*
X0335234Y0295609D01*
X0334908Y0295549D01*
X0334581Y0295496D01*
X0334253Y0295452D01*
X0333923Y0295415D01*
X0333593Y0295387D01*
X0333262Y0295366D01*
X0332931Y0295354D01*
X0332600Y0295350D01*
X0332269Y0295354D01*
X0331938Y0295366D01*
X0331607Y0295387D01*
X0331277Y0295415D01*
X0330947Y0295452D01*
X0330619Y0295496D01*
X0330292Y0295549D01*
X0329966Y0295609D01*
X0329642Y0295678D01*
X0329320Y0295755D01*
X0328999Y0295839D01*
X0328681Y0295931D01*
X0328365Y0296031D01*
X0328052Y0296139D01*
X0327741Y0296255D01*
X0327434Y0296378D01*
X0327129Y0296508D01*
X0326828Y0296646D01*
X0326530Y0296791D01*
X0326236Y0296944D01*
X0325946Y0297104D01*
X0325660Y0297271D01*
X0325378Y0297444D01*
X0325100Y0297625D01*
X0324827Y0297813D01*
X0324558Y0298007D01*
X0324294Y0298207D01*
X0324036Y0298414D01*
X0323782Y0298628D01*
X0323534Y0298847D01*
X0323291Y0299073D01*
X0323054Y0299304D01*
X0322823Y0299541D01*
X0322597Y0299784D01*
X0322378Y0300032D01*
X0322164Y0300286D01*
X0321957Y0300544D01*
X0321757Y0300808D01*
X0321563Y0301077D01*
X0321375Y0301350D01*
X0321194Y0301628D01*
X0321021Y0301910D01*
X0320854Y0302196D01*
X0320694Y0302486D01*
X0320541Y0302780D01*
X0320396Y0303078D01*
X0320258Y0303379D01*
X0320128Y0303684D01*
X0320005Y0303991D01*
X0319889Y0304302D01*
X0319781Y0304615D01*
X0319681Y0304931D01*
X0319589Y0305249D01*
X0319505Y0305570D01*
X0319428Y0305892D01*
X0319359Y0306216D01*
X0319299Y0306542D01*
X0319246Y0306869D01*
X0319202Y0307197D01*
X0319165Y0307527D01*
X0319137Y0307857D01*
X0319116Y0308188D01*
X0319104Y0308519D01*
X0319100Y0308850D01*
X0222187Y0216143D02*
X0222187Y0209057D01*
X0208013Y0209057D01*
X0208013Y0216143D01*
X0222187Y0216143D01*
X0222187Y0188643D02*
X0208013Y0188643D01*
X0208013Y0181557D01*
X0222187Y0181557D01*
X0222187Y0188643D01*
X0319100Y0022600D02*
X0319104Y0022931D01*
X0319116Y0023262D01*
X0319137Y0023593D01*
X0319165Y0023923D01*
X0319202Y0024253D01*
X0319246Y0024581D01*
X0319299Y0024908D01*
X0319359Y0025234D01*
X0319428Y0025558D01*
X0319505Y0025880D01*
X0319589Y0026201D01*
X0319681Y0026519D01*
X0319781Y0026835D01*
X0319889Y0027148D01*
X0320005Y0027459D01*
X0320128Y0027766D01*
X0320258Y0028071D01*
X0320396Y0028372D01*
X0320541Y0028670D01*
X0320694Y0028964D01*
X0320854Y0029254D01*
X0321021Y0029540D01*
X0321194Y0029822D01*
X0321375Y0030100D01*
X0321563Y0030373D01*
X0321757Y0030642D01*
X0321957Y0030906D01*
X0322164Y0031164D01*
X0322378Y0031418D01*
X0322597Y0031666D01*
X0322823Y0031909D01*
X0323054Y0032146D01*
X0323291Y0032377D01*
X0323534Y0032603D01*
X0323782Y0032822D01*
X0324036Y0033036D01*
X0324294Y0033243D01*
X0324558Y0033443D01*
X0324827Y0033637D01*
X0325100Y0033825D01*
X0325378Y0034006D01*
X0325660Y0034179D01*
X0325946Y0034346D01*
X0326236Y0034506D01*
X0326530Y0034659D01*
X0326828Y0034804D01*
X0327129Y0034942D01*
X0327434Y0035072D01*
X0327741Y0035195D01*
X0328052Y0035311D01*
X0328365Y0035419D01*
X0328681Y0035519D01*
X0328999Y0035611D01*
X0329320Y0035695D01*
X0329642Y0035772D01*
X0329966Y0035841D01*
X0330292Y0035901D01*
X0330619Y0035954D01*
X0330947Y0035998D01*
X0331277Y0036035D01*
X0331607Y0036063D01*
X0331938Y0036084D01*
X0332269Y0036096D01*
X0332600Y0036100D01*
X0332931Y0036096D01*
X0333262Y0036084D01*
X0333593Y0036063D01*
X0333923Y0036035D01*
X0334253Y0035998D01*
X0334581Y0035954D01*
X0334908Y0035901D01*
X0335234Y0035841D01*
X0335558Y0035772D01*
X0335880Y0035695D01*
X0336201Y0035611D01*
X0336519Y0035519D01*
X0336835Y0035419D01*
X0337148Y0035311D01*
X0337459Y0035195D01*
X0337766Y0035072D01*
X0338071Y0034942D01*
X0338372Y0034804D01*
X0338670Y0034659D01*
X0338964Y0034506D01*
X0339254Y0034346D01*
X0339540Y0034179D01*
X0339822Y0034006D01*
X0340100Y0033825D01*
X0340373Y0033637D01*
X0340642Y0033443D01*
X0340906Y0033243D01*
X0341164Y0033036D01*
X0341418Y0032822D01*
X0341666Y0032603D01*
X0341909Y0032377D01*
X0342146Y0032146D01*
X0342377Y0031909D01*
X0342603Y0031666D01*
X0342822Y0031418D01*
X0343036Y0031164D01*
X0343243Y0030906D01*
X0343443Y0030642D01*
X0343637Y0030373D01*
X0343825Y0030100D01*
X0344006Y0029822D01*
X0344179Y0029540D01*
X0344346Y0029254D01*
X0344506Y0028964D01*
X0344659Y0028670D01*
X0344804Y0028372D01*
X0344942Y0028071D01*
X0345072Y0027766D01*
X0345195Y0027459D01*
X0345311Y0027148D01*
X0345419Y0026835D01*
X0345519Y0026519D01*
X0345611Y0026201D01*
X0345695Y0025880D01*
X0345772Y0025558D01*
X0345841Y0025234D01*
X0345901Y0024908D01*
X0345954Y0024581D01*
X0345998Y0024253D01*
X0346035Y0023923D01*
X0346063Y0023593D01*
X0346084Y0023262D01*
X0346096Y0022931D01*
X0346100Y0022600D01*
X0346096Y0022269D01*
X0346084Y0021938D01*
X0346063Y0021607D01*
X0346035Y0021277D01*
X0345998Y0020947D01*
X0345954Y0020619D01*
X0345901Y0020292D01*
X0345841Y0019966D01*
X0345772Y0019642D01*
X0345695Y0019320D01*
X0345611Y0018999D01*
X0345519Y0018681D01*
X0345419Y0018365D01*
X0345311Y0018052D01*
X0345195Y0017741D01*
X0345072Y0017434D01*
X0344942Y0017129D01*
X0344804Y0016828D01*
X0344659Y0016530D01*
X0344506Y0016236D01*
X0344346Y0015946D01*
X0344179Y0015660D01*
X0344006Y0015378D01*
X0343825Y0015100D01*
X0343637Y0014827D01*
X0343443Y0014558D01*
X0343243Y0014294D01*
X0343036Y0014036D01*
X0342822Y0013782D01*
X0342603Y0013534D01*
X0342377Y0013291D01*
X0342146Y0013054D01*
X0341909Y0012823D01*
X0341666Y0012597D01*
X0341418Y0012378D01*
X0341164Y0012164D01*
X0340906Y0011957D01*
X0340642Y0011757D01*
X0340373Y0011563D01*
X0340100Y0011375D01*
X0339822Y0011194D01*
X0339540Y0011021D01*
X0339254Y0010854D01*
X0338964Y0010694D01*
X0338670Y0010541D01*
X0338372Y0010396D01*
X0338071Y0010258D01*
X0337766Y0010128D01*
X0337459Y0010005D01*
X0337148Y0009889D01*
X0336835Y0009781D01*
X0336519Y0009681D01*
X0336201Y0009589D01*
X0335880Y0009505D01*
X0335558Y0009428D01*
X0335234Y0009359D01*
X0334908Y0009299D01*
X0334581Y0009246D01*
X0334253Y0009202D01*
X0333923Y0009165D01*
X0333593Y0009137D01*
X0333262Y0009116D01*
X0332931Y0009104D01*
X0332600Y0009100D01*
X0332269Y0009104D01*
X0331938Y0009116D01*
X0331607Y0009137D01*
X0331277Y0009165D01*
X0330947Y0009202D01*
X0330619Y0009246D01*
X0330292Y0009299D01*
X0329966Y0009359D01*
X0329642Y0009428D01*
X0329320Y0009505D01*
X0328999Y0009589D01*
X0328681Y0009681D01*
X0328365Y0009781D01*
X0328052Y0009889D01*
X0327741Y0010005D01*
X0327434Y0010128D01*
X0327129Y0010258D01*
X0326828Y0010396D01*
X0326530Y0010541D01*
X0326236Y0010694D01*
X0325946Y0010854D01*
X0325660Y0011021D01*
X0325378Y0011194D01*
X0325100Y0011375D01*
X0324827Y0011563D01*
X0324558Y0011757D01*
X0324294Y0011957D01*
X0324036Y0012164D01*
X0323782Y0012378D01*
X0323534Y0012597D01*
X0323291Y0012823D01*
X0323054Y0013054D01*
X0322823Y0013291D01*
X0322597Y0013534D01*
X0322378Y0013782D01*
X0322164Y0014036D01*
X0321957Y0014294D01*
X0321757Y0014558D01*
X0321563Y0014827D01*
X0321375Y0015100D01*
X0321194Y0015378D01*
X0321021Y0015660D01*
X0320854Y0015946D01*
X0320694Y0016236D01*
X0320541Y0016530D01*
X0320396Y0016828D01*
X0320258Y0017129D01*
X0320128Y0017434D01*
X0320005Y0017741D01*
X0319889Y0018052D01*
X0319781Y0018365D01*
X0319681Y0018681D01*
X0319589Y0018999D01*
X0319505Y0019320D01*
X0319428Y0019642D01*
X0319359Y0019966D01*
X0319299Y0020292D01*
X0319246Y0020619D01*
X0319202Y0020947D01*
X0319165Y0021277D01*
X0319137Y0021607D01*
X0319116Y0021938D01*
X0319104Y0022269D01*
X0319100Y0022600D01*
X0009100Y0310100D02*
X0009104Y0310431D01*
X0009116Y0310762D01*
X0009137Y0311093D01*
X0009165Y0311423D01*
X0009202Y0311753D01*
X0009246Y0312081D01*
X0009299Y0312408D01*
X0009359Y0312734D01*
X0009428Y0313058D01*
X0009505Y0313380D01*
X0009589Y0313701D01*
X0009681Y0314019D01*
X0009781Y0314335D01*
X0009889Y0314648D01*
X0010005Y0314959D01*
X0010128Y0315266D01*
X0010258Y0315571D01*
X0010396Y0315872D01*
X0010541Y0316170D01*
X0010694Y0316464D01*
X0010854Y0316754D01*
X0011021Y0317040D01*
X0011194Y0317322D01*
X0011375Y0317600D01*
X0011563Y0317873D01*
X0011757Y0318142D01*
X0011957Y0318406D01*
X0012164Y0318664D01*
X0012378Y0318918D01*
X0012597Y0319166D01*
X0012823Y0319409D01*
X0013054Y0319646D01*
X0013291Y0319877D01*
X0013534Y0320103D01*
X0013782Y0320322D01*
X0014036Y0320536D01*
X0014294Y0320743D01*
X0014558Y0320943D01*
X0014827Y0321137D01*
X0015100Y0321325D01*
X0015378Y0321506D01*
X0015660Y0321679D01*
X0015946Y0321846D01*
X0016236Y0322006D01*
X0016530Y0322159D01*
X0016828Y0322304D01*
X0017129Y0322442D01*
X0017434Y0322572D01*
X0017741Y0322695D01*
X0018052Y0322811D01*
X0018365Y0322919D01*
X0018681Y0323019D01*
X0018999Y0323111D01*
X0019320Y0323195D01*
X0019642Y0323272D01*
X0019966Y0323341D01*
X0020292Y0323401D01*
X0020619Y0323454D01*
X0020947Y0323498D01*
X0021277Y0323535D01*
X0021607Y0323563D01*
X0021938Y0323584D01*
X0022269Y0323596D01*
X0022600Y0323600D01*
X0022931Y0323596D01*
X0023262Y0323584D01*
X0023593Y0323563D01*
X0023923Y0323535D01*
X0024253Y0323498D01*
X0024581Y0323454D01*
X0024908Y0323401D01*
X0025234Y0323341D01*
X0025558Y0323272D01*
X0025880Y0323195D01*
X0026201Y0323111D01*
X0026519Y0323019D01*
X0026835Y0322919D01*
X0027148Y0322811D01*
X0027459Y0322695D01*
X0027766Y0322572D01*
X0028071Y0322442D01*
X0028372Y0322304D01*
X0028670Y0322159D01*
X0028964Y0322006D01*
X0029254Y0321846D01*
X0029540Y0321679D01*
X0029822Y0321506D01*
X0030100Y0321325D01*
X0030373Y0321137D01*
X0030642Y0320943D01*
X0030906Y0320743D01*
X0031164Y0320536D01*
X0031418Y0320322D01*
X0031666Y0320103D01*
X0031909Y0319877D01*
X0032146Y0319646D01*
X0032377Y0319409D01*
X0032603Y0319166D01*
X0032822Y0318918D01*
X0033036Y0318664D01*
X0033243Y0318406D01*
X0033443Y0318142D01*
X0033637Y0317873D01*
X0033825Y0317600D01*
X0034006Y0317322D01*
X0034179Y0317040D01*
X0034346Y0316754D01*
X0034506Y0316464D01*
X0034659Y0316170D01*
X0034804Y0315872D01*
X0034942Y0315571D01*
X0035072Y0315266D01*
X0035195Y0314959D01*
X0035311Y0314648D01*
X0035419Y0314335D01*
X0035519Y0314019D01*
X0035611Y0313701D01*
X0035695Y0313380D01*
X0035772Y0313058D01*
X0035841Y0312734D01*
X0035901Y0312408D01*
X0035954Y0312081D01*
X0035998Y0311753D01*
X0036035Y0311423D01*
X0036063Y0311093D01*
X0036084Y0310762D01*
X0036096Y0310431D01*
X0036100Y0310100D01*
X0036096Y0309769D01*
X0036084Y0309438D01*
X0036063Y0309107D01*
X0036035Y0308777D01*
X0035998Y0308447D01*
X0035954Y0308119D01*
X0035901Y0307792D01*
X0035841Y0307466D01*
X0035772Y0307142D01*
X0035695Y0306820D01*
X0035611Y0306499D01*
X0035519Y0306181D01*
X0035419Y0305865D01*
X0035311Y0305552D01*
X0035195Y0305241D01*
X0035072Y0304934D01*
X0034942Y0304629D01*
X0034804Y0304328D01*
X0034659Y0304030D01*
X0034506Y0303736D01*
X0034346Y0303446D01*
X0034179Y0303160D01*
X0034006Y0302878D01*
X0033825Y0302600D01*
X0033637Y0302327D01*
X0033443Y0302058D01*
X0033243Y0301794D01*
X0033036Y0301536D01*
X0032822Y0301282D01*
X0032603Y0301034D01*
X0032377Y0300791D01*
X0032146Y0300554D01*
X0031909Y0300323D01*
X0031666Y0300097D01*
X0031418Y0299878D01*
X0031164Y0299664D01*
X0030906Y0299457D01*
X0030642Y0299257D01*
X0030373Y0299063D01*
X0030100Y0298875D01*
X0029822Y0298694D01*
X0029540Y0298521D01*
X0029254Y0298354D01*
X0028964Y0298194D01*
X0028670Y0298041D01*
X0028372Y0297896D01*
X0028071Y0297758D01*
X0027766Y0297628D01*
X0027459Y0297505D01*
X0027148Y0297389D01*
X0026835Y0297281D01*
X0026519Y0297181D01*
X0026201Y0297089D01*
X0025880Y0297005D01*
X0025558Y0296928D01*
X0025234Y0296859D01*
X0024908Y0296799D01*
X0024581Y0296746D01*
X0024253Y0296702D01*
X0023923Y0296665D01*
X0023593Y0296637D01*
X0023262Y0296616D01*
X0022931Y0296604D01*
X0022600Y0296600D01*
X0022269Y0296604D01*
X0021938Y0296616D01*
X0021607Y0296637D01*
X0021277Y0296665D01*
X0020947Y0296702D01*
X0020619Y0296746D01*
X0020292Y0296799D01*
X0019966Y0296859D01*
X0019642Y0296928D01*
X0019320Y0297005D01*
X0018999Y0297089D01*
X0018681Y0297181D01*
X0018365Y0297281D01*
X0018052Y0297389D01*
X0017741Y0297505D01*
X0017434Y0297628D01*
X0017129Y0297758D01*
X0016828Y0297896D01*
X0016530Y0298041D01*
X0016236Y0298194D01*
X0015946Y0298354D01*
X0015660Y0298521D01*
X0015378Y0298694D01*
X0015100Y0298875D01*
X0014827Y0299063D01*
X0014558Y0299257D01*
X0014294Y0299457D01*
X0014036Y0299664D01*
X0013782Y0299878D01*
X0013534Y0300097D01*
X0013291Y0300323D01*
X0013054Y0300554D01*
X0012823Y0300791D01*
X0012597Y0301034D01*
X0012378Y0301282D01*
X0012164Y0301536D01*
X0011957Y0301794D01*
X0011757Y0302058D01*
X0011563Y0302327D01*
X0011375Y0302600D01*
X0011194Y0302878D01*
X0011021Y0303160D01*
X0010854Y0303446D01*
X0010694Y0303736D01*
X0010541Y0304030D01*
X0010396Y0304328D01*
X0010258Y0304629D01*
X0010128Y0304934D01*
X0010005Y0305241D01*
X0009889Y0305552D01*
X0009781Y0305865D01*
X0009681Y0306181D01*
X0009589Y0306499D01*
X0009505Y0306820D01*
X0009428Y0307142D01*
X0009359Y0307466D01*
X0009299Y0307792D01*
X0009246Y0308119D01*
X0009202Y0308447D01*
X0009165Y0308777D01*
X0009137Y0309107D01*
X0009116Y0309438D01*
X0009104Y0309769D01*
X0009100Y0310100D01*
D16*
X0063100Y0280100D02*
X0065100Y0280100D01*
X0050100Y0280100D02*
X0050105Y0280529D01*
X0050121Y0280959D01*
X0050147Y0281387D01*
X0050184Y0281815D01*
X0050232Y0282242D01*
X0050289Y0282668D01*
X0050358Y0283092D01*
X0050436Y0283514D01*
X0050525Y0283934D01*
X0050624Y0284352D01*
X0050734Y0284767D01*
X0050854Y0285180D01*
X0050983Y0285589D01*
X0051123Y0285996D01*
X0051273Y0286398D01*
X0051432Y0286797D01*
X0051601Y0287192D01*
X0051780Y0287582D01*
X0051969Y0287968D01*
X0052166Y0288349D01*
X0052373Y0288726D01*
X0052590Y0289097D01*
X0052815Y0289462D01*
X0053049Y0289822D01*
X0053292Y0290177D01*
X0053544Y0290525D01*
X0053804Y0290867D01*
X0054072Y0291202D01*
X0054349Y0291531D01*
X0054633Y0291852D01*
X0054926Y0292167D01*
X0055226Y0292474D01*
X0055533Y0292774D01*
X0055848Y0293067D01*
X0056169Y0293351D01*
X0056498Y0293628D01*
X0056833Y0293896D01*
X0057175Y0294156D01*
X0057523Y0294408D01*
X0057878Y0294651D01*
X0058238Y0294885D01*
X0058603Y0295110D01*
X0058974Y0295327D01*
X0059351Y0295534D01*
X0059732Y0295731D01*
X0060118Y0295920D01*
X0060508Y0296099D01*
X0060903Y0296268D01*
X0061302Y0296427D01*
X0061704Y0296577D01*
X0062111Y0296717D01*
X0062520Y0296846D01*
X0062933Y0296966D01*
X0063348Y0297076D01*
X0063766Y0297175D01*
X0064186Y0297264D01*
X0064608Y0297342D01*
X0065032Y0297411D01*
X0065458Y0297468D01*
X0065885Y0297516D01*
X0066313Y0297553D01*
X0066741Y0297579D01*
X0067171Y0297595D01*
X0067600Y0297600D01*
X0068029Y0297595D01*
X0068459Y0297579D01*
X0068887Y0297553D01*
X0069315Y0297516D01*
X0069742Y0297468D01*
X0070168Y0297411D01*
X0070592Y0297342D01*
X0071014Y0297264D01*
X0071434Y0297175D01*
X0071852Y0297076D01*
X0072267Y0296966D01*
X0072680Y0296846D01*
X0073089Y0296717D01*
X0073496Y0296577D01*
X0073898Y0296427D01*
X0074297Y0296268D01*
X0074692Y0296099D01*
X0075082Y0295920D01*
X0075468Y0295731D01*
X0075849Y0295534D01*
X0076226Y0295327D01*
X0076597Y0295110D01*
X0076962Y0294885D01*
X0077322Y0294651D01*
X0077677Y0294408D01*
X0078025Y0294156D01*
X0078367Y0293896D01*
X0078702Y0293628D01*
X0079031Y0293351D01*
X0079352Y0293067D01*
X0079667Y0292774D01*
X0079974Y0292474D01*
X0080274Y0292167D01*
X0080567Y0291852D01*
X0080851Y0291531D01*
X0081128Y0291202D01*
X0081396Y0290867D01*
X0081656Y0290525D01*
X0081908Y0290177D01*
X0082151Y0289822D01*
X0082385Y0289462D01*
X0082610Y0289097D01*
X0082827Y0288726D01*
X0083034Y0288349D01*
X0083231Y0287968D01*
X0083420Y0287582D01*
X0083599Y0287192D01*
X0083768Y0286797D01*
X0083927Y0286398D01*
X0084077Y0285996D01*
X0084217Y0285589D01*
X0084346Y0285180D01*
X0084466Y0284767D01*
X0084576Y0284352D01*
X0084675Y0283934D01*
X0084764Y0283514D01*
X0084842Y0283092D01*
X0084911Y0282668D01*
X0084968Y0282242D01*
X0085016Y0281815D01*
X0085053Y0281387D01*
X0085079Y0280959D01*
X0085095Y0280529D01*
X0085100Y0280100D01*
X0085095Y0279671D01*
X0085079Y0279241D01*
X0085053Y0278813D01*
X0085016Y0278385D01*
X0084968Y0277958D01*
X0084911Y0277532D01*
X0084842Y0277108D01*
X0084764Y0276686D01*
X0084675Y0276266D01*
X0084576Y0275848D01*
X0084466Y0275433D01*
X0084346Y0275020D01*
X0084217Y0274611D01*
X0084077Y0274204D01*
X0083927Y0273802D01*
X0083768Y0273403D01*
X0083599Y0273008D01*
X0083420Y0272618D01*
X0083231Y0272232D01*
X0083034Y0271851D01*
X0082827Y0271474D01*
X0082610Y0271103D01*
X0082385Y0270738D01*
X0082151Y0270378D01*
X0081908Y0270023D01*
X0081656Y0269675D01*
X0081396Y0269333D01*
X0081128Y0268998D01*
X0080851Y0268669D01*
X0080567Y0268348D01*
X0080274Y0268033D01*
X0079974Y0267726D01*
X0079667Y0267426D01*
X0079352Y0267133D01*
X0079031Y0266849D01*
X0078702Y0266572D01*
X0078367Y0266304D01*
X0078025Y0266044D01*
X0077677Y0265792D01*
X0077322Y0265549D01*
X0076962Y0265315D01*
X0076597Y0265090D01*
X0076226Y0264873D01*
X0075849Y0264666D01*
X0075468Y0264469D01*
X0075082Y0264280D01*
X0074692Y0264101D01*
X0074297Y0263932D01*
X0073898Y0263773D01*
X0073496Y0263623D01*
X0073089Y0263483D01*
X0072680Y0263354D01*
X0072267Y0263234D01*
X0071852Y0263124D01*
X0071434Y0263025D01*
X0071014Y0262936D01*
X0070592Y0262858D01*
X0070168Y0262789D01*
X0069742Y0262732D01*
X0069315Y0262684D01*
X0068887Y0262647D01*
X0068459Y0262621D01*
X0068029Y0262605D01*
X0067600Y0262600D01*
X0067171Y0262605D01*
X0066741Y0262621D01*
X0066313Y0262647D01*
X0065885Y0262684D01*
X0065458Y0262732D01*
X0065032Y0262789D01*
X0064608Y0262858D01*
X0064186Y0262936D01*
X0063766Y0263025D01*
X0063348Y0263124D01*
X0062933Y0263234D01*
X0062520Y0263354D01*
X0062111Y0263483D01*
X0061704Y0263623D01*
X0061302Y0263773D01*
X0060903Y0263932D01*
X0060508Y0264101D01*
X0060118Y0264280D01*
X0059732Y0264469D01*
X0059351Y0264666D01*
X0058974Y0264873D01*
X0058603Y0265090D01*
X0058238Y0265315D01*
X0057878Y0265549D01*
X0057523Y0265792D01*
X0057175Y0266044D01*
X0056833Y0266304D01*
X0056498Y0266572D01*
X0056169Y0266849D01*
X0055848Y0267133D01*
X0055533Y0267426D01*
X0055226Y0267726D01*
X0054926Y0268033D01*
X0054633Y0268348D01*
X0054349Y0268669D01*
X0054072Y0268998D01*
X0053804Y0269333D01*
X0053544Y0269675D01*
X0053292Y0270023D01*
X0053049Y0270378D01*
X0052815Y0270738D01*
X0052590Y0271103D01*
X0052373Y0271474D01*
X0052166Y0271851D01*
X0051969Y0272232D01*
X0051780Y0272618D01*
X0051601Y0273008D01*
X0051432Y0273403D01*
X0051273Y0273802D01*
X0051123Y0274204D01*
X0050983Y0274611D01*
X0050854Y0275020D01*
X0050734Y0275433D01*
X0050624Y0275848D01*
X0050525Y0276266D01*
X0050436Y0276686D01*
X0050358Y0277108D01*
X0050289Y0277532D01*
X0050232Y0277958D01*
X0050184Y0278385D01*
X0050147Y0278813D01*
X0050121Y0279241D01*
X0050105Y0279671D01*
X0050100Y0280100D01*
X0068600Y0275600D02*
X0071100Y0275600D01*
X0071100Y0280100D01*
X0071100Y0284600D01*
X0068600Y0284600D01*
X0068600Y0275600D01*
X0071100Y0280100D02*
X0072100Y0280100D01*
X0079100Y0273600D02*
X0082100Y0273600D01*
X0080600Y0272100D02*
X0080600Y0275100D01*
X0056100Y0205850D02*
X0049100Y0205850D01*
X0049040Y0205848D01*
X0048979Y0205843D01*
X0048920Y0205834D01*
X0048861Y0205821D01*
X0048802Y0205805D01*
X0048745Y0205785D01*
X0048690Y0205762D01*
X0048635Y0205735D01*
X0048583Y0205706D01*
X0048532Y0205673D01*
X0048483Y0205637D01*
X0048437Y0205599D01*
X0048393Y0205557D01*
X0048351Y0205513D01*
X0048313Y0205467D01*
X0048277Y0205418D01*
X0048244Y0205367D01*
X0048215Y0205315D01*
X0048188Y0205260D01*
X0048165Y0205205D01*
X0048145Y0205148D01*
X0048129Y0205089D01*
X0048116Y0205030D01*
X0048107Y0204971D01*
X0048102Y0204910D01*
X0048100Y0204850D01*
X0048100Y0203350D01*
X0048600Y0202850D01*
X0048600Y0189850D01*
X0048100Y0189350D01*
X0048100Y0187850D01*
X0048102Y0187790D01*
X0048107Y0187729D01*
X0048116Y0187670D01*
X0048129Y0187611D01*
X0048145Y0187552D01*
X0048165Y0187495D01*
X0048188Y0187440D01*
X0048215Y0187385D01*
X0048244Y0187333D01*
X0048277Y0187282D01*
X0048313Y0187233D01*
X0048351Y0187187D01*
X0048393Y0187143D01*
X0048437Y0187101D01*
X0048483Y0187063D01*
X0048532Y0187027D01*
X0048583Y0186994D01*
X0048635Y0186965D01*
X0048690Y0186938D01*
X0048745Y0186915D01*
X0048802Y0186895D01*
X0048861Y0186879D01*
X0048920Y0186866D01*
X0048979Y0186857D01*
X0049040Y0186852D01*
X0049100Y0186850D01*
X0056100Y0186850D01*
X0056160Y0186852D01*
X0056221Y0186857D01*
X0056280Y0186866D01*
X0056339Y0186879D01*
X0056398Y0186895D01*
X0056455Y0186915D01*
X0056510Y0186938D01*
X0056565Y0186965D01*
X0056617Y0186994D01*
X0056668Y0187027D01*
X0056717Y0187063D01*
X0056763Y0187101D01*
X0056807Y0187143D01*
X0056849Y0187187D01*
X0056887Y0187233D01*
X0056923Y0187282D01*
X0056956Y0187333D01*
X0056985Y0187385D01*
X0057012Y0187440D01*
X0057035Y0187495D01*
X0057055Y0187552D01*
X0057071Y0187611D01*
X0057084Y0187670D01*
X0057093Y0187729D01*
X0057098Y0187790D01*
X0057100Y0187850D01*
X0057100Y0189350D01*
X0056600Y0189850D01*
X0056600Y0202850D01*
X0057100Y0203350D01*
X0057100Y0204850D01*
X0057098Y0204910D01*
X0057093Y0204971D01*
X0057084Y0205030D01*
X0057071Y0205089D01*
X0057055Y0205148D01*
X0057035Y0205205D01*
X0057012Y0205260D01*
X0056985Y0205315D01*
X0056956Y0205367D01*
X0056923Y0205418D01*
X0056887Y0205467D01*
X0056849Y0205513D01*
X0056807Y0205557D01*
X0056763Y0205599D01*
X0056717Y0205637D01*
X0056668Y0205673D01*
X0056617Y0205706D01*
X0056565Y0205735D01*
X0056510Y0205762D01*
X0056455Y0205785D01*
X0056398Y0205805D01*
X0056339Y0205821D01*
X0056280Y0205834D01*
X0056221Y0205843D01*
X0056160Y0205848D01*
X0056100Y0205850D01*
X0116850Y0203600D02*
X0116850Y0202100D01*
X0117350Y0201600D01*
X0117350Y0188600D01*
X0116850Y0188100D01*
X0116850Y0186600D01*
X0116852Y0186540D01*
X0116857Y0186479D01*
X0116866Y0186420D01*
X0116879Y0186361D01*
X0116895Y0186302D01*
X0116915Y0186245D01*
X0116938Y0186190D01*
X0116965Y0186135D01*
X0116994Y0186083D01*
X0117027Y0186032D01*
X0117063Y0185983D01*
X0117101Y0185937D01*
X0117143Y0185893D01*
X0117187Y0185851D01*
X0117233Y0185813D01*
X0117282Y0185777D01*
X0117333Y0185744D01*
X0117385Y0185715D01*
X0117440Y0185688D01*
X0117495Y0185665D01*
X0117552Y0185645D01*
X0117611Y0185629D01*
X0117670Y0185616D01*
X0117729Y0185607D01*
X0117790Y0185602D01*
X0117850Y0185600D01*
X0124850Y0185600D01*
X0124910Y0185602D01*
X0124971Y0185607D01*
X0125030Y0185616D01*
X0125089Y0185629D01*
X0125148Y0185645D01*
X0125205Y0185665D01*
X0125260Y0185688D01*
X0125315Y0185715D01*
X0125367Y0185744D01*
X0125418Y0185777D01*
X0125467Y0185813D01*
X0125513Y0185851D01*
X0125557Y0185893D01*
X0125599Y0185937D01*
X0125637Y0185983D01*
X0125673Y0186032D01*
X0125706Y0186083D01*
X0125735Y0186135D01*
X0125762Y0186190D01*
X0125785Y0186245D01*
X0125805Y0186302D01*
X0125821Y0186361D01*
X0125834Y0186420D01*
X0125843Y0186479D01*
X0125848Y0186540D01*
X0125850Y0186600D01*
X0125850Y0188100D01*
X0125350Y0188600D01*
X0125350Y0201600D01*
X0125850Y0202100D01*
X0125850Y0203600D01*
X0125848Y0203660D01*
X0125843Y0203721D01*
X0125834Y0203780D01*
X0125821Y0203839D01*
X0125805Y0203898D01*
X0125785Y0203955D01*
X0125762Y0204010D01*
X0125735Y0204065D01*
X0125706Y0204117D01*
X0125673Y0204168D01*
X0125637Y0204217D01*
X0125599Y0204263D01*
X0125557Y0204307D01*
X0125513Y0204349D01*
X0125467Y0204387D01*
X0125418Y0204423D01*
X0125367Y0204456D01*
X0125315Y0204485D01*
X0125260Y0204512D01*
X0125205Y0204535D01*
X0125148Y0204555D01*
X0125089Y0204571D01*
X0125030Y0204584D01*
X0124971Y0204593D01*
X0124910Y0204598D01*
X0124850Y0204600D01*
X0117850Y0204600D01*
X0117790Y0204598D01*
X0117729Y0204593D01*
X0117670Y0204584D01*
X0117611Y0204571D01*
X0117552Y0204555D01*
X0117495Y0204535D01*
X0117440Y0204512D01*
X0117385Y0204485D01*
X0117333Y0204456D01*
X0117282Y0204423D01*
X0117233Y0204387D01*
X0117187Y0204349D01*
X0117143Y0204307D01*
X0117101Y0204263D01*
X0117063Y0204217D01*
X0117027Y0204168D01*
X0116994Y0204117D01*
X0116965Y0204065D01*
X0116938Y0204010D01*
X0116915Y0203955D01*
X0116895Y0203898D01*
X0116879Y0203839D01*
X0116866Y0203780D01*
X0116857Y0203721D01*
X0116852Y0203660D01*
X0116850Y0203600D01*
X0184350Y0203600D02*
X0184350Y0202100D01*
X0184850Y0201600D01*
X0184850Y0188600D01*
X0184350Y0188100D01*
X0184350Y0186600D01*
X0184352Y0186540D01*
X0184357Y0186479D01*
X0184366Y0186420D01*
X0184379Y0186361D01*
X0184395Y0186302D01*
X0184415Y0186245D01*
X0184438Y0186190D01*
X0184465Y0186135D01*
X0184494Y0186083D01*
X0184527Y0186032D01*
X0184563Y0185983D01*
X0184601Y0185937D01*
X0184643Y0185893D01*
X0184687Y0185851D01*
X0184733Y0185813D01*
X0184782Y0185777D01*
X0184833Y0185744D01*
X0184885Y0185715D01*
X0184940Y0185688D01*
X0184995Y0185665D01*
X0185052Y0185645D01*
X0185111Y0185629D01*
X0185170Y0185616D01*
X0185229Y0185607D01*
X0185290Y0185602D01*
X0185350Y0185600D01*
X0192350Y0185600D01*
X0192410Y0185602D01*
X0192471Y0185607D01*
X0192530Y0185616D01*
X0192589Y0185629D01*
X0192648Y0185645D01*
X0192705Y0185665D01*
X0192760Y0185688D01*
X0192815Y0185715D01*
X0192867Y0185744D01*
X0192918Y0185777D01*
X0192967Y0185813D01*
X0193013Y0185851D01*
X0193057Y0185893D01*
X0193099Y0185937D01*
X0193137Y0185983D01*
X0193173Y0186032D01*
X0193206Y0186083D01*
X0193235Y0186135D01*
X0193262Y0186190D01*
X0193285Y0186245D01*
X0193305Y0186302D01*
X0193321Y0186361D01*
X0193334Y0186420D01*
X0193343Y0186479D01*
X0193348Y0186540D01*
X0193350Y0186600D01*
X0193350Y0188100D01*
X0192850Y0188600D01*
X0192850Y0201600D01*
X0193350Y0202100D01*
X0193350Y0203600D01*
X0193348Y0203660D01*
X0193343Y0203721D01*
X0193334Y0203780D01*
X0193321Y0203839D01*
X0193305Y0203898D01*
X0193285Y0203955D01*
X0193262Y0204010D01*
X0193235Y0204065D01*
X0193206Y0204117D01*
X0193173Y0204168D01*
X0193137Y0204217D01*
X0193099Y0204263D01*
X0193057Y0204307D01*
X0193013Y0204349D01*
X0192967Y0204387D01*
X0192918Y0204423D01*
X0192867Y0204456D01*
X0192815Y0204485D01*
X0192760Y0204512D01*
X0192705Y0204535D01*
X0192648Y0204555D01*
X0192589Y0204571D01*
X0192530Y0204584D01*
X0192471Y0204593D01*
X0192410Y0204598D01*
X0192350Y0204600D01*
X0185350Y0204600D01*
X0185290Y0204598D01*
X0185229Y0204593D01*
X0185170Y0204584D01*
X0185111Y0204571D01*
X0185052Y0204555D01*
X0184995Y0204535D01*
X0184940Y0204512D01*
X0184885Y0204485D01*
X0184833Y0204456D01*
X0184782Y0204423D01*
X0184733Y0204387D01*
X0184687Y0204349D01*
X0184643Y0204307D01*
X0184601Y0204263D01*
X0184563Y0204217D01*
X0184527Y0204168D01*
X0184494Y0204117D01*
X0184465Y0204065D01*
X0184438Y0204010D01*
X0184415Y0203955D01*
X0184395Y0203898D01*
X0184379Y0203839D01*
X0184366Y0203780D01*
X0184357Y0203721D01*
X0184352Y0203660D01*
X0184350Y0203600D01*
X0254350Y0203600D02*
X0254350Y0202100D01*
X0254850Y0201600D01*
X0254850Y0188600D01*
X0254350Y0188100D01*
X0254350Y0186600D01*
X0254352Y0186540D01*
X0254357Y0186479D01*
X0254366Y0186420D01*
X0254379Y0186361D01*
X0254395Y0186302D01*
X0254415Y0186245D01*
X0254438Y0186190D01*
X0254465Y0186135D01*
X0254494Y0186083D01*
X0254527Y0186032D01*
X0254563Y0185983D01*
X0254601Y0185937D01*
X0254643Y0185893D01*
X0254687Y0185851D01*
X0254733Y0185813D01*
X0254782Y0185777D01*
X0254833Y0185744D01*
X0254885Y0185715D01*
X0254940Y0185688D01*
X0254995Y0185665D01*
X0255052Y0185645D01*
X0255111Y0185629D01*
X0255170Y0185616D01*
X0255229Y0185607D01*
X0255290Y0185602D01*
X0255350Y0185600D01*
X0262350Y0185600D01*
X0262410Y0185602D01*
X0262471Y0185607D01*
X0262530Y0185616D01*
X0262589Y0185629D01*
X0262648Y0185645D01*
X0262705Y0185665D01*
X0262760Y0185688D01*
X0262815Y0185715D01*
X0262867Y0185744D01*
X0262918Y0185777D01*
X0262967Y0185813D01*
X0263013Y0185851D01*
X0263057Y0185893D01*
X0263099Y0185937D01*
X0263137Y0185983D01*
X0263173Y0186032D01*
X0263206Y0186083D01*
X0263235Y0186135D01*
X0263262Y0186190D01*
X0263285Y0186245D01*
X0263305Y0186302D01*
X0263321Y0186361D01*
X0263334Y0186420D01*
X0263343Y0186479D01*
X0263348Y0186540D01*
X0263350Y0186600D01*
X0263350Y0188100D01*
X0262850Y0188600D01*
X0262850Y0201600D01*
X0263350Y0202100D01*
X0263350Y0203600D01*
X0263348Y0203660D01*
X0263343Y0203721D01*
X0263334Y0203780D01*
X0263321Y0203839D01*
X0263305Y0203898D01*
X0263285Y0203955D01*
X0263262Y0204010D01*
X0263235Y0204065D01*
X0263206Y0204117D01*
X0263173Y0204168D01*
X0263137Y0204217D01*
X0263099Y0204263D01*
X0263057Y0204307D01*
X0263013Y0204349D01*
X0262967Y0204387D01*
X0262918Y0204423D01*
X0262867Y0204456D01*
X0262815Y0204485D01*
X0262760Y0204512D01*
X0262705Y0204535D01*
X0262648Y0204555D01*
X0262589Y0204571D01*
X0262530Y0204584D01*
X0262471Y0204593D01*
X0262410Y0204598D01*
X0262350Y0204600D01*
X0255350Y0204600D01*
X0255290Y0204598D01*
X0255229Y0204593D01*
X0255170Y0204584D01*
X0255111Y0204571D01*
X0255052Y0204555D01*
X0254995Y0204535D01*
X0254940Y0204512D01*
X0254885Y0204485D01*
X0254833Y0204456D01*
X0254782Y0204423D01*
X0254733Y0204387D01*
X0254687Y0204349D01*
X0254643Y0204307D01*
X0254601Y0204263D01*
X0254563Y0204217D01*
X0254527Y0204168D01*
X0254494Y0204117D01*
X0254465Y0204065D01*
X0254438Y0204010D01*
X0254415Y0203955D01*
X0254395Y0203898D01*
X0254379Y0203839D01*
X0254366Y0203780D01*
X0254357Y0203721D01*
X0254352Y0203660D01*
X0254350Y0203600D01*
X0212996Y0277600D02*
X0212996Y0280202D01*
X0211261Y0280202D02*
X0212996Y0277600D01*
X0211261Y0277600D02*
X0211261Y0280202D01*
X0210164Y0280202D02*
X0209297Y0280202D01*
X0209731Y0280202D02*
X0209731Y0277600D01*
X0210164Y0277600D02*
X0209297Y0277600D01*
X0208085Y0278034D02*
X0208085Y0278901D01*
X0207218Y0278901D01*
X0208085Y0278034D02*
X0207652Y0277600D01*
X0206784Y0277600D01*
X0206350Y0278034D01*
X0206350Y0279769D01*
X0206784Y0280202D01*
X0207652Y0280202D01*
X0208085Y0279769D01*
X0205253Y0280202D02*
X0204386Y0280202D01*
X0204820Y0280202D02*
X0204820Y0277600D01*
X0205253Y0277600D02*
X0204386Y0277600D01*
X0203174Y0278034D02*
X0202741Y0277600D01*
X0201873Y0277600D01*
X0201440Y0278034D01*
X0201873Y0278901D02*
X0202741Y0278901D01*
X0203174Y0278467D01*
X0203174Y0278034D01*
X0201873Y0278901D02*
X0201440Y0279335D01*
X0201440Y0279769D01*
X0201873Y0280202D01*
X0202741Y0280202D01*
X0203174Y0279769D01*
X0200228Y0277166D02*
X0198493Y0277166D01*
X0196848Y0278467D02*
X0195547Y0278467D01*
X0195547Y0277600D02*
X0195547Y0280202D01*
X0196848Y0280202D01*
X0197281Y0279769D01*
X0197281Y0278901D01*
X0196848Y0278467D01*
X0193901Y0278034D02*
X0193901Y0280202D01*
X0193467Y0280202D02*
X0194335Y0280202D01*
X0193901Y0278034D02*
X0193467Y0277600D01*
X0193034Y0277600D01*
X0192600Y0278034D01*
X0337398Y0230755D02*
X0337398Y0229887D01*
X0337831Y0229453D01*
X0337831Y0228242D02*
X0338699Y0228242D01*
X0339133Y0227808D01*
X0339133Y0226507D01*
X0340000Y0226507D02*
X0337398Y0226507D01*
X0337398Y0227808D01*
X0337831Y0228242D01*
X0339133Y0227374D02*
X0340000Y0228242D01*
X0340000Y0229453D02*
X0338265Y0231188D01*
X0337831Y0231188D01*
X0337398Y0230755D01*
X0340000Y0231188D02*
X0340000Y0229453D01*
D17*
X0065350Y0280100D03*
D18*
X0327738Y0206941D03*
X0332462Y0206941D03*
D19*
X0330100Y0206941D03*
D20*
X0258850Y0206300D03*
X0258850Y0183900D03*
X0188850Y0183900D03*
X0188850Y0206300D03*
X0121350Y0206300D03*
X0121350Y0183900D03*
X0052600Y0185150D03*
X0052600Y0207550D03*
D21*
X0052594Y0199230D03*
X0052594Y0193430D03*
X0121344Y0192180D03*
X0121344Y0197980D03*
X0188844Y0197980D03*
X0188844Y0192180D03*
X0258844Y0192180D03*
X0258844Y0197980D03*
D22*
X0303349Y0246400D02*
X0303099Y0246650D01*
X0303099Y0247151D01*
X0303349Y0247401D01*
X0303599Y0247401D01*
X0303849Y0247151D01*
X0304100Y0247401D01*
X0304350Y0247401D01*
X0304600Y0247151D01*
X0304600Y0246650D01*
X0304350Y0246400D01*
X0303849Y0246900D02*
X0303849Y0247151D01*
X0304350Y0247873D02*
X0304350Y0248123D01*
X0304600Y0248123D01*
X0304600Y0247873D01*
X0304350Y0247873D01*
X0304350Y0248610D02*
X0304600Y0248610D01*
X0304350Y0248610D02*
X0303349Y0249611D01*
X0303099Y0249611D01*
X0303099Y0248610D01*
X0303849Y0250083D02*
X0303849Y0251084D01*
X0303849Y0251556D02*
X0303599Y0252057D01*
X0303599Y0252307D01*
X0303849Y0252557D01*
X0304350Y0252557D01*
X0304600Y0252307D01*
X0304600Y0251807D01*
X0304350Y0251556D01*
X0303849Y0251556D02*
X0303099Y0251556D01*
X0303099Y0252557D01*
X0303099Y0253766D02*
X0303849Y0253766D01*
X0303599Y0254267D01*
X0303599Y0254517D01*
X0303849Y0254767D01*
X0304350Y0254767D01*
X0304600Y0254517D01*
X0304600Y0254016D01*
X0304350Y0253766D01*
X0304350Y0253280D02*
X0304600Y0253280D01*
X0304600Y0253030D01*
X0304350Y0253030D01*
X0304350Y0253280D01*
X0303099Y0253766D02*
X0303099Y0254767D01*
X0303099Y0255240D02*
X0304100Y0255240D01*
X0304600Y0255740D01*
X0304100Y0256240D01*
X0303099Y0256240D01*
D23*
X0128811Y0244569D02*
X0128811Y0290631D01*
X0098889Y0290631D01*
X0098889Y0244569D01*
X0128811Y0244569D01*
M02*
