%
M48
M72
T01C0.0140
T02C0.0236
T03C0.0276
T04C0.0315
T05C0.0320
T06C0.0394
T07C0.0400
T08C0.1181
%
T01
X6635Y15010
X6635Y15385
X6635Y15760
X6635Y16135
X6635Y16510
X7010Y16510
X7010Y16135
X7010Y15760
X7010Y15385
X7010Y15010
X7385Y15010
X7385Y15385
X7385Y15760
X7385Y16135
X7385Y16510
X13760Y16510
X13760Y16135
X13760Y15760
X13760Y15385
X13760Y15010
X14135Y15010
X14135Y15385
X14135Y15760
X14135Y16135
X14135Y16510
X14510Y16510
X14510Y16135
X14510Y15760
X14510Y15385
X14510Y15010
X20760Y15010
X20760Y15385
X20760Y15760
X20760Y16135
X20760Y16510
X21135Y16510
X21135Y16135
X21135Y15760
X21135Y15385
X21135Y15010
X21510Y15010
X21510Y15385
X21510Y15760
X21510Y16135
X21510Y16510
X27635Y16510
X27635Y16135
X27635Y15760
X27635Y15385
X27635Y15010
X28010Y15010
X28010Y15385
X28010Y15760
X28010Y16135
X28010Y16510
X28385Y16510
X28385Y16135
X28385Y15760
X28385Y15385
X28385Y15010
T02
X7760Y13635
X8260Y14260
X6010Y13760
X5760Y14260
X8760Y17510
X8760Y21385
X15885Y21260
X15885Y17510
X15385Y14260
X15010Y13635
X13385Y13635
X12885Y14260
X19760Y13635
X20010Y14260
X22260Y14260
X22510Y13635
X26635Y13635
X26885Y14260
X29135Y14260
X29135Y13635
X29760Y17510
X33010Y17510
X29760Y21260
X22885Y21260
X22885Y17510
T03
X10635Y24135
X11260Y23635
X33010Y25010
T04
X11976Y27760
X11976Y26760
X11976Y25760
T05
X5260Y21335
X5260Y17935
X12135Y17810
X12135Y21210
X18885Y21210
X18885Y17810
X25885Y17810
X25885Y21210
T06
X6760Y31885
X7760Y31885
X10385Y31885
X11385Y31885
X13635Y31885
X14635Y31885
X17135Y29885
X18135Y29885
X19135Y29885
X20135Y29885
X20260Y27010
X20260Y26010
X20135Y23885
X19135Y23885
X18135Y23885
X17135Y23885
X17135Y25885
X17135Y26885
X27135Y23885
X28135Y23885
X29135Y23885
X30135Y23885
X30135Y29885
X29135Y29885
X28135Y29885
X27135Y29885
X34260Y16010
X34260Y15010
X28510Y11010
X28510Y10010
X28510Y9010
X28510Y8010
X28510Y7010
X28510Y6010
X28510Y5010
X28510Y4010
X27510Y4010
X27510Y5010
X27510Y6010
X27510Y7010
X27510Y8010
X27510Y9010
X27510Y10010
X27510Y11010
X21510Y11010
X21510Y10010
X21510Y9010
X21510Y8010
X21510Y7010
X21510Y6010
X21510Y5010
X21510Y4010
X20510Y4010
X20510Y5010
X20510Y6010
X20510Y7010
X20510Y8010
X20510Y9010
X20510Y10010
X20510Y11010
X14760Y11010
X14760Y10010
X14760Y9010
X14760Y8010
X14760Y7010
X14760Y6010
X14760Y5010
X14760Y4010
X13760Y4010
X13760Y5010
X13760Y6010
X13760Y7010
X13760Y8010
X13760Y9010
X13760Y10010
X13760Y11010
X7510Y11010
X7510Y10010
X7510Y9010
X7510Y8010
X7510Y7010
X7510Y6010
X7510Y5010
X7510Y4010
X6510Y4010
X6510Y5010
X6510Y6010
X6510Y7010
X6510Y8010
X6510Y9010
X6510Y10010
X6510Y11010
T07
X5760Y28010
X7760Y28010
T08
X2260Y31010
X2260Y2260
X33260Y2260
X33260Y30885
M30
