G75*
%MOIN*%
%OFA0B0*%
%FSLAX25Y25*%
%IPPOS*%
%LPD*%
%AMOC8*
5,1,8,0,0,1.08239X$1,22.5*
%
%ADD10C,0.00000*%
%ADD11R,0.05118X0.05906*%
%ADD12C,0.10000*%
%ADD13OC8,0.10000*%
%ADD14R,0.06102X0.01181*%
%ADD15R,0.13386X0.25591*%
%ADD16R,0.05937X0.05937*%
%ADD17C,0.06600*%
%ADD18R,0.04724X0.04724*%
%ADD19C,0.01200*%
%ADD20OC8,0.06600*%
%ADD21R,0.05512X0.04724*%
%ADD22R,0.05906X0.05118*%
%ADD23C,0.25400*%
%ADD24C,0.05937*%
%ADD25C,0.07000*%
%ADD26R,0.07087X0.07087*%
%ADD27OC8,0.07087*%
%ADD28C,0.02600*%
%ADD29C,0.01600*%
%ADD30C,0.03200*%
%ADD31C,0.04134*%
%ADD32C,0.05600*%
%ADD33C,0.04000*%
%ADD34C,0.05000*%
%ADD35C,0.03562*%
%ADD36C,0.06600*%
%ADD37C,0.07000*%
%ADD38C,0.02400*%
%ADD39R,0.03562X0.03562*%
D10*
X0002600Y0002600D02*
X0002600Y0330061D01*
X0352551Y0330061D01*
X0352551Y0002600D01*
X0002600Y0002600D01*
D11*
X0070110Y0185100D03*
X0077590Y0185100D03*
X0077196Y0200100D03*
X0070504Y0200100D03*
X0070110Y0213850D03*
X0077590Y0213850D03*
X0141360Y0212600D03*
X0148840Y0212600D03*
X0148446Y0198850D03*
X0141754Y0198850D03*
X0141360Y0185100D03*
X0148840Y0185100D03*
X0211360Y0185100D03*
X0218840Y0185100D03*
X0218446Y0198850D03*
X0211754Y0198850D03*
X0211360Y0212600D03*
X0218840Y0212600D03*
X0280110Y0212600D03*
X0287590Y0212600D03*
X0287196Y0198850D03*
X0280504Y0198850D03*
X0280110Y0185100D03*
X0287590Y0185100D03*
D12*
X0077600Y0280100D03*
D13*
X0057600Y0280100D03*
D14*
X0059076Y0169116D03*
X0059076Y0166557D03*
X0059076Y0163998D03*
X0059076Y0161439D03*
X0059076Y0158880D03*
X0059076Y0156320D03*
X0059076Y0153761D03*
X0059076Y0151202D03*
X0059076Y0148643D03*
X0059076Y0146084D03*
X0081124Y0146084D03*
X0081124Y0148643D03*
X0081124Y0151202D03*
X0081124Y0153761D03*
X0081124Y0156320D03*
X0081124Y0158880D03*
X0081124Y0161439D03*
X0081124Y0163998D03*
X0081124Y0166557D03*
X0081124Y0169116D03*
X0130326Y0169116D03*
X0130326Y0166557D03*
X0130326Y0163998D03*
X0130326Y0161439D03*
X0130326Y0158880D03*
X0130326Y0156320D03*
X0130326Y0153761D03*
X0130326Y0151202D03*
X0130326Y0148643D03*
X0130326Y0146084D03*
X0152374Y0146084D03*
X0152374Y0148643D03*
X0152374Y0151202D03*
X0152374Y0153761D03*
X0152374Y0156320D03*
X0152374Y0158880D03*
X0152374Y0161439D03*
X0152374Y0163998D03*
X0152374Y0166557D03*
X0152374Y0169116D03*
X0200326Y0169116D03*
X0200326Y0166557D03*
X0200326Y0163998D03*
X0200326Y0161439D03*
X0200326Y0158880D03*
X0200326Y0156320D03*
X0200326Y0153761D03*
X0200326Y0151202D03*
X0200326Y0148643D03*
X0200326Y0146084D03*
X0222374Y0146084D03*
X0222374Y0148643D03*
X0222374Y0151202D03*
X0222374Y0153761D03*
X0222374Y0156320D03*
X0222374Y0158880D03*
X0222374Y0161439D03*
X0222374Y0163998D03*
X0222374Y0166557D03*
X0222374Y0169116D03*
X0269076Y0169116D03*
X0269076Y0166557D03*
X0269076Y0163998D03*
X0269076Y0161439D03*
X0269076Y0158880D03*
X0269076Y0156320D03*
X0269076Y0153761D03*
X0269076Y0151202D03*
X0269076Y0148643D03*
X0269076Y0146084D03*
X0291124Y0146084D03*
X0291124Y0148643D03*
X0291124Y0151202D03*
X0291124Y0153761D03*
X0291124Y0156320D03*
X0291124Y0158880D03*
X0291124Y0161439D03*
X0291124Y0163998D03*
X0291124Y0166557D03*
X0291124Y0169116D03*
D15*
X0280100Y0157600D03*
X0211350Y0157600D03*
X0141350Y0157600D03*
X0070100Y0157600D03*
D16*
X0065100Y0110100D03*
X0137600Y0110100D03*
X0205100Y0110100D03*
X0275100Y0110100D03*
D17*
X0275100Y0100100D03*
X0275100Y0090100D03*
X0275100Y0080100D03*
X0275100Y0070100D03*
X0275100Y0060100D03*
X0275100Y0050100D03*
X0275100Y0040100D03*
X0285100Y0040100D03*
X0285100Y0050100D03*
X0285100Y0060100D03*
X0285100Y0070100D03*
X0285100Y0080100D03*
X0285100Y0090100D03*
X0285100Y0100100D03*
X0285100Y0110100D03*
X0215100Y0110100D03*
X0215100Y0100100D03*
X0215100Y0090100D03*
X0215100Y0080100D03*
X0215100Y0070100D03*
X0215100Y0060100D03*
X0215100Y0050100D03*
X0215100Y0040100D03*
X0205100Y0040100D03*
X0205100Y0050100D03*
X0205100Y0060100D03*
X0205100Y0070100D03*
X0205100Y0080100D03*
X0205100Y0090100D03*
X0205100Y0100100D03*
X0147600Y0100100D03*
X0147600Y0090100D03*
X0147600Y0080100D03*
X0147600Y0070100D03*
X0147600Y0060100D03*
X0147600Y0050100D03*
X0147600Y0040100D03*
X0137600Y0040100D03*
X0137600Y0050100D03*
X0137600Y0060100D03*
X0137600Y0070100D03*
X0137600Y0080100D03*
X0137600Y0090100D03*
X0137600Y0100100D03*
X0147600Y0110100D03*
X0075100Y0110100D03*
X0075100Y0100100D03*
X0075100Y0090100D03*
X0075100Y0080100D03*
X0075100Y0070100D03*
X0075100Y0060100D03*
X0075100Y0050100D03*
X0075100Y0040100D03*
X0065100Y0040100D03*
X0065100Y0050100D03*
X0065100Y0060100D03*
X0065100Y0070100D03*
X0065100Y0080100D03*
X0065100Y0090100D03*
X0065100Y0100100D03*
D18*
X0330100Y0202216D03*
X0330100Y0210484D03*
D19*
X0311350Y0163998D02*
X0291124Y0163998D01*
X0291124Y0161439D02*
X0308850Y0161439D01*
X0308850Y0060100D01*
X0285100Y0060100D01*
X0285100Y0050100D02*
X0311350Y0050100D01*
X0311350Y0163998D01*
X0306350Y0158880D02*
X0306350Y0070100D01*
X0285100Y0070100D01*
X0275100Y0060100D02*
X0253850Y0060100D01*
X0253850Y0158880D01*
X0269076Y0158880D01*
X0269076Y0161439D02*
X0251350Y0161439D01*
X0251350Y0050100D01*
X0275100Y0050100D01*
X0275100Y0040100D02*
X0248850Y0040100D01*
X0248850Y0163998D01*
X0269076Y0163998D01*
X0269076Y0156320D02*
X0256350Y0156320D01*
X0256350Y0080100D01*
X0275100Y0080100D01*
X0275100Y0090100D02*
X0258850Y0090100D01*
X0258850Y0153761D01*
X0269076Y0153761D01*
X0269076Y0151202D02*
X0261350Y0151202D01*
X0261350Y0100100D01*
X0275100Y0100100D01*
X0285100Y0100100D02*
X0301350Y0100100D01*
X0301350Y0153761D01*
X0291124Y0153761D01*
X0291124Y0151202D02*
X0298850Y0151202D01*
X0298850Y0110100D01*
X0285100Y0110100D01*
X0285100Y0090100D02*
X0303850Y0090100D01*
X0303850Y0156320D01*
X0291124Y0156320D01*
X0291124Y0158880D02*
X0306350Y0158880D01*
X0269076Y0148850D02*
X0269076Y0148643D01*
X0269076Y0148850D02*
X0263850Y0148850D01*
X0263850Y0136350D01*
X0266350Y0136350D01*
X0268850Y0142600D02*
X0269076Y0142600D01*
X0269076Y0146084D01*
X0242600Y0163998D02*
X0242600Y0050100D01*
X0215100Y0050100D01*
X0215100Y0060100D02*
X0240100Y0060100D01*
X0240100Y0161439D01*
X0222374Y0161439D01*
X0222374Y0163998D02*
X0242600Y0163998D01*
X0237600Y0158880D02*
X0237600Y0070100D01*
X0215100Y0070100D01*
X0205100Y0060100D02*
X0185100Y0060100D01*
X0185100Y0158880D01*
X0200326Y0158880D01*
X0200326Y0161439D02*
X0182600Y0161439D01*
X0182600Y0050100D01*
X0205100Y0050100D01*
X0205100Y0040100D02*
X0180100Y0040100D01*
X0180100Y0163998D01*
X0200326Y0163998D01*
X0200326Y0169116D02*
X0200252Y0169190D01*
X0200326Y0156320D02*
X0187600Y0156320D01*
X0187600Y0080100D01*
X0205100Y0080100D01*
X0205100Y0090100D02*
X0190100Y0090100D01*
X0190100Y0153761D01*
X0200326Y0153761D01*
X0200326Y0151202D02*
X0192600Y0151202D01*
X0192600Y0100100D01*
X0205100Y0100100D01*
X0215100Y0100100D02*
X0232600Y0100100D01*
X0232600Y0153761D01*
X0222374Y0153761D01*
X0222374Y0151202D02*
X0230100Y0151202D01*
X0230100Y0110100D01*
X0215100Y0110100D01*
X0215100Y0090100D02*
X0235100Y0090100D01*
X0235100Y0156320D01*
X0222374Y0156320D01*
X0222374Y0158880D02*
X0237600Y0158880D01*
X0227600Y0148643D02*
X0227600Y0137600D01*
X0225100Y0136350D01*
X0222600Y0142600D02*
X0222600Y0146084D01*
X0222374Y0146084D01*
X0222374Y0148643D02*
X0227600Y0148643D01*
X0200326Y0148850D02*
X0200326Y0148643D01*
X0200326Y0148850D02*
X0195100Y0148850D01*
X0195100Y0136350D01*
X0197600Y0136350D01*
X0200100Y0142600D02*
X0200326Y0142600D01*
X0200326Y0146084D01*
X0173850Y0163998D02*
X0173850Y0050100D01*
X0147600Y0050100D01*
X0147600Y0060100D02*
X0171350Y0060100D01*
X0171350Y0161439D01*
X0152374Y0161439D01*
X0152374Y0163998D02*
X0173850Y0163998D01*
X0168850Y0158880D02*
X0168850Y0070100D01*
X0147600Y0070100D01*
X0137600Y0060100D02*
X0115100Y0060100D01*
X0115100Y0158880D01*
X0130326Y0158880D01*
X0130326Y0161439D02*
X0112600Y0161439D01*
X0112600Y0050100D01*
X0137600Y0050100D01*
X0137600Y0040100D02*
X0110100Y0040100D01*
X0110100Y0163998D01*
X0130326Y0163998D01*
X0136143Y0166557D02*
X0137600Y0165100D01*
X0130326Y0156320D02*
X0117600Y0156320D01*
X0117600Y0080100D01*
X0137600Y0080100D01*
X0137600Y0090100D02*
X0120100Y0090100D01*
X0120100Y0153761D01*
X0130326Y0153761D01*
X0130326Y0151202D02*
X0122600Y0151202D01*
X0122600Y0100100D01*
X0137600Y0100100D01*
X0147600Y0100100D02*
X0163850Y0100100D01*
X0163850Y0153761D01*
X0152374Y0153761D01*
X0152374Y0151202D02*
X0161350Y0151202D01*
X0161350Y0110100D01*
X0147600Y0110100D01*
X0147600Y0090100D02*
X0166350Y0090100D01*
X0166350Y0156320D01*
X0152374Y0156320D01*
X0152374Y0158880D02*
X0168850Y0158880D01*
X0157600Y0148643D02*
X0157600Y0136350D01*
X0150100Y0136350D01*
X0153850Y0142600D02*
X0153850Y0146084D01*
X0152374Y0146084D01*
X0152374Y0148643D02*
X0157600Y0148643D01*
X0133850Y0136350D02*
X0125100Y0136350D01*
X0125100Y0148850D01*
X0130326Y0148850D01*
X0130326Y0148643D01*
X0130326Y0146350D02*
X0130326Y0146084D01*
X0128850Y0146084D01*
X0128850Y0146350D02*
X0130326Y0146350D01*
X0128850Y0146350D02*
X0128850Y0142600D01*
X0101350Y0163998D02*
X0101350Y0050100D01*
X0075100Y0050100D01*
X0075100Y0060100D02*
X0098850Y0060100D01*
X0098850Y0161439D01*
X0081124Y0161439D01*
X0081124Y0163998D02*
X0101350Y0163998D01*
X0096350Y0158880D02*
X0096350Y0070100D01*
X0075100Y0070100D01*
X0065100Y0060100D02*
X0043850Y0060100D01*
X0043850Y0158880D01*
X0059076Y0158880D01*
X0059076Y0161439D02*
X0041350Y0161439D01*
X0041350Y0050100D01*
X0065100Y0050100D01*
X0065100Y0040100D02*
X0038850Y0040100D01*
X0038850Y0163998D01*
X0059076Y0163998D01*
X0059076Y0166557D02*
X0066350Y0166557D01*
X0066350Y0165100D01*
X0059076Y0156320D02*
X0046350Y0156320D01*
X0046350Y0080100D01*
X0065100Y0080100D01*
X0065100Y0090100D02*
X0048850Y0090100D01*
X0048850Y0153761D01*
X0059076Y0153761D01*
X0059076Y0151202D02*
X0051350Y0151202D01*
X0051350Y0100100D01*
X0065100Y0100100D01*
X0075100Y0100100D02*
X0091350Y0100100D01*
X0091350Y0153761D01*
X0081124Y0153761D01*
X0081124Y0151202D02*
X0088850Y0151202D01*
X0088850Y0110100D01*
X0075100Y0110100D01*
X0075100Y0090100D02*
X0093850Y0090100D01*
X0093850Y0156320D01*
X0081124Y0156320D01*
X0081124Y0158880D02*
X0096350Y0158880D01*
X0086350Y0148643D02*
X0086350Y0136350D01*
X0077600Y0136350D01*
X0082600Y0142600D02*
X0082600Y0146084D01*
X0081124Y0146084D01*
X0081124Y0148643D02*
X0086350Y0148643D01*
X0052600Y0181633D02*
X0052600Y0192019D01*
X0052600Y0200287D02*
X0052600Y0213429D01*
X0121350Y0212179D02*
X0121350Y0199037D01*
X0121350Y0190769D02*
X0121350Y0180383D01*
X0188850Y0180383D02*
X0188850Y0190769D01*
X0188850Y0199037D02*
X0188850Y0212179D01*
X0258850Y0212179D02*
X0258850Y0199037D01*
X0258850Y0190769D02*
X0258850Y0180383D01*
D20*
X0258850Y0178100D03*
X0258850Y0212100D03*
X0188850Y0212100D03*
X0188850Y0178100D03*
X0121350Y0178100D03*
X0121350Y0212100D03*
X0052600Y0213350D03*
X0052600Y0179350D03*
D21*
X0052600Y0192313D03*
X0052600Y0200387D03*
X0121350Y0199137D03*
X0121350Y0191063D03*
X0188850Y0191063D03*
X0188850Y0199137D03*
X0258850Y0199137D03*
X0258850Y0191063D03*
D22*
X0330100Y0226360D03*
X0330100Y0233840D03*
X0143850Y0258860D03*
X0143850Y0266340D03*
D23*
X0022600Y0310100D03*
X0022600Y0022600D03*
X0332600Y0022600D03*
X0332600Y0308850D03*
D24*
X0301350Y0301819D02*
X0301350Y0295881D01*
X0291350Y0295881D02*
X0291350Y0301819D01*
X0281350Y0301819D02*
X0281350Y0295881D01*
X0271350Y0295881D02*
X0271350Y0301819D01*
X0271350Y0241819D02*
X0271350Y0235881D01*
X0281350Y0235881D02*
X0281350Y0241819D01*
X0291350Y0241819D02*
X0291350Y0235881D01*
X0301350Y0235881D02*
X0301350Y0241819D01*
X0339631Y0160100D02*
X0345569Y0160100D01*
X0345569Y0150100D02*
X0339631Y0150100D01*
X0205569Y0260100D02*
X0199631Y0260100D01*
X0199631Y0270100D02*
X0205569Y0270100D01*
X0201350Y0295881D02*
X0201350Y0301819D01*
X0191350Y0301819D02*
X0191350Y0295881D01*
X0181350Y0295881D02*
X0181350Y0301819D01*
X0171350Y0301819D02*
X0171350Y0295881D01*
X0146350Y0315881D02*
X0146350Y0321819D01*
X0136350Y0321819D02*
X0136350Y0315881D01*
X0113850Y0315881D02*
X0113850Y0321819D01*
X0103850Y0321819D02*
X0103850Y0315881D01*
X0077600Y0315881D02*
X0077600Y0321819D01*
X0067600Y0321819D02*
X0067600Y0315881D01*
X0171350Y0241819D02*
X0171350Y0235881D01*
X0181350Y0235881D02*
X0181350Y0241819D01*
X0191350Y0241819D02*
X0191350Y0235881D01*
X0201350Y0235881D02*
X0201350Y0241819D01*
D25*
X0171350Y0258850D03*
X0171350Y0268850D03*
D26*
X0119756Y0257600D03*
D27*
X0119756Y0267600D03*
X0119756Y0277600D03*
D28*
X0137600Y0165100D03*
X0137600Y0161350D03*
X0137600Y0157600D03*
X0137600Y0153850D03*
X0137600Y0150100D03*
X0141350Y0150100D03*
X0141350Y0153850D03*
X0141350Y0157600D03*
X0141350Y0161350D03*
X0141350Y0165100D03*
X0145100Y0165100D03*
X0145100Y0161350D03*
X0145100Y0157600D03*
X0145100Y0153850D03*
X0145100Y0150100D03*
X0207600Y0150100D03*
X0207600Y0153850D03*
X0207600Y0157600D03*
X0207600Y0161350D03*
X0207600Y0165100D03*
X0211350Y0165100D03*
X0211350Y0161350D03*
X0211350Y0157600D03*
X0211350Y0153850D03*
X0211350Y0150100D03*
X0215100Y0150100D03*
X0215100Y0153850D03*
X0215100Y0157600D03*
X0215100Y0161350D03*
X0215100Y0165100D03*
X0276350Y0165100D03*
X0276350Y0161350D03*
X0276350Y0157600D03*
X0276350Y0153850D03*
X0276350Y0150100D03*
X0280100Y0150100D03*
X0280100Y0153850D03*
X0280100Y0157600D03*
X0280100Y0161350D03*
X0280100Y0165100D03*
X0283850Y0165100D03*
X0283850Y0161350D03*
X0283850Y0157600D03*
X0283850Y0153850D03*
X0283850Y0150100D03*
X0073850Y0150100D03*
X0073850Y0153850D03*
X0073850Y0157600D03*
X0073850Y0161350D03*
X0073850Y0165100D03*
X0070100Y0165100D03*
X0070100Y0161350D03*
X0070100Y0157600D03*
X0070100Y0153850D03*
X0070100Y0150100D03*
X0066350Y0150100D03*
X0066350Y0153850D03*
X0066350Y0157600D03*
X0066350Y0161350D03*
X0066350Y0165100D03*
D29*
X0059076Y0169116D02*
X0052600Y0169116D01*
X0052600Y0179350D01*
X0081124Y0169116D02*
X0087600Y0169116D01*
X0087600Y0175100D01*
X0081124Y0166557D02*
X0107600Y0166557D01*
X0107600Y0172600D01*
X0121350Y0169116D02*
X0121350Y0178100D01*
X0121350Y0169116D02*
X0130326Y0169116D01*
X0130326Y0166557D02*
X0136143Y0166557D01*
X0152374Y0166557D02*
X0177600Y0166557D01*
X0177600Y0171350D01*
X0188850Y0169190D02*
X0188850Y0178100D01*
X0188850Y0169190D02*
X0200252Y0169190D01*
X0200326Y0166557D02*
X0207600Y0166557D01*
X0207600Y0165100D01*
X0222374Y0166557D02*
X0246350Y0166557D01*
X0246350Y0171350D01*
X0258850Y0169116D02*
X0258850Y0178100D01*
X0258850Y0169116D02*
X0269076Y0169116D01*
X0269076Y0166557D02*
X0276350Y0166557D01*
X0276350Y0165100D01*
X0291124Y0166557D02*
X0317600Y0166557D01*
X0317600Y0171350D01*
X0330100Y0175100D02*
X0330100Y0202216D01*
X0330100Y0210484D02*
X0330100Y0226360D01*
X0330100Y0233840D02*
X0330100Y0250100D01*
X0297600Y0212600D02*
X0287590Y0212600D01*
X0297600Y0175100D02*
X0297600Y0169116D01*
X0291124Y0169116D01*
X0291124Y0148643D02*
X0296350Y0148643D01*
X0296350Y0136350D01*
X0291350Y0136350D01*
X0291350Y0142600D02*
X0291350Y0146084D01*
X0291124Y0146084D01*
X0228850Y0169116D02*
X0228850Y0175100D01*
X0228850Y0169116D02*
X0222374Y0169116D01*
X0225100Y0169116D01*
X0228850Y0212600D02*
X0218840Y0212600D01*
X0158850Y0212600D02*
X0148840Y0212600D01*
X0158850Y0175100D02*
X0158850Y0169116D01*
X0152374Y0169116D01*
X0087600Y0213850D02*
X0077590Y0213850D01*
X0059076Y0148660D02*
X0059076Y0148643D01*
X0053850Y0148643D01*
X0053850Y0137600D01*
X0060100Y0137600D01*
X0057600Y0142600D02*
X0059076Y0144076D01*
X0059076Y0146084D01*
D30*
X0034250Y0146533D02*
X0006600Y0146533D01*
X0006600Y0143334D02*
X0034250Y0143334D01*
X0034250Y0140136D02*
X0006600Y0140136D01*
X0006600Y0136937D02*
X0034250Y0136937D01*
X0034250Y0133739D02*
X0006600Y0133739D01*
X0006600Y0130540D02*
X0034250Y0130540D01*
X0034250Y0127342D02*
X0006600Y0127342D01*
X0006600Y0124143D02*
X0034250Y0124143D01*
X0034250Y0120945D02*
X0006600Y0120945D01*
X0006600Y0117746D02*
X0034250Y0117746D01*
X0034250Y0114548D02*
X0006600Y0114548D01*
X0006600Y0111349D02*
X0034250Y0111349D01*
X0034250Y0108151D02*
X0006600Y0108151D01*
X0006600Y0104952D02*
X0034250Y0104952D01*
X0034250Y0101754D02*
X0006600Y0101754D01*
X0006600Y0098555D02*
X0034250Y0098555D01*
X0034250Y0095357D02*
X0006600Y0095357D01*
X0006600Y0092158D02*
X0034250Y0092158D01*
X0034250Y0088960D02*
X0006600Y0088960D01*
X0006600Y0085761D02*
X0034250Y0085761D01*
X0034250Y0082563D02*
X0006600Y0082563D01*
X0006600Y0079364D02*
X0034250Y0079364D01*
X0034250Y0076166D02*
X0006600Y0076166D01*
X0006600Y0072967D02*
X0034250Y0072967D01*
X0034250Y0069769D02*
X0006600Y0069769D01*
X0006600Y0066570D02*
X0034250Y0066570D01*
X0034250Y0063372D02*
X0006600Y0063372D01*
X0006600Y0060173D02*
X0034250Y0060173D01*
X0034250Y0056975D02*
X0006600Y0056975D01*
X0006600Y0053776D02*
X0034250Y0053776D01*
X0034250Y0050578D02*
X0006600Y0050578D01*
X0006600Y0047379D02*
X0034250Y0047379D01*
X0034250Y0044181D02*
X0006600Y0044181D01*
X0006600Y0040982D02*
X0015009Y0040982D01*
X0015902Y0041445D02*
X0011066Y0038939D01*
X0007086Y0035222D01*
X0007086Y0035222D01*
X0006600Y0034423D01*
X0006600Y0298277D01*
X0007086Y0297478D01*
X0011066Y0293761D01*
X0015902Y0291255D01*
X0021235Y0290147D01*
X0026669Y0290518D01*
X0031801Y0292342D01*
X0036251Y0295483D01*
X0036251Y0295483D01*
X0036251Y0295483D01*
X0039688Y0299708D01*
X0039688Y0299708D01*
X0041858Y0304704D01*
X0042600Y0310100D01*
X0041858Y0315496D01*
X0039688Y0320492D01*
X0036251Y0324717D01*
X0034347Y0326061D01*
X0061987Y0326061D01*
X0061692Y0325766D01*
X0060631Y0323205D01*
X0060631Y0314495D01*
X0061692Y0311934D01*
X0063653Y0309974D01*
X0066214Y0308913D01*
X0068986Y0308913D01*
X0071547Y0309974D01*
X0073508Y0311934D01*
X0073556Y0312051D01*
X0073972Y0311634D01*
X0074681Y0311119D01*
X0075462Y0310721D01*
X0076296Y0310450D01*
X0077162Y0310313D01*
X0077600Y0310313D01*
X0078038Y0310313D01*
X0078904Y0310450D01*
X0079738Y0310721D01*
X0080519Y0311119D01*
X0081228Y0311634D01*
X0081847Y0312254D01*
X0082363Y0312963D01*
X0082761Y0313744D01*
X0083031Y0314578D01*
X0083168Y0315443D01*
X0083168Y0318850D01*
X0083168Y0322257D01*
X0083031Y0323122D01*
X0082761Y0323956D01*
X0082363Y0324737D01*
X0081847Y0325446D01*
X0081233Y0326061D01*
X0098237Y0326061D01*
X0097942Y0325766D01*
X0096881Y0323205D01*
X0096881Y0314495D01*
X0097942Y0311934D01*
X0099903Y0309974D01*
X0102464Y0308913D01*
X0105236Y0308913D01*
X0107797Y0309974D01*
X0107850Y0310027D01*
X0107850Y0288907D01*
X0108763Y0286701D01*
X0110451Y0285013D01*
X0112657Y0284100D01*
X0114100Y0284100D01*
X0114100Y0282612D01*
X0112212Y0280725D01*
X0112212Y0274475D01*
X0114088Y0272600D01*
X0112212Y0270725D01*
X0112212Y0264475D01*
X0114070Y0262617D01*
X0113908Y0262375D01*
X0113712Y0261902D01*
X0113612Y0261399D01*
X0113612Y0257600D01*
X0119755Y0257600D01*
X0113612Y0257600D01*
X0113612Y0253801D01*
X0113712Y0253298D01*
X0113908Y0252825D01*
X0114193Y0252399D01*
X0114555Y0252037D01*
X0114981Y0251753D01*
X0115454Y0251557D01*
X0115956Y0251457D01*
X0116427Y0251457D01*
X0105462Y0247417D01*
X0105143Y0247417D01*
X0102913Y0246493D01*
X0101207Y0244787D01*
X0100283Y0242557D01*
X0100283Y0240143D01*
X0101207Y0237913D01*
X0102913Y0236207D01*
X0105143Y0235283D01*
X0106533Y0235283D01*
X0106533Y0235143D01*
X0107457Y0232913D01*
X0109163Y0231207D01*
X0111393Y0230283D01*
X0113807Y0230283D01*
X0116037Y0231207D01*
X0116130Y0231300D01*
X0120005Y0232850D01*
X0165063Y0232850D01*
X0165442Y0231934D01*
X0167403Y0229974D01*
X0169964Y0228913D01*
X0172736Y0228913D01*
X0175297Y0229974D01*
X0176350Y0231027D01*
X0177403Y0229974D01*
X0179964Y0228913D01*
X0182736Y0228913D01*
X0185297Y0229974D01*
X0186350Y0231027D01*
X0187403Y0229974D01*
X0189964Y0228913D01*
X0192736Y0228913D01*
X0195297Y0229974D01*
X0196350Y0231027D01*
X0197403Y0229974D01*
X0199964Y0228913D01*
X0202736Y0228913D01*
X0205297Y0229974D01*
X0207258Y0231934D01*
X0208318Y0234495D01*
X0208318Y0243205D01*
X0207258Y0245766D01*
X0205297Y0247726D01*
X0202736Y0248787D01*
X0199964Y0248787D01*
X0197403Y0247726D01*
X0196350Y0246673D01*
X0195297Y0247726D01*
X0192736Y0248787D01*
X0189964Y0248787D01*
X0187403Y0247726D01*
X0186350Y0246673D01*
X0185297Y0247726D01*
X0182736Y0248787D01*
X0182272Y0248787D01*
X0184749Y0251263D01*
X0186437Y0252951D01*
X0187350Y0255157D01*
X0187350Y0264500D01*
X0194177Y0264500D01*
X0193724Y0264047D01*
X0192663Y0261486D01*
X0192663Y0258714D01*
X0193724Y0256153D01*
X0195684Y0254192D01*
X0198245Y0253131D01*
X0206955Y0253131D01*
X0209516Y0254192D01*
X0211476Y0256153D01*
X0212537Y0258714D01*
X0212537Y0261486D01*
X0211476Y0264047D01*
X0210423Y0265100D01*
X0211476Y0266153D01*
X0212537Y0268714D01*
X0212537Y0271486D01*
X0211476Y0274047D01*
X0209516Y0276008D01*
X0206955Y0277068D01*
X0198245Y0277068D01*
X0195684Y0276008D01*
X0195377Y0275700D01*
X0187350Y0275700D01*
X0187350Y0290027D01*
X0187403Y0289974D01*
X0189964Y0288913D01*
X0192736Y0288913D01*
X0195297Y0289974D01*
X0196350Y0291027D01*
X0197403Y0289974D01*
X0199964Y0288913D01*
X0202736Y0288913D01*
X0205297Y0289974D01*
X0207258Y0291934D01*
X0208318Y0294495D01*
X0208318Y0303205D01*
X0207258Y0305766D01*
X0205297Y0307726D01*
X0202736Y0308787D01*
X0199964Y0308787D01*
X0197403Y0307726D01*
X0196350Y0306673D01*
X0195297Y0307726D01*
X0192736Y0308787D01*
X0189964Y0308787D01*
X0187403Y0307726D01*
X0186350Y0306673D01*
X0185297Y0307726D01*
X0182736Y0308787D01*
X0179964Y0308787D01*
X0177403Y0307726D01*
X0176350Y0306673D01*
X0175297Y0307726D01*
X0172736Y0308787D01*
X0169964Y0308787D01*
X0167403Y0307726D01*
X0165442Y0305766D01*
X0164381Y0303205D01*
X0164381Y0294495D01*
X0165442Y0291934D01*
X0167403Y0289974D01*
X0169964Y0288913D01*
X0172736Y0288913D01*
X0175297Y0289974D01*
X0175350Y0290027D01*
X0175350Y0275311D01*
X0172842Y0276350D01*
X0169858Y0276350D01*
X0167102Y0275208D01*
X0166343Y0274450D01*
X0163200Y0274450D01*
X0163200Y0319964D01*
X0162347Y0322022D01*
X0160772Y0323597D01*
X0158714Y0324450D01*
X0152803Y0324450D01*
X0152258Y0325766D01*
X0151963Y0326061D01*
X0322748Y0326061D01*
X0321066Y0325189D01*
X0317086Y0321472D01*
X0317086Y0321472D01*
X0314256Y0316818D01*
X0312786Y0311573D01*
X0312786Y0306127D01*
X0314256Y0300882D01*
X0317086Y0296228D01*
X0321066Y0292511D01*
X0325902Y0290005D01*
X0331235Y0288897D01*
X0336669Y0289268D01*
X0341801Y0291092D01*
X0346251Y0294233D01*
X0346251Y0294233D01*
X0346251Y0294233D01*
X0348551Y0297060D01*
X0348551Y0166407D01*
X0346955Y0167068D01*
X0338245Y0167068D01*
X0335684Y0166008D01*
X0333724Y0164047D01*
X0332663Y0161486D01*
X0332663Y0158714D01*
X0333724Y0156153D01*
X0334777Y0155100D01*
X0333724Y0154047D01*
X0332663Y0151486D01*
X0332663Y0148714D01*
X0333724Y0146153D01*
X0335684Y0144192D01*
X0338245Y0143131D01*
X0346955Y0143131D01*
X0348551Y0143793D01*
X0348551Y0034390D01*
X0346251Y0037217D01*
X0341801Y0040358D01*
X0336669Y0042182D01*
X0331235Y0042553D01*
X0325902Y0041445D01*
X0321066Y0038939D01*
X0317086Y0035222D01*
X0317086Y0035222D01*
X0314256Y0030568D01*
X0312786Y0025323D01*
X0312786Y0019877D01*
X0314256Y0014632D01*
X0317086Y0009978D01*
X0320703Y0006600D01*
X0034291Y0006600D01*
X0036251Y0007983D01*
X0036251Y0007983D01*
X0036251Y0007983D01*
X0039688Y0012208D01*
X0039688Y0012208D01*
X0041858Y0017204D01*
X0042600Y0022600D01*
X0041858Y0027996D01*
X0039688Y0032992D01*
X0037502Y0035679D01*
X0037935Y0035500D01*
X0059376Y0035500D01*
X0060965Y0033911D01*
X0063648Y0032800D01*
X0066552Y0032800D01*
X0069235Y0033911D01*
X0071090Y0035766D01*
X0071256Y0035600D01*
X0072008Y0035054D01*
X0072835Y0034632D01*
X0073718Y0034345D01*
X0074636Y0034200D01*
X0075100Y0034200D01*
X0075564Y0034200D01*
X0076482Y0034345D01*
X0077365Y0034632D01*
X0078192Y0035054D01*
X0078944Y0035600D01*
X0079600Y0036256D01*
X0080146Y0037008D01*
X0080568Y0037835D01*
X0080855Y0038718D01*
X0081000Y0039636D01*
X0081000Y0040100D01*
X0081000Y0040564D01*
X0080855Y0041482D01*
X0080568Y0042365D01*
X0080146Y0043192D01*
X0079600Y0043944D01*
X0079434Y0044110D01*
X0080824Y0045500D01*
X0100175Y0045500D01*
X0100175Y0042946D01*
X0100784Y0041476D01*
X0101909Y0040351D01*
X0103379Y0039742D01*
X0105500Y0039742D01*
X0105500Y0039185D01*
X0106200Y0037494D01*
X0107494Y0036200D01*
X0109185Y0035500D01*
X0131876Y0035500D01*
X0133465Y0033911D01*
X0136148Y0032800D01*
X0139052Y0032800D01*
X0141735Y0033911D01*
X0143590Y0035766D01*
X0143756Y0035600D01*
X0144508Y0035054D01*
X0145335Y0034632D01*
X0146218Y0034345D01*
X0147136Y0034200D01*
X0147600Y0034200D01*
X0148064Y0034200D01*
X0148982Y0034345D01*
X0149865Y0034632D01*
X0150692Y0035054D01*
X0151444Y0035600D01*
X0152100Y0036256D01*
X0152646Y0037008D01*
X0153068Y0037835D01*
X0153355Y0038718D01*
X0153500Y0039636D01*
X0153500Y0040100D01*
X0153500Y0040564D01*
X0153355Y0041482D01*
X0153068Y0042365D01*
X0152646Y0043192D01*
X0152100Y0043944D01*
X0151934Y0044110D01*
X0153324Y0045500D01*
X0173009Y0045500D01*
X0173009Y0043143D01*
X0173618Y0041673D01*
X0174744Y0040548D01*
X0175500Y0040234D01*
X0175500Y0039185D01*
X0176200Y0037494D01*
X0177494Y0036200D01*
X0179185Y0035500D01*
X0199376Y0035500D01*
X0200965Y0033911D01*
X0203648Y0032800D01*
X0206552Y0032800D01*
X0209235Y0033911D01*
X0211090Y0035766D01*
X0211256Y0035600D01*
X0212008Y0035054D01*
X0212835Y0034632D01*
X0213718Y0034345D01*
X0214636Y0034200D01*
X0215100Y0034200D01*
X0215564Y0034200D01*
X0216482Y0034345D01*
X0217365Y0034632D01*
X0218192Y0035054D01*
X0218944Y0035600D01*
X0219600Y0036256D01*
X0220146Y0037008D01*
X0220568Y0037835D01*
X0220855Y0038718D01*
X0221000Y0039636D01*
X0221000Y0040100D01*
X0221000Y0040564D01*
X0220855Y0041482D01*
X0220568Y0042365D01*
X0220146Y0043192D01*
X0219600Y0043944D01*
X0219434Y0044110D01*
X0220824Y0045500D01*
X0243515Y0045500D01*
X0244250Y0045804D01*
X0244250Y0039185D01*
X0244950Y0037494D01*
X0246244Y0036200D01*
X0247935Y0035500D01*
X0269376Y0035500D01*
X0270965Y0033911D01*
X0273648Y0032800D01*
X0276552Y0032800D01*
X0279235Y0033911D01*
X0281090Y0035766D01*
X0281256Y0035600D01*
X0282008Y0035054D01*
X0282835Y0034632D01*
X0283718Y0034345D01*
X0284636Y0034200D01*
X0285100Y0034200D01*
X0285564Y0034200D01*
X0286482Y0034345D01*
X0287365Y0034632D01*
X0288192Y0035054D01*
X0288944Y0035600D01*
X0289600Y0036256D01*
X0290146Y0037008D01*
X0290568Y0037835D01*
X0290855Y0038718D01*
X0291000Y0039636D01*
X0291000Y0040100D01*
X0291000Y0040564D01*
X0290855Y0041482D01*
X0290568Y0042365D01*
X0290146Y0043192D01*
X0289600Y0043944D01*
X0289434Y0044110D01*
X0290824Y0045500D01*
X0312265Y0045500D01*
X0313956Y0046200D01*
X0315250Y0047494D01*
X0315950Y0049185D01*
X0315950Y0164913D01*
X0315250Y0166603D01*
X0313956Y0167897D01*
X0312265Y0168598D01*
X0302400Y0168598D01*
X0302400Y0170681D01*
X0302772Y0171053D01*
X0303381Y0172523D01*
X0303381Y0177677D01*
X0302772Y0179147D01*
X0301647Y0180272D01*
X0300177Y0180881D01*
X0295023Y0180881D01*
X0293553Y0180272D01*
X0292428Y0179147D01*
X0291819Y0177677D01*
X0291819Y0173916D01*
X0290169Y0173916D01*
X0289663Y0173706D01*
X0289139Y0173706D01*
X0289059Y0173786D01*
X0287589Y0174395D01*
X0286900Y0174395D01*
X0286900Y0179547D01*
X0287590Y0179547D01*
X0287590Y0185100D01*
X0287590Y0190653D01*
X0286910Y0190653D01*
X0286910Y0193297D01*
X0287196Y0193297D01*
X0287196Y0198850D01*
X0287196Y0204403D01*
X0286910Y0204403D01*
X0286910Y0205647D01*
X0290945Y0205647D01*
X0292415Y0206256D01*
X0293540Y0207381D01*
X0293559Y0207426D01*
X0295023Y0206819D01*
X0300177Y0206819D01*
X0301647Y0207428D01*
X0302772Y0208553D01*
X0303381Y0210023D01*
X0303381Y0215177D01*
X0302772Y0216647D01*
X0301647Y0217772D01*
X0300177Y0218381D01*
X0295023Y0218381D01*
X0293559Y0217774D01*
X0293540Y0217819D01*
X0292415Y0218944D01*
X0290945Y0219553D01*
X0284235Y0219553D01*
X0283850Y0219393D01*
X0283465Y0219553D01*
X0276755Y0219553D01*
X0275662Y0219100D01*
X0262174Y0219100D01*
X0261874Y0219400D01*
X0255826Y0219400D01*
X0251550Y0215124D01*
X0251550Y0209076D01*
X0254250Y0206376D01*
X0254250Y0205065D01*
X0253828Y0204890D01*
X0252703Y0203765D01*
X0252094Y0202295D01*
X0252094Y0195979D01*
X0252458Y0195100D01*
X0252094Y0194221D01*
X0252094Y0187905D01*
X0252703Y0186435D01*
X0253828Y0185310D01*
X0254250Y0185135D01*
X0254250Y0183824D01*
X0251550Y0181124D01*
X0251550Y0175076D01*
X0254050Y0172576D01*
X0254050Y0168598D01*
X0247935Y0168598D01*
X0246244Y0167897D01*
X0245725Y0167378D01*
X0245206Y0167897D01*
X0243515Y0168598D01*
X0233650Y0168598D01*
X0233650Y0170681D01*
X0234022Y0171053D01*
X0234631Y0172523D01*
X0234631Y0177677D01*
X0234022Y0179147D01*
X0232897Y0180272D01*
X0231427Y0180881D01*
X0226273Y0180881D01*
X0224803Y0180272D01*
X0223678Y0179147D01*
X0223069Y0177677D01*
X0223069Y0173916D01*
X0221419Y0173916D01*
X0220913Y0173706D01*
X0220389Y0173706D01*
X0220309Y0173786D01*
X0218839Y0174395D01*
X0218150Y0174395D01*
X0218150Y0179547D01*
X0218840Y0179547D01*
X0218840Y0185100D01*
X0218840Y0190653D01*
X0218160Y0190653D01*
X0218160Y0193297D01*
X0218446Y0193297D01*
X0218446Y0198850D01*
X0218446Y0204403D01*
X0218160Y0204403D01*
X0218160Y0205647D01*
X0222195Y0205647D01*
X0223665Y0206256D01*
X0224790Y0207381D01*
X0224809Y0207426D01*
X0226273Y0206819D01*
X0231427Y0206819D01*
X0232897Y0207428D01*
X0234022Y0208553D01*
X0234631Y0210023D01*
X0234631Y0215177D01*
X0234022Y0216647D01*
X0232897Y0217772D01*
X0231427Y0218381D01*
X0226273Y0218381D01*
X0224809Y0217774D01*
X0224790Y0217819D01*
X0223665Y0218944D01*
X0222195Y0219553D01*
X0215485Y0219553D01*
X0215100Y0219393D01*
X0214715Y0219553D01*
X0208005Y0219553D01*
X0206912Y0219100D01*
X0192174Y0219100D01*
X0191874Y0219400D01*
X0185826Y0219400D01*
X0181550Y0215124D01*
X0181550Y0209076D01*
X0184250Y0206376D01*
X0184250Y0205065D01*
X0183828Y0204890D01*
X0182703Y0203765D01*
X0182094Y0202295D01*
X0182094Y0195979D01*
X0182458Y0195100D01*
X0182094Y0194221D01*
X0182094Y0187905D01*
X0182703Y0186435D01*
X0183828Y0185310D01*
X0184250Y0185135D01*
X0184250Y0183824D01*
X0181550Y0181124D01*
X0181550Y0175076D01*
X0184050Y0172576D01*
X0184050Y0168598D01*
X0179185Y0168598D01*
X0177494Y0167897D01*
X0176975Y0167378D01*
X0176456Y0167897D01*
X0174765Y0168598D01*
X0163650Y0168598D01*
X0163650Y0170681D01*
X0164022Y0171053D01*
X0164631Y0172523D01*
X0164631Y0177677D01*
X0164022Y0179147D01*
X0162897Y0180272D01*
X0161427Y0180881D01*
X0156273Y0180881D01*
X0154803Y0180272D01*
X0153678Y0179147D01*
X0153069Y0177677D01*
X0153069Y0173916D01*
X0151419Y0173916D01*
X0150913Y0173706D01*
X0150389Y0173706D01*
X0150309Y0173786D01*
X0148839Y0174395D01*
X0148150Y0174395D01*
X0148150Y0179547D01*
X0148840Y0179547D01*
X0148840Y0185100D01*
X0148840Y0190653D01*
X0148150Y0190653D01*
X0148150Y0193297D01*
X0148446Y0193297D01*
X0148446Y0198850D01*
X0148446Y0204403D01*
X0148150Y0204403D01*
X0148150Y0205647D01*
X0152195Y0205647D01*
X0153665Y0206256D01*
X0154790Y0207381D01*
X0154809Y0207426D01*
X0156273Y0206819D01*
X0161427Y0206819D01*
X0162897Y0207428D01*
X0164022Y0208553D01*
X0164631Y0210023D01*
X0164631Y0215177D01*
X0164022Y0216647D01*
X0162897Y0217772D01*
X0161427Y0218381D01*
X0156273Y0218381D01*
X0154809Y0217774D01*
X0154790Y0217819D01*
X0153665Y0218944D01*
X0152195Y0219553D01*
X0145485Y0219553D01*
X0145100Y0219393D01*
X0144715Y0219553D01*
X0138005Y0219553D01*
X0137636Y0219400D01*
X0118326Y0219400D01*
X0114050Y0215124D01*
X0114050Y0209076D01*
X0116750Y0206376D01*
X0116750Y0205065D01*
X0116328Y0204890D01*
X0115203Y0203765D01*
X0114594Y0202295D01*
X0114594Y0195979D01*
X0114958Y0195100D01*
X0114594Y0194221D01*
X0114594Y0187905D01*
X0115203Y0186435D01*
X0116328Y0185310D01*
X0116750Y0185135D01*
X0116750Y0183824D01*
X0114050Y0181124D01*
X0114050Y0175076D01*
X0116550Y0172576D01*
X0116550Y0168598D01*
X0109185Y0168598D01*
X0107494Y0167897D01*
X0106200Y0166603D01*
X0106199Y0166600D01*
X0105251Y0166600D01*
X0105250Y0166603D01*
X0103956Y0167897D01*
X0102265Y0168598D01*
X0092400Y0168598D01*
X0092400Y0170681D01*
X0092772Y0171053D01*
X0093381Y0172523D01*
X0093381Y0177677D01*
X0092772Y0179147D01*
X0091647Y0180272D01*
X0090177Y0180881D01*
X0085023Y0180881D01*
X0083553Y0180272D01*
X0082428Y0179147D01*
X0081819Y0177677D01*
X0081819Y0173916D01*
X0080169Y0173916D01*
X0079663Y0173706D01*
X0079139Y0173706D01*
X0079059Y0173786D01*
X0077589Y0174395D01*
X0076900Y0174395D01*
X0076900Y0179547D01*
X0077590Y0179547D01*
X0077590Y0185100D01*
X0077590Y0190653D01*
X0076910Y0190653D01*
X0076910Y0194547D01*
X0077196Y0194547D01*
X0077196Y0200100D01*
X0077196Y0205653D01*
X0076910Y0205653D01*
X0076910Y0206897D01*
X0080945Y0206897D01*
X0082415Y0207506D01*
X0083540Y0208631D01*
X0083559Y0208676D01*
X0085023Y0208069D01*
X0090177Y0208069D01*
X0091647Y0208678D01*
X0092772Y0209803D01*
X0093381Y0211273D01*
X0093381Y0216427D01*
X0092772Y0217897D01*
X0091647Y0219022D01*
X0090177Y0219631D01*
X0085023Y0219631D01*
X0083559Y0219024D01*
X0083540Y0219069D01*
X0082415Y0220194D01*
X0080945Y0220803D01*
X0074235Y0220803D01*
X0073850Y0220643D01*
X0073465Y0220803D01*
X0066755Y0220803D01*
X0066386Y0220650D01*
X0049576Y0220650D01*
X0045300Y0216374D01*
X0045300Y0210326D01*
X0048000Y0207626D01*
X0048000Y0206315D01*
X0047578Y0206140D01*
X0046453Y0205015D01*
X0045844Y0203545D01*
X0045844Y0197229D01*
X0046208Y0196350D01*
X0045844Y0195471D01*
X0045844Y0189155D01*
X0046453Y0187685D01*
X0047578Y0186560D01*
X0048000Y0186385D01*
X0048000Y0185074D01*
X0045300Y0182374D01*
X0045300Y0176326D01*
X0047800Y0173826D01*
X0047800Y0168598D01*
X0037935Y0168598D01*
X0036244Y0167897D01*
X0034950Y0166603D01*
X0034250Y0164913D01*
X0034250Y0039185D01*
X0034575Y0038400D01*
X0031801Y0040358D01*
X0026669Y0042182D01*
X0021235Y0042553D01*
X0015902Y0041445D01*
X0011066Y0038939D02*
X0011066Y0038939D01*
X0009829Y0037784D02*
X0006600Y0037784D01*
X0006600Y0034585D02*
X0006699Y0034585D01*
X0030044Y0040982D02*
X0034250Y0040982D01*
X0038392Y0034585D02*
X0060291Y0034585D01*
X0069909Y0034585D02*
X0072980Y0034585D01*
X0075100Y0034585D02*
X0075100Y0034585D01*
X0075100Y0034200D02*
X0075100Y0040100D01*
X0081000Y0040100D01*
X0075100Y0040100D01*
X0075100Y0040100D01*
X0075100Y0040100D01*
X0075100Y0034200D01*
X0077220Y0034585D02*
X0132791Y0034585D01*
X0142409Y0034585D02*
X0145480Y0034585D01*
X0147600Y0034585D02*
X0147600Y0034585D01*
X0147600Y0034200D02*
X0147600Y0040100D01*
X0153500Y0040100D01*
X0147600Y0040100D01*
X0147600Y0040100D01*
X0147600Y0040100D01*
X0147600Y0034200D01*
X0149720Y0034585D02*
X0200291Y0034585D01*
X0209909Y0034585D02*
X0212980Y0034585D01*
X0215100Y0034585D02*
X0215100Y0034585D01*
X0215100Y0034200D02*
X0215100Y0040100D01*
X0221000Y0040100D01*
X0215100Y0040100D01*
X0215100Y0040100D01*
X0215100Y0040100D01*
X0215100Y0034200D01*
X0217220Y0034585D02*
X0270291Y0034585D01*
X0279909Y0034585D02*
X0282980Y0034585D01*
X0285100Y0034585D02*
X0285100Y0034585D01*
X0285100Y0034200D02*
X0285100Y0040100D01*
X0291000Y0040100D01*
X0285100Y0040100D01*
X0285100Y0040100D01*
X0285100Y0040100D01*
X0285100Y0034200D01*
X0287220Y0034585D02*
X0316699Y0034585D01*
X0314754Y0031387D02*
X0040386Y0031387D01*
X0039688Y0032992D02*
X0039688Y0032992D01*
X0041775Y0028188D02*
X0313589Y0028188D01*
X0314256Y0030568D02*
X0314256Y0030568D01*
X0312786Y0024990D02*
X0042272Y0024990D01*
X0041858Y0027996D02*
X0041858Y0027996D01*
X0042489Y0021791D02*
X0312786Y0021791D01*
X0313146Y0018593D02*
X0042049Y0018593D01*
X0041858Y0017204D02*
X0041858Y0017204D01*
X0041072Y0015394D02*
X0314042Y0015394D01*
X0314256Y0014632D02*
X0314256Y0014632D01*
X0315737Y0012196D02*
X0039678Y0012196D01*
X0037076Y0008997D02*
X0318136Y0008997D01*
X0317086Y0009978D02*
X0317086Y0009978D01*
X0319829Y0037784D02*
X0290541Y0037784D01*
X0290934Y0040982D02*
X0325009Y0040982D01*
X0325902Y0041445D02*
X0325902Y0041445D01*
X0321066Y0038939D02*
X0321066Y0038939D01*
X0315135Y0047379D02*
X0348551Y0047379D01*
X0348551Y0044181D02*
X0289504Y0044181D01*
X0285100Y0037784D02*
X0285100Y0037784D01*
X0315950Y0050578D02*
X0348551Y0050578D01*
X0348551Y0053776D02*
X0315950Y0053776D01*
X0315950Y0056975D02*
X0348551Y0056975D01*
X0348551Y0060173D02*
X0315950Y0060173D01*
X0315950Y0063372D02*
X0348551Y0063372D01*
X0348551Y0066570D02*
X0315950Y0066570D01*
X0315950Y0069769D02*
X0348551Y0069769D01*
X0348551Y0072967D02*
X0315950Y0072967D01*
X0315950Y0076166D02*
X0348551Y0076166D01*
X0348551Y0079364D02*
X0315950Y0079364D01*
X0315950Y0082563D02*
X0348551Y0082563D01*
X0348551Y0085761D02*
X0315950Y0085761D01*
X0315950Y0088960D02*
X0348551Y0088960D01*
X0348551Y0092158D02*
X0315950Y0092158D01*
X0315950Y0095357D02*
X0348551Y0095357D01*
X0348551Y0098555D02*
X0315950Y0098555D01*
X0315950Y0101754D02*
X0348551Y0101754D01*
X0348551Y0104952D02*
X0315950Y0104952D01*
X0315950Y0108151D02*
X0348551Y0108151D01*
X0348551Y0111349D02*
X0315950Y0111349D01*
X0315950Y0114548D02*
X0348551Y0114548D01*
X0348551Y0117746D02*
X0315950Y0117746D01*
X0315950Y0120945D02*
X0348551Y0120945D01*
X0348551Y0124143D02*
X0315950Y0124143D01*
X0315950Y0127342D02*
X0348551Y0127342D01*
X0348551Y0130540D02*
X0315950Y0130540D01*
X0315950Y0133739D02*
X0348551Y0133739D01*
X0348551Y0136937D02*
X0315950Y0136937D01*
X0315950Y0140136D02*
X0348551Y0140136D01*
X0348551Y0143334D02*
X0347445Y0143334D01*
X0337755Y0143334D02*
X0315950Y0143334D01*
X0315950Y0146533D02*
X0333566Y0146533D01*
X0332663Y0149732D02*
X0315950Y0149732D01*
X0315950Y0152930D02*
X0333261Y0152930D01*
X0333748Y0156129D02*
X0315950Y0156129D01*
X0315950Y0159327D02*
X0332663Y0159327D01*
X0333094Y0162526D02*
X0315950Y0162526D01*
X0315614Y0165724D02*
X0335401Y0165724D01*
X0334147Y0169928D02*
X0332677Y0169319D01*
X0327523Y0169319D01*
X0326053Y0169928D01*
X0324928Y0171053D01*
X0324319Y0172523D01*
X0324319Y0177677D01*
X0324928Y0179147D01*
X0325300Y0179519D01*
X0325300Y0196635D01*
X0324347Y0197588D01*
X0323738Y0199058D01*
X0323738Y0205374D01*
X0324142Y0206350D01*
X0323738Y0207326D01*
X0323738Y0213642D01*
X0324347Y0215112D01*
X0325300Y0216065D01*
X0325300Y0220236D01*
X0324881Y0220410D01*
X0323756Y0221535D01*
X0323147Y0223005D01*
X0323147Y0229715D01*
X0323307Y0230100D01*
X0323147Y0230485D01*
X0323147Y0237195D01*
X0323756Y0238665D01*
X0324881Y0239790D01*
X0325300Y0239964D01*
X0325300Y0246320D01*
X0324957Y0246663D01*
X0324033Y0248893D01*
X0324033Y0251307D01*
X0324957Y0253537D01*
X0326663Y0255243D01*
X0328893Y0256167D01*
X0331307Y0256167D01*
X0333537Y0255243D01*
X0335243Y0253537D01*
X0336167Y0251307D01*
X0336167Y0248893D01*
X0335243Y0246663D01*
X0334900Y0246320D01*
X0334900Y0239964D01*
X0335319Y0239790D01*
X0336444Y0238665D01*
X0337053Y0237195D01*
X0337053Y0230485D01*
X0336893Y0230100D01*
X0337053Y0229715D01*
X0337053Y0223005D01*
X0336444Y0221535D01*
X0335319Y0220410D01*
X0334900Y0220236D01*
X0334900Y0216065D01*
X0335853Y0215112D01*
X0336462Y0213642D01*
X0336462Y0207326D01*
X0336058Y0206350D01*
X0336462Y0205374D01*
X0336462Y0199058D01*
X0335853Y0197588D01*
X0334900Y0196635D01*
X0334900Y0179519D01*
X0335272Y0179147D01*
X0335881Y0177677D01*
X0335881Y0172523D01*
X0335272Y0171053D01*
X0334147Y0169928D01*
X0335715Y0172121D02*
X0348551Y0172121D01*
X0348551Y0168923D02*
X0302400Y0168923D01*
X0303215Y0172121D02*
X0324485Y0172121D01*
X0324319Y0175320D02*
X0303381Y0175320D01*
X0303033Y0178518D02*
X0324667Y0178518D01*
X0325300Y0181717D02*
X0292714Y0181717D01*
X0292749Y0181891D02*
X0292749Y0185100D01*
X0292749Y0188309D01*
X0292649Y0188811D01*
X0292453Y0189284D01*
X0292169Y0189710D01*
X0291807Y0190072D01*
X0291381Y0190357D01*
X0290908Y0190553D01*
X0290405Y0190653D01*
X0287590Y0190653D01*
X0287590Y0185100D01*
X0287590Y0185100D01*
X0295100Y0185100D01*
X0292749Y0185100D02*
X0287590Y0185100D01*
X0287590Y0185100D01*
X0287590Y0179547D01*
X0290405Y0179547D01*
X0290908Y0179647D01*
X0291381Y0179843D01*
X0291807Y0180128D01*
X0292169Y0180490D01*
X0292453Y0180916D01*
X0292649Y0181389D01*
X0292749Y0181891D01*
X0292749Y0184915D02*
X0325300Y0184915D01*
X0325300Y0188114D02*
X0292749Y0188114D01*
X0292749Y0185100D02*
X0287590Y0185100D01*
X0287590Y0185100D01*
X0287590Y0184915D02*
X0287590Y0184915D01*
X0287590Y0181717D02*
X0287590Y0181717D01*
X0286900Y0178518D02*
X0292167Y0178518D01*
X0291819Y0175320D02*
X0286900Y0175320D01*
X0287590Y0188114D02*
X0287590Y0188114D01*
X0286910Y0191312D02*
X0325300Y0191312D01*
X0325300Y0194511D02*
X0291956Y0194511D01*
X0292060Y0194666D02*
X0292256Y0195139D01*
X0292355Y0195641D01*
X0292355Y0198850D01*
X0292355Y0202059D01*
X0292256Y0202561D01*
X0292060Y0203034D01*
X0291775Y0203460D01*
X0291413Y0203822D01*
X0290987Y0204107D01*
X0290514Y0204303D01*
X0290012Y0204403D01*
X0287197Y0204403D01*
X0287197Y0198850D01*
X0292355Y0198850D01*
X0287197Y0198850D01*
X0287197Y0198850D01*
X0287196Y0198850D01*
X0287197Y0198850D01*
X0287197Y0193297D01*
X0290012Y0193297D01*
X0290514Y0193397D01*
X0290987Y0193593D01*
X0291413Y0193878D01*
X0291775Y0194240D01*
X0292060Y0194666D01*
X0292355Y0197709D02*
X0324297Y0197709D01*
X0323738Y0200908D02*
X0292355Y0200908D01*
X0295100Y0198850D02*
X0287196Y0198850D01*
X0287196Y0197709D02*
X0287197Y0197709D01*
X0287196Y0194511D02*
X0287197Y0194511D01*
X0287196Y0200908D02*
X0287197Y0200908D01*
X0287196Y0204106D02*
X0287197Y0204106D01*
X0290988Y0204106D02*
X0323738Y0204106D01*
X0323747Y0207305D02*
X0301350Y0207305D01*
X0303381Y0210503D02*
X0323738Y0210503D01*
X0323763Y0213702D02*
X0303381Y0213702D01*
X0302519Y0216900D02*
X0325300Y0216900D01*
X0325300Y0220099D02*
X0082510Y0220099D01*
X0093185Y0216900D02*
X0115827Y0216900D01*
X0114050Y0213702D02*
X0093381Y0213702D01*
X0093062Y0210503D02*
X0114050Y0210503D01*
X0115822Y0207305D02*
X0081929Y0207305D01*
X0080987Y0205357D02*
X0080514Y0205553D01*
X0080012Y0205653D01*
X0077197Y0205653D01*
X0077197Y0200100D01*
X0082355Y0200100D01*
X0082355Y0203309D01*
X0082256Y0203811D01*
X0082060Y0204284D01*
X0081775Y0204710D01*
X0081413Y0205072D01*
X0080987Y0205357D01*
X0082133Y0204106D02*
X0115544Y0204106D01*
X0114594Y0200908D02*
X0082355Y0200908D01*
X0082355Y0200100D02*
X0077197Y0200100D01*
X0077197Y0200100D01*
X0077196Y0200100D01*
X0077197Y0200100D01*
X0077197Y0194547D01*
X0080012Y0194547D01*
X0080514Y0194647D01*
X0080987Y0194843D01*
X0081413Y0195128D01*
X0081775Y0195490D01*
X0082060Y0195916D01*
X0082256Y0196389D01*
X0082355Y0196891D01*
X0082355Y0200100D01*
X0082355Y0197709D02*
X0114594Y0197709D01*
X0114714Y0194511D02*
X0076910Y0194511D01*
X0076910Y0191312D02*
X0114594Y0191312D01*
X0114594Y0188114D02*
X0082749Y0188114D01*
X0082749Y0188309D02*
X0082649Y0188811D01*
X0082453Y0189284D01*
X0082169Y0189710D01*
X0081807Y0190072D01*
X0081381Y0190357D01*
X0080908Y0190553D01*
X0080405Y0190653D01*
X0077590Y0190653D01*
X0077590Y0185100D01*
X0077590Y0185100D01*
X0085100Y0185100D01*
X0082749Y0185100D02*
X0082749Y0188309D01*
X0082749Y0185100D02*
X0077590Y0185100D01*
X0077590Y0185100D01*
X0077590Y0179547D01*
X0080405Y0179547D01*
X0080908Y0179647D01*
X0081381Y0179843D01*
X0081807Y0180128D01*
X0082169Y0180490D01*
X0082453Y0180916D01*
X0082649Y0181389D01*
X0082749Y0181891D01*
X0082749Y0185100D01*
X0077590Y0185100D01*
X0077590Y0185100D01*
X0077590Y0184915D02*
X0077590Y0184915D01*
X0077590Y0181717D02*
X0077590Y0181717D01*
X0076900Y0178518D02*
X0082167Y0178518D01*
X0081819Y0175320D02*
X0076900Y0175320D01*
X0082714Y0181717D02*
X0114643Y0181717D01*
X0114050Y0178518D02*
X0093033Y0178518D01*
X0093381Y0175320D02*
X0114050Y0175320D01*
X0116550Y0172121D02*
X0093215Y0172121D01*
X0092400Y0168923D02*
X0116550Y0168923D01*
X0116750Y0184915D02*
X0082749Y0184915D01*
X0077590Y0188114D02*
X0077590Y0188114D01*
X0077196Y0197709D02*
X0077197Y0197709D01*
X0077196Y0200100D02*
X0085100Y0200100D01*
X0077197Y0200908D02*
X0077196Y0200908D01*
X0077196Y0204106D02*
X0077197Y0204106D01*
X0070504Y0200100D02*
X0070504Y0213850D01*
X0070110Y0213850D01*
X0049025Y0220099D02*
X0006600Y0220099D01*
X0006600Y0223297D02*
X0323147Y0223297D01*
X0323147Y0226496D02*
X0006600Y0226496D01*
X0006600Y0229694D02*
X0168078Y0229694D01*
X0174622Y0229694D02*
X0178078Y0229694D01*
X0184622Y0229694D02*
X0188078Y0229694D01*
X0194622Y0229694D02*
X0198078Y0229694D01*
X0204622Y0229694D02*
X0268078Y0229694D01*
X0267403Y0229974D02*
X0269964Y0228913D01*
X0272736Y0228913D01*
X0275297Y0229974D01*
X0276350Y0231027D01*
X0277403Y0229974D01*
X0279964Y0228913D01*
X0282736Y0228913D01*
X0285297Y0229974D01*
X0286350Y0231027D01*
X0287403Y0229974D01*
X0289964Y0228913D01*
X0292736Y0228913D01*
X0295297Y0229974D01*
X0296350Y0231027D01*
X0297403Y0229974D01*
X0299964Y0228913D01*
X0302736Y0228913D01*
X0305297Y0229974D01*
X0307258Y0231934D01*
X0308318Y0234495D01*
X0308318Y0243205D01*
X0307258Y0245766D01*
X0305297Y0247726D01*
X0302736Y0248787D01*
X0299964Y0248787D01*
X0297403Y0247726D01*
X0296350Y0246673D01*
X0295297Y0247726D01*
X0292736Y0248787D01*
X0289964Y0248787D01*
X0287403Y0247726D01*
X0286350Y0246673D01*
X0285297Y0247726D01*
X0282736Y0248787D01*
X0279964Y0248787D01*
X0277403Y0247726D01*
X0276350Y0246673D01*
X0275297Y0247726D01*
X0272736Y0248787D01*
X0269964Y0248787D01*
X0267403Y0247726D01*
X0265442Y0245766D01*
X0264381Y0243205D01*
X0264381Y0234495D01*
X0265442Y0231934D01*
X0267403Y0229974D01*
X0265045Y0232893D02*
X0207655Y0232893D01*
X0208318Y0236091D02*
X0264381Y0236091D01*
X0264381Y0239290D02*
X0208318Y0239290D01*
X0208318Y0242488D02*
X0264381Y0242488D01*
X0265410Y0245687D02*
X0207290Y0245687D01*
X0210606Y0255282D02*
X0326758Y0255282D01*
X0324355Y0252084D02*
X0185569Y0252084D01*
X0187350Y0255282D02*
X0194594Y0255282D01*
X0192759Y0258481D02*
X0187350Y0258481D01*
X0187350Y0261679D02*
X0192743Y0261679D01*
X0202600Y0270100D02*
X0181350Y0270100D01*
X0187350Y0277672D02*
X0348551Y0277672D01*
X0348551Y0280870D02*
X0187350Y0280870D01*
X0187350Y0284069D02*
X0348551Y0284069D01*
X0348551Y0287268D02*
X0187350Y0287268D01*
X0195789Y0290466D02*
X0196911Y0290466D01*
X0205789Y0290466D02*
X0266911Y0290466D01*
X0267403Y0289974D02*
X0269964Y0288913D01*
X0272736Y0288913D01*
X0275297Y0289974D01*
X0276350Y0291027D01*
X0277403Y0289974D01*
X0279964Y0288913D01*
X0282736Y0288913D01*
X0285297Y0289974D01*
X0286350Y0291027D01*
X0287403Y0289974D01*
X0289964Y0288913D01*
X0292736Y0288913D01*
X0295297Y0289974D01*
X0296350Y0291027D01*
X0297403Y0289974D01*
X0299964Y0288913D01*
X0302736Y0288913D01*
X0305297Y0289974D01*
X0307258Y0291934D01*
X0308318Y0294495D01*
X0308318Y0303205D01*
X0307258Y0305766D01*
X0305297Y0307726D01*
X0302736Y0308787D01*
X0299964Y0308787D01*
X0297403Y0307726D01*
X0296350Y0306673D01*
X0295297Y0307726D01*
X0292736Y0308787D01*
X0289964Y0308787D01*
X0287403Y0307726D01*
X0286350Y0306673D01*
X0285297Y0307726D01*
X0282736Y0308787D01*
X0279964Y0308787D01*
X0277403Y0307726D01*
X0276350Y0306673D01*
X0275297Y0307726D01*
X0272736Y0308787D01*
X0269964Y0308787D01*
X0267403Y0307726D01*
X0265442Y0305766D01*
X0264381Y0303205D01*
X0264381Y0294495D01*
X0265442Y0291934D01*
X0267403Y0289974D01*
X0264726Y0293665D02*
X0207974Y0293665D01*
X0208318Y0296863D02*
X0264381Y0296863D01*
X0264381Y0300062D02*
X0208318Y0300062D01*
X0208296Y0303260D02*
X0264404Y0303260D01*
X0266135Y0306459D02*
X0206565Y0306459D01*
X0175350Y0287268D02*
X0163200Y0287268D01*
X0163200Y0290466D02*
X0166911Y0290466D01*
X0164726Y0293665D02*
X0163200Y0293665D01*
X0163200Y0296863D02*
X0164381Y0296863D01*
X0164381Y0300062D02*
X0163200Y0300062D01*
X0163200Y0303260D02*
X0164404Y0303260D01*
X0163200Y0306459D02*
X0166135Y0306459D01*
X0163200Y0309657D02*
X0312786Y0309657D01*
X0312786Y0306459D02*
X0306565Y0306459D01*
X0308296Y0303260D02*
X0313589Y0303260D01*
X0314256Y0300882D02*
X0314256Y0300882D01*
X0314755Y0300062D02*
X0308318Y0300062D01*
X0308318Y0296863D02*
X0316700Y0296863D01*
X0317086Y0296228D02*
X0317086Y0296228D01*
X0317086Y0296228D01*
X0319831Y0293665D02*
X0307974Y0293665D01*
X0305789Y0290466D02*
X0325012Y0290466D01*
X0321066Y0292511D02*
X0321066Y0292511D01*
X0340039Y0290466D02*
X0348551Y0290466D01*
X0348551Y0293665D02*
X0345445Y0293665D01*
X0348391Y0296863D02*
X0348551Y0296863D01*
X0348551Y0274473D02*
X0211050Y0274473D01*
X0212537Y0271275D02*
X0348551Y0271275D01*
X0348551Y0268076D02*
X0212273Y0268076D01*
X0210646Y0264878D02*
X0348551Y0264878D01*
X0348551Y0261679D02*
X0212457Y0261679D01*
X0212440Y0258481D02*
X0348551Y0258481D01*
X0348551Y0255282D02*
X0333442Y0255282D01*
X0335845Y0252084D02*
X0348551Y0252084D01*
X0348551Y0248885D02*
X0336164Y0248885D01*
X0334900Y0245687D02*
X0348551Y0245687D01*
X0348551Y0242488D02*
X0334900Y0242488D01*
X0335819Y0239290D02*
X0348551Y0239290D01*
X0348551Y0236091D02*
X0337053Y0236091D01*
X0337053Y0232893D02*
X0348551Y0232893D01*
X0348551Y0229694D02*
X0337053Y0229694D01*
X0337053Y0226496D02*
X0348551Y0226496D01*
X0348551Y0223297D02*
X0337053Y0223297D01*
X0334900Y0220099D02*
X0348551Y0220099D01*
X0348551Y0216900D02*
X0334900Y0216900D01*
X0336437Y0213702D02*
X0348551Y0213702D01*
X0348551Y0210503D02*
X0336462Y0210503D01*
X0336453Y0207305D02*
X0348551Y0207305D01*
X0348551Y0204106D02*
X0336462Y0204106D01*
X0336462Y0200908D02*
X0348551Y0200908D01*
X0348551Y0197709D02*
X0335903Y0197709D01*
X0334900Y0194511D02*
X0348551Y0194511D01*
X0348551Y0191312D02*
X0334900Y0191312D01*
X0334900Y0188114D02*
X0348551Y0188114D01*
X0348551Y0184915D02*
X0334900Y0184915D01*
X0334900Y0181717D02*
X0348551Y0181717D01*
X0348551Y0178518D02*
X0335533Y0178518D01*
X0335881Y0175320D02*
X0348551Y0175320D01*
X0293850Y0207305D02*
X0293464Y0207305D01*
X0294622Y0229694D02*
X0298078Y0229694D01*
X0304622Y0229694D02*
X0323147Y0229694D01*
X0323147Y0232893D02*
X0307655Y0232893D01*
X0308318Y0236091D02*
X0323147Y0236091D01*
X0324381Y0239290D02*
X0308318Y0239290D01*
X0308318Y0242488D02*
X0325300Y0242488D01*
X0325300Y0245687D02*
X0307290Y0245687D01*
X0324036Y0248885D02*
X0182371Y0248885D01*
X0171350Y0258850D02*
X0152600Y0258850D01*
X0152600Y0302600D01*
X0136350Y0302600D01*
X0136350Y0318850D01*
X0146350Y0318850D02*
X0157600Y0318850D01*
X0157600Y0268850D01*
X0171350Y0268850D01*
X0166367Y0274473D02*
X0163200Y0274473D01*
X0163200Y0277672D02*
X0175350Y0277672D01*
X0175350Y0280870D02*
X0163200Y0280870D01*
X0163200Y0284069D02*
X0175350Y0284069D01*
X0163200Y0312856D02*
X0313146Y0312856D01*
X0314042Y0316054D02*
X0163200Y0316054D01*
X0163200Y0319253D02*
X0315736Y0319253D01*
X0314256Y0316818D02*
X0314256Y0316818D01*
X0318134Y0322451D02*
X0161918Y0322451D01*
X0152306Y0325650D02*
X0321955Y0325650D01*
X0321066Y0325189D02*
X0321066Y0325189D01*
X0296911Y0290466D02*
X0295789Y0290466D01*
X0286911Y0290466D02*
X0285789Y0290466D01*
X0276911Y0290466D02*
X0275789Y0290466D01*
X0274622Y0229694D02*
X0278078Y0229694D01*
X0284622Y0229694D02*
X0288078Y0229694D01*
X0253327Y0216900D02*
X0233769Y0216900D01*
X0234631Y0213702D02*
X0251550Y0213702D01*
X0251550Y0210503D02*
X0234631Y0210503D01*
X0232600Y0207305D02*
X0253322Y0207305D01*
X0253044Y0204106D02*
X0222238Y0204106D01*
X0222237Y0204107D02*
X0221764Y0204303D01*
X0221262Y0204403D01*
X0218447Y0204403D01*
X0218447Y0198850D01*
X0223605Y0198850D01*
X0223605Y0202059D01*
X0223506Y0202561D01*
X0223310Y0203034D01*
X0223025Y0203460D01*
X0222663Y0203822D01*
X0222237Y0204107D01*
X0223605Y0200908D02*
X0252094Y0200908D01*
X0252094Y0197709D02*
X0223605Y0197709D01*
X0223605Y0198850D02*
X0218447Y0198850D01*
X0218447Y0198850D01*
X0218446Y0198850D01*
X0218447Y0198850D01*
X0218447Y0193297D01*
X0221262Y0193297D01*
X0221764Y0193397D01*
X0222237Y0193593D01*
X0222663Y0193878D01*
X0223025Y0194240D01*
X0223310Y0194666D01*
X0223506Y0195139D01*
X0223605Y0195641D01*
X0223605Y0198850D01*
X0225100Y0198850D02*
X0218446Y0198850D01*
X0218446Y0197709D02*
X0218447Y0197709D01*
X0218446Y0194511D02*
X0218447Y0194511D01*
X0218160Y0191312D02*
X0252094Y0191312D01*
X0252094Y0188114D02*
X0223999Y0188114D01*
X0223999Y0188309D02*
X0223899Y0188811D01*
X0223703Y0189284D01*
X0223419Y0189710D01*
X0223057Y0190072D01*
X0222631Y0190357D01*
X0222158Y0190553D01*
X0221655Y0190653D01*
X0218840Y0190653D01*
X0218840Y0185100D01*
X0218840Y0185100D01*
X0226350Y0185100D01*
X0223999Y0185100D02*
X0223999Y0188309D01*
X0223999Y0185100D02*
X0218840Y0185100D01*
X0218840Y0185100D01*
X0218840Y0179547D01*
X0221655Y0179547D01*
X0222158Y0179647D01*
X0222631Y0179843D01*
X0223057Y0180128D01*
X0223419Y0180490D01*
X0223703Y0180916D01*
X0223899Y0181389D01*
X0223999Y0181891D01*
X0223999Y0185100D01*
X0218840Y0185100D01*
X0218840Y0185100D01*
X0218840Y0184915D02*
X0218840Y0184915D01*
X0218840Y0181717D02*
X0218840Y0181717D01*
X0218150Y0178518D02*
X0223417Y0178518D01*
X0223069Y0175320D02*
X0218150Y0175320D01*
X0223964Y0181717D02*
X0252143Y0181717D01*
X0251550Y0178518D02*
X0234283Y0178518D01*
X0234631Y0175320D02*
X0251550Y0175320D01*
X0254050Y0172121D02*
X0234465Y0172121D01*
X0233650Y0168923D02*
X0254050Y0168923D01*
X0254250Y0184915D02*
X0223999Y0184915D01*
X0218840Y0188114D02*
X0218840Y0188114D01*
X0223206Y0194511D02*
X0252214Y0194511D01*
X0225100Y0207305D02*
X0224714Y0207305D01*
X0218447Y0204106D02*
X0218446Y0204106D01*
X0218446Y0200908D02*
X0218447Y0200908D01*
X0183044Y0204106D02*
X0152238Y0204106D01*
X0152237Y0204107D02*
X0151764Y0204303D01*
X0151262Y0204403D01*
X0148447Y0204403D01*
X0148447Y0198850D01*
X0153605Y0198850D01*
X0153605Y0202059D01*
X0153506Y0202561D01*
X0153310Y0203034D01*
X0153025Y0203460D01*
X0152663Y0203822D01*
X0152237Y0204107D01*
X0153605Y0200908D02*
X0182094Y0200908D01*
X0182094Y0197709D02*
X0153605Y0197709D01*
X0153605Y0198850D02*
X0148447Y0198850D01*
X0148447Y0198850D01*
X0148446Y0198850D01*
X0148447Y0198850D01*
X0148447Y0193297D01*
X0151262Y0193297D01*
X0151764Y0193397D01*
X0152237Y0193593D01*
X0152663Y0193878D01*
X0153025Y0194240D01*
X0153310Y0194666D01*
X0153506Y0195139D01*
X0153605Y0195641D01*
X0153605Y0198850D01*
X0155100Y0198850D02*
X0148446Y0198850D01*
X0148446Y0197709D02*
X0148447Y0197709D01*
X0148446Y0194511D02*
X0148447Y0194511D01*
X0148150Y0191312D02*
X0182094Y0191312D01*
X0182094Y0188114D02*
X0153999Y0188114D01*
X0153999Y0188309D02*
X0153899Y0188811D01*
X0153703Y0189284D01*
X0153419Y0189710D01*
X0153057Y0190072D01*
X0152631Y0190357D01*
X0152158Y0190553D01*
X0151655Y0190653D01*
X0148840Y0190653D01*
X0148840Y0185100D01*
X0148840Y0185100D01*
X0155100Y0185100D01*
X0153999Y0185100D02*
X0153999Y0188309D01*
X0153999Y0185100D02*
X0148840Y0185100D01*
X0148840Y0185100D01*
X0148840Y0179547D01*
X0151655Y0179547D01*
X0152158Y0179647D01*
X0152631Y0179843D01*
X0153057Y0180128D01*
X0153419Y0180490D01*
X0153703Y0180916D01*
X0153899Y0181389D01*
X0153999Y0181891D01*
X0153999Y0185100D01*
X0148840Y0185100D01*
X0148840Y0185100D01*
X0148840Y0184915D02*
X0148840Y0184915D01*
X0148840Y0181717D02*
X0148840Y0181717D01*
X0148150Y0178518D02*
X0153417Y0178518D01*
X0153069Y0175320D02*
X0148150Y0175320D01*
X0153964Y0181717D02*
X0182143Y0181717D01*
X0181550Y0178518D02*
X0164283Y0178518D01*
X0164631Y0175320D02*
X0181550Y0175320D01*
X0184050Y0172121D02*
X0164465Y0172121D01*
X0163650Y0168923D02*
X0184050Y0168923D01*
X0184250Y0184915D02*
X0153999Y0184915D01*
X0148840Y0188114D02*
X0148840Y0188114D01*
X0153206Y0194511D02*
X0182214Y0194511D01*
X0183322Y0207305D02*
X0162600Y0207305D01*
X0164631Y0210503D02*
X0181550Y0210503D01*
X0181550Y0213702D02*
X0164631Y0213702D01*
X0163769Y0216900D02*
X0183327Y0216900D01*
X0155100Y0207305D02*
X0154714Y0207305D01*
X0148447Y0204106D02*
X0148446Y0204106D01*
X0148446Y0200908D02*
X0148447Y0200908D01*
X0141754Y0198850D02*
X0141754Y0212600D01*
X0141360Y0212600D01*
X0141350Y0212600D01*
X0121350Y0212600D02*
X0121350Y0212100D01*
X0107477Y0232893D02*
X0006600Y0232893D01*
X0006600Y0236091D02*
X0103192Y0236091D01*
X0100637Y0239290D02*
X0006600Y0239290D01*
X0006600Y0242488D02*
X0100283Y0242488D01*
X0102107Y0245687D02*
X0006600Y0245687D01*
X0006600Y0248885D02*
X0109447Y0248885D01*
X0114508Y0252084D02*
X0006600Y0252084D01*
X0006600Y0255282D02*
X0113612Y0255282D01*
X0113612Y0258481D02*
X0006600Y0258481D01*
X0006600Y0261679D02*
X0113668Y0261679D01*
X0112212Y0264878D02*
X0006600Y0264878D01*
X0006600Y0268076D02*
X0112212Y0268076D01*
X0112763Y0271275D02*
X0061503Y0271275D01*
X0061328Y0271100D02*
X0066600Y0276372D01*
X0066600Y0283828D01*
X0061328Y0289100D01*
X0053872Y0289100D01*
X0048600Y0283828D01*
X0048600Y0276372D01*
X0053872Y0271100D01*
X0061328Y0271100D01*
X0064701Y0274473D02*
X0072479Y0274473D01*
X0072578Y0274374D02*
X0073369Y0273767D01*
X0074231Y0273269D01*
X0075152Y0272888D01*
X0076114Y0272630D01*
X0077102Y0272500D01*
X0077600Y0272500D01*
X0078098Y0272500D01*
X0079086Y0272630D01*
X0080048Y0272888D01*
X0080969Y0273269D01*
X0081831Y0273767D01*
X0082622Y0274374D01*
X0083326Y0275078D01*
X0083933Y0275869D01*
X0084431Y0276731D01*
X0084812Y0277652D01*
X0085070Y0278614D01*
X0085200Y0279602D01*
X0085200Y0280100D01*
X0085200Y0280598D01*
X0085070Y0281586D01*
X0084812Y0282548D01*
X0084431Y0283469D01*
X0083933Y0284331D01*
X0083326Y0285122D01*
X0082622Y0285826D01*
X0081831Y0286433D01*
X0080969Y0286931D01*
X0080048Y0287312D01*
X0079086Y0287570D01*
X0078098Y0287700D01*
X0077600Y0287700D01*
X0077600Y0280100D01*
X0085200Y0280100D01*
X0077600Y0280100D01*
X0077600Y0280100D01*
X0077600Y0280100D01*
X0077600Y0272500D01*
X0077600Y0280100D01*
X0077600Y0280100D01*
X0077600Y0280100D01*
X0070000Y0280100D01*
X0070000Y0280598D01*
X0070130Y0281586D01*
X0070388Y0282548D01*
X0070769Y0283469D01*
X0071267Y0284331D01*
X0071874Y0285122D01*
X0072578Y0285826D01*
X0073369Y0286433D01*
X0074231Y0286931D01*
X0075152Y0287312D01*
X0076114Y0287570D01*
X0077102Y0287700D01*
X0077600Y0287700D01*
X0077600Y0280100D01*
X0070000Y0280100D01*
X0070000Y0279602D01*
X0070130Y0278614D01*
X0070388Y0277652D01*
X0070769Y0276731D01*
X0071267Y0275869D01*
X0071874Y0275078D01*
X0072578Y0274374D01*
X0070382Y0277672D02*
X0066600Y0277672D01*
X0066600Y0280870D02*
X0070036Y0280870D01*
X0071116Y0284069D02*
X0066359Y0284069D01*
X0063160Y0287268D02*
X0075044Y0287268D01*
X0077600Y0287268D02*
X0077600Y0287268D01*
X0080156Y0287268D02*
X0108529Y0287268D01*
X0107850Y0290466D02*
X0025905Y0290466D01*
X0019698Y0290466D02*
X0006600Y0290466D01*
X0006600Y0287268D02*
X0052040Y0287268D01*
X0048841Y0284069D02*
X0006600Y0284069D01*
X0006600Y0280870D02*
X0048600Y0280870D01*
X0048600Y0277672D02*
X0006600Y0277672D01*
X0006600Y0274473D02*
X0050499Y0274473D01*
X0053697Y0271275D02*
X0006600Y0271275D01*
X0006600Y0293665D02*
X0011252Y0293665D01*
X0011066Y0293761D02*
X0011066Y0293761D01*
X0007744Y0296863D02*
X0006600Y0296863D01*
X0007086Y0297478D02*
X0007086Y0297478D01*
X0007086Y0297478D01*
X0033674Y0293665D02*
X0107850Y0293665D01*
X0107850Y0296863D02*
X0037374Y0296863D01*
X0039842Y0300062D02*
X0107850Y0300062D01*
X0107850Y0303260D02*
X0041231Y0303260D01*
X0041858Y0304704D02*
X0041858Y0304704D01*
X0042099Y0306459D02*
X0107850Y0306459D01*
X0107850Y0309657D02*
X0107033Y0309657D01*
X0100667Y0309657D02*
X0070783Y0309657D01*
X0064417Y0309657D02*
X0042539Y0309657D01*
X0042221Y0312856D02*
X0061311Y0312856D01*
X0060631Y0316054D02*
X0041616Y0316054D01*
X0041858Y0315496D02*
X0041858Y0315496D01*
X0040227Y0319253D02*
X0060631Y0319253D01*
X0060631Y0322451D02*
X0038094Y0322451D01*
X0039688Y0320492D02*
X0039688Y0320492D01*
X0036251Y0324717D02*
X0036251Y0324717D01*
X0034929Y0325650D02*
X0061644Y0325650D01*
X0077600Y0318850D02*
X0077600Y0310313D01*
X0077600Y0318850D01*
X0083168Y0318850D01*
X0077600Y0318850D01*
X0077600Y0318850D01*
X0077600Y0318850D01*
X0077600Y0316054D02*
X0077600Y0316054D01*
X0077600Y0312856D02*
X0077600Y0312856D01*
X0082285Y0312856D02*
X0097561Y0312856D01*
X0096881Y0316054D02*
X0083168Y0316054D01*
X0083168Y0319253D02*
X0096881Y0319253D01*
X0096881Y0322451D02*
X0083138Y0322451D01*
X0081644Y0325650D02*
X0097894Y0325650D01*
X0084084Y0284069D02*
X0114100Y0284069D01*
X0112358Y0280870D02*
X0085164Y0280870D01*
X0084817Y0277672D02*
X0112212Y0277672D01*
X0112214Y0274473D02*
X0082721Y0274473D01*
X0077600Y0274473D02*
X0077600Y0274473D01*
X0077600Y0277672D02*
X0077600Y0277672D01*
X0077600Y0280870D02*
X0077600Y0280870D01*
X0077600Y0284069D02*
X0077600Y0284069D01*
X0092600Y0257600D02*
X0130100Y0257600D01*
X0131350Y0258850D01*
X0141340Y0258850D01*
X0143850Y0258860D01*
X0143850Y0258860D01*
X0138297Y0258860D01*
X0138297Y0260724D01*
X0138271Y0260750D01*
X0132736Y0260750D01*
X0130678Y0261603D01*
X0130280Y0262000D01*
X0125758Y0262000D01*
X0125799Y0261902D01*
X0125899Y0261399D01*
X0125899Y0257600D01*
X0119756Y0257600D01*
X0119756Y0257600D01*
X0125899Y0257600D01*
X0125899Y0254946D01*
X0127914Y0255689D01*
X0128907Y0256100D01*
X0129030Y0256100D01*
X0129146Y0256143D01*
X0130219Y0256100D01*
X0138297Y0256100D01*
X0138297Y0258860D01*
X0143850Y0258860D01*
X0138297Y0258481D02*
X0125899Y0258481D01*
X0125899Y0255282D02*
X0126811Y0255282D01*
X0125843Y0261679D02*
X0130601Y0261679D01*
X0133850Y0266350D02*
X0141340Y0266350D01*
X0143850Y0266340D01*
X0133850Y0266350D02*
X0132600Y0267600D01*
X0119756Y0267600D01*
X0119755Y0257600D02*
X0119755Y0257600D01*
X0048000Y0207305D02*
X0006600Y0207305D01*
X0006600Y0210503D02*
X0045300Y0210503D01*
X0045300Y0213702D02*
X0006600Y0213702D01*
X0006600Y0216900D02*
X0045827Y0216900D01*
X0046077Y0204106D02*
X0006600Y0204106D01*
X0006600Y0200908D02*
X0045844Y0200908D01*
X0045844Y0197709D02*
X0006600Y0197709D01*
X0006600Y0194511D02*
X0045844Y0194511D01*
X0045844Y0191312D02*
X0006600Y0191312D01*
X0006600Y0188114D02*
X0046275Y0188114D01*
X0047841Y0184915D02*
X0006600Y0184915D01*
X0006600Y0181717D02*
X0045300Y0181717D01*
X0045300Y0178518D02*
X0006600Y0178518D01*
X0006600Y0175320D02*
X0046307Y0175320D01*
X0047800Y0172121D02*
X0006600Y0172121D01*
X0006600Y0168923D02*
X0047800Y0168923D01*
X0034586Y0165724D02*
X0006600Y0165724D01*
X0006600Y0162526D02*
X0034250Y0162526D01*
X0034250Y0159327D02*
X0006600Y0159327D01*
X0006600Y0156129D02*
X0034250Y0156129D01*
X0034250Y0152930D02*
X0006600Y0152930D01*
X0006600Y0149732D02*
X0034250Y0149732D01*
X0079504Y0044181D02*
X0100175Y0044181D01*
X0101278Y0040982D02*
X0080934Y0040982D01*
X0080541Y0037784D02*
X0106080Y0037784D01*
X0075100Y0037784D02*
X0075100Y0037784D01*
X0147600Y0037784D02*
X0147600Y0037784D01*
X0153041Y0037784D02*
X0176080Y0037784D01*
X0174309Y0040982D02*
X0153434Y0040982D01*
X0152004Y0044181D02*
X0173009Y0044181D01*
X0215100Y0037784D02*
X0215100Y0037784D01*
X0220541Y0037784D02*
X0244830Y0037784D01*
X0244250Y0040982D02*
X0220934Y0040982D01*
X0219504Y0044181D02*
X0244250Y0044181D01*
X0331235Y0042553D02*
X0331235Y0042553D01*
X0336669Y0042182D02*
X0336669Y0042182D01*
X0340044Y0040982D02*
X0348551Y0040982D01*
X0348551Y0037784D02*
X0345448Y0037784D01*
X0346251Y0037217D02*
X0346251Y0037217D01*
X0346251Y0037217D01*
X0348392Y0034585D02*
X0348551Y0034585D01*
X0341801Y0040358D02*
X0341801Y0040358D01*
D31*
X0330100Y0250100D03*
X0112600Y0236350D03*
X0106350Y0241350D03*
D32*
X0121350Y0212600D02*
X0141350Y0212600D01*
X0141350Y0185100D01*
X0141350Y0165100D01*
X0141360Y0185100D02*
X0141350Y0185100D01*
X0155100Y0185100D02*
X0177600Y0185100D01*
X0177600Y0198850D02*
X0155100Y0198850D01*
X0107600Y0198850D02*
X0107600Y0200100D01*
X0085100Y0200100D01*
X0070110Y0213850D02*
X0070110Y0185100D01*
X0070100Y0183850D02*
X0070100Y0165100D01*
X0085100Y0185100D02*
X0107600Y0185100D01*
X0070110Y0213850D02*
X0052600Y0213850D01*
X0211360Y0212600D02*
X0211360Y0185100D01*
X0211350Y0186350D02*
X0211350Y0165100D01*
X0226350Y0185100D02*
X0246350Y0185100D01*
X0246350Y0198850D02*
X0246350Y0200100D01*
X0246350Y0198850D02*
X0225100Y0198850D01*
X0280110Y0210100D02*
X0280110Y0185100D01*
X0280100Y0185100D01*
X0280100Y0165100D01*
X0295100Y0185100D02*
X0317600Y0185100D01*
X0317600Y0187600D01*
X0317600Y0198850D02*
X0295100Y0198850D01*
X0280110Y0210100D02*
X0280110Y0212600D01*
D33*
X0280110Y0210100D02*
X0280110Y0198850D01*
X0280504Y0198850D01*
X0211754Y0198850D02*
X0211360Y0198850D01*
X0211360Y0185100D01*
X0171350Y0238850D02*
X0118850Y0238850D01*
X0112600Y0236350D01*
X0106350Y0241350D02*
X0130100Y0250100D01*
X0175100Y0250100D01*
X0181350Y0256350D01*
X0181350Y0270100D01*
X0181350Y0298850D01*
X0120100Y0290100D02*
X0120100Y0277600D01*
X0120100Y0290100D02*
X0113850Y0290100D01*
X0113850Y0318850D01*
X0141360Y0198850D02*
X0141754Y0198850D01*
D34*
X0188850Y0212100D02*
X0188850Y0212600D01*
X0211360Y0212600D01*
X0258850Y0212600D02*
X0258850Y0212100D01*
X0258850Y0212600D02*
X0280110Y0212600D01*
X0070504Y0200100D02*
X0070110Y0200100D01*
X0052600Y0213350D02*
X0052600Y0213850D01*
D35*
X0057600Y0142600D03*
X0060100Y0137600D03*
X0077600Y0136350D03*
X0082600Y0142600D03*
X0128850Y0142600D03*
X0133850Y0136350D03*
X0150100Y0136350D03*
X0153850Y0142600D03*
X0197600Y0136350D03*
X0200100Y0142600D03*
X0222600Y0142600D03*
X0225100Y0136350D03*
X0266350Y0136350D03*
X0268850Y0142600D03*
X0291350Y0142600D03*
X0291350Y0136350D03*
D36*
X0317600Y0171350D02*
X0317600Y0187600D01*
X0317600Y0198850D01*
X0317600Y0222600D01*
X0246350Y0222600D01*
X0246350Y0200100D01*
X0246350Y0185100D01*
X0246350Y0171350D01*
X0246350Y0222600D02*
X0177600Y0222600D01*
X0177600Y0198850D01*
X0177600Y0185100D01*
X0177600Y0171350D01*
X0177600Y0222600D02*
X0098850Y0222600D01*
X0092600Y0222600D01*
X0092600Y0257600D01*
X0119756Y0257600D01*
X0092600Y0257600D02*
X0077600Y0257600D01*
X0077600Y0280100D01*
X0077600Y0318850D01*
D37*
X0098850Y0222600D02*
X0107600Y0222600D01*
X0107600Y0198850D01*
X0107600Y0185100D01*
X0107600Y0172600D01*
D38*
X0119756Y0277600D02*
X0120100Y0277600D01*
D39*
X0087600Y0213850D03*
X0087600Y0175100D03*
X0158850Y0175100D03*
X0158850Y0212600D03*
X0228850Y0212600D03*
X0228850Y0175100D03*
X0297600Y0175100D03*
X0330100Y0175100D03*
X0297600Y0212600D03*
M02*
