G75*
%MOIN*%
%OFA0B0*%
%FSLAX25Y25*%
%IPPOS*%
%LPD*%
%AMOC8*
5,1,8,0,0,1.08239X$1,22.5*
%
%ADD10C,0.00000*%
%ADD11C,0.10000*%
%ADD12OC8,0.10000*%
%ADD13R,0.05937X0.05937*%
%ADD14C,0.06600*%
%ADD15OC8,0.06600*%
%ADD16C,0.25400*%
%ADD17C,0.05937*%
%ADD18C,0.07000*%
%ADD19R,0.07087X0.07087*%
%ADD20OC8,0.07087*%
%ADD21C,0.03200*%
%ADD22C,0.02600*%
%ADD23C,0.04134*%
%ADD24C,0.03562*%
%ADD25C,0.02400*%
%ADD26C,0.01200*%
%ADD27C,0.07000*%
%ADD28C,0.06600*%
%ADD29R,0.03562X0.03562*%
%ADD30C,0.01600*%
D10*
X0002600Y0002600D02*
X0002600Y0330061D01*
X0352551Y0330061D01*
X0352551Y0002600D01*
X0002600Y0002600D01*
D11*
X0077600Y0280100D03*
D12*
X0057600Y0280100D03*
D13*
X0065100Y0110100D03*
X0137600Y0110100D03*
X0205100Y0110100D03*
X0275100Y0110100D03*
D14*
X0275100Y0100100D03*
X0275100Y0090100D03*
X0275100Y0080100D03*
X0275100Y0070100D03*
X0275100Y0060100D03*
X0275100Y0050100D03*
X0275100Y0040100D03*
X0285100Y0040100D03*
X0285100Y0050100D03*
X0285100Y0060100D03*
X0285100Y0070100D03*
X0285100Y0080100D03*
X0285100Y0090100D03*
X0285100Y0100100D03*
X0285100Y0110100D03*
X0215100Y0110100D03*
X0215100Y0100100D03*
X0215100Y0090100D03*
X0215100Y0080100D03*
X0215100Y0070100D03*
X0215100Y0060100D03*
X0215100Y0050100D03*
X0215100Y0040100D03*
X0205100Y0040100D03*
X0205100Y0050100D03*
X0205100Y0060100D03*
X0205100Y0070100D03*
X0205100Y0080100D03*
X0205100Y0090100D03*
X0205100Y0100100D03*
X0147600Y0100100D03*
X0147600Y0090100D03*
X0147600Y0080100D03*
X0147600Y0070100D03*
X0147600Y0060100D03*
X0147600Y0050100D03*
X0147600Y0040100D03*
X0137600Y0040100D03*
X0137600Y0050100D03*
X0137600Y0060100D03*
X0137600Y0070100D03*
X0137600Y0080100D03*
X0137600Y0090100D03*
X0137600Y0100100D03*
X0147600Y0110100D03*
X0075100Y0110100D03*
X0075100Y0100100D03*
X0075100Y0090100D03*
X0075100Y0080100D03*
X0075100Y0070100D03*
X0075100Y0060100D03*
X0075100Y0050100D03*
X0075100Y0040100D03*
X0065100Y0040100D03*
X0065100Y0050100D03*
X0065100Y0060100D03*
X0065100Y0070100D03*
X0065100Y0080100D03*
X0065100Y0090100D03*
X0065100Y0100100D03*
D15*
X0052600Y0179350D03*
X0052600Y0213350D03*
X0121350Y0212100D03*
X0121350Y0178100D03*
X0188850Y0178100D03*
X0188850Y0212100D03*
X0258850Y0212100D03*
X0258850Y0178100D03*
D16*
X0332600Y0308850D03*
X0332600Y0022600D03*
X0022600Y0022600D03*
X0022600Y0310100D03*
D17*
X0067600Y0315881D02*
X0067600Y0321819D01*
X0077600Y0321819D02*
X0077600Y0315881D01*
X0103850Y0315881D02*
X0103850Y0321819D01*
X0113850Y0321819D02*
X0113850Y0315881D01*
X0136350Y0315881D02*
X0136350Y0321819D01*
X0146350Y0321819D02*
X0146350Y0315881D01*
X0171350Y0301819D02*
X0171350Y0295881D01*
X0181350Y0295881D02*
X0181350Y0301819D01*
X0191350Y0301819D02*
X0191350Y0295881D01*
X0201350Y0295881D02*
X0201350Y0301819D01*
X0199631Y0270100D02*
X0205569Y0270100D01*
X0205569Y0260100D02*
X0199631Y0260100D01*
X0201350Y0241819D02*
X0201350Y0235881D01*
X0191350Y0235881D02*
X0191350Y0241819D01*
X0181350Y0241819D02*
X0181350Y0235881D01*
X0171350Y0235881D02*
X0171350Y0241819D01*
X0271350Y0241819D02*
X0271350Y0235881D01*
X0281350Y0235881D02*
X0281350Y0241819D01*
X0291350Y0241819D02*
X0291350Y0235881D01*
X0301350Y0235881D02*
X0301350Y0241819D01*
X0301350Y0295881D02*
X0301350Y0301819D01*
X0291350Y0301819D02*
X0291350Y0295881D01*
X0281350Y0295881D02*
X0281350Y0301819D01*
X0271350Y0301819D02*
X0271350Y0295881D01*
X0339631Y0160100D02*
X0345569Y0160100D01*
X0345569Y0150100D02*
X0339631Y0150100D01*
D18*
X0171350Y0258850D03*
X0171350Y0268850D03*
D19*
X0119756Y0257600D03*
D20*
X0119756Y0267600D03*
X0119756Y0277600D03*
D21*
X0112212Y0277672D02*
X0086336Y0277672D01*
X0086600Y0278310D02*
X0085230Y0275002D01*
X0082698Y0272470D01*
X0079390Y0271100D01*
X0075810Y0271100D01*
X0072502Y0272470D01*
X0069970Y0275002D01*
X0068600Y0278310D01*
X0068600Y0281890D01*
X0069970Y0285198D01*
X0072502Y0287730D01*
X0075810Y0289100D01*
X0079390Y0289100D01*
X0082698Y0287730D01*
X0085230Y0285198D01*
X0086600Y0281890D01*
X0086600Y0278310D01*
X0086600Y0280870D02*
X0112358Y0280870D01*
X0112212Y0280725D02*
X0112212Y0274475D01*
X0115078Y0271610D01*
X0113612Y0270145D01*
X0113612Y0267600D01*
X0119755Y0267600D01*
X0113612Y0267600D01*
X0113612Y0265100D01*
X0018608Y0265100D01*
X0015852Y0263958D01*
X0013742Y0261848D01*
X0012600Y0259092D01*
X0012600Y0121108D01*
X0013742Y0118352D01*
X0015852Y0116242D01*
X0018608Y0115100D01*
X0045300Y0115100D01*
X0045300Y0068648D01*
X0046411Y0065965D01*
X0048465Y0063911D01*
X0051148Y0062800D01*
X0058317Y0062800D01*
X0057800Y0061552D01*
X0057800Y0058648D01*
X0058911Y0055965D01*
X0059776Y0055100D01*
X0058911Y0054235D01*
X0057800Y0051552D01*
X0057800Y0048648D01*
X0058911Y0045965D01*
X0059776Y0045100D01*
X0058911Y0044235D01*
X0057800Y0041552D01*
X0057800Y0038648D01*
X0058911Y0035965D01*
X0060965Y0033911D01*
X0063648Y0032800D01*
X0066552Y0032800D01*
X0069235Y0033911D01*
X0070100Y0034776D01*
X0070965Y0033911D01*
X0073648Y0032800D01*
X0091552Y0032800D01*
X0094235Y0033911D01*
X0096289Y0035965D01*
X0097400Y0038648D01*
X0097400Y0108464D01*
X0117800Y0108664D01*
X0117800Y0068648D01*
X0118911Y0065965D01*
X0120965Y0063911D01*
X0123648Y0062800D01*
X0130817Y0062800D01*
X0130300Y0061552D01*
X0130300Y0058648D01*
X0131411Y0055965D01*
X0132276Y0055100D01*
X0131411Y0054235D01*
X0130300Y0051552D01*
X0130300Y0048648D01*
X0131411Y0045965D01*
X0132276Y0045100D01*
X0131411Y0044235D01*
X0130300Y0041552D01*
X0130300Y0038648D01*
X0131411Y0035965D01*
X0133465Y0033911D01*
X0136148Y0032800D01*
X0139052Y0032800D01*
X0141735Y0033911D01*
X0142600Y0034776D01*
X0143465Y0033911D01*
X0146148Y0032800D01*
X0161552Y0032800D01*
X0164235Y0033911D01*
X0166289Y0035965D01*
X0167400Y0038648D01*
X0167400Y0109150D01*
X0185300Y0109325D01*
X0185300Y0068648D01*
X0186411Y0065965D01*
X0188465Y0063911D01*
X0191148Y0062800D01*
X0198317Y0062800D01*
X0197800Y0061552D01*
X0197800Y0058648D01*
X0198911Y0055965D01*
X0199776Y0055100D01*
X0198911Y0054235D01*
X0197800Y0051552D01*
X0197800Y0048648D01*
X0198911Y0045965D01*
X0199776Y0045100D01*
X0198911Y0044235D01*
X0197800Y0041552D01*
X0197800Y0038648D01*
X0198911Y0035965D01*
X0200965Y0033911D01*
X0203648Y0032800D01*
X0206552Y0032800D01*
X0209235Y0033911D01*
X0210100Y0034776D01*
X0210965Y0033911D01*
X0213648Y0032800D01*
X0229052Y0032800D01*
X0231735Y0033911D01*
X0233789Y0035965D01*
X0234900Y0038648D01*
X0234900Y0109812D01*
X0252800Y0109987D01*
X0252800Y0068648D01*
X0253911Y0065965D01*
X0255965Y0063911D01*
X0258648Y0062800D01*
X0268317Y0062800D01*
X0267800Y0061552D01*
X0267800Y0058648D01*
X0268911Y0055965D01*
X0269776Y0055100D01*
X0268911Y0054235D01*
X0267800Y0051552D01*
X0267800Y0048648D01*
X0268911Y0045965D01*
X0269776Y0045100D01*
X0268911Y0044235D01*
X0267800Y0041552D01*
X0267800Y0038648D01*
X0268911Y0035965D01*
X0270965Y0033911D01*
X0273648Y0032800D01*
X0276552Y0032800D01*
X0279235Y0033911D01*
X0280100Y0034776D01*
X0280965Y0033911D01*
X0283648Y0032800D01*
X0301552Y0032800D01*
X0304235Y0033911D01*
X0306289Y0035965D01*
X0307400Y0038648D01*
X0307400Y0111074D01*
X0307706Y0111200D01*
X0307722Y0111217D01*
X0307744Y0111226D01*
X0308369Y0111863D01*
X0309000Y0112494D01*
X0309009Y0112516D01*
X0309025Y0112533D01*
X0309358Y0113360D01*
X0309700Y0114185D01*
X0309700Y0114208D01*
X0309709Y0114230D01*
X0309700Y0115122D01*
X0309700Y0131150D01*
X0333634Y0131150D01*
X0335546Y0131942D01*
X0337008Y0133404D01*
X0337800Y0135316D01*
X0337800Y0143316D01*
X0338245Y0143131D01*
X0346955Y0143131D01*
X0348551Y0143793D01*
X0348551Y0034390D01*
X0346251Y0037217D01*
X0341801Y0040358D01*
X0336669Y0042182D01*
X0331235Y0042553D01*
X0325902Y0041445D01*
X0321066Y0038939D01*
X0317086Y0035222D01*
X0317086Y0035222D01*
X0314256Y0030568D01*
X0312786Y0025323D01*
X0312786Y0019877D01*
X0314256Y0014632D01*
X0317086Y0009978D01*
X0320703Y0006600D01*
X0034291Y0006600D01*
X0036251Y0007983D01*
X0036251Y0007983D01*
X0036251Y0007983D01*
X0039688Y0012208D01*
X0039688Y0012208D01*
X0041858Y0017204D01*
X0042600Y0022600D01*
X0041858Y0027996D01*
X0039688Y0032992D01*
X0036251Y0037217D01*
X0031801Y0040358D01*
X0026669Y0042182D01*
X0021235Y0042553D01*
X0015902Y0041445D01*
X0011066Y0038939D01*
X0007086Y0035222D01*
X0007086Y0035222D01*
X0006600Y0034423D01*
X0006600Y0298277D01*
X0007086Y0297478D01*
X0011066Y0293761D01*
X0015902Y0291255D01*
X0015902Y0291255D01*
X0021235Y0290147D01*
X0021235Y0290147D01*
X0026669Y0290518D01*
X0031801Y0292342D01*
X0036251Y0295483D01*
X0036251Y0295483D01*
X0036251Y0295483D01*
X0039688Y0299708D01*
X0039688Y0299708D01*
X0041858Y0304704D01*
X0042600Y0310100D01*
X0041858Y0315496D01*
X0039688Y0320492D01*
X0036251Y0324717D01*
X0034347Y0326061D01*
X0063967Y0326061D01*
X0063353Y0325446D01*
X0062837Y0324737D01*
X0062439Y0323956D01*
X0062169Y0323122D01*
X0062031Y0322257D01*
X0062031Y0318850D01*
X0062031Y0315443D01*
X0062169Y0314578D01*
X0062439Y0313744D01*
X0062837Y0312963D01*
X0063353Y0312254D01*
X0063972Y0311634D01*
X0064681Y0311119D01*
X0065462Y0310721D01*
X0066296Y0310450D01*
X0067162Y0310313D01*
X0067600Y0310313D01*
X0068038Y0310313D01*
X0068904Y0310450D01*
X0069738Y0310721D01*
X0070519Y0311119D01*
X0071228Y0311634D01*
X0071644Y0312051D01*
X0071692Y0311934D01*
X0073653Y0309974D01*
X0076214Y0308913D01*
X0078986Y0308913D01*
X0081547Y0309974D01*
X0083508Y0311934D01*
X0084568Y0314495D01*
X0084568Y0323205D01*
X0083508Y0325766D01*
X0083213Y0326061D01*
X0100217Y0326061D01*
X0099603Y0325446D01*
X0099087Y0324737D01*
X0098689Y0323956D01*
X0098419Y0323122D01*
X0098281Y0322257D01*
X0098281Y0318850D01*
X0098281Y0315443D01*
X0098419Y0314578D01*
X0098689Y0313744D01*
X0099087Y0312963D01*
X0099603Y0312254D01*
X0100222Y0311634D01*
X0100931Y0311119D01*
X0101712Y0310721D01*
X0102546Y0310450D01*
X0103412Y0310313D01*
X0103850Y0310313D01*
X0104288Y0310313D01*
X0105154Y0310450D01*
X0105988Y0310721D01*
X0106769Y0311119D01*
X0107478Y0311634D01*
X0107894Y0312051D01*
X0107942Y0311934D01*
X0109903Y0309974D01*
X0112464Y0308913D01*
X0115236Y0308913D01*
X0117797Y0309974D01*
X0119758Y0311934D01*
X0120818Y0314495D01*
X0120818Y0323205D01*
X0119758Y0325766D01*
X0119463Y0326061D01*
X0130737Y0326061D01*
X0130442Y0325766D01*
X0129381Y0323205D01*
X0129381Y0314495D01*
X0130442Y0311934D01*
X0132403Y0309974D01*
X0134964Y0308913D01*
X0137736Y0308913D01*
X0140297Y0309974D01*
X0141350Y0311027D01*
X0142403Y0309974D01*
X0144964Y0308913D01*
X0147736Y0308913D01*
X0150297Y0309974D01*
X0152258Y0311934D01*
X0153318Y0314495D01*
X0153318Y0323205D01*
X0152258Y0325766D01*
X0151963Y0326061D01*
X0322748Y0326061D01*
X0321066Y0325189D01*
X0317086Y0321472D01*
X0314256Y0316818D01*
X0312786Y0311573D01*
X0312786Y0306127D01*
X0314256Y0300882D01*
X0317086Y0296228D01*
X0321066Y0292511D01*
X0325902Y0290005D01*
X0325902Y0290005D01*
X0331235Y0288897D01*
X0331235Y0288897D01*
X0336669Y0289268D01*
X0341801Y0291092D01*
X0346251Y0294233D01*
X0346251Y0294233D01*
X0346251Y0294233D01*
X0348551Y0297060D01*
X0348551Y0166407D01*
X0346955Y0167068D01*
X0338245Y0167068D01*
X0335684Y0166008D01*
X0334977Y0165300D01*
X0326566Y0165300D01*
X0324654Y0164508D01*
X0323192Y0163046D01*
X0322400Y0161134D01*
X0322400Y0147800D01*
X0293903Y0147800D01*
X0292500Y0148381D01*
X0290200Y0148381D01*
X0288075Y0147501D01*
X0286449Y0145875D01*
X0285569Y0143750D01*
X0285569Y0141450D01*
X0286387Y0139475D01*
X0285569Y0137500D01*
X0285569Y0137009D01*
X0272131Y0136877D01*
X0272131Y0137500D01*
X0272060Y0137672D01*
X0272125Y0137699D01*
X0273751Y0139325D01*
X0274631Y0141450D01*
X0274631Y0143750D01*
X0273751Y0145875D01*
X0272125Y0147501D01*
X0270000Y0148381D01*
X0267700Y0148381D01*
X0266297Y0147800D01*
X0225153Y0147800D01*
X0223750Y0148381D01*
X0221450Y0148381D01*
X0219325Y0147501D01*
X0217699Y0145875D01*
X0216819Y0143750D01*
X0216819Y0141450D01*
X0217699Y0139325D01*
X0219325Y0137699D01*
X0219390Y0137672D01*
X0219319Y0137500D01*
X0219319Y0136359D01*
X0203381Y0136203D01*
X0203381Y0137500D01*
X0203310Y0137672D01*
X0203375Y0137699D01*
X0205001Y0139325D01*
X0205881Y0141450D01*
X0205881Y0143750D01*
X0205001Y0145875D01*
X0203375Y0147501D01*
X0201250Y0148381D01*
X0198950Y0148381D01*
X0197547Y0147800D01*
X0156403Y0147800D01*
X0155000Y0148381D01*
X0152700Y0148381D01*
X0150575Y0147501D01*
X0148949Y0145875D01*
X0148069Y0143750D01*
X0148069Y0141766D01*
X0146825Y0141251D01*
X0145199Y0139625D01*
X0144319Y0137500D01*
X0144319Y0135624D01*
X0139631Y0135578D01*
X0139631Y0137500D01*
X0138751Y0139625D01*
X0137125Y0141251D01*
X0135000Y0142131D01*
X0134631Y0142131D01*
X0134631Y0143750D01*
X0133751Y0145875D01*
X0132125Y0147501D01*
X0130000Y0148381D01*
X0127700Y0148381D01*
X0126297Y0147800D01*
X0085153Y0147800D01*
X0083750Y0148381D01*
X0081450Y0148381D01*
X0079325Y0147501D01*
X0077699Y0145875D01*
X0076819Y0143750D01*
X0076819Y0142131D01*
X0076450Y0142131D01*
X0074325Y0141251D01*
X0072699Y0139625D01*
X0071819Y0137500D01*
X0071819Y0135200D01*
X0071937Y0134914D01*
X0065218Y0134848D01*
X0065881Y0136450D01*
X0065881Y0138750D01*
X0065001Y0140875D01*
X0063381Y0142495D01*
X0063381Y0143750D01*
X0062501Y0145875D01*
X0060875Y0147501D01*
X0058750Y0148381D01*
X0056450Y0148381D01*
X0055047Y0147800D01*
X0039050Y0147800D01*
X0039050Y0231150D01*
X0109300Y0231150D01*
X0111393Y0230283D01*
X0113807Y0230283D01*
X0116037Y0231207D01*
X0117743Y0232913D01*
X0118667Y0235143D01*
X0118667Y0237557D01*
X0117743Y0239787D01*
X0116037Y0241493D01*
X0113807Y0242417D01*
X0112417Y0242417D01*
X0112417Y0242557D01*
X0111493Y0244787D01*
X0110775Y0245505D01*
X0110758Y0245546D01*
X0109296Y0247008D01*
X0107384Y0247800D01*
X0105316Y0247800D01*
X0103404Y0247008D01*
X0102946Y0246550D01*
X0027816Y0246550D01*
X0027600Y0246461D01*
X0027600Y0250100D01*
X0115312Y0250100D01*
X0115417Y0250057D01*
X0124094Y0250057D01*
X0125565Y0250666D01*
X0126690Y0251791D01*
X0127299Y0253261D01*
X0127299Y0261939D01*
X0126690Y0263409D01*
X0125565Y0264534D01*
X0125433Y0264589D01*
X0125899Y0265055D01*
X0125899Y0267600D01*
X0125899Y0270145D01*
X0124433Y0271610D01*
X0125223Y0272400D01*
X0164703Y0272400D01*
X0163850Y0270342D01*
X0163850Y0267358D01*
X0164992Y0264602D01*
X0165743Y0263850D01*
X0164992Y0263098D01*
X0163850Y0260342D01*
X0163850Y0257358D01*
X0164992Y0254602D01*
X0167102Y0252492D01*
X0169858Y0251350D01*
X0172842Y0251350D01*
X0173847Y0251766D01*
X0170867Y0248787D01*
X0169964Y0248787D01*
X0167403Y0247726D01*
X0165442Y0245766D01*
X0164381Y0243205D01*
X0164381Y0234495D01*
X0165442Y0231934D01*
X0167403Y0229974D01*
X0169964Y0228913D01*
X0172736Y0228913D01*
X0175297Y0229974D01*
X0176350Y0231027D01*
X0177403Y0229974D01*
X0179964Y0228913D01*
X0182736Y0228913D01*
X0185297Y0229974D01*
X0186350Y0231027D01*
X0187403Y0229974D01*
X0189964Y0228913D01*
X0192736Y0228913D01*
X0195297Y0229974D01*
X0196350Y0231027D01*
X0197403Y0229974D01*
X0199964Y0228913D01*
X0202736Y0228913D01*
X0205297Y0229974D01*
X0207258Y0231934D01*
X0208318Y0234495D01*
X0208318Y0243205D01*
X0207258Y0245766D01*
X0205297Y0247726D01*
X0202736Y0248787D01*
X0199964Y0248787D01*
X0197403Y0247726D01*
X0196350Y0246673D01*
X0195297Y0247726D01*
X0192736Y0248787D01*
X0189964Y0248787D01*
X0187403Y0247726D01*
X0186350Y0246673D01*
X0185472Y0247552D01*
X0192420Y0254500D01*
X0195377Y0254500D01*
X0195684Y0254192D01*
X0198245Y0253131D01*
X0206955Y0253131D01*
X0209516Y0254192D01*
X0211476Y0256153D01*
X0212537Y0258714D01*
X0212537Y0261486D01*
X0211476Y0264047D01*
X0210423Y0265100D01*
X0211476Y0266153D01*
X0212537Y0268714D01*
X0212537Y0271486D01*
X0212158Y0272400D01*
X0296150Y0272400D01*
X0296150Y0246873D01*
X0295297Y0247726D01*
X0292736Y0248787D01*
X0289964Y0248787D01*
X0287403Y0247726D01*
X0286350Y0246673D01*
X0285297Y0247726D01*
X0282736Y0248787D01*
X0279964Y0248787D01*
X0277403Y0247726D01*
X0276350Y0246673D01*
X0275297Y0247726D01*
X0272736Y0248787D01*
X0269964Y0248787D01*
X0267403Y0247726D01*
X0265442Y0245766D01*
X0264381Y0243205D01*
X0264381Y0234495D01*
X0265442Y0231934D01*
X0267403Y0229974D01*
X0269964Y0228913D01*
X0272736Y0228913D01*
X0275297Y0229974D01*
X0276350Y0231027D01*
X0277403Y0229974D01*
X0279964Y0228913D01*
X0282736Y0228913D01*
X0285297Y0229974D01*
X0286350Y0231027D01*
X0287403Y0229974D01*
X0289964Y0228913D01*
X0292736Y0228913D01*
X0295297Y0229974D01*
X0296350Y0231027D01*
X0297403Y0229974D01*
X0299964Y0228913D01*
X0302736Y0228913D01*
X0305297Y0229974D01*
X0307258Y0231934D01*
X0308318Y0234495D01*
X0308318Y0243205D01*
X0307258Y0245766D01*
X0306550Y0246473D01*
X0306550Y0278634D01*
X0305758Y0280546D01*
X0304296Y0282008D01*
X0302384Y0282800D01*
X0125223Y0282800D01*
X0122880Y0285143D01*
X0116631Y0285143D01*
X0112212Y0280725D01*
X0115557Y0284069D02*
X0085698Y0284069D01*
X0083160Y0287268D02*
X0348551Y0287268D01*
X0348551Y0290466D02*
X0340039Y0290466D01*
X0341801Y0291092D02*
X0341801Y0291092D01*
X0345445Y0293665D02*
X0348551Y0293665D01*
X0348551Y0296863D02*
X0348391Y0296863D01*
X0348551Y0284069D02*
X0123954Y0284069D01*
X0112214Y0274473D02*
X0084701Y0274473D01*
X0079813Y0271275D02*
X0114743Y0271275D01*
X0113612Y0268076D02*
X0006600Y0268076D01*
X0006600Y0264878D02*
X0018072Y0264878D01*
X0013672Y0261679D02*
X0006600Y0261679D01*
X0006600Y0258481D02*
X0012600Y0258481D01*
X0012600Y0255282D02*
X0006600Y0255282D01*
X0006600Y0252084D02*
X0012600Y0252084D01*
X0012600Y0248885D02*
X0006600Y0248885D01*
X0006600Y0245687D02*
X0012600Y0245687D01*
X0012600Y0242488D02*
X0006600Y0242488D01*
X0006600Y0239290D02*
X0012600Y0239290D01*
X0012600Y0236091D02*
X0006600Y0236091D01*
X0006600Y0232893D02*
X0012600Y0232893D01*
X0012600Y0229694D02*
X0006600Y0229694D01*
X0006600Y0226496D02*
X0012600Y0226496D01*
X0012600Y0223297D02*
X0006600Y0223297D01*
X0006600Y0220099D02*
X0012600Y0220099D01*
X0012600Y0216900D02*
X0006600Y0216900D01*
X0006600Y0213702D02*
X0012600Y0213702D01*
X0012600Y0210503D02*
X0006600Y0210503D01*
X0006600Y0207305D02*
X0012600Y0207305D01*
X0012600Y0204106D02*
X0006600Y0204106D01*
X0006600Y0200908D02*
X0012600Y0200908D01*
X0012600Y0197709D02*
X0006600Y0197709D01*
X0006600Y0194511D02*
X0012600Y0194511D01*
X0012600Y0191312D02*
X0006600Y0191312D01*
X0006600Y0188114D02*
X0012600Y0188114D01*
X0012600Y0184915D02*
X0006600Y0184915D01*
X0006600Y0181717D02*
X0012600Y0181717D01*
X0012600Y0178518D02*
X0006600Y0178518D01*
X0006600Y0175320D02*
X0012600Y0175320D01*
X0012600Y0172121D02*
X0006600Y0172121D01*
X0006600Y0168923D02*
X0012600Y0168923D01*
X0012600Y0165724D02*
X0006600Y0165724D01*
X0006600Y0162526D02*
X0012600Y0162526D01*
X0012600Y0159327D02*
X0006600Y0159327D01*
X0006600Y0156129D02*
X0012600Y0156129D01*
X0012600Y0152930D02*
X0006600Y0152930D01*
X0006600Y0149732D02*
X0012600Y0149732D01*
X0012600Y0146533D02*
X0006600Y0146533D01*
X0006600Y0143334D02*
X0012600Y0143334D01*
X0012600Y0140136D02*
X0006600Y0140136D01*
X0006600Y0136937D02*
X0012600Y0136937D01*
X0012600Y0133739D02*
X0006600Y0133739D01*
X0006600Y0130540D02*
X0012600Y0130540D01*
X0012600Y0127342D02*
X0006600Y0127342D01*
X0006600Y0124143D02*
X0012600Y0124143D01*
X0012668Y0120945D02*
X0006600Y0120945D01*
X0006600Y0117746D02*
X0014347Y0117746D01*
X0006600Y0114548D02*
X0045300Y0114548D01*
X0045300Y0111349D02*
X0006600Y0111349D01*
X0006600Y0108151D02*
X0045300Y0108151D01*
X0045300Y0104952D02*
X0006600Y0104952D01*
X0006600Y0101754D02*
X0045300Y0101754D01*
X0045300Y0098555D02*
X0006600Y0098555D01*
X0006600Y0095357D02*
X0045300Y0095357D01*
X0045300Y0092158D02*
X0006600Y0092158D01*
X0006600Y0088960D02*
X0045300Y0088960D01*
X0045300Y0085761D02*
X0006600Y0085761D01*
X0006600Y0082563D02*
X0045300Y0082563D01*
X0045300Y0079364D02*
X0006600Y0079364D01*
X0006600Y0076166D02*
X0045300Y0076166D01*
X0045300Y0072967D02*
X0006600Y0072967D01*
X0006600Y0069769D02*
X0045300Y0069769D01*
X0046161Y0066570D02*
X0006600Y0066570D01*
X0006600Y0063372D02*
X0049768Y0063372D01*
X0057800Y0060173D02*
X0006600Y0060173D01*
X0006600Y0056975D02*
X0058493Y0056975D01*
X0058721Y0053776D02*
X0006600Y0053776D01*
X0006600Y0050578D02*
X0057800Y0050578D01*
X0058326Y0047379D02*
X0006600Y0047379D01*
X0006600Y0044181D02*
X0058889Y0044181D01*
X0057800Y0040982D02*
X0030044Y0040982D01*
X0031801Y0040358D02*
X0031801Y0040358D01*
X0035448Y0037784D02*
X0058158Y0037784D01*
X0060291Y0034585D02*
X0038392Y0034585D01*
X0039688Y0032992D02*
X0039688Y0032992D01*
X0040386Y0031387D02*
X0314754Y0031387D01*
X0314256Y0030568D02*
X0314256Y0030568D01*
X0313589Y0028188D02*
X0041775Y0028188D01*
X0041858Y0027996D02*
X0041858Y0027996D01*
X0042272Y0024990D02*
X0312786Y0024990D01*
X0312786Y0021791D02*
X0042489Y0021791D01*
X0042049Y0018593D02*
X0313146Y0018593D01*
X0314042Y0015394D02*
X0041072Y0015394D01*
X0041858Y0017204D02*
X0041858Y0017204D01*
X0039678Y0012196D02*
X0315737Y0012196D01*
X0317086Y0009978D02*
X0317086Y0009978D01*
X0317086Y0009978D01*
X0318136Y0008997D02*
X0037076Y0008997D01*
X0036251Y0037217D02*
X0036251Y0037217D01*
X0036251Y0037217D01*
X0026669Y0042182D02*
X0026669Y0042182D01*
X0021235Y0042553D02*
X0021235Y0042553D01*
X0015902Y0041445D02*
X0015902Y0041445D01*
X0015009Y0040982D02*
X0006600Y0040982D01*
X0006600Y0037784D02*
X0009829Y0037784D01*
X0011066Y0038939D02*
X0011066Y0038939D01*
X0006699Y0034585D02*
X0006600Y0034585D01*
X0069909Y0034585D02*
X0070291Y0034585D01*
X0094909Y0034585D02*
X0132791Y0034585D01*
X0130658Y0037784D02*
X0097042Y0037784D01*
X0097400Y0040982D02*
X0130300Y0040982D01*
X0131389Y0044181D02*
X0097400Y0044181D01*
X0097400Y0047379D02*
X0130826Y0047379D01*
X0130300Y0050578D02*
X0097400Y0050578D01*
X0097400Y0053776D02*
X0131221Y0053776D01*
X0130993Y0056975D02*
X0097400Y0056975D01*
X0097400Y0060173D02*
X0130300Y0060173D01*
X0122268Y0063372D02*
X0097400Y0063372D01*
X0097400Y0066570D02*
X0118661Y0066570D01*
X0117800Y0069769D02*
X0097400Y0069769D01*
X0097400Y0072967D02*
X0117800Y0072967D01*
X0117800Y0076166D02*
X0097400Y0076166D01*
X0097400Y0079364D02*
X0117800Y0079364D01*
X0117800Y0082563D02*
X0097400Y0082563D01*
X0097400Y0085761D02*
X0117800Y0085761D01*
X0117800Y0088960D02*
X0097400Y0088960D01*
X0097400Y0092158D02*
X0117800Y0092158D01*
X0117800Y0095357D02*
X0097400Y0095357D01*
X0097400Y0098555D02*
X0117800Y0098555D01*
X0117800Y0101754D02*
X0097400Y0101754D01*
X0097400Y0104952D02*
X0117800Y0104952D01*
X0117800Y0108151D02*
X0097400Y0108151D01*
X0071819Y0136937D02*
X0065881Y0136937D01*
X0065307Y0140136D02*
X0073210Y0140136D01*
X0076819Y0143334D02*
X0063381Y0143334D01*
X0061843Y0146533D02*
X0078357Y0146533D01*
X0085023Y0169319D02*
X0090177Y0169319D01*
X0091647Y0169928D01*
X0092772Y0171053D01*
X0093381Y0172523D01*
X0093381Y0177677D01*
X0092772Y0179147D01*
X0092400Y0179519D01*
X0092400Y0209431D01*
X0092772Y0209803D01*
X0093381Y0211273D01*
X0093381Y0216427D01*
X0092772Y0217897D01*
X0091647Y0219022D01*
X0090177Y0219631D01*
X0085023Y0219631D01*
X0083553Y0219022D01*
X0082428Y0217897D01*
X0081819Y0216427D01*
X0081819Y0211273D01*
X0082428Y0209803D01*
X0082800Y0209431D01*
X0082800Y0179519D01*
X0082428Y0179147D01*
X0081819Y0177677D01*
X0081819Y0172523D01*
X0082428Y0171053D01*
X0083553Y0169928D01*
X0085023Y0169319D01*
X0081985Y0172121D02*
X0055695Y0172121D01*
X0055624Y0172050D02*
X0059900Y0176326D01*
X0059900Y0182374D01*
X0055624Y0186650D01*
X0049576Y0186650D01*
X0045300Y0182374D01*
X0045300Y0176326D01*
X0049576Y0172050D01*
X0055624Y0172050D01*
X0058893Y0175320D02*
X0081819Y0175320D01*
X0082167Y0178518D02*
X0059900Y0178518D01*
X0059900Y0181717D02*
X0082800Y0181717D01*
X0082800Y0184915D02*
X0057359Y0184915D01*
X0047841Y0184915D02*
X0039050Y0184915D01*
X0039050Y0181717D02*
X0045300Y0181717D01*
X0045300Y0178518D02*
X0039050Y0178518D01*
X0039050Y0175320D02*
X0046307Y0175320D01*
X0049505Y0172121D02*
X0039050Y0172121D01*
X0039050Y0168923D02*
X0348551Y0168923D01*
X0348551Y0172121D02*
X0335715Y0172121D01*
X0335881Y0172523D02*
X0335272Y0171053D01*
X0334147Y0169928D01*
X0332677Y0169319D01*
X0327523Y0169319D01*
X0326053Y0169928D01*
X0325681Y0170300D01*
X0302019Y0170300D01*
X0301647Y0169928D01*
X0300177Y0169319D01*
X0295023Y0169319D01*
X0293553Y0169928D01*
X0292428Y0171053D01*
X0291819Y0172523D01*
X0291819Y0177677D01*
X0292428Y0179147D01*
X0292800Y0179519D01*
X0292800Y0208181D01*
X0292428Y0208553D01*
X0291819Y0210023D01*
X0291819Y0215177D01*
X0292428Y0216647D01*
X0293553Y0217772D01*
X0295023Y0218381D01*
X0300177Y0218381D01*
X0301647Y0217772D01*
X0302772Y0216647D01*
X0303381Y0215177D01*
X0303381Y0210023D01*
X0302772Y0208553D01*
X0302400Y0208181D01*
X0302400Y0179900D01*
X0325681Y0179900D01*
X0326053Y0180272D01*
X0327523Y0180881D01*
X0332677Y0180881D01*
X0334147Y0180272D01*
X0335272Y0179147D01*
X0335881Y0177677D01*
X0335881Y0172523D01*
X0335881Y0175320D02*
X0348551Y0175320D01*
X0348551Y0178518D02*
X0335533Y0178518D01*
X0335401Y0165724D02*
X0039050Y0165724D01*
X0039050Y0162526D02*
X0322976Y0162526D01*
X0322400Y0159327D02*
X0039050Y0159327D01*
X0039050Y0156129D02*
X0322400Y0156129D01*
X0322400Y0152930D02*
X0039050Y0152930D01*
X0039050Y0149732D02*
X0322400Y0149732D01*
X0337800Y0140136D02*
X0348551Y0140136D01*
X0348551Y0143334D02*
X0347445Y0143334D01*
X0348551Y0136937D02*
X0337800Y0136937D01*
X0337147Y0133739D02*
X0348551Y0133739D01*
X0348551Y0130540D02*
X0309700Y0130540D01*
X0309700Y0127342D02*
X0348551Y0127342D01*
X0348551Y0124143D02*
X0309700Y0124143D01*
X0309700Y0120945D02*
X0348551Y0120945D01*
X0348551Y0117746D02*
X0309700Y0117746D01*
X0309706Y0114548D02*
X0348551Y0114548D01*
X0348551Y0111349D02*
X0307865Y0111349D01*
X0307400Y0108151D02*
X0348551Y0108151D01*
X0348551Y0104952D02*
X0307400Y0104952D01*
X0307400Y0101754D02*
X0348551Y0101754D01*
X0348551Y0098555D02*
X0307400Y0098555D01*
X0307400Y0095357D02*
X0348551Y0095357D01*
X0348551Y0092158D02*
X0307400Y0092158D01*
X0307400Y0088960D02*
X0348551Y0088960D01*
X0348551Y0085761D02*
X0307400Y0085761D01*
X0307400Y0082563D02*
X0348551Y0082563D01*
X0348551Y0079364D02*
X0307400Y0079364D01*
X0307400Y0076166D02*
X0348551Y0076166D01*
X0348551Y0072967D02*
X0307400Y0072967D01*
X0307400Y0069769D02*
X0348551Y0069769D01*
X0348551Y0066570D02*
X0307400Y0066570D01*
X0307400Y0063372D02*
X0348551Y0063372D01*
X0348551Y0060173D02*
X0307400Y0060173D01*
X0307400Y0056975D02*
X0348551Y0056975D01*
X0348551Y0053776D02*
X0307400Y0053776D01*
X0307400Y0050578D02*
X0348551Y0050578D01*
X0348551Y0047379D02*
X0307400Y0047379D01*
X0307400Y0044181D02*
X0348551Y0044181D01*
X0348551Y0040982D02*
X0340044Y0040982D01*
X0341801Y0040358D02*
X0341801Y0040358D01*
X0345448Y0037784D02*
X0348551Y0037784D01*
X0346251Y0037217D02*
X0346251Y0037217D01*
X0346251Y0037217D01*
X0348392Y0034585D02*
X0348551Y0034585D01*
X0336669Y0042182D02*
X0336669Y0042182D01*
X0331235Y0042553D02*
X0331235Y0042553D01*
X0325902Y0041445D02*
X0325902Y0041445D01*
X0325009Y0040982D02*
X0307400Y0040982D01*
X0307042Y0037784D02*
X0319829Y0037784D01*
X0321066Y0038939D02*
X0321066Y0038939D01*
X0316699Y0034585D02*
X0304909Y0034585D01*
X0314256Y0014632D02*
X0314256Y0014632D01*
X0280291Y0034585D02*
X0279909Y0034585D01*
X0270291Y0034585D02*
X0232409Y0034585D01*
X0234542Y0037784D02*
X0268158Y0037784D01*
X0267800Y0040982D02*
X0234900Y0040982D01*
X0234900Y0044181D02*
X0268889Y0044181D01*
X0268326Y0047379D02*
X0234900Y0047379D01*
X0234900Y0050578D02*
X0267800Y0050578D01*
X0268721Y0053776D02*
X0234900Y0053776D01*
X0234900Y0056975D02*
X0268493Y0056975D01*
X0267800Y0060173D02*
X0234900Y0060173D01*
X0234900Y0063372D02*
X0257268Y0063372D01*
X0253661Y0066570D02*
X0234900Y0066570D01*
X0234900Y0069769D02*
X0252800Y0069769D01*
X0252800Y0072967D02*
X0234900Y0072967D01*
X0234900Y0076166D02*
X0252800Y0076166D01*
X0252800Y0079364D02*
X0234900Y0079364D01*
X0234900Y0082563D02*
X0252800Y0082563D01*
X0252800Y0085761D02*
X0234900Y0085761D01*
X0234900Y0088960D02*
X0252800Y0088960D01*
X0252800Y0092158D02*
X0234900Y0092158D01*
X0234900Y0095357D02*
X0252800Y0095357D01*
X0252800Y0098555D02*
X0234900Y0098555D01*
X0234900Y0101754D02*
X0252800Y0101754D01*
X0252800Y0104952D02*
X0234900Y0104952D01*
X0234900Y0108151D02*
X0252800Y0108151D01*
X0272131Y0136937D02*
X0278302Y0136937D01*
X0274087Y0140136D02*
X0286113Y0140136D01*
X0285569Y0143334D02*
X0274631Y0143334D01*
X0273093Y0146533D02*
X0287107Y0146533D01*
X0291985Y0172121D02*
X0263195Y0172121D01*
X0261874Y0170800D02*
X0266150Y0175076D01*
X0266150Y0181124D01*
X0261874Y0185400D01*
X0255826Y0185400D01*
X0251550Y0181124D01*
X0251550Y0175076D01*
X0255826Y0170800D01*
X0261874Y0170800D01*
X0266150Y0175320D02*
X0291819Y0175320D01*
X0292167Y0178518D02*
X0266150Y0178518D01*
X0265557Y0181717D02*
X0292800Y0181717D01*
X0292800Y0184915D02*
X0262359Y0184915D01*
X0255341Y0184915D02*
X0233650Y0184915D01*
X0233650Y0181717D02*
X0252143Y0181717D01*
X0251550Y0178518D02*
X0234283Y0178518D01*
X0234022Y0179147D02*
X0233650Y0179519D01*
X0233650Y0208181D01*
X0234022Y0208553D01*
X0234631Y0210023D01*
X0234631Y0215177D01*
X0234022Y0216647D01*
X0232897Y0217772D01*
X0231427Y0218381D01*
X0226273Y0218381D01*
X0224803Y0217772D01*
X0223678Y0216647D01*
X0223069Y0215177D01*
X0223069Y0210023D01*
X0223678Y0208553D01*
X0224050Y0208181D01*
X0224050Y0179519D01*
X0223678Y0179147D01*
X0223069Y0177677D01*
X0223069Y0172523D01*
X0223678Y0171053D01*
X0224803Y0169928D01*
X0226273Y0169319D01*
X0231427Y0169319D01*
X0232897Y0169928D01*
X0234022Y0171053D01*
X0234631Y0172523D01*
X0234631Y0177677D01*
X0234022Y0179147D01*
X0234631Y0175320D02*
X0251550Y0175320D01*
X0254505Y0172121D02*
X0234465Y0172121D01*
X0224050Y0181717D02*
X0195557Y0181717D01*
X0196150Y0181124D02*
X0191874Y0185400D01*
X0185826Y0185400D01*
X0181550Y0181124D01*
X0181550Y0175076D01*
X0185826Y0170800D01*
X0191874Y0170800D01*
X0196150Y0175076D01*
X0196150Y0181124D01*
X0196150Y0178518D02*
X0223417Y0178518D01*
X0223069Y0175320D02*
X0196150Y0175320D01*
X0193195Y0172121D02*
X0223235Y0172121D01*
X0224050Y0184915D02*
X0192359Y0184915D01*
X0185341Y0184915D02*
X0163650Y0184915D01*
X0163650Y0181717D02*
X0182143Y0181717D01*
X0181550Y0178518D02*
X0164283Y0178518D01*
X0164022Y0179147D02*
X0163650Y0179519D01*
X0163650Y0208181D01*
X0164022Y0208553D01*
X0164631Y0210023D01*
X0164631Y0215177D01*
X0164022Y0216647D01*
X0162897Y0217772D01*
X0161427Y0218381D01*
X0156273Y0218381D01*
X0154803Y0217772D01*
X0153678Y0216647D01*
X0153069Y0215177D01*
X0153069Y0210023D01*
X0153678Y0208553D01*
X0154050Y0208181D01*
X0154050Y0179519D01*
X0153678Y0179147D01*
X0153069Y0177677D01*
X0153069Y0172523D01*
X0153678Y0171053D01*
X0154803Y0169928D01*
X0156273Y0169319D01*
X0161427Y0169319D01*
X0162897Y0169928D01*
X0164022Y0171053D01*
X0164631Y0172523D01*
X0164631Y0177677D01*
X0164022Y0179147D01*
X0164631Y0175320D02*
X0181550Y0175320D01*
X0184505Y0172121D02*
X0164465Y0172121D01*
X0153235Y0172121D02*
X0125695Y0172121D01*
X0124374Y0170800D02*
X0128650Y0175076D01*
X0128650Y0181124D01*
X0124374Y0185400D01*
X0118326Y0185400D01*
X0114050Y0181124D01*
X0114050Y0175076D01*
X0118326Y0170800D01*
X0124374Y0170800D01*
X0128650Y0175320D02*
X0153069Y0175320D01*
X0153417Y0178518D02*
X0128650Y0178518D01*
X0128057Y0181717D02*
X0154050Y0181717D01*
X0154050Y0184915D02*
X0124859Y0184915D01*
X0117841Y0184915D02*
X0092400Y0184915D01*
X0092400Y0181717D02*
X0114643Y0181717D01*
X0114050Y0178518D02*
X0093033Y0178518D01*
X0093381Y0175320D02*
X0114050Y0175320D01*
X0117005Y0172121D02*
X0093215Y0172121D01*
X0092400Y0188114D02*
X0154050Y0188114D01*
X0154050Y0191312D02*
X0092400Y0191312D01*
X0092400Y0194511D02*
X0154050Y0194511D01*
X0154050Y0197709D02*
X0092400Y0197709D01*
X0092400Y0200908D02*
X0154050Y0200908D01*
X0154050Y0204106D02*
X0092400Y0204106D01*
X0092400Y0207305D02*
X0117801Y0207305D01*
X0118906Y0206200D02*
X0115450Y0209656D01*
X0115450Y0212100D01*
X0121350Y0212100D01*
X0121350Y0212100D01*
X0121350Y0218000D01*
X0123794Y0218000D01*
X0127250Y0214544D01*
X0127250Y0212100D01*
X0121350Y0212100D01*
X0121350Y0212100D01*
X0121350Y0212100D01*
X0121350Y0218000D01*
X0118906Y0218000D01*
X0115450Y0214544D01*
X0115450Y0212100D01*
X0121350Y0212100D01*
X0127250Y0212100D01*
X0127250Y0209656D01*
X0123794Y0206200D01*
X0121350Y0206200D01*
X0121350Y0212100D01*
X0121350Y0212100D01*
X0121350Y0206200D01*
X0118906Y0206200D01*
X0121350Y0207305D02*
X0121350Y0207305D01*
X0121350Y0210503D02*
X0121350Y0210503D01*
X0121350Y0213702D02*
X0121350Y0213702D01*
X0121350Y0216900D02*
X0121350Y0216900D01*
X0124894Y0216900D02*
X0153931Y0216900D01*
X0153069Y0213702D02*
X0127250Y0213702D01*
X0127250Y0210503D02*
X0153069Y0210503D01*
X0154050Y0207305D02*
X0124899Y0207305D01*
X0115450Y0210503D02*
X0093062Y0210503D01*
X0093381Y0213702D02*
X0115450Y0213702D01*
X0117806Y0216900D02*
X0093185Y0216900D01*
X0082015Y0216900D02*
X0057394Y0216900D01*
X0058500Y0215794D02*
X0055044Y0219250D01*
X0052600Y0219250D01*
X0052600Y0213350D01*
X0052600Y0213350D01*
X0058500Y0213350D01*
X0058500Y0215794D01*
X0058500Y0213702D02*
X0081819Y0213702D01*
X0082138Y0210503D02*
X0058097Y0210503D01*
X0058500Y0210906D02*
X0058500Y0213350D01*
X0052600Y0213350D01*
X0052600Y0213350D01*
X0052600Y0213350D01*
X0046700Y0213350D01*
X0046700Y0215794D01*
X0050156Y0219250D01*
X0052600Y0219250D01*
X0052600Y0213350D01*
X0052600Y0207450D01*
X0055044Y0207450D01*
X0058500Y0210906D01*
X0052600Y0210503D02*
X0052600Y0210503D01*
X0052600Y0213350D02*
X0052600Y0207450D01*
X0050156Y0207450D01*
X0046700Y0210906D01*
X0046700Y0213350D01*
X0052600Y0213350D01*
X0052600Y0213350D01*
X0052600Y0213702D02*
X0052600Y0213702D01*
X0052600Y0216900D02*
X0052600Y0216900D01*
X0047806Y0216900D02*
X0039050Y0216900D01*
X0039050Y0213702D02*
X0046700Y0213702D01*
X0047103Y0210503D02*
X0039050Y0210503D01*
X0039050Y0207305D02*
X0082800Y0207305D01*
X0082800Y0204106D02*
X0039050Y0204106D01*
X0039050Y0200908D02*
X0082800Y0200908D01*
X0082800Y0197709D02*
X0039050Y0197709D01*
X0039050Y0194511D02*
X0082800Y0194511D01*
X0082800Y0191312D02*
X0039050Y0191312D01*
X0039050Y0188114D02*
X0082800Y0188114D01*
X0039050Y0220099D02*
X0348551Y0220099D01*
X0348551Y0223297D02*
X0039050Y0223297D01*
X0039050Y0226496D02*
X0348551Y0226496D01*
X0348551Y0229694D02*
X0304622Y0229694D01*
X0307655Y0232893D02*
X0348551Y0232893D01*
X0348551Y0236091D02*
X0308318Y0236091D01*
X0308318Y0239290D02*
X0348551Y0239290D01*
X0348551Y0242488D02*
X0308318Y0242488D01*
X0307290Y0245687D02*
X0348551Y0245687D01*
X0348551Y0248885D02*
X0306550Y0248885D01*
X0306550Y0252084D02*
X0348551Y0252084D01*
X0348551Y0255282D02*
X0306550Y0255282D01*
X0306550Y0258481D02*
X0348551Y0258481D01*
X0348551Y0261679D02*
X0306550Y0261679D01*
X0306550Y0264878D02*
X0348551Y0264878D01*
X0348551Y0268076D02*
X0306550Y0268076D01*
X0306550Y0271275D02*
X0348551Y0271275D01*
X0348551Y0274473D02*
X0306550Y0274473D01*
X0306550Y0277672D02*
X0348551Y0277672D01*
X0348551Y0280870D02*
X0305433Y0280870D01*
X0302654Y0290450D02*
X0301788Y0290313D01*
X0301350Y0290313D01*
X0301350Y0298850D01*
X0306918Y0298850D01*
X0306918Y0302257D01*
X0306781Y0303122D01*
X0306511Y0303956D01*
X0306113Y0304737D01*
X0305597Y0305446D01*
X0304978Y0306066D01*
X0304269Y0306581D01*
X0303488Y0306979D01*
X0302654Y0307250D01*
X0301788Y0307387D01*
X0301350Y0307387D01*
X0301350Y0298850D01*
X0301350Y0298850D01*
X0301350Y0298850D01*
X0306918Y0298850D01*
X0306918Y0295443D01*
X0306781Y0294578D01*
X0306511Y0293744D01*
X0306113Y0292963D01*
X0305597Y0292254D01*
X0304978Y0291634D01*
X0304269Y0291119D01*
X0303488Y0290721D01*
X0302654Y0290450D01*
X0302703Y0290466D02*
X0325012Y0290466D01*
X0321066Y0292511D02*
X0321066Y0292511D01*
X0319831Y0293665D02*
X0306470Y0293665D01*
X0306918Y0296863D02*
X0316700Y0296863D01*
X0317086Y0296228D02*
X0317086Y0296228D01*
X0314755Y0300062D02*
X0306918Y0300062D01*
X0306737Y0303260D02*
X0313589Y0303260D01*
X0314256Y0300882D02*
X0314256Y0300882D01*
X0312786Y0306459D02*
X0304437Y0306459D01*
X0301350Y0306459D02*
X0301350Y0306459D01*
X0301350Y0307387D02*
X0300912Y0307387D01*
X0300046Y0307250D01*
X0299212Y0306979D01*
X0298431Y0306581D01*
X0297722Y0306066D01*
X0297306Y0305649D01*
X0297258Y0305766D01*
X0295297Y0307726D01*
X0292736Y0308787D01*
X0289964Y0308787D01*
X0287403Y0307726D01*
X0286350Y0306673D01*
X0285297Y0307726D01*
X0282736Y0308787D01*
X0279964Y0308787D01*
X0277403Y0307726D01*
X0276350Y0306673D01*
X0275297Y0307726D01*
X0272736Y0308787D01*
X0269964Y0308787D01*
X0267403Y0307726D01*
X0265442Y0305766D01*
X0264381Y0303205D01*
X0264381Y0294495D01*
X0265442Y0291934D01*
X0267403Y0289974D01*
X0269964Y0288913D01*
X0272736Y0288913D01*
X0275297Y0289974D01*
X0276350Y0291027D01*
X0277403Y0289974D01*
X0279964Y0288913D01*
X0282736Y0288913D01*
X0285297Y0289974D01*
X0286350Y0291027D01*
X0287403Y0289974D01*
X0289964Y0288913D01*
X0292736Y0288913D01*
X0295297Y0289974D01*
X0297258Y0291934D01*
X0297306Y0292051D01*
X0297722Y0291634D01*
X0298431Y0291119D01*
X0299212Y0290721D01*
X0300046Y0290450D01*
X0300912Y0290313D01*
X0301350Y0290313D01*
X0301350Y0298850D01*
X0301350Y0298850D01*
X0301350Y0307387D01*
X0298263Y0306459D02*
X0296565Y0306459D01*
X0301350Y0303260D02*
X0301350Y0303260D01*
X0301350Y0300062D02*
X0301350Y0300062D01*
X0301350Y0296863D02*
X0301350Y0296863D01*
X0301350Y0293665D02*
X0301350Y0293665D01*
X0301350Y0290466D02*
X0301350Y0290466D01*
X0299997Y0290466D02*
X0295789Y0290466D01*
X0286911Y0290466D02*
X0285789Y0290466D01*
X0276911Y0290466D02*
X0275789Y0290466D01*
X0266911Y0290466D02*
X0205789Y0290466D01*
X0205297Y0289974D02*
X0207258Y0291934D01*
X0208318Y0294495D01*
X0208318Y0303205D01*
X0207258Y0305766D01*
X0205297Y0307726D01*
X0202736Y0308787D01*
X0199964Y0308787D01*
X0197403Y0307726D01*
X0196350Y0306673D01*
X0195297Y0307726D01*
X0192736Y0308787D01*
X0189964Y0308787D01*
X0187403Y0307726D01*
X0186350Y0306673D01*
X0185297Y0307726D01*
X0182736Y0308787D01*
X0179964Y0308787D01*
X0177403Y0307726D01*
X0176350Y0306673D01*
X0175297Y0307726D01*
X0172736Y0308787D01*
X0169964Y0308787D01*
X0167403Y0307726D01*
X0165442Y0305766D01*
X0164381Y0303205D01*
X0164381Y0294495D01*
X0165442Y0291934D01*
X0167403Y0289974D01*
X0169964Y0288913D01*
X0172736Y0288913D01*
X0175297Y0289974D01*
X0176350Y0291027D01*
X0177403Y0289974D01*
X0179964Y0288913D01*
X0182736Y0288913D01*
X0185297Y0289974D01*
X0186350Y0291027D01*
X0187403Y0289974D01*
X0189964Y0288913D01*
X0192736Y0288913D01*
X0195297Y0289974D01*
X0196350Y0291027D01*
X0197403Y0289974D01*
X0199964Y0288913D01*
X0202736Y0288913D01*
X0205297Y0289974D01*
X0207974Y0293665D02*
X0264726Y0293665D01*
X0264381Y0296863D02*
X0208318Y0296863D01*
X0208318Y0300062D02*
X0264381Y0300062D01*
X0264404Y0303260D02*
X0208296Y0303260D01*
X0206565Y0306459D02*
X0266135Y0306459D01*
X0296150Y0271275D02*
X0212537Y0271275D01*
X0212273Y0268076D02*
X0296150Y0268076D01*
X0296150Y0264878D02*
X0210646Y0264878D01*
X0212457Y0261679D02*
X0296150Y0261679D01*
X0296150Y0258481D02*
X0212440Y0258481D01*
X0210606Y0255282D02*
X0296150Y0255282D01*
X0296150Y0252084D02*
X0190003Y0252084D01*
X0186805Y0248885D02*
X0296150Y0248885D01*
X0294622Y0229694D02*
X0298078Y0229694D01*
X0288078Y0229694D02*
X0284622Y0229694D01*
X0278078Y0229694D02*
X0274622Y0229694D01*
X0268078Y0229694D02*
X0204622Y0229694D01*
X0207655Y0232893D02*
X0265045Y0232893D01*
X0264381Y0236091D02*
X0208318Y0236091D01*
X0208318Y0239290D02*
X0264381Y0239290D01*
X0264381Y0242488D02*
X0208318Y0242488D01*
X0207290Y0245687D02*
X0265410Y0245687D01*
X0261294Y0218000D02*
X0258850Y0218000D01*
X0258850Y0212100D01*
X0258850Y0212100D01*
X0264750Y0212100D01*
X0264750Y0214544D01*
X0261294Y0218000D01*
X0262394Y0216900D02*
X0292681Y0216900D01*
X0291819Y0213702D02*
X0264750Y0213702D01*
X0264750Y0212100D02*
X0258850Y0212100D01*
X0258850Y0212100D01*
X0258850Y0212100D01*
X0252950Y0212100D01*
X0252950Y0214544D01*
X0256406Y0218000D01*
X0258850Y0218000D01*
X0258850Y0212100D01*
X0258850Y0206200D01*
X0261294Y0206200D01*
X0264750Y0209656D01*
X0264750Y0212100D01*
X0264750Y0210503D02*
X0291819Y0210503D01*
X0292800Y0207305D02*
X0262399Y0207305D01*
X0258850Y0207305D02*
X0258850Y0207305D01*
X0258850Y0206200D02*
X0258850Y0212100D01*
X0258850Y0212100D01*
X0252950Y0212100D01*
X0252950Y0209656D01*
X0256406Y0206200D01*
X0258850Y0206200D01*
X0255301Y0207305D02*
X0233650Y0207305D01*
X0233650Y0204106D02*
X0292800Y0204106D01*
X0292800Y0200908D02*
X0233650Y0200908D01*
X0233650Y0197709D02*
X0292800Y0197709D01*
X0292800Y0194511D02*
X0233650Y0194511D01*
X0233650Y0191312D02*
X0292800Y0191312D01*
X0292800Y0188114D02*
X0233650Y0188114D01*
X0224050Y0188114D02*
X0163650Y0188114D01*
X0163650Y0191312D02*
X0224050Y0191312D01*
X0224050Y0194511D02*
X0163650Y0194511D01*
X0163650Y0197709D02*
X0224050Y0197709D01*
X0224050Y0200908D02*
X0163650Y0200908D01*
X0163650Y0204106D02*
X0224050Y0204106D01*
X0224050Y0207305D02*
X0192399Y0207305D01*
X0191294Y0206200D02*
X0194750Y0209656D01*
X0194750Y0212100D01*
X0194750Y0214544D01*
X0191294Y0218000D01*
X0188850Y0218000D01*
X0188850Y0212100D01*
X0188850Y0212100D01*
X0194750Y0212100D01*
X0188850Y0212100D01*
X0188850Y0212100D01*
X0188850Y0212100D01*
X0182950Y0212100D01*
X0182950Y0214544D01*
X0186406Y0218000D01*
X0188850Y0218000D01*
X0188850Y0212100D01*
X0188850Y0206200D01*
X0191294Y0206200D01*
X0188850Y0206200D02*
X0188850Y0212100D01*
X0188850Y0212100D01*
X0182950Y0212100D01*
X0182950Y0209656D01*
X0186406Y0206200D01*
X0188850Y0206200D01*
X0188850Y0207305D02*
X0188850Y0207305D01*
X0188850Y0210503D02*
X0188850Y0210503D01*
X0188850Y0213702D02*
X0188850Y0213702D01*
X0188850Y0216900D02*
X0188850Y0216900D01*
X0192394Y0216900D02*
X0223931Y0216900D01*
X0223069Y0213702D02*
X0194750Y0213702D01*
X0194750Y0210503D02*
X0223069Y0210503D01*
X0233769Y0216900D02*
X0255306Y0216900D01*
X0258850Y0216900D02*
X0258850Y0216900D01*
X0258850Y0213702D02*
X0258850Y0213702D01*
X0258850Y0210503D02*
X0258850Y0210503D01*
X0252950Y0210503D02*
X0234631Y0210503D01*
X0234631Y0213702D02*
X0252950Y0213702D01*
X0302519Y0216900D02*
X0348551Y0216900D01*
X0348551Y0213702D02*
X0303381Y0213702D01*
X0303381Y0210503D02*
X0348551Y0210503D01*
X0348551Y0207305D02*
X0302400Y0207305D01*
X0302400Y0204106D02*
X0348551Y0204106D01*
X0348551Y0200908D02*
X0302400Y0200908D01*
X0302400Y0197709D02*
X0348551Y0197709D01*
X0348551Y0194511D02*
X0302400Y0194511D01*
X0302400Y0191312D02*
X0348551Y0191312D01*
X0348551Y0188114D02*
X0302400Y0188114D01*
X0302400Y0184915D02*
X0348551Y0184915D01*
X0348551Y0181717D02*
X0302400Y0181717D01*
X0218357Y0146533D02*
X0204343Y0146533D01*
X0205881Y0143334D02*
X0216819Y0143334D01*
X0217363Y0140136D02*
X0205337Y0140136D01*
X0203381Y0136937D02*
X0219319Y0136937D01*
X0185300Y0108151D02*
X0167400Y0108151D01*
X0167400Y0104952D02*
X0185300Y0104952D01*
X0185300Y0101754D02*
X0167400Y0101754D01*
X0167400Y0098555D02*
X0185300Y0098555D01*
X0185300Y0095357D02*
X0167400Y0095357D01*
X0167400Y0092158D02*
X0185300Y0092158D01*
X0185300Y0088960D02*
X0167400Y0088960D01*
X0167400Y0085761D02*
X0185300Y0085761D01*
X0185300Y0082563D02*
X0167400Y0082563D01*
X0167400Y0079364D02*
X0185300Y0079364D01*
X0185300Y0076166D02*
X0167400Y0076166D01*
X0167400Y0072967D02*
X0185300Y0072967D01*
X0185300Y0069769D02*
X0167400Y0069769D01*
X0167400Y0066570D02*
X0186161Y0066570D01*
X0189768Y0063372D02*
X0167400Y0063372D01*
X0167400Y0060173D02*
X0197800Y0060173D01*
X0198493Y0056975D02*
X0167400Y0056975D01*
X0167400Y0053776D02*
X0198721Y0053776D01*
X0197800Y0050578D02*
X0167400Y0050578D01*
X0167400Y0047379D02*
X0198326Y0047379D01*
X0198889Y0044181D02*
X0167400Y0044181D01*
X0167400Y0040982D02*
X0197800Y0040982D01*
X0198158Y0037784D02*
X0167042Y0037784D01*
X0164909Y0034585D02*
X0200291Y0034585D01*
X0209909Y0034585D02*
X0210291Y0034585D01*
X0142791Y0034585D02*
X0142409Y0034585D01*
X0144319Y0136937D02*
X0139631Y0136937D01*
X0138240Y0140136D02*
X0145710Y0140136D01*
X0148069Y0143334D02*
X0134631Y0143334D01*
X0133093Y0146533D02*
X0149607Y0146533D01*
X0163650Y0207305D02*
X0185301Y0207305D01*
X0182950Y0210503D02*
X0164631Y0210503D01*
X0164631Y0213702D02*
X0182950Y0213702D01*
X0185306Y0216900D02*
X0163769Y0216900D01*
X0168078Y0229694D02*
X0039050Y0229694D01*
X0027600Y0248885D02*
X0170966Y0248885D01*
X0168086Y0252084D02*
X0126811Y0252084D01*
X0127299Y0255282D02*
X0164710Y0255282D01*
X0163850Y0258481D02*
X0127299Y0258481D01*
X0127299Y0261679D02*
X0164404Y0261679D01*
X0164877Y0264878D02*
X0125721Y0264878D01*
X0125899Y0267600D02*
X0119756Y0267600D01*
X0125899Y0267600D01*
X0125899Y0268076D02*
X0163850Y0268076D01*
X0164237Y0271275D02*
X0124768Y0271275D01*
X0119756Y0267600D02*
X0119756Y0267600D01*
X0119755Y0267600D02*
X0119755Y0267600D01*
X0110617Y0245687D02*
X0165410Y0245687D01*
X0164381Y0242488D02*
X0112417Y0242488D01*
X0117949Y0239290D02*
X0164381Y0239290D01*
X0164381Y0236091D02*
X0118667Y0236091D01*
X0117723Y0232893D02*
X0165045Y0232893D01*
X0171350Y0238850D02*
X0171350Y0241350D01*
X0190100Y0260100D01*
X0202600Y0260100D01*
X0198078Y0229694D02*
X0194622Y0229694D01*
X0188078Y0229694D02*
X0184622Y0229694D01*
X0178078Y0229694D02*
X0174622Y0229694D01*
X0175789Y0290466D02*
X0176911Y0290466D01*
X0185789Y0290466D02*
X0186911Y0290466D01*
X0195789Y0290466D02*
X0196911Y0290466D01*
X0166911Y0290466D02*
X0025904Y0290466D01*
X0026669Y0290518D02*
X0026669Y0290518D01*
X0031801Y0292342D02*
X0031801Y0292342D01*
X0033674Y0293665D02*
X0164726Y0293665D01*
X0164381Y0296863D02*
X0037374Y0296863D01*
X0039842Y0300062D02*
X0164381Y0300062D01*
X0164404Y0303260D02*
X0041231Y0303260D01*
X0041858Y0304704D02*
X0041858Y0304704D01*
X0042099Y0306459D02*
X0166135Y0306459D01*
X0153318Y0316054D02*
X0314042Y0316054D01*
X0313146Y0312856D02*
X0152639Y0312856D01*
X0149533Y0309657D02*
X0312786Y0309657D01*
X0315736Y0319253D02*
X0153318Y0319253D01*
X0153318Y0322451D02*
X0318134Y0322451D01*
X0321066Y0325189D02*
X0321066Y0325189D01*
X0321066Y0325189D01*
X0321955Y0325650D02*
X0152306Y0325650D01*
X0143167Y0309657D02*
X0139533Y0309657D01*
X0133167Y0309657D02*
X0117033Y0309657D01*
X0120139Y0312856D02*
X0130061Y0312856D01*
X0129381Y0316054D02*
X0120818Y0316054D01*
X0120818Y0319253D02*
X0129381Y0319253D01*
X0129381Y0322451D02*
X0120818Y0322451D01*
X0119806Y0325650D02*
X0130394Y0325650D01*
X0110667Y0309657D02*
X0080783Y0309657D01*
X0083889Y0312856D02*
X0099165Y0312856D01*
X0098281Y0316054D02*
X0084568Y0316054D01*
X0084568Y0319253D02*
X0098281Y0319253D01*
X0098281Y0318850D02*
X0103850Y0318850D01*
X0103850Y0310313D01*
X0103850Y0318850D01*
X0103850Y0318850D01*
X0103850Y0318850D01*
X0098281Y0318850D01*
X0098312Y0322451D02*
X0084568Y0322451D01*
X0083556Y0325650D02*
X0099806Y0325650D01*
X0103850Y0316054D02*
X0103850Y0316054D01*
X0103850Y0312856D02*
X0103850Y0312856D01*
X0074417Y0309657D02*
X0042539Y0309657D01*
X0042221Y0312856D02*
X0062915Y0312856D01*
X0062031Y0316054D02*
X0041616Y0316054D01*
X0041858Y0315496D02*
X0041858Y0315496D01*
X0040227Y0319253D02*
X0062031Y0319253D01*
X0062031Y0318850D02*
X0067600Y0318850D01*
X0067600Y0310313D01*
X0067600Y0318850D01*
X0067600Y0318850D01*
X0067600Y0318850D01*
X0062031Y0318850D01*
X0062062Y0322451D02*
X0038094Y0322451D01*
X0039688Y0320492D02*
X0039688Y0320492D01*
X0036251Y0324717D02*
X0036251Y0324717D01*
X0034929Y0325650D02*
X0063556Y0325650D01*
X0067600Y0316054D02*
X0067600Y0316054D01*
X0067600Y0312856D02*
X0067600Y0312856D01*
X0072040Y0287268D02*
X0061180Y0287268D01*
X0060748Y0287700D02*
X0057600Y0287700D01*
X0057600Y0280100D01*
X0065200Y0280100D01*
X0065200Y0283248D01*
X0060748Y0287700D01*
X0057600Y0287700D02*
X0054452Y0287700D01*
X0050000Y0283248D01*
X0050000Y0280100D01*
X0057600Y0280100D01*
X0057600Y0280100D01*
X0057600Y0280100D01*
X0065200Y0280100D01*
X0065200Y0276952D01*
X0060748Y0272500D01*
X0057600Y0272500D01*
X0057600Y0280100D01*
X0057600Y0280100D01*
X0057600Y0280100D01*
X0057600Y0287700D01*
X0057600Y0287268D02*
X0057600Y0287268D01*
X0057600Y0284069D02*
X0057600Y0284069D01*
X0057600Y0280870D02*
X0057600Y0280870D01*
X0057600Y0280100D02*
X0050000Y0280100D01*
X0050000Y0276952D01*
X0054452Y0272500D01*
X0057600Y0272500D01*
X0057600Y0280100D01*
X0057600Y0277672D02*
X0057600Y0277672D01*
X0057600Y0274473D02*
X0057600Y0274473D01*
X0062721Y0274473D02*
X0070499Y0274473D01*
X0068864Y0277672D02*
X0065200Y0277672D01*
X0065200Y0280870D02*
X0068600Y0280870D01*
X0069502Y0284069D02*
X0064379Y0284069D01*
X0054020Y0287268D02*
X0006600Y0287268D01*
X0006600Y0290466D02*
X0019698Y0290466D01*
X0011252Y0293665D02*
X0006600Y0293665D01*
X0006600Y0296863D02*
X0007744Y0296863D01*
X0007086Y0297478D02*
X0007086Y0297478D01*
X0011066Y0293761D02*
X0011066Y0293761D01*
X0006600Y0284069D02*
X0050821Y0284069D01*
X0050000Y0280870D02*
X0006600Y0280870D01*
X0006600Y0277672D02*
X0050000Y0277672D01*
X0052479Y0274473D02*
X0006600Y0274473D01*
X0006600Y0271275D02*
X0075387Y0271275D01*
X0336669Y0289268D02*
X0336669Y0289268D01*
D22*
X0283850Y0165100D03*
X0283850Y0161350D03*
X0283850Y0157600D03*
X0283850Y0153850D03*
X0283850Y0150100D03*
X0280100Y0150100D03*
X0280100Y0153850D03*
X0280100Y0157600D03*
X0280100Y0161350D03*
X0280100Y0165100D03*
X0276350Y0165100D03*
X0276350Y0161350D03*
X0276350Y0157600D03*
X0276350Y0153850D03*
X0276350Y0150100D03*
X0215100Y0150100D03*
X0215100Y0153850D03*
X0215100Y0157600D03*
X0215100Y0161350D03*
X0215100Y0165100D03*
X0211350Y0165100D03*
X0211350Y0161350D03*
X0211350Y0157600D03*
X0211350Y0153850D03*
X0211350Y0150100D03*
X0207600Y0150100D03*
X0207600Y0153850D03*
X0207600Y0157600D03*
X0207600Y0161350D03*
X0207600Y0165100D03*
X0145100Y0165100D03*
X0145100Y0161350D03*
X0145100Y0157600D03*
X0145100Y0153850D03*
X0145100Y0150100D03*
X0141350Y0150100D03*
X0141350Y0153850D03*
X0141350Y0157600D03*
X0141350Y0161350D03*
X0141350Y0165100D03*
X0137600Y0165100D03*
X0137600Y0161350D03*
X0137600Y0157600D03*
X0137600Y0153850D03*
X0137600Y0150100D03*
X0073850Y0150100D03*
X0073850Y0153850D03*
X0073850Y0157600D03*
X0073850Y0161350D03*
X0073850Y0165100D03*
X0070100Y0165100D03*
X0070100Y0161350D03*
X0070100Y0157600D03*
X0070100Y0153850D03*
X0070100Y0150100D03*
X0066350Y0150100D03*
X0066350Y0153850D03*
X0066350Y0157600D03*
X0066350Y0161350D03*
X0066350Y0165100D03*
D23*
X0112600Y0236350D03*
X0106350Y0241350D03*
X0330100Y0250100D03*
D24*
X0291350Y0142600D03*
X0291350Y0136350D03*
X0268850Y0142600D03*
X0266350Y0136350D03*
X0225100Y0136350D03*
X0222600Y0142600D03*
X0200100Y0142600D03*
X0197600Y0136350D03*
X0153850Y0142600D03*
X0150100Y0136350D03*
X0133850Y0136350D03*
X0128850Y0142600D03*
X0082600Y0142600D03*
X0077600Y0136350D03*
X0060100Y0137600D03*
X0057600Y0142600D03*
D25*
X0033850Y0142600D01*
X0033850Y0236350D01*
X0112600Y0236350D01*
X0106350Y0241350D02*
X0106350Y0242600D01*
X0106350Y0241350D02*
X0028850Y0241350D01*
X0028850Y0137600D01*
X0060100Y0137600D01*
X0077600Y0136350D02*
X0133850Y0136350D01*
X0128850Y0142600D02*
X0082600Y0142600D01*
X0150100Y0136350D02*
X0197600Y0136350D01*
X0200100Y0142600D02*
X0153850Y0142600D01*
X0222600Y0142600D02*
X0268850Y0142600D01*
X0266350Y0136350D02*
X0225100Y0136350D01*
X0291350Y0136350D02*
X0332600Y0136350D01*
X0332600Y0150100D01*
X0342600Y0150100D01*
X0342600Y0160100D02*
X0327600Y0160100D01*
X0327600Y0142600D01*
X0291350Y0142600D01*
X0301350Y0238850D02*
X0301350Y0277600D01*
X0119756Y0277600D01*
D26*
X0125653Y0130841D02*
X0305100Y0130841D01*
X0305100Y0132039D02*
X0247901Y0132039D01*
X0216876Y0114235D02*
X0215995Y0114600D01*
X0214205Y0114600D01*
X0213238Y0114199D01*
X0209240Y0114160D01*
X0209051Y0114349D01*
X0208686Y0114559D01*
X0208279Y0114668D01*
X0205484Y0114668D01*
X0205484Y0114123D01*
X0204716Y0114116D01*
X0204716Y0114668D01*
X0201921Y0114668D01*
X0201514Y0114559D01*
X0201149Y0114349D01*
X0200878Y0114078D01*
X0150480Y0113584D01*
X0150149Y0113915D01*
X0148495Y0114600D01*
X0146705Y0114600D01*
X0145051Y0113915D01*
X0144663Y0113527D01*
X0142109Y0113502D01*
X0142059Y0113686D01*
X0141849Y0114051D01*
X0141551Y0114349D01*
X0141186Y0114559D01*
X0140779Y0114668D01*
X0137984Y0114668D01*
X0137984Y0113462D01*
X0137216Y0113454D01*
X0137216Y0114668D01*
X0134421Y0114668D01*
X0134014Y0114559D01*
X0133649Y0114349D01*
X0133351Y0114051D01*
X0133141Y0113686D01*
X0133067Y0113413D01*
X0078684Y0112880D01*
X0077649Y0113915D01*
X0075995Y0114600D01*
X0074205Y0114600D01*
X0072551Y0113915D01*
X0071445Y0112809D01*
X0069668Y0112792D01*
X0069668Y0113279D01*
X0069559Y0113686D01*
X0069349Y0114051D01*
X0069051Y0114349D01*
X0068686Y0114559D01*
X0068279Y0114668D01*
X0065484Y0114668D01*
X0065484Y0112751D01*
X0064716Y0112743D01*
X0064716Y0114668D01*
X0061921Y0114668D01*
X0061514Y0114559D01*
X0061149Y0114349D01*
X0060851Y0114051D01*
X0060641Y0113686D01*
X0060531Y0113279D01*
X0060531Y0112702D01*
X0050100Y0112600D01*
X0050100Y0130100D01*
X0305100Y0132600D01*
X0305100Y0115100D01*
X0216876Y0114235D01*
X0199179Y0114062D02*
X0149795Y0114062D01*
X0145405Y0114062D02*
X0141838Y0114062D01*
X0137984Y0114062D02*
X0137216Y0114062D01*
X0133362Y0114062D02*
X0077295Y0114062D01*
X0072905Y0114062D02*
X0069338Y0114062D01*
X0069668Y0112863D02*
X0071499Y0112863D01*
X0065484Y0112863D02*
X0064716Y0112863D01*
X0064716Y0114062D02*
X0065484Y0114062D01*
X0060862Y0114062D02*
X0050100Y0114062D01*
X0050100Y0115260D02*
X0305100Y0115260D01*
X0305100Y0116459D02*
X0050100Y0116459D01*
X0050100Y0117657D02*
X0305100Y0117657D01*
X0305100Y0118856D02*
X0050100Y0118856D01*
X0050100Y0120054D02*
X0305100Y0120054D01*
X0305100Y0121253D02*
X0050100Y0121253D01*
X0050100Y0122451D02*
X0305100Y0122451D01*
X0305100Y0123650D02*
X0050100Y0123650D01*
X0050100Y0124848D02*
X0305100Y0124848D01*
X0305100Y0126047D02*
X0050100Y0126047D01*
X0050100Y0127245D02*
X0305100Y0127245D01*
X0305100Y0128444D02*
X0050100Y0128444D01*
X0050100Y0129642D02*
X0305100Y0129642D01*
X0060531Y0112863D02*
X0050100Y0112863D01*
D27*
X0052600Y0122600D02*
X0020100Y0122600D01*
X0020100Y0257600D01*
X0119756Y0257600D01*
D28*
X0160100Y0125100D02*
X0160100Y0080100D01*
X0160100Y0040100D01*
X0147600Y0040100D01*
X0137600Y0070100D02*
X0125100Y0070100D01*
X0125100Y0122600D01*
X0137600Y0122600D02*
X0137600Y0110100D01*
X0137600Y0122600D02*
X0205100Y0122600D01*
X0205100Y0110100D01*
X0192600Y0125100D02*
X0192600Y0070100D01*
X0205100Y0070100D01*
X0215100Y0080100D02*
X0227600Y0080100D01*
X0227600Y0040100D01*
X0215100Y0040100D01*
X0227600Y0080100D02*
X0227600Y0125100D01*
X0260100Y0125100D02*
X0260100Y0070100D01*
X0275100Y0070100D01*
X0285100Y0080100D02*
X0300100Y0080100D01*
X0300100Y0040100D01*
X0285100Y0040100D01*
X0300100Y0080100D02*
X0300100Y0125100D01*
X0275100Y0125100D01*
X0275100Y0110100D01*
X0275100Y0125100D02*
X0260100Y0125100D01*
X0160100Y0080100D02*
X0147600Y0080100D01*
X0090100Y0080100D02*
X0090100Y0117600D01*
X0090100Y0120100D02*
X0090100Y0040100D01*
X0075100Y0040100D01*
X0065100Y0070100D02*
X0052600Y0070100D01*
X0052600Y0122600D01*
X0065100Y0122600D01*
X0065100Y0110100D01*
X0075100Y0080100D02*
X0090100Y0080100D01*
D29*
X0087600Y0175100D03*
X0087600Y0213850D03*
X0158850Y0212600D03*
X0158850Y0175100D03*
X0228850Y0175100D03*
X0228850Y0212600D03*
X0297600Y0212600D03*
X0297600Y0175100D03*
X0330100Y0175100D03*
D30*
X0297600Y0175100D01*
X0297600Y0212600D01*
X0228850Y0212600D02*
X0228850Y0175100D01*
X0158850Y0175100D02*
X0158850Y0212600D01*
X0087600Y0213850D02*
X0087600Y0175100D01*
M02*
