G75*
%MOIN*%
%OFA0B0*%
%FSLAX25Y25*%
%IPPOS*%
%LPD*%
%AMOC8*
5,1,8,0,0,1.08239X$1,22.5*
%
%ADD10C,0.00000*%
%ADD11C,0.10400*%
%ADD12OC8,0.10400*%
%ADD13R,0.06337X0.06337*%
%ADD14C,0.07000*%
%ADD15OC8,0.07000*%
%ADD16C,0.25800*%
%ADD17C,0.06337*%
%ADD18C,0.07400*%
%ADD19R,0.07487X0.07487*%
%ADD20OC8,0.07487*%
D10*
X0002600Y0002600D02*
X0002600Y0330061D01*
X0352551Y0330061D01*
X0352551Y0002600D01*
X0002600Y0002600D01*
D11*
X0077600Y0280100D03*
D12*
X0057600Y0280100D03*
D13*
X0065100Y0110100D03*
X0137600Y0110100D03*
X0205100Y0110100D03*
X0275100Y0110100D03*
D14*
X0275100Y0100100D03*
X0275100Y0090100D03*
X0275100Y0080100D03*
X0275100Y0070100D03*
X0275100Y0060100D03*
X0275100Y0050100D03*
X0275100Y0040100D03*
X0285100Y0040100D03*
X0285100Y0050100D03*
X0285100Y0060100D03*
X0285100Y0070100D03*
X0285100Y0080100D03*
X0285100Y0090100D03*
X0285100Y0100100D03*
X0285100Y0110100D03*
X0215100Y0110100D03*
X0215100Y0100100D03*
X0215100Y0090100D03*
X0215100Y0080100D03*
X0215100Y0070100D03*
X0215100Y0060100D03*
X0215100Y0050100D03*
X0215100Y0040100D03*
X0205100Y0040100D03*
X0205100Y0050100D03*
X0205100Y0060100D03*
X0205100Y0070100D03*
X0205100Y0080100D03*
X0205100Y0090100D03*
X0205100Y0100100D03*
X0147600Y0100100D03*
X0147600Y0090100D03*
X0147600Y0080100D03*
X0147600Y0070100D03*
X0147600Y0060100D03*
X0147600Y0050100D03*
X0147600Y0040100D03*
X0137600Y0040100D03*
X0137600Y0050100D03*
X0137600Y0060100D03*
X0137600Y0070100D03*
X0137600Y0080100D03*
X0137600Y0090100D03*
X0137600Y0100100D03*
X0147600Y0110100D03*
X0075100Y0110100D03*
X0075100Y0100100D03*
X0075100Y0090100D03*
X0075100Y0080100D03*
X0075100Y0070100D03*
X0075100Y0060100D03*
X0075100Y0050100D03*
X0075100Y0040100D03*
X0065100Y0040100D03*
X0065100Y0050100D03*
X0065100Y0060100D03*
X0065100Y0070100D03*
X0065100Y0080100D03*
X0065100Y0090100D03*
X0065100Y0100100D03*
D15*
X0052600Y0179350D03*
X0052600Y0213350D03*
X0121350Y0212100D03*
X0121350Y0178100D03*
X0188850Y0178100D03*
X0188850Y0212100D03*
X0258850Y0212100D03*
X0258850Y0178100D03*
D16*
X0332600Y0308850D03*
X0332600Y0022600D03*
X0022600Y0022600D03*
X0022600Y0310100D03*
D17*
X0067600Y0315881D02*
X0067600Y0321819D01*
X0077600Y0321819D02*
X0077600Y0315881D01*
X0103850Y0315881D02*
X0103850Y0321819D01*
X0113850Y0321819D02*
X0113850Y0315881D01*
X0136350Y0315881D02*
X0136350Y0321819D01*
X0146350Y0321819D02*
X0146350Y0315881D01*
X0171350Y0301819D02*
X0171350Y0295881D01*
X0181350Y0295881D02*
X0181350Y0301819D01*
X0191350Y0301819D02*
X0191350Y0295881D01*
X0201350Y0295881D02*
X0201350Y0301819D01*
X0199631Y0270100D02*
X0205569Y0270100D01*
X0205569Y0260100D02*
X0199631Y0260100D01*
X0201350Y0241819D02*
X0201350Y0235881D01*
X0191350Y0235881D02*
X0191350Y0241819D01*
X0181350Y0241819D02*
X0181350Y0235881D01*
X0171350Y0235881D02*
X0171350Y0241819D01*
X0271350Y0241819D02*
X0271350Y0235881D01*
X0281350Y0235881D02*
X0281350Y0241819D01*
X0291350Y0241819D02*
X0291350Y0235881D01*
X0301350Y0235881D02*
X0301350Y0241819D01*
X0301350Y0295881D02*
X0301350Y0301819D01*
X0291350Y0301819D02*
X0291350Y0295881D01*
X0281350Y0295881D02*
X0281350Y0301819D01*
X0271350Y0301819D02*
X0271350Y0295881D01*
X0339631Y0160100D02*
X0345569Y0160100D01*
X0345569Y0150100D02*
X0339631Y0150100D01*
D18*
X0171350Y0258850D03*
X0171350Y0268850D03*
D19*
X0119756Y0257600D03*
D20*
X0119756Y0267600D03*
X0119756Y0277600D03*
M02*
