G75*
%MOIN*%
%OFA0B0*%
%FSLAX25Y25*%
%IPPOS*%
%LPD*%
%AMOC8*
5,1,8,0,0,1.08239X$1,22.5*
%
%ADD10C,0.00000*%
%ADD11R,0.05518X0.06306*%
%ADD12C,0.10400*%
%ADD13OC8,0.10400*%
%ADD14R,0.06502X0.01581*%
%ADD15C,0.00500*%
%ADD16R,0.06337X0.06337*%
%ADD17C,0.07000*%
%ADD18R,0.05124X0.05124*%
%ADD19OC8,0.07000*%
%ADD20R,0.06299X0.05512*%
%ADD21R,0.06306X0.05518*%
%ADD22C,0.25800*%
%ADD23C,0.06337*%
%ADD24C,0.07400*%
%ADD25R,0.07487X0.07487*%
%ADD26OC8,0.07487*%
D10*
X0002600Y0002600D02*
X0002600Y0330061D01*
X0352551Y0330061D01*
X0352551Y0002600D01*
X0002600Y0002600D01*
D11*
X0070110Y0185100D03*
X0077590Y0185100D03*
X0077196Y0200100D03*
X0070504Y0200100D03*
X0070110Y0213850D03*
X0077590Y0213850D03*
X0141360Y0212600D03*
X0148840Y0212600D03*
X0148446Y0198850D03*
X0141754Y0198850D03*
X0141360Y0185100D03*
X0148840Y0185100D03*
X0211360Y0185100D03*
X0218840Y0185100D03*
X0218446Y0198850D03*
X0211754Y0198850D03*
X0211360Y0212600D03*
X0218840Y0212600D03*
X0280110Y0212600D03*
X0287590Y0212600D03*
X0287196Y0198850D03*
X0280504Y0198850D03*
X0280110Y0185100D03*
X0287590Y0185100D03*
D12*
X0077600Y0280100D03*
D13*
X0057600Y0280100D03*
D14*
X0059076Y0169116D03*
X0059076Y0166557D03*
X0059076Y0163998D03*
X0059076Y0161439D03*
X0059076Y0158880D03*
X0059076Y0156320D03*
X0059076Y0153761D03*
X0059076Y0151202D03*
X0059076Y0148643D03*
X0059076Y0146084D03*
X0081124Y0146084D03*
X0081124Y0148643D03*
X0081124Y0151202D03*
X0081124Y0153761D03*
X0081124Y0156320D03*
X0081124Y0158880D03*
X0081124Y0161439D03*
X0081124Y0163998D03*
X0081124Y0166557D03*
X0081124Y0169116D03*
X0130326Y0169116D03*
X0130326Y0166557D03*
X0130326Y0163998D03*
X0130326Y0161439D03*
X0130326Y0158880D03*
X0130326Y0156320D03*
X0130326Y0153761D03*
X0130326Y0151202D03*
X0130326Y0148643D03*
X0130326Y0146084D03*
X0152374Y0146084D03*
X0152374Y0148643D03*
X0152374Y0151202D03*
X0152374Y0153761D03*
X0152374Y0156320D03*
X0152374Y0158880D03*
X0152374Y0161439D03*
X0152374Y0163998D03*
X0152374Y0166557D03*
X0152374Y0169116D03*
X0200326Y0169116D03*
X0200326Y0166557D03*
X0200326Y0163998D03*
X0200326Y0161439D03*
X0200326Y0158880D03*
X0200326Y0156320D03*
X0200326Y0153761D03*
X0200326Y0151202D03*
X0200326Y0148643D03*
X0200326Y0146084D03*
X0222374Y0146084D03*
X0222374Y0148643D03*
X0222374Y0151202D03*
X0222374Y0153761D03*
X0222374Y0156320D03*
X0222374Y0158880D03*
X0222374Y0161439D03*
X0222374Y0163998D03*
X0222374Y0166557D03*
X0222374Y0169116D03*
X0269076Y0169116D03*
X0269076Y0166557D03*
X0269076Y0163998D03*
X0269076Y0161439D03*
X0269076Y0158880D03*
X0269076Y0156320D03*
X0269076Y0153761D03*
X0269076Y0151202D03*
X0269076Y0148643D03*
X0269076Y0146084D03*
X0291124Y0146084D03*
X0291124Y0148643D03*
X0291124Y0151202D03*
X0291124Y0153761D03*
X0291124Y0156320D03*
X0291124Y0158880D03*
X0291124Y0161439D03*
X0291124Y0163998D03*
X0291124Y0166557D03*
X0291124Y0169116D03*
D15*
X0285513Y0164352D02*
X0274687Y0164352D01*
X0274687Y0150848D01*
X0285513Y0150848D01*
X0285513Y0164352D01*
X0285513Y0164118D02*
X0274687Y0164118D01*
X0274687Y0163619D02*
X0285513Y0163619D01*
X0285513Y0163121D02*
X0274687Y0163121D01*
X0274687Y0162622D02*
X0285513Y0162622D01*
X0285513Y0162124D02*
X0274687Y0162124D01*
X0274687Y0161625D02*
X0285513Y0161625D01*
X0285513Y0161127D02*
X0274687Y0161127D01*
X0274687Y0160628D02*
X0285513Y0160628D01*
X0285513Y0160130D02*
X0274687Y0160130D01*
X0274687Y0159631D02*
X0285513Y0159631D01*
X0285513Y0159133D02*
X0274687Y0159133D01*
X0274687Y0158634D02*
X0285513Y0158634D01*
X0285513Y0158136D02*
X0274687Y0158136D01*
X0274687Y0157637D02*
X0285513Y0157637D01*
X0285513Y0157139D02*
X0274687Y0157139D01*
X0274687Y0156640D02*
X0285513Y0156640D01*
X0285513Y0156141D02*
X0274687Y0156141D01*
X0274687Y0155643D02*
X0285513Y0155643D01*
X0285513Y0155144D02*
X0274687Y0155144D01*
X0274687Y0154646D02*
X0285513Y0154646D01*
X0285513Y0154147D02*
X0274687Y0154147D01*
X0274687Y0153649D02*
X0285513Y0153649D01*
X0285513Y0153150D02*
X0274687Y0153150D01*
X0274687Y0152652D02*
X0285513Y0152652D01*
X0285513Y0152153D02*
X0274687Y0152153D01*
X0274687Y0151655D02*
X0285513Y0151655D01*
X0285513Y0151156D02*
X0274687Y0151156D01*
X0216763Y0151156D02*
X0205937Y0151156D01*
X0205937Y0150848D02*
X0205937Y0164352D01*
X0216763Y0164352D01*
X0216763Y0150848D01*
X0205937Y0150848D01*
X0205937Y0151655D02*
X0216763Y0151655D01*
X0216763Y0152153D02*
X0205937Y0152153D01*
X0205937Y0152652D02*
X0216763Y0152652D01*
X0216763Y0153150D02*
X0205937Y0153150D01*
X0205937Y0153649D02*
X0216763Y0153649D01*
X0216763Y0154147D02*
X0205937Y0154147D01*
X0205937Y0154646D02*
X0216763Y0154646D01*
X0216763Y0155144D02*
X0205937Y0155144D01*
X0205937Y0155643D02*
X0216763Y0155643D01*
X0216763Y0156141D02*
X0205937Y0156141D01*
X0205937Y0156640D02*
X0216763Y0156640D01*
X0216763Y0157139D02*
X0205937Y0157139D01*
X0205937Y0157637D02*
X0216763Y0157637D01*
X0216763Y0158136D02*
X0205937Y0158136D01*
X0205937Y0158634D02*
X0216763Y0158634D01*
X0216763Y0159133D02*
X0205937Y0159133D01*
X0205937Y0159631D02*
X0216763Y0159631D01*
X0216763Y0160130D02*
X0205937Y0160130D01*
X0205937Y0160628D02*
X0216763Y0160628D01*
X0216763Y0161127D02*
X0205937Y0161127D01*
X0205937Y0161625D02*
X0216763Y0161625D01*
X0216763Y0162124D02*
X0205937Y0162124D01*
X0205937Y0162622D02*
X0216763Y0162622D01*
X0216763Y0163121D02*
X0205937Y0163121D01*
X0205937Y0163619D02*
X0216763Y0163619D01*
X0216763Y0164118D02*
X0205937Y0164118D01*
X0146763Y0164118D02*
X0135937Y0164118D01*
X0135937Y0164352D02*
X0146763Y0164352D01*
X0146763Y0150848D01*
X0135937Y0150848D01*
X0135937Y0164352D01*
X0135937Y0163619D02*
X0146763Y0163619D01*
X0146763Y0163121D02*
X0135937Y0163121D01*
X0135937Y0162622D02*
X0146763Y0162622D01*
X0146763Y0162124D02*
X0135937Y0162124D01*
X0135937Y0161625D02*
X0146763Y0161625D01*
X0146763Y0161127D02*
X0135937Y0161127D01*
X0135937Y0160628D02*
X0146763Y0160628D01*
X0146763Y0160130D02*
X0135937Y0160130D01*
X0135937Y0159631D02*
X0146763Y0159631D01*
X0146763Y0159133D02*
X0135937Y0159133D01*
X0135937Y0158634D02*
X0146763Y0158634D01*
X0146763Y0158136D02*
X0135937Y0158136D01*
X0135937Y0157637D02*
X0146763Y0157637D01*
X0146763Y0157139D02*
X0135937Y0157139D01*
X0135937Y0156640D02*
X0146763Y0156640D01*
X0146763Y0156141D02*
X0135937Y0156141D01*
X0135937Y0155643D02*
X0146763Y0155643D01*
X0146763Y0155144D02*
X0135937Y0155144D01*
X0135937Y0154646D02*
X0146763Y0154646D01*
X0146763Y0154147D02*
X0135937Y0154147D01*
X0135937Y0153649D02*
X0146763Y0153649D01*
X0146763Y0153150D02*
X0135937Y0153150D01*
X0135937Y0152652D02*
X0146763Y0152652D01*
X0146763Y0152153D02*
X0135937Y0152153D01*
X0135937Y0151655D02*
X0146763Y0151655D01*
X0146763Y0151156D02*
X0135937Y0151156D01*
X0075513Y0151156D02*
X0064687Y0151156D01*
X0064687Y0150848D02*
X0064687Y0164352D01*
X0075513Y0164352D01*
X0075513Y0150848D01*
X0064687Y0150848D01*
X0064687Y0151655D02*
X0075513Y0151655D01*
X0075513Y0152153D02*
X0064687Y0152153D01*
X0064687Y0152652D02*
X0075513Y0152652D01*
X0075513Y0153150D02*
X0064687Y0153150D01*
X0064687Y0153649D02*
X0075513Y0153649D01*
X0075513Y0154147D02*
X0064687Y0154147D01*
X0064687Y0154646D02*
X0075513Y0154646D01*
X0075513Y0155144D02*
X0064687Y0155144D01*
X0064687Y0155643D02*
X0075513Y0155643D01*
X0075513Y0156141D02*
X0064687Y0156141D01*
X0064687Y0156640D02*
X0075513Y0156640D01*
X0075513Y0157139D02*
X0064687Y0157139D01*
X0064687Y0157637D02*
X0075513Y0157637D01*
X0075513Y0158136D02*
X0064687Y0158136D01*
X0064687Y0158634D02*
X0075513Y0158634D01*
X0075513Y0159133D02*
X0064687Y0159133D01*
X0064687Y0159631D02*
X0075513Y0159631D01*
X0075513Y0160130D02*
X0064687Y0160130D01*
X0064687Y0160628D02*
X0075513Y0160628D01*
X0075513Y0161127D02*
X0064687Y0161127D01*
X0064687Y0161625D02*
X0075513Y0161625D01*
X0075513Y0162124D02*
X0064687Y0162124D01*
X0064687Y0162622D02*
X0075513Y0162622D01*
X0075513Y0163121D02*
X0064687Y0163121D01*
X0064687Y0163619D02*
X0075513Y0163619D01*
X0075513Y0164118D02*
X0064687Y0164118D01*
D16*
X0065100Y0110100D03*
X0137600Y0110100D03*
X0205100Y0110100D03*
X0275100Y0110100D03*
D17*
X0275100Y0100100D03*
X0275100Y0090100D03*
X0275100Y0080100D03*
X0275100Y0070100D03*
X0275100Y0060100D03*
X0275100Y0050100D03*
X0275100Y0040100D03*
X0285100Y0040100D03*
X0285100Y0050100D03*
X0285100Y0060100D03*
X0285100Y0070100D03*
X0285100Y0080100D03*
X0285100Y0090100D03*
X0285100Y0100100D03*
X0285100Y0110100D03*
X0215100Y0110100D03*
X0215100Y0100100D03*
X0215100Y0090100D03*
X0215100Y0080100D03*
X0215100Y0070100D03*
X0215100Y0060100D03*
X0215100Y0050100D03*
X0215100Y0040100D03*
X0205100Y0040100D03*
X0205100Y0050100D03*
X0205100Y0060100D03*
X0205100Y0070100D03*
X0205100Y0080100D03*
X0205100Y0090100D03*
X0205100Y0100100D03*
X0147600Y0100100D03*
X0147600Y0090100D03*
X0147600Y0080100D03*
X0147600Y0070100D03*
X0147600Y0060100D03*
X0147600Y0050100D03*
X0147600Y0040100D03*
X0137600Y0040100D03*
X0137600Y0050100D03*
X0137600Y0060100D03*
X0137600Y0070100D03*
X0137600Y0080100D03*
X0137600Y0090100D03*
X0137600Y0100100D03*
X0147600Y0110100D03*
X0075100Y0110100D03*
X0075100Y0100100D03*
X0075100Y0090100D03*
X0075100Y0080100D03*
X0075100Y0070100D03*
X0075100Y0060100D03*
X0075100Y0050100D03*
X0075100Y0040100D03*
X0065100Y0040100D03*
X0065100Y0050100D03*
X0065100Y0060100D03*
X0065100Y0070100D03*
X0065100Y0080100D03*
X0065100Y0090100D03*
X0065100Y0100100D03*
D18*
X0330100Y0202216D03*
X0330100Y0210484D03*
D19*
X0258850Y0212100D03*
X0258850Y0178100D03*
X0188850Y0178100D03*
X0188850Y0212100D03*
X0121350Y0212100D03*
X0121350Y0178100D03*
X0052600Y0179350D03*
X0052600Y0213350D03*
D20*
X0052600Y0200387D03*
X0052600Y0192313D03*
X0121350Y0191063D03*
X0121350Y0199137D03*
X0188850Y0199137D03*
X0188850Y0191063D03*
X0258850Y0191063D03*
X0258850Y0199137D03*
D21*
X0330100Y0226360D03*
X0330100Y0233840D03*
X0143850Y0258860D03*
X0143850Y0266340D03*
D22*
X0022600Y0310100D03*
X0022600Y0022600D03*
X0332600Y0022600D03*
X0332600Y0308850D03*
D23*
X0301350Y0301819D02*
X0301350Y0295881D01*
X0291350Y0295881D02*
X0291350Y0301819D01*
X0281350Y0301819D02*
X0281350Y0295881D01*
X0271350Y0295881D02*
X0271350Y0301819D01*
X0271350Y0241819D02*
X0271350Y0235881D01*
X0281350Y0235881D02*
X0281350Y0241819D01*
X0291350Y0241819D02*
X0291350Y0235881D01*
X0301350Y0235881D02*
X0301350Y0241819D01*
X0339631Y0160100D02*
X0345569Y0160100D01*
X0345569Y0150100D02*
X0339631Y0150100D01*
X0205569Y0260100D02*
X0199631Y0260100D01*
X0199631Y0270100D02*
X0205569Y0270100D01*
X0201350Y0295881D02*
X0201350Y0301819D01*
X0191350Y0301819D02*
X0191350Y0295881D01*
X0181350Y0295881D02*
X0181350Y0301819D01*
X0171350Y0301819D02*
X0171350Y0295881D01*
X0146350Y0315881D02*
X0146350Y0321819D01*
X0136350Y0321819D02*
X0136350Y0315881D01*
X0113850Y0315881D02*
X0113850Y0321819D01*
X0103850Y0321819D02*
X0103850Y0315881D01*
X0077600Y0315881D02*
X0077600Y0321819D01*
X0067600Y0321819D02*
X0067600Y0315881D01*
X0171350Y0241819D02*
X0171350Y0235881D01*
X0181350Y0235881D02*
X0181350Y0241819D01*
X0191350Y0241819D02*
X0191350Y0235881D01*
X0201350Y0235881D02*
X0201350Y0241819D01*
D24*
X0171350Y0258850D03*
X0171350Y0268850D03*
D25*
X0119756Y0257600D03*
D26*
X0119756Y0267600D03*
X0119756Y0277600D03*
M02*
